<svg xmlns="http://www.w3.org/2000/svg" viewBox="0 0 36 36"><path fill="#EEE" d="M0 13h36v10H0z"/><path fill="#007a3d" d="M32 5H4C1.791 5 0 6.791 0 9v4h36V9c0-2.209-1.791-4-4-4z"/><path fill="#141414" d="M32 31H4c-2.209 0-4-1.791-4-4v-4h36v4c0 2.209-1.791 4-4 4z"/><path d="m 24.812134,18.360896 -0.633,1.947 1.656,-1.203 1.656,1.203 -0.633,-1.947 1.656,-1.202 h -2.047 l -0.632,-1.947 -0.632,1.947 h -2.047 z" fill="#ce1126"/><path d="m 17.163618,18.37661 -0.633,1.947 1.656,-1.203 1.656,1.203 -0.633,-1.947 1.656,-1.202 h -2.047 l -0.632,-1.947 -0.632,1.947 h -2.047 z" fill="#ce1126"/><path d="m 9.177,18.332 -0.633,1.947 1.656,-1.203 1.656,1.203 -0.633,-1.947 1.656,-1.202 H 10.832 L 10.2,15.183 9.568,17.13 H 7.521 Z" fill="#ce1126"/></svg>