<svg xmlns="http://www.w3.org/2000/svg" viewBox="0 0 36 36"><path fill="#eeeeee" d="m 0,13.666 h 36 v 8.665837 H 0 Z"/><path fill="#007a3d" d="M 32,5 H 4 C 1.791,5 0,6.9400641 0,9.3329181 V 13.665837 H 36 V 9.3329181 C 36,6.9400641 34.209,5 32,5 Z"/><path fill="#141414" d="M 32,30.998837 H 4 c -2.209,0 -4,-1.940064 -4,-4.332919 V 22.333 h 36 v 4.332918 c 0,2.392855 -1.791,4.332919 -4,4.332919 z"/><path d="m 24.977,18.479284 -0.633,1.945321 1.656,-1.201962 1.656,1.201962 -0.633,-1.945321 1.656,-1.200963 H 26.632 L 26,15.333 25.368,17.278321 h -2.047 z" fill="#ce1126"/><path d="m 16.977,18.479284 -0.633,1.945321 1.656,-1.201963 1.656,1.201963 -0.633,-1.945321 1.656,-1.200963 H 18.632 L 18,15.333 17.368,17.278321 h -2.047 z" fill="#ce1126"/><path d="M 8.977,18.479284 8.344,20.424605 10,19.222643 l 1.656,1.201962 -0.633,-1.945321 1.656,-1.200963 H 10.632 L 10,15.333 9.368,17.278321 H 7.321 Z" fill="#ce1126"/></svg>