<svg xmlns="http://www.w3.org/2000/svg" viewBox="0 0 36 36"><path fill="#F2C994" d="M27 33c0 2.209-1.791 3-4 3H13c-2.209 0-4-.791-4-3s3-7 3-13 12-6 12 0 3 10.791 3 13"/><path fill="#C1694F" d="m34.666 11.189-.001-.002a17.9 17.9 0 0 0-4.208-6.182h-.003A17.92 17.92 0 0 0 18 0 17.96 17.96 0 0 0 0 18a4 4 0 0 0 4 4h28a4 4 0 0 0 4-4c0-2.417-.48-4.713-1.334-6.811"/><path fill="#CC927A" d="M11.771 10.934c1.546-1.547 1.86-3.74.7-4.9s-3.353-.846-4.9.7c-1.546 1.546-1.86 3.74-.7 4.9s3.354.846 4.9-.7"/></svg>