<?xml version="1.0" encoding="UTF-8" standalone="no"?>
<svg
   viewBox="0 0 36 36"
   version="1.1"
   id="svg4"
   sodipodi:docname="1f34b-200d-1f7e9.svg"
   inkscape:version="1.3 (0e150ed6c4, 2023-07-21)"
   xmlns:inkscape="http://www.inkscape.org/namespaces/inkscape"
   xmlns:sodipodi="http://sodipodi.sourceforge.net/DTD/sodipodi-0.dtd"
   xmlns="http://www.w3.org/2000/svg"
   xmlns:svg="http://www.w3.org/2000/svg">
  <defs
     id="defs4" />
  <sodipodi:namedview
     id="namedview4"
     pagecolor="#ffffff"
     bordercolor="#000000"
     borderopacity="0.25"
     inkscape:showpageshadow="2"
     inkscape:pageopacity="0.0"
     inkscape:pagecheckerboard="0"
     inkscape:deskcolor="#d1d1d1"
     inkscape:zoom="14.416667"
     inkscape:cx="18"
     inkscape:cy="18"
     inkscape:window-width="1366"
     inkscape:window-height="697"
     inkscape:window-x="-8"
     inkscape:window-y="-8"
     inkscape:window-maximized="1"
     inkscape:current-layer="svg4" />
  <path
     fill="#5C913B"
     d="M11.405 3.339c6.48-1.275 8.453 1.265 11.655.084 3.202-1.181.093 2.82-.745 3.508-.84.688-8.141 4.809-11.307 3.298-3.166-1.511-3.182-6.186.397-6.89z"
     id="path1"
     style="fill:#3e721d;fill-opacity:1" />
  <path
     fill="#77B255"
     d="M15.001 16c-.304 0-.605-.138-.801-.4-.687-.916-1.308-1.955-1.965-3.056C9.967 8.749 7.396 4.446.783 2.976c-.539-.12-.879-.654-.759-1.193.12-.54.654-.878 1.193-.759C8.671 2.68 11.599 7.581 13.952 11.519c.63 1.054 1.224 2.049 1.848 2.881.332.442.242 1.069-.2 1.4-.18.135-.39.2-.599.2z"
     id="path2"
     style="fill:#5c913b;fill-opacity:1" />
  <path
     fill="#FFCC4D"
     d="M34.3 31.534c.002-.017-.003-.028-.003-.043 2.774-5.335 2.647-15.113-3.346-21.107-5.801-5.8-13.68-5.821-18.767-4.067-1.579.614-2.917.066-3.815.965-.881.881-.351 2.719-.714 3.819-3.169 5.202-3.405 13.025 2.688 19.117 4.962 4.962 10.438 6.842 19.98 4.853.002-.002.005-.001.008-.002 1.148-.218 2.95.523 3.566-.094 1.085-1.085.309-2.358.403-3.441z"
     id="path3"
     style="fill:#77b255;fill-opacity:1" />
  <path
     fill="#77B255"
     d="M8.208 6.583s-4.27-.59-6.857 4.599c-2.587 5.188.582 9.125.29 12.653-.293 3.53 1.566 1.265 2.621-.445s4.23-4.895 4.938-9.269c.707-4.376-.07-6.458-.992-7.538z"
     id="path4"
     style="fill:#5c913b;fill-opacity:1" />
</svg>
