<?xml version="1.0" encoding="utf-8"?>
<!-- Generator: Adobe Illustrator 26.0.2, SVG Export Plug-In . SVG Version: 6.00 Build 0)  -->
<svg version="1.1" id="Layer_3" xmlns="http://www.w3.org/2000/svg" xmlns:xlink="http://www.w3.org/1999/xlink" x="0px" y="0px"
	 viewBox="0 0 72 72" style="enable-background:new 0 0 72 72;" xml:space="preserve">
<style type="text/css">
	.st0{fill:#FFCC4D;}
	.st1{fill:#614613;}
	.st2{fill:#4FACF0;}
	.st3{fill:#C8D4D9;}
	.st4{fill:#E1E7EB;}
	.st5{fill:#EDF0F3;}
	.st6{fill:#9BA8B3;}
	.st7{fill:#FA743E;}
	.st8{fill:#3B88C3;}
	.st9{fill:none;}
	.st10{fill:#FFFFFF;}
	.st11{fill:#C6E5B3;}
	.st12{fill:#77B255;}
	.st13{fill:#4E932B;}
	.st14{fill:#F47C01;}
	.st15{fill:#F4531F;}
	.st16{fill:#FEA726;}
</style>
<g>
	<path class="st11" d="M14.43,18.23C9.46,31.06,15.86,45.54,28.7,50.51s27.31-1.43,32.28-14.27L14.43,18.23z"/>
	<path class="st12" d="M31.72,48.06c4.36,1.26,8.86,1.07,12.93-0.31c0.7-0.24,1.06-1.03,0.76-1.71l-6.45-14.59
		c-0.45-1.02-1.92-0.99-2.32,0.05c-1.62,4.2-4.61,11.9-5.77,14.9C30.61,47.09,31.01,47.85,31.72,48.06z"/>
	<path class="st12" d="M17.03,20.7c-1.44,4.54-1.28,9.24,0.16,13.49c0.24,0.71,1.03,1.06,1.71,0.76l15.3-6.76
		c1.02-0.45,0.99-1.92-0.05-2.32l-15.46-5.98C18.01,19.61,17.25,20,17.03,20.7z"/>
	<path class="st12" d="M56.71,34.59l-15.46-5.98c-1.04-0.4-2.05,0.66-1.6,1.68l6.76,15.3c0.3,0.68,1.12,0.95,1.78,0.59
		c3.93-2.17,7.21-5.54,9.2-9.86C57.7,35.65,57.4,34.86,56.71,34.59z"/>
	<path class="st12" d="M18.76,37.72c2.08,3.76,5.28,6.93,9.35,8.93c0.67,0.33,1.48,0.03,1.75-0.66c1.16-3,4.14-10.7,5.77-14.9
		c0.4-1.04-0.66-2.05-1.68-1.6l-14.59,6.45C18.67,36.25,18.4,37.07,18.76,37.72z"/>
	<path class="st13" d="M60.98,36.24C56.01,49.08,41.53,55.48,28.7,50.51S9.46,31.06,14.43,18.23l-1.69-0.65
		c-0.75-0.29-1.6,0.08-1.89,0.83l-0.5,1.3c-5.6,14.47,1.24,30.98,15.64,36.77c14.63,5.88,31.19-1.34,36.86-16l0.65-1.69
		c0.29-0.75-0.08-1.6-0.83-1.89L60.98,36.24z"/>
</g>
</svg>
