<svg xmlns="http://www.w3.org/2000/svg" viewBox="0 0 45 45"><path fill="#003776" d="m 45,33.75 c 0,2.761 -2.239,5 -5,5 H 5 c -2.761,0 -5,-2.239 -5,-5 v -22.5 c 0,-2.761 2.239,-5 5,-5 h 35 c 2.761,0 5,2.239 5,5 z"/><path fill="#FDD200" d="m 32.399685,29.660148 c 0,0.53 -0.27,0.85 -0.42,1 -0.15,0.15 -0.19,0.42 -0.19,0.42 0,0 -3.89,2.47 -9.28,2.47 -5.39,0 -9.28,-2.47 -9.28,-2.47 0,0 -0.04,-0.27 -0.19,-0.42 -0.15,-0.15 -0.42,-0.47 -0.42,-1 0,-0.38 0.12,-1.25 0.76,-1.71 0,0 0.01,-0.01 0.03,-0.02 0.03,-0.04 0.08,-0.1 0.07,-0.13 -0.03,-0.08 -0.23,0.19 -0.38,0.19 -0.16,0 -0.14,-0.3 0,-0.46 0.13,-0.16 0.38,-0.16 0.45,-0.09 0.07,0.07 0.05,0.15 0.11,0.22 0.08,0.09 0.14,0.07 0.14,0.07 0.18,-0.06 0.39,-0.09 0.62,-0.09 0.83,0 1.32,0.66 1.32,1.29 0,0.28 -0.22,0.85 -0.89,0.93 l 0.24,0.27 c 0,0 -0.03,0.05 -0.25,-0.01 -0.13,-0.04 -0.26,-0.17 -0.34,-0.27 -0.3,-0.08 -0.49,-0.4 -0.49,-0.66 0,-0.13 0.05,-0.29 0.14,-0.41 l -0.22,-0.13 c 0,0 0.01,-0.04 0.17,-0.04 0.05,0 0.11,0.02 0.17,0.06 0.08,-0.08 0.19,-0.12 0.32,-0.12 0.19,0 0.3,0.25 0.23,0.39 -0.09,0.15 -0.42,0.1 -0.42,0.1 0,0.04 0.01,0.47 0.43,0.47 0.75,0 0.62,-1.38 -0.38,-1.38 -1.78,0 -1.47,2.71 0.05,2.71 1.23,0 1.24,-1 1.24,-1.03 0,0 2.99,1.46 6.77,1.46 3.78,0 6.77,-1.46 6.77,-1.46 0,0.03 0.01,1.03 1.24,1.03 1.52,0 1.83,-2.71 0.05,-2.71 -1,0 -1.13,1.38 -0.38,1.38 0.42,0 0.43,-0.43 0.43,-0.47 0,0 -0.33,0.05 -0.42,-0.1 -0.07,-0.14 0.04,-0.39 0.23,-0.39 0.13,0 0.24,0.04 0.32,0.12 0.06,-0.04 0.12,-0.06 0.17,-0.06 0.16,0 0.17,0.04 0.17,0.04 l -0.22,0.13 c 0.09,0.12 0.14,0.28 0.14,0.41 0,0.26 -0.19,0.58 -0.49,0.66 -0.08,0.1 -0.21,0.23 -0.34,0.27 -0.22,0.06 -0.25,0.01 -0.25,0.01 l 0.24,-0.27 c -0.67,-0.08 -0.89,-0.65 -0.89,-0.93 0,-0.63 0.49,-1.29 1.32,-1.29 0.23,0 0.44,0.03 0.62,0.09 0,0 0.06,0.02 0.14,-0.07 0.06,-0.07 0.04,-0.15 0.11,-0.22 0.07,-0.07 0.32,-0.07 0.45,0.09 0.14,0.16 0.16,0.46 0,0.46 -0.15,0 -0.35,-0.27 -0.38,-0.19 -0.01,0.03 0.04,0.09 0.07,0.13 0.02,0.01 0.03,0.02 0.03,0.02 0.639993,0.46 0.759993,1.33 0.759993,1.71"/><path fill="#EF1439" d="m 31.039901,31.199936 c 0,0 -3.43,2.1 -8.53,2.1 -5.1,0 -8.53,-2.1 -8.53,-2.1 0,0 0.78,0.22 1.35,-0.03 0.58,-0.24 0.67,-0.84 0.67,-0.84 0,0 3.19,1.29 6.51,1.29 3.32,0 6.51,-1.29 6.51,-1.29 0,0 0.09,0.6 0.66,0.84 0.58,0.25 1.36,0.03 1.36,0.03"/><path fill="#FCD100" d="m 29.643366,21.484193 c 0,-3.930999 -3.187,-7.117999 -7.118,-7.117999 -3.931,0 -7.118,3.187 -7.118,7.117999 0,3.931 3.187,7.119001 7.118,7.119001 3.931,0 7.118,-3.188001 7.118,-7.119001"/><path fill="#FFFFFF" d="m 22.658441,27.512094 h 0.453001 l -0.382001,0.264 0.167,0.463 -0.384,-0.296 -0.384999,0.296 0.167,-0.463 -0.382001,-0.264 h 0.453 l 0.147,-0.43 z"/><path fill="#D50000" d="m 28.062327,21.484193 c 0,-3.057999 -2.479001,-5.536 -5.536001,-5.536 -3.057999,0 -5.537,2.478001 -5.537,5.536 0,3.058 2.479001,5.537 5.537,5.537 3.057,0 5.536001,-2.479 5.536001,-5.537"/><path fill="#7DB379" d="m 27.493812,23.389991 c -0.766,1.996 -2.700999,3.412 -4.967,3.412 -2.268,0 -4.202,-1.416 -4.969,-3.413 z"/><path fill="#FF9120" d="m 27.493812,23.389991 c 0.125,-0.324 0.217,-0.664 0.277,-1.015 h -10.49 c 0.059,0.351 0.153,0.69 0.277,1.014 z"/><path fill="#7DB3D5" d="m 27.770569,22.375216 c 0.049,-0.289001 0.075,-0.588 0.075,-0.891 0,-2.938001 -2.381999,-5.319 -5.32,-5.319 -2.937,0 -5.318999,2.380999 -5.318999,5.319 0,0.303 0.025,0.601 0.074,0.891 z"/><path fill="#875C4B" d="m 27.849321,21.499944 c 0,2.34 -1.52,4.32 -3.62,5.03 v -2.28 l 0.47,-0.66 h 0.54 l 0.19,-0.18 h 1.07 l 0.05,-0.18 0.21,-0.21 0.06,-0.33 0.14,-0.13 0.07,-0.52 0.1,-0.13 0.01,-0.33 0.11,-0.1 0.06,-0.39 -0.08,-0.25 0.06,-0.36 0.06,-0.23 0.06,-0.09 0.01,-0.25 0.15,-0.09 c 0.179994,0.53 0.279994,1.09 0.279994,1.68"/><path fill="#FFFFFF" d="m 25.189755,17.279588 v 0.7 c 0,0 -0.07,0.15 -0.4,0.15 -0.54,0 -1.65,-0.99 -2.83,-0.99 -0.7,0 -1.09,0.25 -1.33,0.51 l 0.28,0.27 c 0,0 0.06,0.08 0.06,0.16 0,0.17 -0.23,0.29 -0.29,0.32 0,-0.02 0.03,-0.14 0.03,-0.23 0,-0.11 -0.01,-0.17 -0.01,-0.17 0,0 -0.07,0.09 -0.16,0.18 -0.1,0.1 -0.21,0.13 -0.21,0.13 -0.02,0 -0.14,-0.01 -0.35,-0.23 -0.22,-0.22 -0.23,-0.38 -0.23,-0.38 0,0 0.15,-0.47 0.64,-0.82 0.34,-0.24 0.96,-0.5 1.67,-0.5 1.13,0 1.84,0.52 2.37,0.78 v -0.19 c 0,0 0.01,-0.13 0.18,-0.13 0.18,0 0.31,0.02 0.31,0.02 l -0.3,0.16 c 0,0 -0.05,0.09 0.25,0.1 0.31,0 0.32,0.16 0.32,0.16"/><path fill="#B5A886" d="m 22.650941,18.979881 v -0.08 l 0.225,-0.103 0.269,-0.092 0.348001,-0.338999 0.210999,-0.299 h 0.201 l 0.101001,0.137999 0.028,0.219001 h 0.025 l -0.012,-0.375 0.076,-0.258 -0.034,-0.037 -0.095,0.251 -0.31,-0.032 -0.092,-0.548 -0.099,-0.161 0.073,0.361 0.037,0.394 -0.122,0.241 -0.12,0.092 v -0.412 l -0.055,-0.274 -0.034,0.065 0.034,0.292 v 0.26 l -0.108001,0.256 -0.209,0.145 -0.171,0.034 0.016,-0.347 -0.032,-0.426 h -0.032 l -0.005,0.684001 -0.066,0.114999 -0.074,0.046 h -0.113 l -0.167999,-0.081 -0.117,-0.156 -0.044,-0.201 h -0.037 l 0.032,0.267 0.111,0.155 0.211001,0.112 -0.096,0.122 z"/><path fill="#B5A886" d="m 22.239931,18.978381 -0.028,-0.101 -0.253,-0.134001 -0.11,-0.220999 -0.023,-0.133001 0.103,-0.397999 0.104,0.032 0.254999,0.304 0.026,-0.028 -0.092,-0.18 0.023,-0.115 0.089,-0.228 -0.025,-0.057 -0.051,0.175001 -0.112,0.131 -0.152,-0.113 -0.097,-0.032 -0.037,-0.516 h -0.034 l -0.014,0.688999 -0.061,0.338001 -0.107,0.041 -0.129001,-0.041 -0.012,-0.092 -0.092,-0.051 0.019,-0.216 -0.058,-0.074 -0.062,0.194 0.019,0.255 0.207,0.355 0.215,0.115 h 0.282 l 0.062,0.172 z"/><path fill="#875C4B" d="m 23.165454,20.13641 -0.299,-0.638 -0.039,-0.177001 -0.044,-0.09 0.133,-0.092 0.134,-0.195001 v -0.067 l -0.187,0.037 -0.213,0.066 -0.429999,-0.022 -0.159,0.071 -0.178001,-0.077 H 21.75145 l 0.12,0.23 0.079,0.003 0.003,0.135 -0.147,0.186 0.062,0.146 0.095,0.066 h 0.199008 l -0.089,0.148999 0.058,0.024 -0.051,0.177 z"/><path fill="#000000" d="m 22.498687,24.585521 -0.097,-0.118 c 0,-9.75e-4 -0.135001,-0.16 -0.438001,-0.258 -0.648,-0.21 -1.508,-0.619 -1.508,-1.752 0,-0.251 0.024,-0.41 0.047,-0.563 0.021,-0.139 0.041,-0.269 0.041,-0.463 0,-0.47 -0.22,-0.686 -0.23,-0.696 l -0.092,-0.088 0.924,-0.928 0.089,0.079 c 0.003,0.002 0.236,0.209 0.615,0.266 0.358,0.054 0.558,-0.124 0.566,-0.131 l 0.084,-0.075 0.084,0.076 c 0.009,0.007 0.208,0.184999 0.566,0.13 0.382,-0.058 0.611,-0.263 0.614,-0.265001 l 0.088,-0.081 0.93,0.93 -0.095,0.088 c -0.009,0.009 -0.231,0.225001 -0.231,0.695001 0,0.194 0.02,0.324 0.041,0.463 0.023,0.153 0.047,0.311999 0.047,0.563 0,1.131999 -0.86,1.541999 -1.508,1.751999 -0.303,0.098 -0.437999,0.257 -0.439,0.259001 z"/><path fill="#E4CDAE" d="m 21.830421,20.187411 c -0.425001,-0.064 -0.68,-0.296 -0.68,-0.296 l -0.751,0.754 c 0,0 0.268,0.248 0.268,0.786 0,0.419 -0.087,0.556 -0.087,1.026 0,0.92 0.58,1.36 1.421,1.632 0.348,0.113 0.498,0.299 0.498,0.299 0,0 0.15,-0.186 0.497,-0.299 0.84,-0.272 1.421,-0.712 1.421,-1.632 0,-0.47 -0.087,-0.607 -0.087,-1.026 0,-0.538 0.27,-0.786 0.27,-0.786 l -0.754,-0.754 c 0,0 -0.255,0.232 -0.679,0.296 -0.423,0.064 -0.668,-0.161 -0.668,-0.161 0,0 -0.245,0.225 -0.669,0.161"/></svg>