<svg xmlns="http://www.w3.org/2000/svg" viewBox="0 0 45 45">
<path fill="#0075A9" d="m 0,33.75 c 0,2.761 2.239,5 5,5 h 35 c 2.761,0 5,-2.239 5,-5 v -22.5 c 0,-2.761 -2.239,-5 -5,-5 H 5 c -2.761,0 -5,2.239 -5,5 z"/>
<path fill="#FFC500" d="m 19.773,29.083 0.391,2.131 1.405,-1.65 0.932,1.958 0.93,-1.958 1.405,1.65 0.391,-2.131 1.784,1.229 -0.174,-2.159 2.042,0.726 -0.726,-2.042 2.161,0.173 -1.231,-1.783 2.131,-0.391 -1.65,-1.406 1.958,-0.931 -1.958,-0.93 1.65,-1.405 -2.131,-0.391 1.231,-1.784 -2.161,0.173 0.726,-2.042 -2.042,0.727 0.174,-2.16 -1.784,1.23 -0.392,-2.132 -1.404,1.65 -0.93,-1.957 -0.932,1.957 -1.405,-1.65 -0.391,2.132 -1.784,-1.23 0.173,2.16 -2.041,-0.727 0.726,2.042 -2.16,-0.173 1.23,1.784 -2.132,0.391 1.651,1.405 -1.958,0.93 1.958,0.931 -1.651,1.406 2.132,0.391 -1.23,1.783 2.16,-0.173 -0.726,2.042 2.041,-0.726 -0.173,2.159 z"/>
<path fill="#FFFFFF" d="m 29.635,22.5 c 0,3.94 -3.195,7.135 -7.135,7.135 -3.94,0 -7.135,-3.195 -7.135,-7.135 0,-3.941 3.195,-7.135 7.135,-7.135 3.94,0 7.135,3.194 7.135,7.135"/>
<path fill="#FFC500" d="m 30.946,16.312 -0.36,-0.464 -0.326,0.123 -0.28,-0.361 1.802,-0.577 0.248,0.318 -0.999,1.61 -0.284,-0.364 z m -0.036,-0.586 0.234,0.301 0.37,-0.53 z m 0.008,-1.216 -0.391,-0.364 -0.985,1.061 -0.314,-0.291 0.985,-1.06 -0.385,-0.357 0.227,-0.242 1.088,1.01 z M 29.19,13.749 c -0.095,0.143 -0.206,0.254 -0.334,0.329 -0.126,0.077 -0.26,0.113 -0.398,0.107 -0.138,-0.005 -0.272,-0.049 -0.398,-0.133 -0.126,-0.082 -0.219,-0.186 -0.277,-0.308 -0.06,-0.123 -0.083,-0.256 -0.065,-0.4 0.016,-0.144 0.07,-0.288 0.158,-0.429 l 0.055,-0.084 c 0.097,-0.145 0.208,-0.255 0.335,-0.331 0.127,-0.077 0.259,-0.111 0.399,-0.107 0.139,0.006 0.273,0.051 0.399,0.134 0.126,0.083 0.219,0.187 0.277,0.312 0.059,0.125 0.079,0.259 0.062,0.406 -0.018,0.147 -0.074,0.291 -0.168,0.435 z m -0.322,-0.303 c 0.097,-0.148 0.146,-0.276 0.147,-0.385 10e-4,-0.109 -0.044,-0.192 -0.135,-0.254 -0.18,-0.117 -0.364,-0.046 -0.551,0.217 l -0.073,0.108 c -0.096,0.145 -0.145,0.273 -0.148,0.383 -0.004,0.11 0.042,0.196 0.137,0.259 0.09,0.059 0.185,0.067 0.284,0.022 0.101,-0.044 0.199,-0.139 0.294,-0.281 z m -2.101,-0.87 -0.238,0.106 -0.187,0.431 -0.393,-0.172 0.709,-1.628 0.394,0.17 -0.313,0.72 0.225,-0.148 0.575,-0.359 0.487,0.212 -0.867,0.481 0.155,1.149 -0.465,-0.204 z m -1.523,-0.185 -0.571,-0.137 -0.176,0.298 -0.447,-0.106 1.049,-1.576 0.393,0.094 0.222,1.881 -0.446,-0.108 z m -0.394,-0.435 0.372,0.089 -0.043,-0.644 z m -2.37,0.387 0.11,-1.775 0.572,0.037 c 0.157,0.008 0.295,0.053 0.415,0.132 0.123,0.079 0.213,0.186 0.277,0.319 0.06,0.135 0.087,0.282 0.077,0.442 l -0.005,0.082 c -0.01,0.162 -0.054,0.307 -0.129,0.431 -0.078,0.124 -0.181,0.219 -0.308,0.284 -0.13,0.065 -0.272,0.092 -0.425,0.085 z m 0.517,-1.417 -0.068,1.115 0.147,0.009 c 0.123,0.007 0.22,-0.03 0.291,-0.113 0.072,-0.084 0.113,-0.211 0.124,-0.384 l 0.004,-0.077 c 0.011,-0.171 -0.013,-0.303 -0.074,-0.394 -0.061,-0.09 -0.154,-0.14 -0.28,-0.147 z m -1.864,1.504 -0.418,0.087 -0.151,-0.727 -0.618,0.128 0.152,0.727 -0.42,0.087 -0.362,-1.74 0.42,-0.088 0.144,0.691 0.618,-0.128 -0.144,-0.69 0.417,-0.087 z m -2.254,-0.96 -0.495,0.199 0.539,1.342 -0.398,0.16 -0.538,-1.343 -0.487,0.196 -0.123,-0.308 1.378,-0.554 z m -2.033,0.517 0.612,0.99 c 0.069,0.112 0.106,0.224 0.109,0.335 0.002,0.111 -0.026,0.217 -0.09,0.315 -0.063,0.098 -0.155,0.184 -0.276,0.26 -0.184,0.114 -0.359,0.157 -0.524,0.127 -0.165,-0.03 -0.3,-0.128 -0.405,-0.293 l -0.616,-0.998 0.366,-0.226 0.621,1.004 c 0.106,0.163 0.234,0.199 0.384,0.105 0.076,-0.046 0.12,-0.103 0.132,-0.168 0.014,-0.066 -0.008,-0.144 -0.066,-0.238 l -0.611,-0.986 z m -1.114,1.824 c 0.117,0.129 0.195,0.264 0.237,0.408 0.041,0.141 0.041,0.278 0.001,0.411 -0.04,0.134 -0.116,0.25 -0.229,0.351 -0.114,0.101 -0.236,0.165 -0.37,0.191 -0.134,0.027 -0.269,0.014 -0.402,-0.04 -0.137,-0.052 -0.262,-0.14 -0.375,-0.262 l -0.068,-0.074 c -0.115,-0.13 -0.194,-0.266 -0.235,-0.407 -0.041,-0.143 -0.042,-0.28 -0.001,-0.414 0.04,-0.134 0.116,-0.25 0.23,-0.353 0.112,-0.1 0.236,-0.162 0.371,-0.188 0.136,-0.026 0.273,-0.012 0.41,0.043 0.136,0.055 0.263,0.147 0.378,0.273 z m -0.373,0.235 c -0.118,-0.131 -0.23,-0.211 -0.335,-0.24 -0.105,-0.029 -0.198,-0.006 -0.28,0.066 -0.16,0.144 -0.137,0.34 0.068,0.588 l 0.088,0.099 c 0.116,0.128 0.226,0.209 0.332,0.241 0.105,0.03 0.2,0.007 0.285,-0.068 0.08,-0.072 0.113,-0.162 0.095,-0.27 -0.018,-0.107 -0.085,-0.226 -0.198,-0.355 z m -1.026,1.679 c -0.05,-0.039 -0.101,-0.052 -0.156,-0.039 -0.055,0.013 -0.131,0.053 -0.23,0.117 -0.099,0.065 -0.184,0.113 -0.255,0.147 -0.231,0.111 -0.425,0.105 -0.58,-0.017 -0.077,-0.062 -0.127,-0.138 -0.151,-0.229 -0.024,-0.093 -0.019,-0.191 0.012,-0.3 0.033,-0.109 0.089,-0.215 0.17,-0.318 0.079,-0.1 0.169,-0.176 0.267,-0.227 0.098,-0.051 0.198,-0.073 0.3,-0.065 0.101,0.009 0.193,0.046 0.278,0.112 l -0.265,0.337 c -0.056,-0.045 -0.115,-0.063 -0.172,-0.053 -0.06,0.01 -0.113,0.045 -0.159,0.105 -0.049,0.06 -0.072,0.118 -0.074,0.173 0,0.056 0.02,0.101 0.06,0.132 0.037,0.029 0.084,0.035 0.144,0.02 0.059,-0.016 0.143,-0.06 0.249,-0.131 0.107,-0.073 0.204,-0.126 0.287,-0.159 0.207,-0.082 0.385,-0.064 0.538,0.056 0.122,0.098 0.182,0.219 0.18,0.365 -0.004,0.148 -0.069,0.302 -0.195,0.462 -0.089,0.112 -0.19,0.2 -0.303,0.26 -0.113,0.058 -0.223,0.085 -0.33,0.075 -0.107,-0.01 -0.207,-0.05 -0.298,-0.123 l 0.266,-0.337 c 0.075,0.058 0.145,0.082 0.21,0.072 0.066,-0.011 0.134,-0.06 0.202,-0.147 0.044,-0.055 0.067,-0.109 0.068,-0.159 10e-4,-0.051 -0.019,-0.095 -0.063,-0.129 m 18.622,2.722 0.211,0.64 0.404,-0.134 -0.25,-0.754 0.312,-0.104 0.385,1.161 -1.687,0.559 -0.387,-1.164 0.315,-0.104 0.252,0.758 0.356,-0.118 -0.213,-0.64 z m -0.209,1.654 0.084,0.528 1.428,-0.228 0.068,0.424 -1.429,0.226 0.083,0.518 -0.328,0.051 -0.234,-1.466 z m 1.367,2.143 -0.002,0.587 0.331,0.104 -10e-4,0.458 -1.775,-0.658 0.001,-0.402 1.779,-0.652 -10e-4,0.46 z m -0.332,0.484 10e-4,-0.383 -0.617,0.19 z m -0.802,0.775 -0.086,0.527 1.426,0.233 -0.069,0.423 -1.427,-0.234 -0.085,0.518 -0.327,-0.054 0.24,-1.466 z m 0.459,2.491 c -0.059,-0.022 -0.113,-0.017 -0.16,0.015 -0.048,0.03 -0.108,0.092 -0.179,0.185 -0.072,0.092 -0.136,0.167 -0.192,0.222 -0.183,0.18 -0.368,0.239 -0.554,0.175 -0.093,-0.034 -0.166,-0.089 -0.219,-0.167 -0.051,-0.079 -0.08,-0.175 -0.085,-0.289 -0.006,-0.113 0.013,-0.23 0.056,-0.354 0.042,-0.121 0.102,-0.222 0.177,-0.302 0.077,-0.082 0.163,-0.135 0.261,-0.16 0.097,-0.027 0.197,-0.02 0.3,0.016 l -0.139,0.402 c -0.069,-0.023 -0.129,-0.021 -0.181,0.009 -0.051,0.028 -0.091,0.078 -0.115,0.15 -0.026,0.071 -0.03,0.134 -0.013,0.188 0.019,0.052 0.052,0.088 0.1,0.105 0.044,0.015 0.09,0.005 0.142,-0.029 0.051,-0.034 0.115,-0.103 0.193,-0.205 0.077,-0.104 0.15,-0.185 0.219,-0.245 0.168,-0.145 0.344,-0.186 0.526,-0.123 0.149,0.052 0.244,0.147 0.29,0.287 0.045,0.14 0.034,0.306 -0.033,0.5 -0.047,0.135 -0.113,0.25 -0.202,0.343 -0.086,0.093 -0.181,0.153 -0.286,0.18 -0.104,0.025 -0.211,0.019 -0.322,-0.018 l 0.14,-0.407 c 0.091,0.032 0.165,0.032 0.223,0 0.059,-0.032 0.107,-0.1 0.143,-0.205 0.024,-0.067 0.027,-0.125 0.011,-0.173 -0.015,-0.049 -0.049,-0.082 -0.101,-0.1 m -1.25,2.143 -0.368,0.565 0.357,0.232 0.433,-0.667 0.277,0.179 -0.668,1.026 -1.49,-0.967 0.668,-1.029 0.278,0.179 -0.436,0.67 0.315,0.204 0.368,-0.565 z m -1.346,2.013 -0.156,0.171 0.464,0.425 -0.289,0.317 -1.311,-1.2 0.471,-0.518 c 0.143,-0.155 0.289,-0.245 0.438,-0.269 0.15,-0.025 0.286,0.02 0.412,0.135 0.091,0.084 0.15,0.172 0.176,0.264 0.027,0.091 0.023,0.194 -0.012,0.306 l 0.78,0.21 0.012,0.013 -0.308,0.339 z m -0.398,-0.051 0.182,-0.2 c 0.054,-0.06 0.08,-0.12 0.076,-0.179 -0.004,-0.06 -0.033,-0.115 -0.09,-0.167 -0.056,-0.052 -0.115,-0.077 -0.176,-0.075 -0.06,10e-4 -0.117,0.031 -0.171,0.091 l -0.183,0.199 z m -0.583,0.741 c 0.106,0.137 0.173,0.279 0.205,0.424 0.03,0.145 0.018,0.281 -0.032,0.411 -0.05,0.129 -0.135,0.24 -0.255,0.332 -0.12,0.093 -0.247,0.147 -0.383,0.162 -0.135,0.016 -0.268,-0.007 -0.399,-0.069 -0.13,-0.064 -0.248,-0.16 -0.353,-0.293 l -0.061,-0.078 c -0.106,-0.138 -0.174,-0.28 -0.204,-0.424 -0.03,-0.144 -0.021,-0.283 0.03,-0.411 0.05,-0.132 0.137,-0.242 0.257,-0.335 0.12,-0.092 0.248,-0.145 0.386,-0.16 0.136,-0.014 0.272,0.01 0.404,0.076 0.133,0.065 0.251,0.165 0.355,0.3 z m -0.39,0.206 c -0.108,-0.14 -0.213,-0.23 -0.315,-0.266 -0.103,-0.036 -0.198,-0.02 -0.284,0.045 -0.171,0.131 -0.164,0.329 0.022,0.591 l 0.079,0.105 c 0.106,0.138 0.211,0.228 0.314,0.266 0.102,0.039 0.199,0.023 0.289,-0.045 0.086,-0.066 0.125,-0.153 0.115,-0.262 -0.009,-0.109 -0.067,-0.231 -0.172,-0.369 z m -2.923,0.795 0.895,0.942 -0.181,-1.285 0.509,-0.246 0.771,1.603 -0.387,0.186 -0.179,-0.375 -0.333,-0.783 0.163,1.327 -0.255,0.121 -0.939,-0.953 0.408,0.749 0.18,0.374 -0.387,0.186 -0.771,-1.601 z m -0.484,2.09 -0.414,0.101 -0.176,-0.721 -0.613,0.15 0.176,0.721 -0.416,0.101 -0.422,-1.727 0.416,-0.102 0.169,0.687 0.612,-0.15 -0.167,-0.685 0.413,-0.102 z m -2.556,0.005 c -0.004,-0.063 -0.029,-0.11 -0.077,-0.142 -0.046,-0.032 -0.126,-0.063 -0.24,-0.093 -0.113,-0.03 -0.206,-0.06 -0.28,-0.092 -0.236,-0.098 -0.361,-0.246 -0.373,-0.443 -0.007,-0.098 0.016,-0.188 0.07,-0.265 0.052,-0.081 0.128,-0.143 0.231,-0.192 0.102,-0.049 0.219,-0.076 0.35,-0.085 0.127,-0.008 0.241,0.008 0.346,0.047 0.104,0.039 0.188,0.098 0.249,0.179 0.061,0.08 0.095,0.174 0.102,0.282 l -0.426,0.029 c -0.005,-0.074 -0.03,-0.128 -0.079,-0.165 -0.046,-0.037 -0.107,-0.053 -0.182,-0.048 -0.076,0.005 -0.135,0.025 -0.178,0.063 -0.042,0.035 -0.061,0.08 -0.058,0.131 0.002,0.046 0.03,0.086 0.081,0.12 0.051,0.034 0.139,0.066 0.265,0.097 0.124,0.032 0.227,0.069 0.31,0.109 0.199,0.097 0.304,0.244 0.316,0.439 0.01,0.155 -0.041,0.28 -0.152,0.376 -0.112,0.095 -0.269,0.15 -0.473,0.162 -0.144,0.01 -0.276,-0.007 -0.396,-0.052 -0.119,-0.044 -0.211,-0.109 -0.276,-0.195 -0.065,-0.085 -0.1,-0.186 -0.108,-0.304 l 0.429,-0.027 c 0.006,0.095 0.035,0.164 0.086,0.205 0.053,0.042 0.134,0.06 0.244,0.052 0.071,-0.005 0.126,-0.022 0.165,-0.056 0.039,-0.033 0.057,-0.076 0.054,-0.132 m -1.42,-1.25 -0.125,1.156 c -0.014,0.131 -0.054,0.241 -0.12,0.331 -0.066,0.09 -0.154,0.154 -0.264,0.194 -0.11,0.039 -0.236,0.05 -0.379,0.035 -0.215,-0.024 -0.378,-0.098 -0.491,-0.223 -0.111,-0.125 -0.157,-0.285 -0.139,-0.478 l 0.125,-1.166 0.429,0.047 -0.126,1.172 c -0.016,0.195 0.062,0.301 0.237,0.319 0.089,0.01 0.158,-0.008 0.209,-0.051 0.05,-0.043 0.081,-0.119 0.094,-0.228 l 0.124,-1.155 z m -2.774,0.679 -0.223,-0.065 -0.175,0.603 -0.411,-0.118 0.496,-1.708 0.672,0.196 c 0.202,0.059 0.347,0.149 0.435,0.272 0.088,0.123 0.108,0.266 0.061,0.431 -0.035,0.119 -0.088,0.21 -0.158,0.274 -0.071,0.065 -0.165,0.106 -0.281,0.123 l 0.156,0.793 -0.005,0.019 -0.441,-0.129 z m -0.13,-0.382 0.26,0.077 c 0.079,0.022 0.142,0.018 0.195,-0.012 0.051,-0.03 0.087,-0.081 0.109,-0.153 0.021,-0.075 0.018,-0.139 -0.01,-0.193 -0.028,-0.054 -0.08,-0.091 -0.158,-0.112 l -0.26,-0.077 z m -1.352,-1.046 -0.46,-0.27 -0.733,1.248 -0.37,-0.218 0.733,-1.247 -0.451,-0.265 0.167,-0.284 1.281,0.751 z m -2.504,0.148 -0.324,-0.276 0.236,-1.252 -0.717,0.844 -0.325,-0.278 1.151,-1.354 0.326,0.277 -0.237,1.25 0.716,-0.842 0.325,0.277 z m -0.274,-2.625 -0.902,0.737 c -0.102,0.082 -0.208,0.132 -0.318,0.15 -0.11,0.018 -0.218,10e-4 -0.324,-0.048 -0.105,-0.05 -0.203,-0.13 -0.294,-0.24 -0.137,-0.168 -0.201,-0.336 -0.192,-0.504 0.007,-0.167 0.087,-0.313 0.237,-0.438 l 0.908,-0.741 0.272,0.333 -0.915,0.747 c -0.147,0.127 -0.165,0.257 -0.055,0.394 0.056,0.068 0.118,0.106 0.184,0.109 0.067,0.005 0.144,-0.027 0.227,-0.097 l 0.902,-0.734 z M 13.15,28.527 c -0.152,0.083 -0.302,0.128 -0.449,0.137 -0.149,0.009 -0.283,-0.021 -0.403,-0.091 -0.12,-0.069 -0.217,-0.17 -0.29,-0.301 -0.072,-0.134 -0.107,-0.268 -0.102,-0.404 0.004,-0.136 0.046,-0.264 0.129,-0.384 0.081,-0.12 0.195,-0.222 0.34,-0.305 l 0.087,-0.049 c 0.153,-0.085 0.303,-0.131 0.45,-0.138 0.148,-0.008 0.281,0.022 0.403,0.092 0.121,0.069 0.218,0.17 0.291,0.304 0.074,0.131 0.106,0.266 0.101,0.404 -0.006,0.137 -0.051,0.267 -0.135,0.39 -0.085,0.12 -0.201,0.222 -0.35,0.306 z m -0.145,-0.418 c 0.155,-0.085 0.258,-0.176 0.31,-0.271 0.051,-0.096 0.051,-0.193 -0.003,-0.288 -0.104,-0.19 -0.3,-0.21 -0.587,-0.066 l -0.115,0.063 c -0.153,0.083 -0.257,0.173 -0.31,0.27 -0.054,0.096 -0.054,0.193 10e-4,0.292 0.052,0.095 0.132,0.146 0.241,0.153 0.11,0.007 0.24,-0.03 0.391,-0.114 z m -0.354,-3.028 -1.067,0.742 1.299,0.015 0.165,0.54 -1.7,0.52 -0.126,-0.41 0.397,-0.122 0.824,-0.209 -1.334,-0.04 -0.083,-0.271 1.083,-0.783 -0.801,0.289 -0.396,0.121 -0.126,-0.41 1.7,-0.52 z m -1.322,-1.756 -0.017,-0.673 -0.425,0.011 0.021,0.796 -0.33,0.007 -0.031,-1.223 1.776,-0.045 0.032,1.225 -0.331,0.01 -0.02,-0.799 -0.375,0.01 0.018,0.674 z m -0.754,-1.796 0.06,-0.421 0.735,0.105 0.09,-0.625 -0.735,-0.105 0.06,-0.424 1.76,0.252 -0.061,0.424 -0.698,-0.099 -0.09,0.624 0.699,0.1 -0.061,0.422 z m 1.721,-1.63 0.167,-0.506 -1.372,-0.456 0.135,-0.406 1.372,0.456 0.165,-0.498 0.314,0.104 -0.467,1.41 z"/>
<path fill="#002868" d="m 26.558,24.734 -0.117,-0.383 -1.817,0.561 0.118,0.383 z m -7.591,-2.507 h -0.4 v 0.762 h 0.4 z m 0.815,0.342 h -0.4 v 0.694 h 0.4 z m 1.558,0.611 -0.1,-1.32 0.96,-0.07 -0.03,-0.4 -5.49,0.42 c -0.02,0.13 -0.03,0.27 -0.03,0.41 l 4.19,-0.33 0.11,1.35 -4.15,0.6 c 0.03,0.13 0.06,0.26 0.1,0.38 l 4.9,-0.7 -0.06,-0.4 z m 1.641,-0.829 -0.863,-0.34 -0.147,0.372 0.864,0.34 z m 5.057,0.771 -1.663,-0.089 -0.021,0.4 1.663,0.089 z M 17.52,19.43 c -0.09,0.13 -0.16,0.25 -0.22,0.39 l 4.73,0.26 0.03,-0.39 z m 7.471,0.422 -1.615,-0.092 -0.023,0.399 1.614,0.092 z M 17.04,20.39 c -0.06,0.13 -0.1,0.26 -0.15,0.4 l 3.55,0.02 0.01,-0.4 z m 11.1,0.53 -2.8,0.22 0.03,0.4 2.87,-0.22 c -0.03,-0.14 -0.06,-0.27 -0.1,-0.4 m 0.14,0.68 -4.77,0.48 0.04,0.4 4.79,-0.48 c -0.01,-0.14 -0.03,-0.27 -0.06,-0.4 m 0.06,0.57 -2.94,0.43 0.06,0.39 2.9,-0.42 V 22.5 c 0,-0.11 0,-0.22 -0.02,-0.33 m -3.03,1.58 -7.74,1.91 c 0.08,0.12 0.16,0.24 0.25,0.35 l 7.58,-1.87 z m -6.89,2.94 c 0.12,0.12 0.24,0.23 0.37,0.34 l 8.86,-1.74 C 27.73,25.15 27.8,25 27.87,24.84 Z m 9.03,-1.06 c -0.1,0.16 -0.21,0.32 -0.34,0.47 l -7.53,1.47 C 19.41,27.48 19.25,27.38 19.1,27.26 Z"/>
</svg>