<svg xmlns="http://www.w3.org/2000/svg" viewBox="0 0 45 45"><path fill="#0A3161" d="m0 33.75c0 2.761 2.239 5 5 5h35c2.761 0 5-2.239 5-5v-22.5c0-2.761-2.239-5-5-5h-35c-2.761 0-5 2.239-5 5z"/><path fill="#FFFFFF" d="m12.299 16c-1e-3 3e-3 -1e-3 5e-3 -2e-3 8e-3l3e-3 -1e-3zm-2.603 0.34c0 1e-3 0 1e-3 1e-3 1e-3 -1e-3 0-1e-3 0-1e-3 -1e-3m-0.557 7.045c0.044 0.1 0.077 0.219 0.087 0.354-3e-3 -0.122 5e-3 -0.236 0.015-0.336-0.033-4e-3 -0.067-9e-3 -0.102-0.018m0.517 6.061c-0.114 0-0.24-0.017-0.375-0.063-0.287-0.096-0.469-0.259-0.486-0.778-0.011-0.316 0.067-0.861 0.124-1.258 0.023-0.161 0.042-0.288 0.045-0.344 2e-3 -0.043-0.017-0.132-0.034-0.21-0.036-0.17-0.078-0.362-0.02-0.538 0.065-0.193 0.204-0.289 0.327-0.374 0.059-0.04 0.124-0.084 0.19-0.149 0.095-0.089 0.213-0.327 0.29-0.515-0.106-0.198-0.329-0.641-0.431-1.028-0.034-0.127-0.051-0.257-0.058-0.381 1e-3 0.12-0.018 0.255-0.067 0.404-0.183 0.567-0.684 0.821-0.97 0.924-9e-3 0.192-0.058 0.469-0.25 0.655-0.23 0.221-0.46 0.313-0.611 0.351-0.045 0.092-0.114 0.209-0.211 0.296l0.02 0.051-0.043-0.032c-0.021 0.017-0.042 0.031-0.065 0.045-0.169 0.1-0.469 0.212-0.503 0.225l-0.337 0.125v-0.36c0-0.02 3e-3 -0.096 0.032-0.201 5e-3 -0.02 0.01-0.038 0.015-0.055-0.027-0.042-0.063-0.087-0.097-0.111-0.039-0.025-0.204-0.058-0.331-0.063l-0.578-0.027 0.415-0.403c0.026-0.025 0.299-0.251 0.623-0.233-0.034-0.329-0.013-0.793 0.244-1.261 0.322-0.588 0.746-0.894 0.977-1.026-3e-3 -0.282 0.035-0.828 0.345-1.17 0.172-0.189 0.406-0.288 0.676-0.288 0.551 0 0.929 0.44 1.141 0.787 0.048-0.048 0.104-0.097 0.168-0.145 0.49-0.354 0.929-0.619 1.306-0.787 0.159-0.072 0.194-0.1 0.2-0.105 0.034-0.08 0.081-0.166 0.225-0.291-0.528-0.153-1.444-0.57-1.825-1.663-0.142-0.409-0.194-0.719-0.201-0.954l-0.065-0.072c-0.065-0.072-0.266-0.378-0.135-1.277 0.065-0.444 0.166-0.757 0.307-0.945-3e-3 -0.014-6e-3 -0.025-7e-3 -0.033l-0.078-0.407 0.321 0.098c1e-3 -0.028 2e-3 -0.049 3e-3 -0.059l0.047-0.556 0.384 0.405c0.028 0.029 0.132 0.114 0.227 0.114-4e-3 -0.041 0.022-0.092 0.066-0.141 0.227-0.256 0.654-0.255 0.851-0.149 9e-3 -0.011 0.018-0.023 0.027-0.035 0.191-0.242 0.407-0.266 0.448-0.269l0.137-7e-3 0.052 0.071 0.153-0.204 0.202 0.179c0.018 0.015 0.107 0.099 0.191 0.265 0.023 0.045 0.042 0.093 0.059 0.14 0.048-0.011 0.092-0.027 0.12-0.044 0.045-0.028 0.175-0.202 0.182-0.234l0.319-0.049 0.073 0.172c2e-3 0.016 5e-3 0.046 2e-3 0.09l0.105 0.091-0.055 0.281h1e-3c1e-3 0-7e-3 0.028-6e-3 0.078 1e-3 0.056-3e-3 0.106-0.01 0.148 0.091 4e-3 0.162 0.035 0.214 0.092l0.088 0.095-0.022 0.145c-0.01 0.05-0.034 0.093-0.069 0.128 0.117 0.052 0.207 0.088 0.245 0.097h3e-3c0.225 0 0.435 0.199 0.464 0.464 0.053 0.144 0.083 0.253 0.017 0.477-0.065 0.222-0.192 0.313-0.288 0.35-0.035 0.013-0.071 0.022-0.108 0.025-0.018 0.04-0.046 0.083-0.09 0.119 0.096 0.039 0.203 0.085 0.324 0.143 0.461 0.219 0.971 0.615 1.233 0.831 1.018-0.967 1.2-0.981 1.28-0.987 0.202-0.025 1.839 0.143 2.337 0.191l0.373 0.037-0.37 0.69-0.571 0.183c-0.014 1e-3 -0.343 0.02-0.707-0.048-0.216-0.038-0.483-0.019-0.609-7e-3 -0.081 0.074-0.242 0.227-0.372 0.406-0.036 0.05-0.063 0.12-0.097 0.208-0.035 0.09-0.073 0.189-0.131 0.296-0.101 0.19-0.22 0.366-0.322 0.503 0.324 0.121 0.772 0.292 0.897 0.36 0.29 0.157 0.315 0.361 0.354 0.67 0.012 0.101 0.071 0.305 0.128 0.503 0.14 0.486 0.229 0.82 0.199 1.037-0.024 0.173-0.03 0.314-0.036 0.434-4e-3 0.084-7e-3 0.16-0.015 0.231-0.02 0.206-0.243 0.68-0.531 0.68-0.188 0-0.364-0.153-0.497-0.433-0.107-0.221-0.11-0.493-0.11-0.523v-0.133l0.111-0.074c0.02-0.014 0.041-0.028 0.062-0.043l-0.085-0.034 0.016-0.185c0-3e-3 0.021-0.255 0.018-0.502-2e-3 -0.135-0.071-0.408-0.13-0.605-0.083-0.034-0.198-0.078-0.271-0.096-0.094-0.022-0.203-0.04-0.426 0.01-0.2 0.048-0.519 0.075-0.676 0.086-0.117 0.107-0.38 0.34-0.752 0.629-0.154 0.12-0.299 0.222-0.427 0.305 0.047 0.032 0.093 0.068 0.135 0.111 0.189 0.189 0.276 0.449 0.259 0.772-0.013 0.255-0.056 0.443-0.088 0.579-0.015 0.067-0.034 0.15-0.031 0.175 0.036 0.05 0.071 0.104 0.491 0.211 0.418 0.108 0.815 0.188 0.817 0.188l0.09 0.018 0.057 0.071c0.03 0.038 0.127 0.15 0.213 0.212 0.184 0.13 0.371 0.262 0.585 0.549 0.232 0.308 0.284 0.484 0.295 0.531l0.022 0.095-0.048 0.084c-0.073 0.127-0.263 0.253-0.766 0.123-0.169-0.044-0.571-0.172-0.684-0.403-0.021-0.045-0.036-0.104-0.044-0.175-0.016-1e-3 -0.03-2e-3 -0.042-3e-3 -0.074-6e-3 -0.144-0.041-0.298-0.116-0.171-0.085-0.429-0.212-0.664-0.27-0.304-0.074-0.841-0.044-1.021-0.026l-0.118 0.011-0.347-0.349 0.028-0.133c2e-3 -8e-3 0.03-0.141 0.036-0.319 2e-3 -0.059-0.014-0.107-0.029-0.135-0.182 0.034-0.685 0.176-0.868 0.296-0.055 0.037-0.095 0.097-0.168 0.208-0.121 0.189-0.286 0.446-0.693 0.732-0.588 0.416-0.947 0.702-1.16 1.017-0.175 0.259-0.198 0.845-0.148 1.151 0.029 0.175 0.267 0.573 0.428 0.799l0.137 0.194-0.187 0.147c-0.013 0.011-0.258 0.199-0.631 0.199"/><path fill="#FFFFFF" d="m32.7 16.008 3e-3 1e-3c0-2e-3 -1e-3 -5e-3 -2e-3 -8e-3zm3.058 7.394c0.011 0.1 0.018 0.215 0.016 0.336 0.01-0.136 0.044-0.254 0.087-0.355-0.034 0.01-0.069 0.016-0.103 0.019m-0.413 6.044c-0.374 0-0.619-0.188-0.632-0.199l-0.186-0.148 0.137-0.193c0.16-0.227 0.399-0.624 0.428-0.8 0.051-0.313 0.028-0.889-0.15-1.149-0.212-0.318-0.571-0.602-1.16-1.018-0.404-0.286-0.57-0.543-0.691-0.73-0.073-0.113-0.113-0.173-0.17-0.21-0.182-0.119-0.678-0.26-0.867-0.295-0.014 0.028-0.03 0.076-0.028 0.133 6e-3 0.178 0.033 0.312 0.034 0.321l0.029 0.133-0.348 0.347-0.117-0.01c-0.181-0.018-0.718-0.046-1.021 0.026-0.237 0.058-0.496 0.186-0.668 0.271-0.151 0.075-0.219 0.108-0.296 0.115-0.011 1e-3 -0.025 2e-3 -0.041 3e-3 -7e-3 0.07-0.021 0.126-0.04 0.167-0.111 0.238-0.517 0.366-0.686 0.411-0.506 0.131-0.697 5e-3 -0.768-0.125l-0.047-0.084 0.023-0.094c7e-3 -0.033 0.058-0.214 0.293-0.53 0.213-0.286 0.4-0.418 0.537-0.514 0.135-0.098 0.231-0.209 0.262-0.246l0.056-0.071 0.09-0.019c2e-3 -1e-3 0.4-0.08 0.818-0.188 0.419-0.108 0.455-0.162 0.5-0.231-5e-3 -6e-3 -0.025-0.09-0.04-0.157-0.032-0.136-0.075-0.323-0.089-0.576-0.017-0.324 0.071-0.584 0.259-0.774 0.043-0.043 0.088-0.079 0.135-0.11-0.128-0.084-0.272-0.186-0.426-0.305-0.373-0.29-0.635-0.523-0.753-0.63-0.156-0.01-0.475-0.037-0.678-0.085-0.219-0.05-0.329-0.033-0.422-0.011-0.074 0.018-0.188 0.062-0.271 0.096-0.059 0.197-0.129 0.471-0.13 0.606-5e-3 0.247 0.017 0.497 0.017 0.502l0.017 0.183-0.086 0.036c0.02 0.014 0.042 0.028 0.062 0.043l0.111 0.074v0.133c0 0.03-3e-3 0.301-0.11 0.523-0.134 0.279-0.31 0.433-0.496 0.433-0.3 0-0.513-0.483-0.533-0.68-7e-3 -0.072-0.011-0.149-0.015-0.235-6e-3 -0.12-0.011-0.259-0.035-0.43-0.029-0.216 0.06-0.55 0.199-1.035 0.058-0.198 0.117-0.404 0.128-0.499 0.037-0.311 0.063-0.517 0.352-0.676 0.127-0.068 0.574-0.239 0.899-0.361-0.101-0.137-0.221-0.313-0.322-0.503-0.057-0.105-0.096-0.204-0.131-0.295-0.034-0.088-0.061-0.158-0.099-0.209-0.129-0.178-0.29-0.331-0.371-0.405-0.126-0.014-0.393-0.032-0.608 7e-3 -0.363 0.068-0.694 0.049-0.708 0.048l-0.065-0.013-0.504-0.17-0.374-0.69 0.375-0.037c0.498-0.048 2.146-0.206 2.338-0.191 0.08 6e-3 0.261 0.02 1.28 0.986 0.262-0.215 0.771-0.611 1.232-0.831 0.12-0.057 0.228-0.104 0.325-0.142-0.045-0.036-0.073-0.079-0.09-0.119-0.038-4e-3 -0.075-0.012-0.111-0.027-0.094-0.037-0.221-0.128-0.285-0.351-0.065-0.22-0.035-0.33 5e-3 -0.431 0.04-0.309 0.253-0.51 0.508-0.51 0.026-7e-3 0.107-0.042 0.219-0.093-0.039-0.038-0.066-0.085-0.075-0.144l-0.019-0.124 0.095-0.108c0.053-0.054 0.123-0.082 0.207-0.085-6e-3 -0.041-0.01-0.092-9e-3 -0.149 0-0.057-0.012-0.089-0.012-0.089l-0.048-0.281 0.105-0.084c-3e-3 -0.043 0-0.073 2e-3 -0.088l0.1-0.258 0.293 0.142c7e-3 0.028 0.136 0.202 0.18 0.23 0.029 0.018 0.073 0.032 0.12 0.044 0.017-0.047 0.036-0.096 0.06-0.142 0.084-0.163 0.169-0.246 0.186-0.261l0.201-0.183 0.157 0.205 0.049-0.071 0.141 8e-3c0.041 3e-3 0.259 0.026 0.445 0.266 0.011 0.014 0.021 0.027 0.03 0.038 0.208-0.111 0.626-0.104 0.85 0.149 0.043 0.048 0.069 0.099 0.089 0.135 0.073 0.03 0.18-0.08 0.208-0.11l0.387-0.391 0.042 0.546c1e-3 6e-3 2e-3 0.027 2e-3 0.058l0.327-0.101-0.083 0.412c-2e-3 7e-3 -4e-3 0.018-8e-3 0.031 0.141 0.189 0.241 0.5 0.306 0.944 0.133 0.899-0.07 1.205-0.135 1.278l-0.065 0.071c-6e-3 0.238-0.058 0.546-0.2 0.953-0.381 1.094-1.297 1.511-1.825 1.664 0.144 0.124 0.191 0.209 0.228 0.287 3e-3 8e-3 0.039 0.037 0.199 0.109 0.376 0.169 0.814 0.434 1.304 0.787 0.064 0.047 0.12 0.096 0.167 0.145 0.213-0.347 0.591-0.787 1.142-0.787 0.271 0 0.504 0.099 0.676 0.288 0.31 0.341 0.348 0.888 0.345 1.17 0.23 0.132 0.655 0.438 0.976 1.025 0.258 0.469 0.278 0.933 0.243 1.262 0.326-0.01 0.599 0.208 0.624 0.233l0.414 0.402-0.576 0.027c-0.13 6e-3 -0.291 0.037-0.332 0.065-0.035 0.024-0.07 0.069-0.096 0.11 4e-3 0.018 0.01 0.037 0.015 0.057 0.029 0.103 0.031 0.178 0.031 0.199v0.359l-0.337-0.125c-0.033-0.012-0.334-0.125-0.503-0.225-0.03-0.017-0.056-0.037-0.081-0.059l-0.01 6e-3 5e-3 -0.011c-0.097-0.086-0.166-0.203-0.211-0.296-0.152-0.038-0.382-0.13-0.613-0.351-0.191-0.185-0.24-0.462-0.249-0.655-0.287-0.102-0.788-0.356-0.971-0.923-0.047-0.148-0.067-0.281-0.067-0.401-6e-3 0.123-0.022 0.251-0.055 0.377-0.104 0.388-0.328 0.83-0.434 1.029 0.077 0.188 0.196 0.424 0.288 0.513 0.068 0.067 0.134 0.111 0.193 0.151 0.123 0.084 0.262 0.179 0.328 0.374 0.057 0.174 0.016 0.367-0.021 0.536-0.016 0.074-0.037 0.167-0.034 0.21 4e-3 0.056 0.022 0.181 0.045 0.34 0.057 0.399 0.136 0.947 0.125 1.264-0.018 0.518-0.199 0.682-0.486 0.778-0.135 0.045-0.261 0.063-0.375 0.063"/><path fill="#DDAA04" d="m22.352 30.041s-0.191-0.461-0.697-0.724c-0.29-0.151-0.629-0.169-1.237-0.169-0.796 0-1.932 0.311-2.657 0.298-0.793-0.015-1.142-0.353-1.142-0.353l-0.012 0.3-0.565-0.245 0.111 0.328s-0.584-0.19-0.722-0.644 0.052-0.755 0.052-0.755-0.055 0.746 0.706 0.746 0.903-0.669 0.903-1.099-0.326-1.418-1.836-1.418c-1.7 0-2.503 1.405-4.106 2.345-1.958 1.148-2.234 0.3-2.234 0.3s0.435-0.609-0.237-0.609c-0.4 0-0.368 0.436-0.241 0.7 0.148 0.308 0.513 0.451 0.513 0.451l-0.115 0.253 0.99-0.129s-0.065 0.097-0.095 0.217 7e-3 0.237 7e-3 0.237 0.098-0.252 0.684-0.325c0.446-0.055 0.561-0.391 0.561-0.391l0.258 0.302h0.888l0.921-1.353 0.135 0.199 0.144-0.273 0.169 0.353 0.11-0.172s0.092 0.233 0.319 0.233c0.228 0 0.343-0.242 0.343-0.242s-0.217-0.018-0.355-0.15-0.098-0.384-0.098-0.384 0.147 0.224 0.436 0.224c0.288 0 0.353-0.23 0.353-0.23s-0.389-0.434 3e-3 -0.826c0.391-0.391 1.281-0.446 1.866 0.139 0.162 0.161 0.208 0.479 0.208 0.613 0 0.531-0.386 0.421-0.386 0.421s0.037-0.682-0.629-0.682-0.795 0.574-0.795 1.041c0 0.466 0.546 1.307 2.125 1.307 1.375 0 2.297-0.204 2.785-0.337 0.773-0.21 1.128-0.118 1.128-0.118s-0.238 0.121-0.391 0.194c-0.154 0.074-0.418 0.083-0.418 0.083s-0.138 0.356 0.181 0.596c0.139 0.104 0.478 0.225 0.602 0.147 0.161-0.102 0.092-0.43 0.092-0.43s0.371-0.264 0.672-0.101 0.249 0.411 0.249 0.411-0.329 0.191 0.061 0.491c0.085 0.066 0.265-0.048 0.341-0.251 0.079-0.214 0.052-0.519 0.052-0.519"/><path fill="#DDAA04" d="m22.648 30.041s0.191-0.461 0.697-0.724c0.29-0.151 0.629-0.169 1.237-0.169 0.796 0 1.932 0.311 2.657 0.298 0.793-0.015 1.142-0.353 1.142-0.353l0.012 0.3 0.565-0.245-0.111 0.328s0.584-0.19 0.722-0.644-0.052-0.755-0.052-0.755 0.055 0.746-0.706 0.746-0.903-0.669-0.903-1.099 0.326-1.418 1.836-1.418c1.7 0 2.503 1.405 4.106 2.345 1.958 1.148 2.234 0.3 2.234 0.3s-0.435-0.609 0.237-0.609c0.4 0 0.368 0.436 0.241 0.7-0.147 0.308-0.513 0.451-0.513 0.451l0.115 0.253-0.99-0.129s0.065 0.097 0.095 0.217-7e-3 0.237-7e-3 0.237-0.098-0.252-0.684-0.325c-0.446-0.055-0.561-0.391-0.561-0.391l-0.258 0.302h-0.888l-0.921-1.353-0.135 0.199-0.144-0.273-0.169 0.353-0.11-0.172s-0.092 0.233-0.319 0.233c-0.228 0-0.343-0.242-0.343-0.242s0.217-0.018 0.355-0.15 0.098-0.384 0.098-0.384-0.147 0.224-0.436 0.224c-0.288 0-0.353-0.23-0.353-0.23s0.389-0.434-3e-3 -0.826c-0.391-0.391-1.281-0.446-1.866 0.139-0.162 0.161-0.208 0.479-0.208 0.613 0 0.531 0.386 0.421 0.386 0.421s-0.037-0.682 0.629-0.682 0.795 0.574 0.795 1.041c0 0.466-0.546 1.307-2.125 1.307-1.375 0-2.297-0.204-2.785-0.337-0.773-0.21-1.128-0.118-1.128-0.118s0.238 0.121 0.391 0.194c0.154 0.074 0.418 0.083 0.418 0.083s0.138 0.356-0.181 0.596c-0.139 0.104-0.478 0.225-0.602 0.147-0.161-0.102-0.092-0.43-0.092-0.43s-0.371-0.264-0.672-0.101-0.249 0.411-0.249 0.411 0.329 0.191-0.061 0.491c-0.085 0.066-0.265-0.048-0.341-0.251-0.079-0.214-0.052-0.519-0.052-0.519"/><path fill="#3F3F3F" d="m19.051 18.566s-2.102-0.206-2.294-0.191c-0.191 0.015-1.289 1.073-1.289 1.073s-0.733-0.647-1.351-0.941c-0.617-0.294-0.837-0.286-1.278-0.342-0.442-0.055-0.504-0.239-0.504-0.239s0.349-0.146 0.581-0.129c0.231 0.019 0.477 0.184 0.673 0.184 0.356 0 0.076-0.286 0.076-0.286s0.088-8e-3 0.174 0.044c0.083 0.051 0.238 0.073 0.308-0.166 0.07-0.238-0.011-0.238-0.026-0.378s-0.121-0.244-0.246-0.244-0.982-0.433-0.982-0.433 8e-3 -0.037 0.072-0.065c0.065-0.027 0.08-0.055 0.08-0.055s0.122 0.083 0.24 0.085c0.117 4e-3 0.195-0.045 0.197-0.057 3e-3 -0.014-5e-3 -0.038-0.083-0.028-0.078 9e-3 -0.082 0-0.155-0.067-0.072-0.065-0.077-0.093-0.074-0.108 2e-3 -0.012 0.04-0.088 0.037-0.22-2e-3 -0.131 0.034-0.198 0.034-0.198s-0.027 1e-3 -0.054 0.07c-0.021 0.058-0.067 0.097-0.154 0.158-0.107 0.077-0.213 0.053-0.213 0.053s0.147-0.053 0.252-0.264 0.09-0.332 0.09-0.332-0.041 0.197-0.195 0.292c-0.155 0.096-0.434 0.113-0.434 0.113s-0.033-0.179-0.099-0.309c-0.067-0.131-0.133-0.19-0.133-0.19s-0.115 0.152-0.191 0.374c-0.077 0.22-0.077 0.295-0.124 0.33-0.046 0.035-0.085-3e-3 -0.085-3e-3s-0.012-0.191 0.022-0.417c0.037-0.228 0.013-0.26 0.013-0.26s-0.135 7e-3 -0.263 0.17c-0.126 0.162-0.153 0.198-0.191 0.198-0.036 0-0.152-0.136-0.302-0.136s-0.319 0.049-0.397 0.136c-0.078 0.089-0.073 0.225-0.253 0.225-0.228 0-0.409-0.191-0.409-0.191s-0.011 0.133 0.02 0.244 0.121 0.187 0.121 0.187-0.057 4e-3 -0.176-0.048c-0.119-0.053-0.215-0.083-0.215-0.083s9e-3 0.044 0.028 0.071c0.02 0.028 0.031 0.055 0.027 0.068-4e-3 0.014-0.227 0.07-0.352 0.922-0.125 0.853 0.073 1.074 0.073 1.074s0.088-0.496 0.207-0.405c0.117 0.093-0.308 0.314 0.11 1.515 0.492 1.415 2.007 1.581 2.007 1.581s-0.074-0.098-0.081-0.341c-8e-3 -0.242-0.026-0.286-0.026-0.286s0.131-0.03 0.143 0.151c0.011 0.151 0.109 0.263 0.109 0.263s-5e-3 0.247-0.359 0.532c-0.352 0.284-0.048 0.255-0.528 0.47-0.482 0.215-0.985 0.563-1.26 0.761-0.275 0.2-0.344 0.44-0.344 0.44s-0.388-1.035-1.113-1.035c-0.892 0-0.763 1.358-0.763 1.358s-0.599 0.236-1.015 0.996c-0.418 0.76-0.129 1.514-0.129 1.514s-0.164-0.124-0.389-0.124c-0.226 0-0.395 0.164-0.395 0.164s0.326 0.015 0.464 0.11c0.136 0.095 0.225 0.287 0.225 0.287s-0.024 0.068-0.046 0.149c-0.023 0.081-0.023 0.135-0.023 0.135s0.309-0.115 0.464-0.206c0.154-0.09 0.247-0.368 0.247-0.368s0.304-8e-3 0.615-0.308c0.223-0.214 0.169-0.662 0.169-0.662s0.773-0.147 0.987-0.813c0.217-0.668-0.276-0.93-0.276-1.115 0-0.186 0.323 0 0.463 0.085 0.184 0.11 0.436 0.01 0.436 0.01s-0.146 0.53-0.019 1.01c0.128 0.481 0.465 1.073 0.465 1.073s-0.186 0.518-0.39 0.713c-0.201 0.196-0.392 0.236-0.455 0.423-0.062 0.188 0.078 0.497 0.067 0.683-0.012 0.189-0.184 1.151-0.169 1.579 0.014 0.426 0.135 0.49 0.316 0.55 0.455 0.155 0.771-0.095 0.771-0.095s-0.418-0.591-0.47-0.904c-0.051-0.312-0.047-0.982 0.188-1.331s0.614-0.65 1.224-1.081c0.61-0.43 0.61-0.775 0.867-0.945 0.258-0.169 0.941-0.345 1.055-0.345 0.115 0 0.236 0.191 0.229 0.401-8e-3 0.209-0.041 0.364-0.041 0.364l0.168 0.168s0.693-0.066 1.104 0.033c0.411 0.1 0.845 0.372 0.926 0.38 0.082 7e-3 0.261 0.011 0.261 0.011s-7e-3 0.234 0.026 0.305c0.033 0.069 0.202 0.188 0.522 0.271 0.422 0.111 0.486-3e-3 0.486-3e-3s-0.034-0.148-0.251-0.438c-0.216-0.29-0.4-0.4-0.533-0.496-0.132-0.096-0.261-0.258-0.261-0.258s-0.405-0.081-0.83-0.191c-0.427-0.11-0.549-0.184-0.647-0.337-0.1-0.155 0.061-0.368 0.087-0.883 0.044-0.835-0.772-0.796-0.772-0.796s0.401-0.186 0.901-0.576c0.5-0.389 0.801-0.677 0.801-0.677s0.475-0.025 0.725-0.085c0.25-0.057 0.4-0.043 0.54-0.01 0.14 0.034 0.417 0.154 0.417 0.154s0.172 0.526 0.176 0.788c4e-3 0.261-0.019 0.526-0.019 0.526s0.235 0.095 0.235 0.157c0 0.063-0.337 0.29-0.337 0.29s0 0.239 0.085 0.417c0.083 0.176 0.19 0.29 0.271 0.29s0.265-0.279 0.282-0.457c0.019-0.175 0.012-0.378 0.053-0.672 0.04-0.294-0.291-1.173-0.328-1.47-0.037-0.299-0.047-0.39-0.225-0.486-0.176-0.095-1.191-0.467-1.191-0.467s0.304-0.337 0.515-0.735c0.115-0.213 0.144-0.392 0.246-0.533 0.204-0.279 0.468-0.497 0.468-0.497s0.422-0.062 0.761 0c0.338 0.063 0.646 0.044 0.646 0.044l0.413-0.139z"/><path fill="#3F3F3F" d="m25.949 18.566s2.104-0.206 2.294-0.191c0.191 0.015 1.29 1.073 1.29 1.073s0.732-0.647 1.35-0.941c0.617-0.294 0.839-0.286 1.28-0.342 0.44-0.055 0.503-0.239 0.503-0.239s-0.349-0.146-0.581-0.129c-0.231 0.019-0.478 0.184-0.672 0.184-0.358 0-0.078-0.286-0.078-0.286s-0.088-8e-3 -0.172 0.044c-0.085 0.051-0.24 0.073-0.309-0.166-0.07-0.238 0.011-0.238 0.025-0.378 0.015-0.14 0.121-0.244 0.248-0.244 0.123 0 0.981-0.433 0.981-0.433s-8e-3 -0.037-0.073-0.065c-0.065-0.027-0.078-0.055-0.078-0.055s-0.124 0.083-0.242 0.085c-0.116 4e-3 -0.195-0.045-0.197-0.057-2e-3 -0.014 6e-3 -0.038 0.083-0.028 0.079 9e-3 0.083 0 0.155-0.067 0.073-0.065 0.077-0.093 0.074-0.108-1e-3 -0.012-0.039-0.088-0.036-0.22 1e-3 -0.131-0.034-0.198-0.034-0.198s0.028 1e-3 0.053 0.07c0.021 0.058 0.068 0.097 0.154 0.158 0.107 0.077 0.213 0.053 0.213 0.053s-0.146-0.053-0.252-0.264c-0.105-0.211-0.089-0.332-0.089-0.332s0.04 0.197 0.195 0.292c0.154 0.096 0.434 0.113 0.434 0.113s0.032-0.179 0.099-0.309c0.067-0.131 0.132-0.19 0.132-0.19s0.116 0.152 0.193 0.374c0.075 0.22 0.075 0.295 0.122 0.33 0.046 0.035 0.086-3e-3 0.086-3e-3s0.012-0.191-0.023-0.417c-0.036-0.228-0.013-0.26-0.013-0.26s0.136 7e-3 0.263 0.17c0.127 0.162 0.153 0.198 0.192 0.198 0.036 0 0.151-0.136 0.303-0.136 0.15 0 0.317 0.049 0.395 0.136 0.078 0.089 0.075 0.225 0.253 0.225 0.228 0 0.41-0.191 0.41-0.191s0.01 0.133-0.02 0.244c-0.031 0.111-0.121 0.187-0.121 0.187s0.056 4e-3 0.176-0.048c0.119-0.053 0.215-0.083 0.215-0.083s-8e-3 0.044-0.028 0.071c-0.019 0.028-0.03 0.055-0.027 0.068 4e-3 0.014 0.227 0.07 0.352 0.922 0.126 0.853-0.074 1.074-0.074 1.074s-0.088-0.496-0.206-0.405c-0.117 0.093 0.308 0.314-0.109 1.515-0.493 1.415-2.008 1.581-2.008 1.581s0.074-0.098 0.08-0.341c8e-3 -0.242 0.028-0.286 0.028-0.286s-0.133-0.03-0.145 0.151c-0.01 0.151-0.108 0.263-0.108 0.263s5e-3 0.247 0.358 0.532c0.354 0.284 0.05 0.255 0.53 0.47 0.481 0.216 0.985 0.563 1.26 0.761 0.274 0.2 0.342 0.44 0.342 0.44s0.388-1.035 1.114-1.035c0.893 0 0.764 1.358 0.764 1.358s0.597 0.236 1.014 0.996 0.128 1.514 0.128 1.514 0.164-0.124 0.39-0.124c0.225 0 0.394 0.164 0.394 0.164s-0.326 0.015-0.462 0.11c-0.138 0.095-0.227 0.287-0.227 0.287s0.025 0.068 0.046 0.149c0.023 0.081 0.023 0.135 0.023 0.135s-0.309-0.115-0.463-0.206c-0.155-0.09-0.247-0.368-0.247-0.368s-0.305-8e-3 -0.616-0.308c-0.221-0.214-0.168-0.662-0.168-0.662s-0.774-0.147-0.988-0.813c-0.216-0.668 0.276-0.93 0.276-1.115 0-0.186-0.323 0-0.463 0.085-0.184 0.11-0.436 0.01-0.436 0.01s0.147 0.53 0.02 1.01c-0.128 0.481-0.466 1.073-0.466 1.073s0.187 0.518 0.39 0.713c0.202 0.196 0.393 0.236 0.456 0.423 0.062 0.188-0.079 0.497-0.066 0.683 0.011 0.189 0.183 1.151 0.168 1.579-0.015 0.426-0.136 0.49-0.316 0.55-0.455 0.155-0.771-0.095-0.771-0.095s0.419-0.591 0.47-0.904c0.051-0.312 0.048-0.982-0.189-1.331-0.234-0.349-0.612-0.65-1.222-1.081-0.61-0.43-0.61-0.775-0.869-0.945-0.258-0.169-0.94-0.345-1.055-0.345-0.114 0-0.235 0.191-0.228 0.401 8e-3 0.209 0.04 0.364 0.04 0.364l-0.168 0.168s-0.692-0.066-1.103 0.033c-0.412 0.1-0.846 0.372-0.926 0.38-0.081 7e-3 -0.261 0.011-0.261 0.011s6e-3 0.234-0.027 0.305c-0.032 0.069-0.202 0.188-0.522 0.271-0.423 0.111-0.485-3e-3 -0.485-3e-3s0.034-0.148 0.25-0.438 0.401-0.4 0.532-0.496c0.134-0.096 0.262-0.258 0.262-0.258s0.405-0.081 0.831-0.191 0.547-0.184 0.647-0.337c0.099-0.155-0.061-0.368-0.088-0.883-0.044-0.835 0.772-0.796 0.772-0.796s-0.4-0.186-0.901-0.576c-0.5-0.389-0.801-0.677-0.801-0.677s-0.474-0.025-0.725-0.085c-0.25-0.057-0.4-0.043-0.54-0.01-0.14 0.034-0.415 0.154-0.415 0.154s-0.173 0.526-0.177 0.788c-5e-3 0.261 0.019 0.526 0.019 0.526s-0.236 0.095-0.236 0.157c0 0.063 0.339 0.29 0.339 0.29s0 0.239-0.085 0.417c-0.085 0.176-0.192 0.29-0.272 0.29-0.082 0-0.265-0.279-0.283-0.456-0.019-0.175-0.012-0.379-0.052-0.673s0.292-1.172 0.328-1.47c0.036-0.299 0.047-0.39 0.224-0.486 0.176-0.095 1.191-0.466 1.191-0.466s-0.303-0.338-0.514-0.735c-0.115-0.214-0.145-0.393-0.247-0.534-0.204-0.279-0.468-0.496-0.468-0.496s-0.422-0.063-0.76 0c-0.339 0.062-0.647 0.043-0.647 0.043l-0.411-0.139z"/><path fill="#D20307" d="m22.5 31.812c2.311 0 3.833-2.057 3.833-2.057s0.861 1.203 3.106 1.203c1.627 0 2.912-1.675 2.912-1.675s0.018 0.173-0.035 0.328c-0.051 0.154 0.018 0.305 0.018 0.305s-0.205 0.085-0.375 0.272c-0.168 0.188-0.23 0.478-0.23 0.478s0.176-0.218 0.701-0.273c0.854-0.087 0.77-0.405 0.77-0.405s0.183-0.076 0.506 0.292c0.363 0.412 0.662-7e-3 0.662-7e-3s-0.349 0.033-0.459-0.247c-0.111-0.279-0.319-0.622-0.769-0.519-0.451 0.104-0.56-0.48-0.56-0.48s0.324-0.332 0.609-0.466c0.284-0.131 0.481-0.024 0.481-0.024s6e-3 -0.117-0.346-0.339c-0.353-0.218-0.405-0.25-0.523-0.257-0.117-8e-3 -0.44 0.119-1.036 0.751-0.595 0.633-1.242 1.22-2.236 1.337-0.993 0.118-1.845-0.235-2.191-0.439-0.345-0.207-0.757-0.515-1.19-0.515-0.435 0-0.603 0.102-0.603 0.102s-1.25 1.633-3.045 1.633c-1.794 0-3.044-1.633-3.044-1.633s-0.17-0.102-0.602-0.102c-0.435 0-0.847 0.308-1.193 0.515-0.345 0.204-1.199 0.557-2.191 0.439-0.991-0.117-1.639-0.704-2.235-1.337-0.595-0.632-0.919-0.759-1.036-0.751-0.118 7e-3 -0.169 0.039-0.523 0.257-0.352 0.222-0.345 0.339-0.345 0.339s0.196-0.107 0.48 0.024c0.284 0.134 0.608 0.466 0.608 0.466s-0.108 0.584-0.559 0.48c-0.451-0.103-0.658 0.24-0.768 0.519-0.111 0.28-0.46 0.247-0.46 0.247s0.299 0.419 0.662 6e-3c0.324-0.367 0.506-0.291 0.506-0.291s-0.083 0.318 0.77 0.405c0.525 0.055 0.703 0.273 0.703 0.273s-0.063-0.29-0.233-0.478c-0.169-0.187-0.375-0.272-0.375-0.272s0.07-0.152 0.019-0.305c-0.051-0.155-0.034-0.328-0.034-0.328s1.284 1.675 2.911 1.675c2.245 0 3.106-1.204 3.106-1.204s1.522 2.058 3.833 2.058"/><path fill="#DDAA04" d="m22.5 27.383c-3.484 0-3.484-1.945-3.484-1.945s-0.082-0.05-0.161-0.151c-0.112-0.145-0.1-0.24-0.1-0.24s0.458 0.097 0.61-0.27c0.138-0.329-0.036-0.443-0.036-0.443s-0.134 0.272-0.472 0.098c-0.222-0.115-0.173-0.337-0.173-0.337s0.4 0.039 0.39-0.377c-7e-3 -0.254-0.327-0.528-0.327-0.528s-0.191 0.293-0.556 0.127c-0.532-0.244-1.097-1.569-0.66-2.916 0.198-0.608 0.88-1.466 1.329-1.702 0.643-0.339 1.104-1.735 3.64-1.735s2.997 1.396 3.64 1.735c0.449 0.236 1.13 1.094 1.329 1.702 0.437 1.347-0.128 2.672-0.66 2.916-0.365 0.166-0.556-0.127-0.556-0.127s-0.32 0.274-0.327 0.528c-0.01 0.416 0.39 0.377 0.39 0.377s0.049 0.222-0.173 0.337c-0.338 0.174-0.472-0.098-0.472-0.098s-0.174 0.114-0.036 0.443c0.154 0.367 0.61 0.27 0.61 0.27s0.013 0.095-0.1 0.24c-0.079 0.101-0.161 0.151-0.161 0.151s0 1.945-3.484 1.945"/><path fill="#016A1B" d="m25.678 23.468c-0.073 0.115-0.143 0.25-0.199 0.401-0.245 0.653-0.059 1.126-0.059 1.126s-0.256-0.163-0.396 0.057c-0.11 0.172 0.121 0.341 0.121 0.341s-0.096 0.42-0.706 0.629c-1.222 0.42-1.939-0.529-1.939-0.529s-0.716 0.949-1.938 0.529c-0.612-0.209-0.707-0.629-0.707-0.629s0.232-0.169 0.122-0.341c-0.14-0.22-0.397-0.057-0.397-0.057s0.187-0.473-0.057-1.126c-0.058-0.151-0.129-0.286-0.2-0.401z"/><path fill="#FFCF00" d="m19.322 23.468c-0.173-0.279-0.35-0.441-0.35-0.441s0.431-2e-3 0.386-0.34c-0.055-0.408-0.459-0.15-0.459-0.15s-0.358-0.456-0.358-1.309v-0.056h7.916c1e-3 0.019 1e-3 0.037 1e-3 0.056 0 0.853-0.357 1.309-0.357 1.309s-0.405-0.258-0.46 0.15c-0.045 0.338 0.385 0.34 0.385 0.34s-0.177 0.162-0.349 0.441z"/><path fill="#83CDE3" d="m26.458 21.171c-0.016-0.706-0.323-1.301-0.556-1.602-0.393-0.505-0.785-0.419-0.785-0.419s-0.088 0.246-0.295 0.217c-0.273-0.036-0.215-0.352-0.215-0.352s-0.252 0.191-0.385 0.051c-0.135-0.14-0.09-0.226-0.127-0.515-0.031-0.265-0.223-0.581-0.418-0.74-0.279-0.23-0.518-0.147-0.518-0.147s-0.058 0.211-0.192 0.211c-0.232 0-0.248-0.243-0.248-0.243s-0.03 0.14-0.219 0.14c-0.188 0-0.218-0.14-0.218-0.14s-0.017 0.243-0.248 0.243c-0.134 0-0.194-0.212-0.194-0.212s-0.236-0.082-0.516 0.148c-0.193 0.159-0.387 0.475-0.42 0.74-0.035 0.289 0.01 0.375-0.124 0.515s-0.386-0.051-0.386-0.051 0.058 0.316-0.215 0.352c-0.207 0.029-0.294-0.217-0.294-0.217s-0.393-0.086-0.786 0.419c-0.233 0.301-0.541 0.896-0.557 1.602z"/><path fill="#FFFFFF" d="m20.344 16.803c-0.227 0-0.312 0-0.889-2.436l-0.063-0.264c-0.352-1.489-0.458-1.939 0.113-2.081 0.412-0.1 0.701 0.401 0.959 0.843 0.013 0.022 0.027 0.047 0.042 0.072 0.06-0.064 0.14-0.126 0.253-0.176 0.077-0.033 0.152-0.061 0.223-0.086 0.041-0.015 0.092-0.033 0.133-0.05-0.049-0.029-0.109-0.06-0.152-0.083-0.058-0.03-0.114-0.058-0.161-0.087-0.065-0.039-0.113-0.081-0.148-0.122-0.019-8e-3 -0.038-0.018-0.055-0.03-0.058-0.04-0.152-0.136-0.131-0.333 0.013-0.121 0.07-0.222 0.16-0.287 0.099-0.07 0.232-0.092 0.375-0.06 0.047 0.011 0.091 0.027 0.131 0.042 0.063-0.024 0.142-0.041 0.225-0.036 0.146 0.01 0.762 0.252 0.856 0.591 0.011 0.042 0.021 0.084 0.028 0.125 0.082-0.114 0.214-0.194 0.458-0.194 0.446 0 0.735 0.191 1.678 1.385 0.371 0.47 0.867 0.868 1.195 1.132 0.363 0.29 0.499 0.399 0.485 0.586l-8e-3 0.133-0.092 0.073c0.038 0.035 0.068 0.068 0.091 0.097l0.117 0.153-0.115 0.175c-0.127 0.165-0.416 0.126-0.605 0.076 0.122 0.139 0.155 0.239 0.153 0.33l-3e-3 0.131-0.183 0.14-0.078-1e-3c-5e-3 0-0.346-8e-3 -0.564 0.016-0.158 0.017-0.277 0.098-0.278 0.098l-0.14 0.096-0.141-0.092s-0.319-0.211-0.522-0.37c-0.044-0.035-0.091-0.073-0.137-0.112-0.178 0.302-0.328 0.302-0.38 0.302-0.119 0-0.206-0.048-0.27-0.107-0.079 0.082-0.171 0.15-0.291 0.15-0.156 0-0.261-0.112-0.363-0.219-0.01-0.011-0.023-0.025-0.036-0.038-0.038 0.023-0.108 0.048-0.203 0.048-0.249 0-0.352-0.267-0.522-0.709-0.031-0.079-0.059-0.154-0.081-0.206-0.048-2e-3 -0.088-5e-3 -0.132-0.015-0.068-0.017-0.148-0.06-0.377-0.189-0.035-0.019-0.076-0.042-0.118-0.066-1e-3 0.039-1e-3 0.078-1e-3 0.113 0 0.208-1e-3 0.435-0.023 0.595-0.084 0.63-0.126 0.947-0.413 0.947"/><path fill="#322700" d="m20.344 16.553c-0.062 0-0.262-0.626-0.646-2.244-0.381-1.619-0.484-1.957-0.133-2.045 0.356-0.087 0.803 1.081 0.941 1.081 0.104 0 0.058-0.226 0.353-0.355 0.294-0.128 0.565-0.154 0.565-0.376 0-0.151-0.312-0.265-0.494-0.373-0.124-0.075-0.125-0.146-0.125-0.146s-0.105 0.054-0.089-0.099c0.015-0.139 0.137-0.151 0.232-0.129 0.096 0.022 0.191 0.077 0.191 0.077s0.096-0.073 0.202-0.066c0.107 8e-3 0.582 0.224 0.633 0.409 0.115 0.417-0.062 0.712-0.062 0.834 0 0.088 0.092 0.283 0.092 0.283s0.132-0.048 0.275-0.452c0.144-0.405 0.103-0.551 0.422-0.551 0.321 0 0.557 0.117 1.482 1.289 0.655 0.832 1.637 1.409 1.627 1.545-0.016 0.215-0.667-0.257-0.7-0.173-0.021 0.052 0.623 0.492 0.741 0.647 0.053 0.068-0.262 0.06-0.486-0.036-0.399-0.169-2.025-1.598-2.184-1.271-0.138 0.282 0.902 0.807 1.568 1.292 0.725 0.528 0.591 0.616 0.591 0.616s-0.365-7e-3 -0.595 0.018c-0.231 0.025-0.395 0.142-0.395 0.142s-0.309-0.205-0.505-0.358c-0.195-0.153-0.444-0.381-0.444-0.381s0.033 0.153-2e-3 0.224c-0.034 0.072-0.16 0.294-0.225 0.294-0.155 0-0.194-0.235-0.258-0.235-0.051 0-0.208 0.278-0.303 0.278-0.096 0-0.268-0.285-0.367-0.285-0.097 0-0.111 0.076-0.236 0.076-0.126 0-0.356-0.806-0.432-0.87-0.075-0.064-0.157-0.032-0.244-0.054-0.089-0.022-0.672-0.385-0.756-0.385-0.083 0-0.022 0.698-0.069 1.048-0.046 0.35-0.103 0.731-0.165 0.731"/></svg>