<svg xmlns="http://www.w3.org/2000/svg" viewBox="0 0 45 45"><path fill="#002a86" d="M 45,33.75 V 11.250563 C 45,8.4896315 42.761056,6.2506875 40.000125,6.2506875 H 5.001 c -2.760931,0 -4.999875,2.238944 -4.999875,4.9998755 V 33.75 c 0,2.760931 2.238944,4.999875 4.999875,4.999875 H 40.000125 C 42.761056,38.749875 45,36.510931 45,33.75"/><path fill="#4f9eff" d="m 15.369,22.5 c 0,3.937902 3.19292,7.130822 7.130822,7.130822 3.938901,0 7.130821,-3.19292 7.130821,-7.130822 z"/><path fill="#ffffff" d="m 29.631,22.5 c 0,-3.937902 -3.19192,-7.130822 -7.130822,-7.130822 -3.937901,0 -7.130821,3.19292 -7.130821,7.130822 z"/><path fill="#efae0e" d="m 21.65175,22.49925 c 0,-0.454989 0.379991,-0.823979 0.847979,-0.823979 0.468988,0 0.847979,0.36899 0.847979,0.823979 z"/><path fill="#efae0e" d="m 23.56875,22.35075 1.748956,-0.346991 -0.064,-0.260994 -1.694958,0.506988 z"/><path fill="#efae0e" d="m 23.4825,22.14825 0.262993,-0.159996 -0.023,-0.143996 -0.272993,0.201995 z"/><path fill="#efae0e" d="m 23.337,21.9225 -0.074,-0.097 1.360966,-1.245968 0.199995,0.176995 z"/><path fill="#efae0e" d="m 23.16075,21.75825 0.630984,-0.719982 -0.144996,-0.151996 -0.582986,0.79698 z"/><path fill="#efae0e" d="m 22.96575,21.654 0.848979,-1.933952 -0.240994,-0.100997 -0.744982,1.962951 z"/><path fill="#efae0e" d="M 22.6725,21.543 22.882495,20.541025 22.6905,20.513026 22.540503,21.528 Z"/><path fill="#efae0e" d="m 22.37475,21.543 0.035,-2.186945 -0.313992,0.013 0.117997,2.219945 z"/><path fill="#efae0e" d="m 22.08525,21.5985 -0.269993,-1.084973 -0.156996,0.028 0.297992,1.139972 z"/><path fill="#efae0e" d="m 21.83775,21.7365 -0.868978,-2.098948 -0.230995,0.141997 1.042974,2.024949 z"/><path fill="#efae0e" d="m 21.681,21.89325 -0.775981,-1.079973 -0.145996,0.098 0.857979,1.056973 z"/><path fill="#efae0e" d="m 21.585,22.04625 -1.704957,-1.425964 -0.264994,0.131996 1.917952,1.362966 z"/><path fill="#efae0e" d="m 21.471,22.21875 -1.349966,-0.726982 -0.091,0.138997 1.406965,0.665983 z"/><path fill="#efae0e" d="m 21.41625,22.4055 -2.149946,-0.628984 -0.061,0.255993 2.176946,0.448989 z"/><path fill="#946922" d="m 29.409,24.21975 -1.095973,0.125997 -0.821979,0.186995 -4.271893,-0.309992 -2.215945,0.006 -4.109897,-0.300993 -1.410965,-0.173995 0.117997,0.542986 0.284993,0.860979 0.381991,0.812979 0.570985,0.82098 4.216895,-0.754981 0.814979,-0.066 1.032975,-0.026 0.220994,-0.179996 0.42199,0.044 0.807979,-0.222994 0.592986,0.092 3.249918,0.007 0.626985,0.066 0.39799,-0.880978 z"/><path fill="#2a1510" d="m 27.27,22.98 0.129997,0.01 v 0.139996 l -0.389991,0.729982 -0.289992,0.159996 -0.229995,1.159971 L 19.410196,24.56996 18.290224,23 l -0.859978,-0.929977 -0.40999,-0.329992 0.06,-0.06 0.479988,0.309993 1.349966,0.579985 v -0.209995 l 1.19997,0.329992 0.349991,-2.39994 h -0.08 l 0.02,-0.249993 h 0.08 l 0.03,-0.529987 -0.06,-0.09 0.02,-0.07 0.309992,0.129996 v 0.06 l -0.04,0.04 -0.05,0.479988 0.109997,0.01 v 0.209994 h -0.119997 l -0.359991,2.469939 1.139971,0.239994 1.18997,0.139996 0.969976,0.04 0.459989,-3.079923 h -0.179996 l 0.03,-0.179995 h 0.149997 l 0.03,-0.40999 -0.1,-0.01 0.01,-0.119997 0.1,0.01 0.119997,-1.349966 h 0.08 l -0.129997,1.359966 0.159996,0.02 v 0.119997 h -0.08 l -0.02,0.379991 h 0.199995 v 0.189995 h -0.229994 l -0.37999,3.089923 1.849953,0.02 0.249994,-2.179945 -0.04,-0.01 -0.01,-0.239994 0.139997,0.01 0.04,-0.499988 -0.1,-0.02 0.02,-0.08 0.199995,0.04 -0.05,0.569986 0.219995,0.01 -0.03,0.229994 h -0.189995 l -0.209995,1.809955 1.169971,-0.06 0.609985,-1.669959 0.09,0.07 -0.509988,1.459963 z"/><path fill="#efae0e" d="m 17.88525,24.36375 0.048,0.287993 11.053723,0.80498 v -0.09 z"/><path fill="#d4212f" d="m 24.24,18.03 c 0,0 -0.195995,0.185995 -1.045974,-0.227994 -0.754981,-0.367991 -1.472963,-0.220995 -1.472963,0.018 0,0.239994 0.220994,0.230994 0.220994,0.282993 0,0.052 -0.597985,0.131997 -0.711982,0.269993 -0.112997,0.137997 0.006,0.309993 -0.143996,0.376991 -0.149996,0.068 -0.229994,0.077 -0.229994,0.077 0,0 0.211994,0.106997 0.404989,0 0.192996,-0.106997 0.021,-0.217994 0.171996,-0.318992 0.149996,-0.100997 0.471988,-0.034 0.646984,-0.223994 0.174996,-0.189996 -0.115997,-0.297993 -0.079,-0.370991 0.036,-0.074 0.546986,-0.116997 1.094973,0.149996 0.419989,0.203995 0.432989,0.330992 0.659983,0.41699 0.226994,0.087 0.439989,0.049 0.439989,0.049 z"/><path fill="#d4212f" d="m 20.7285,18.22725 c 0,0 -0.439989,-0.047 -0.81498,0.219994 -0.37499,0.266994 -0.37499,0.42599 -0.37499,0.499988 0,0.073 0.176995,0.105997 0.176995,0.199995 0,0.094 -0.153996,0.273993 -0.38199,0.307992 -0.227994,0.035 -0.321992,0.204995 -0.321992,0.283993 0,0.078 0.041,0.141997 0.041,0.141997 0,0 0.007,-0.116997 0.188995,-0.231995 0.181996,-0.114997 0.363991,-0.04 0.581986,-0.298992 0.349991,-0.41599 -0.369991,-0.310992 0.147996,-0.614985 0.344991,-0.202995 0.728982,-0.144996 0.728982,-0.144996 z"/><path fill="#d4212f" d="m 27.597,21.42975 c 0,0 -0.116997,-0.079 -0.528987,-0.079 -0.342991,0 -0.334991,0.150996 -0.492987,0.167996 -0.211995,0.023 -0.262994,0.117997 -0.40299,0.163996 -0.140997,0.046 -0.197995,0.033 -0.197995,0.033 0,0 -0.104998,0.139996 -0.111998,0.273993 -0.007,0.132997 -0.058,0.359991 -0.058,0.359991 0,0 0.160996,-0.008 0.296992,-0.098 0.135997,-0.09 0.185996,-0.009 0.40699,-0.160996 0.220995,-0.151996 0.855979,-0.023 0.855979,-0.023 z"/><path fill="#3f863f" transform="matrix(0.999975,0,0,-0.999975,21.6,16.44675)" d="m 0.90039063,-12.355469 c -1.72370781,0 -3.30285543,0.536336 -4.45117193,1.601563 -1.1483164,1.0652264 -1.8515624,2.655424 -1.8515624,4.7011716 0,2.6516065 1.3500896,4.2569798 2.6855468,5.16015627 1.3354572,0.90317648 2.67382815,1.13867188 2.67382815,1.13867188 l 0.0859375,-0.4921875 c 0,0 -1.23747545,-0.22122509 -2.47851565,-1.06054685 -1.2410402,-0.8393218 -2.4667968,-2.2617054 -2.4667968,-4.7460938 0,-1.9322484 0.6492248,-3.3691662 1.6914062,-4.3359376 1.0421814,-0.966771 2.49103927,-1.466797 4.11132813,-1.466797 1.62028887,0 3.06719367,0.500026 4.10937497,1.466797 1.0421814,0.9667714 1.6933594,2.4036892 1.6933594,4.3359376 0,2.4843884 -1.2257567,3.906772 -2.4667969,4.7460938 -1.2410402,0.83932176 -2.4804687,1.06054685 -2.4804687,1.06054685 l 0.087891,0.4921875 c 0,0 1.3364178,-0.2354954 2.671875,-1.13867188 1.3354572,-0.90317647 2.6875,-2.50854977 2.6875,-5.16015627 0,-2.0457476 -0.7051992,-3.6359452 -1.8535156,-4.7011716 -1.1483165,-1.065227 -2.725511,-1.601563 -4.44921877,-1.601563 z"/><path fill="#efae0e" d="m 22.16025,34.11975 c 0,0 -0.182995,0.436989 -1.472963,0.502987 -1.290968,0.064 -2.380941,-1.040974 -2.380941,-1.040974 0,0 0.81798,-0.805979 1.912953,-0.507987 1.017974,0.276993 1.940951,1.045974 1.940951,1.045974 m -6.39884,-2.742931 c 0,0 -0.337992,0.212994 -1.509962,-0.328992 -1.172971,-0.541987 -1.62496,-2.02695 -1.62496,-2.02695 0,0 1.098973,-0.332991 1.928952,0.43899 0.771981,0.717982 1.20597,1.916952 1.20597,1.916952 m -3.958901,-5.956851 c 0,0 -0.39499,-0.058 -0.931977,-1.23197 -0.539986,-1.17497 0.082,-2.596935 0.082,-2.596935 0,0 1.051974,0.461989 1.181971,1.587961 0.118997,1.047973 -0.331992,2.240944 -0.331992,2.240944 M 12.2585,18.256147 c 0,0 -0.252994,-0.308993 0.139996,-1.538962 0.39299,-1.230969 1.811955,-1.862953 1.811955,-1.862953 0,0 0.465988,1.050973 -0.197995,1.96995 -0.616985,0.854979 -1.753956,1.431965 -1.753956,1.431965 m 4.660883,-5.422865 c 0,0 -0.065,-0.39399 0.891978,-1.262968 0.955976,-0.868979 2.499937,-0.705983 2.499937,-0.705983 0,0 -0.121997,1.142972 -1.155971,1.60596 -0.962976,0.431989 -2.235944,0.362991 -2.235944,0.362991 m 5.920852,21.286468 c 0,0 0.182995,0.436989 1.472963,0.502987 1.290968,0.064 2.380941,-1.040974 2.380941,-1.040974 0,0 -0.81798,-0.805979 -1.912953,-0.507987 -1.017974,0.276993 -1.940951,1.045974 -1.940951,1.045974 m 6.39884,-2.742931 c 0,0 0.336992,0.212994 1.510962,-0.328992 1.171971,-0.541987 1.62396,-2.02695 1.62396,-2.02695 0,0 -1.098973,-0.332991 -1.928952,0.43899 -0.772981,0.717982 -1.20597,1.916952 -1.20597,1.916952 m 3.957901,-5.956851 c 0,0 0.39499,-0.058 0.933977,-1.23197 0.538986,-1.17497 -0.083,-2.596935 -0.083,-2.596935 0,0 -1.051974,0.461989 -1.180971,1.587961 -0.119997,1.047973 0.329992,2.240944 0.329992,2.240944 m -0.454989,-7.163821 c 0,0 0.252994,-0.308993 -0.139996,-1.538962 -0.39299,-1.230969 -1.811955,-1.862953 -1.811955,-1.862953 0,0 -0.465988,1.050973 0.197995,1.96995 0.617985,0.854979 1.753956,1.431965 1.753956,1.431965 m -4.660883,-5.422865 c 0,0 0.065,-0.39399 -0.892978,-1.262968 -0.954976,-0.868979 -2.498937,-0.705983 -2.498937,-0.705983 0,0 0.121997,1.142972 1.155971,1.60596 0.962976,0.431989 2.235944,0.362991 2.235944,0.362991"/><path fill="#efae0e" d="m 22.5,10.09575 0.290993,0.895978 h 0.942976 l -0.762981,0.553986 0.290993,0.895977 L 22.5,11.887705 l -0.761981,0.553986 0.290993,-0.895977 -0.762981,-0.553986 h 0.942976 z m 6.129847,4.566886 0.331991,-0.881978 -0.738981,-0.587985 0.941976,0.042 0.328992,-0.882978 0.252994,0.906977 0.940976,0.043 -0.78498,0.519987 0.250994,0.906977 -0.736982,-0.585985 z m 3.549911,5.462863 0.80998,-0.480988 -0.205995,-0.918977 0.708982,0.620985 0.80998,-0.479988 -0.373991,0.864978 0.708983,0.622985 -0.938977,-0.088 -0.372991,0.865978 -0.206994,-0.919977 z m -0.639984,6.481838 0.935977,0.110997 0.39399,-0.856978 0.183995,0.925977 0.936977,0.108997 -0.82298,0.461988 0.183996,0.923977 -0.690983,-0.639984 -0.823979,0.459989 0.39599,-0.854979 z m -4.333892,4.652884 0.678983,0.653984 0.83098,-0.442989 -0.41299,0.847978 0.678983,0.653984 -0.932977,-0.128997 -0.411989,0.845979 -0.164996,-0.926977 -0.933977,-0.129996 0.832979,-0.443989 z m -10.835729,-16.597585 -0.329992,-0.881978 0.736982,-0.587985 -0.940976,0.042 -0.329992,-0.882978 -0.252994,0.906977 -0.940976,0.043 0.78498,0.519987 -0.250994,0.906977 0.736982,-0.585985 z m -3.550911,5.462863 -0.80998,-0.480988 0.205995,-0.918977 -0.706982,0.620985 -0.81098,-0.479988 0.372991,0.864978 -0.706983,0.622985 0.937977,-0.088 0.371991,0.865978 0.208994,-0.919977 z m 0.640984,6.481838 -0.935977,0.110997 -0.39399,-0.856978 -0.184995,0.925977 -0.934977,0.108997 0.82098,0.461988 -0.182996,0.923977 0.691983,-0.639984 0.822979,0.459989 -0.39499,-0.854979 z m 4.334892,4.652884 -0.678983,0.653984 -0.83098,-0.442989 0.41099,0.847978 -0.678983,0.653984 0.933977,-0.128997 0.412989,0.845979 0.164996,-0.926977 0.932977,-0.129996 -0.831979,-0.443989 z"/><path fill="#efae0e" d="m 22.5,29.43975 c -3.829904,0 -6.939826,-3.109922 -6.939826,-6.939826 0,-3.829905 3.109922,-6.939827 6.939826,-6.939827 3.829904,0 6.939826,3.109922 6.939826,6.939827 0,3.829904 -3.109922,6.939826 -6.939826,6.939826 m 0,-14.309642 c -4.069898,0 -7.369816,3.299917 -7.369816,7.369816 0,4.069898 3.299918,7.369815 7.369816,7.369815 4.069898,0 7.369816,-3.299917 7.369816,-7.369815 0,-4.069899 -3.299918,-7.369816 -7.369816,-7.369816"/><path fill="#efae0e" d="m 24.41325,29.8305 0.029,0.135997 -0.018,0.004 c -0.073,0.016 -0.130997,0.047 -0.168996,0.095 -0.038,0.046 -0.054,0.104997 -0.051,0.174996 0.035,-0.054 0.088,-0.088 0.154996,-0.100998 0.073,-0.015 0.136997,0 0.189996,0.043 0.053,0.043 0.088,0.107998 0.104997,0.192995 0.012,0.054 0.009,0.105998 -0.006,0.154997 -0.015,0.049 -0.041,0.09 -0.079,0.123996 -0.039,0.032 -0.085,0.055 -0.139996,0.066 -0.087,0.016 -0.165996,10e-4 -0.230995,-0.05 -0.068,-0.05 -0.109997,-0.127997 -0.130996,-0.229994 l -0.013,-0.06 c -0.017,-0.09 -0.016,-0.174995 0.004,-0.250993 0.021,-0.076 0.059,-0.139997 0.115997,-0.189996 0.057,-0.052 0.127997,-0.086 0.211995,-0.102997 z m -0.077,0.451989 c -0.027,0.006 -0.051,0.018 -0.07,0.036 -0.018,0.018 -0.032,0.041 -0.037,0.065 l 0.01,0.051 c 0.012,0.055 0.03,0.096 0.059,0.123997 0.028,0.026 0.063,0.036 0.100997,0.027 0.037,-0.006 0.063,-0.026 0.078,-0.059 0.017,-0.032 0.021,-0.071 0.012,-0.114998 -0.01,-0.047 -0.027,-0.081 -0.056,-0.102997 -0.027,-0.026 -0.06,-0.033 -0.097,-0.026 m -1.005975,-0.143997 -0.286993,0.777981 -0.179995,0.011 0.289993,-0.735982 -0.42299,0.025 -0.009,-0.137996 0.601985,-0.033 z m -1.244969,0.016 -0.39199,0.729982 -0.178996,-0.015 0.389991,-0.688983 -0.42399,-0.034 0.011,-0.135997 0.601985,0.049 z m -1.561961,0.507987 -0.166996,-0.037 0.144997,-0.638984 -0.210995,0.016 0.03,-0.133997 0.373991,-0.045 0.017,0.004 z"/><path fill="#efae0e" d="m 19.54425,29.4045 -0.039,0.38399 0.352991,0.154997 -0.37499,0.081 -0.04,0.383991 -0.193996,-0.332992 -0.37599,0.083 0.255993,-0.288993 -0.193995,-0.332991 0.352991,0.153996 z"/><path fill="#efae0e" d="m 25.482,29.39325 0.263993,0.300992 0.367991,-0.156996 -0.205995,0.344992 0.263994,0.300992 -0.39099,-0.088 -0.204995,0.342992 -0.037,-0.39899 -0.390991,-0.09 0.368991,-0.156996 z"/><path fill="#efae0e" d="m 27.9945,28.42425 0.239994,-0.236994 -0.162996,-0.163996 -0.280993,0.276993 -0.1,-0.1 0.408989,-0.40199 0.598985,0.606984 -0.405989,0.40299 -0.1,-0.100997 0.281993,-0.278993 -0.143996,-0.143996 -0.240994,0.235994 z m 0.78798,-0.950976 0.086,-0.109997 -0.244994,-0.193996 0.108998,-0.137996 0.670983,0.529987 -0.197995,0.248993 c -0.062,0.08 -0.127997,0.126997 -0.197995,0.140997 -0.069,0.016 -0.134997,-0.002 -0.199995,-0.054 -0.047,-0.035 -0.077,-0.075 -0.092,-0.117997 -0.015,-0.044 -0.015,-0.094 -0.001,-0.147996 l -0.38899,-0.072 -0.006,-0.005 0.115997,-0.148997 z m 0.197995,-0.021 -0.088,0.111997 c -0.028,0.033 -0.04,0.068 -0.038,0.100998 0.003,0.032 0.02,0.062 0.05,0.086 0.033,0.025 0.064,0.036 0.098,0.033 0.031,-0.004 0.061,-0.025 0.092,-0.062 l 0.086,-0.110998 z m -0.017,-0.766981 0.094,-0.148996 0.722982,0.454989 -0.094,0.147996 z m 0.272993,-0.512987 0.077,-0.157996 0.328992,0.159996 0.150996,-0.306992 -0.328992,-0.160996 0.078,-0.158996 0.766981,0.374991 -0.076,0.158996 -0.310992,-0.151997 -0.150996,0.307993 0.310992,0.151996 -0.078,0.158996 z m 0.664983,-1.058973 c 0.031,0.01 0.06,0.008 0.084,-0.01 0.023,-0.016 0.055,-0.051 0.093,-0.101997 0.038,-0.051 0.072,-0.091 0.101997,-0.119997 0.078,-0.075 0.161996,-0.099 0.245994,-0.071 0.044,0.015 0.079,0.04 0.104998,0.075 0.026,0.037 0.041,0.081 0.045,0.134997 0.005,0.052 -0.004,0.106997 -0.023,0.164996 -0.018,0.058 -0.046,0.105997 -0.082,0.142996 -0.035,0.039 -0.076,0.065 -0.123997,0.077 -0.046,0.012 -0.095,0.011 -0.141996,-0.005 l 0.055,-0.167996 c 0.036,0.013 0.07,0.011 0.097,-0.006 0.03,-0.016 0.05,-0.046 0.064,-0.088 0.015,-0.042 0.016,-0.076 0.006,-0.102997 -0.01,-0.03 -0.03,-0.049 -0.057,-0.058 -0.027,-0.009 -0.053,-0.002 -0.079,0.018 -0.028,0.021 -0.056,0.053 -0.09,0.1 -0.06,0.087 -0.117997,0.144997 -0.173996,0.172996 -0.057,0.029 -0.116997,0.034 -0.180995,0.014 -0.07,-0.024 -0.115997,-0.069 -0.137997,-0.134997 -0.023,-0.066 -0.02,-0.144996 0.01,-0.234994 0.02,-0.062 0.052,-0.114997 0.092,-0.158996 0.038,-0.043 0.083,-0.072 0.131996,-0.086 0.048,-0.014 0.099,-0.012 0.150997,0.005 l -0.056,0.167996 c -0.089,-0.029 -0.150996,0.01 -0.185995,0.115997 -0.014,0.04 -0.016,0.074 -0.008,0.100997 0.01,0.029 0.029,0.046 0.058,0.056 m 0.446989,-1.239969 -0.297992,-0.057 0.034,-0.172995 0.839979,0.160996 -0.062,0.326991 c -0.013,0.063 -0.035,0.114997 -0.067,0.158996 -0.032,0.045 -0.072,0.075 -0.119997,0.093 -0.047,0.017 -0.098,0.021 -0.151996,0.011 -0.083,-0.016 -0.140997,-0.057 -0.177996,-0.122997 -0.037,-0.065 -0.046,-0.146996 -0.027,-0.245994 z m 0.138997,0.026 -0.029,0.154996 c -0.009,0.045 -0.005,0.082 0.011,0.110997 0.018,0.028 0.045,0.045 0.086,0.054 0.042,0.007 0.077,0.001 0.107997,-0.018 0.029,-0.019 0.049,-0.051 0.057,-0.093 l 0.03,-0.157996 z m -0.165996,-0.80398 0.017,-0.307992 -0.173995,-0.069 0.012,-0.185996 0.83598,0.362991 -0.009,0.163996 -0.870978,0.273993 0.009,-0.188995 z m 0.155996,-0.252993 -0.011,0.212994 0.324992,-0.09 z m -0.307992,-0.632985 -0.015,-0.174995 0.364991,-0.031 -0.028,-0.340992 -0.364991,0.03 -0.015,-0.174995 0.851979,-0.073 0.014,0.174996 -0.344991,0.03 0.03,0.342992 0.344992,-0.03 0.015,0.175995 z m -0.696983,-3.456913 0.584985,-0.202995 0.088,0.151996 -0.836979,0.260994 -0.087,-0.153997 0.42599,-0.404989 -0.564986,0.164995 -0.088,-0.154996 0.646984,-0.589985 0.086,0.152996 -0.467989,0.40199 0.596985,-0.179995 0.074,0.129996 z m -0.466988,-1.034974 -0.208995,-0.266994 -0.180996,0.142997 0.244994,0.310992 -0.110997,0.088 -0.352991,-0.451989 0.672983,-0.525987 0.351991,0.449989 -0.111997,0.088 -0.243994,-0.311992 -0.160996,0.126996 0.207995,0.265994 z m -0.846979,-0.447989 -0.126997,-0.123997 0.152996,-0.641984 -0.39599,0.40099 -0.124997,-0.123997 0.600985,-0.607985 0.124997,0.123997 -0.152996,0.642984 0.39699,-0.40199 0.124997,0.123997 z m -1.21697,-1.59996 c 0.023,-0.034 0.052,-0.054 0.086,-0.06 0.036,-0.006 0.071,0.002 0.103998,0.025 0.036,0.024 0.056,0.052 0.063,0.087 0.009,0.034 0.002,0.068 -0.02,0.1 l -0.013,0.022 c -0.024,0.033 -0.052,0.053 -0.088,0.06 -0.034,0.005 -0.069,-0.003 -0.103997,-0.027 -0.034,-0.023 -0.055,-0.051 -0.062,-0.086 -0.008,-0.035 0,-0.069 0.022,-0.103998 z m -0.937976,-0.41899 -0.308993,-0.136996 -0.140996,0.317992 -0.160996,-0.071 0.346991,-0.780981 0.508988,0.226994 -0.059,0.129997 -0.345991,-0.154996 -0.09,0.201995 0.308992,0.136997 z M 25.166571,14.83759 c -0.025,0.08 -0.06,0.145996 -0.105998,0.198995 -0.047,0.052 -0.101997,0.087 -0.165996,0.103997 -0.062,0.017 -0.126996,0.016 -0.196995,-0.005 -0.068,-0.02 -0.123996,-0.055 -0.165995,-0.102997 -0.044,-0.05 -0.072,-0.108997 -0.081,-0.176996 -0.012,-0.07 -0.007,-0.143996 0.017,-0.222994 l 0.011,-0.04 c 0.025,-0.081 0.062,-0.146997 0.107997,-0.199995 0.047,-0.052 0.103998,-0.087 0.165996,-0.104998 0.064,-0.016 0.126997,-0.014 0.195995,0.006 0.069,0.02 0.124997,0.055 0.167996,0.103998 0.044,0.049 0.071,0.107997 0.08,0.177995 0.011,0.07 0.005,0.145997 -0.019,0.225995 z m -0.159996,-0.089 c 0.026,-0.085 0.03,-0.155996 0.012,-0.207995 -0.017,-0.054 -0.053,-0.09 -0.110997,-0.106997 -0.056,-0.017 -0.106997,-0.008 -0.150996,0.027 -0.044,0.035 -0.079,0.095 -0.103997,0.179996 l -0.012,0.038 c -0.026,0.084 -0.029,0.153996 -0.013,0.208994 0.017,0.056 0.054,0.093 0.110997,0.108998 0.058,0.017 0.107998,0.009 0.151997,-0.028 0.042,-0.035 0.078,-0.095 0.102997,-0.179995 z m -1.757956,-0.360991 c 0.004,-0.04 0.021,-0.071 0.049,-0.094 0.028,-0.021 0.062,-0.03 0.102998,-0.026 0.042,0.005 0.074,0.02 0.097,0.048 0.023,0.026 0.033,0.06 0.028,0.098 l -0.002,0.027 c -0.004,0.038 -0.02,0.07 -0.049,0.091 -0.027,0.022 -0.062,0.031 -0.101997,0.026 -0.043,-0.004 -0.074,-0.02 -0.098,-0.046 -0.022,-0.028 -0.032,-0.061 -0.027,-0.102998 z m -1.014975,0.044 -0.337992,0.023 0.015,0.227995 0.39699,-0.025 0.008,0.139997 -0.570986,0.039 -0.056,-0.853979 0.569985,-0.037 0.01,0.141996 -0.39499,0.026 0.014,0.203995 0.336991,-0.022 z m -0.980975,-0.254994 -0.257994,0.049 0.133997,0.699982 -0.172996,0.032 -0.133997,-0.699983 -0.252993,0.049 -0.028,-0.139997 0.684983,-0.129996 z m -1.039974,0.787981 -0.293993,0.095 -0.001,0.185995 -0.178996,0.058 0.04,-0.911977 0.154997,-0.05 0.567985,0.714982 -0.177995,0.058 z m -0.291993,-0.055 0.202995,-0.066 -0.200995,-0.271994 z m -0.656984,-0.178996 -0.237994,0.109998 0.301993,0.644983 -0.159996,0.076 -0.301993,-0.645984 -0.232994,0.109997 -0.06,-0.129997 0.630984,-0.294992 z m -0.865978,0.989976 c -0.018,-0.027 -0.041,-0.044 -0.07,-0.046 -0.03,-0.003 -0.075,0.004 -0.137997,0.02 -0.062,0.016 -0.112997,0.026 -0.152996,0.027 -0.109997,0.009 -0.188995,-0.026 -0.236994,-0.100998 -0.025,-0.039 -0.036,-0.08 -0.033,-0.124997 0.003,-0.044 0.02,-0.087 0.05,-0.130996 0.03,-0.044 0.071,-0.081 0.121997,-0.113998 0.051,-0.032 0.103998,-0.052 0.154997,-0.059 0.053,-0.007 0.1,0 0.144996,0.02 0.044,0.019 0.08,0.052 0.105997,0.094 l -0.147996,0.095 c -0.022,-0.034 -0.048,-0.052 -0.08,-0.057 -0.033,-0.005 -0.068,0.003 -0.104997,0.027 -0.037,0.024 -0.06,0.049 -0.07,0.078 -0.012,0.027 -0.009,0.055 0.007,0.08 0.015,0.022 0.039,0.035 0.073,0.036 0.033,0 0.078,-0.006 0.132997,-0.021 0.1,-0.029 0.182995,-0.035 0.243994,-0.023 0.064,0.014 0.112997,0.048 0.147996,0.103997 0.04,0.064 0.047,0.126997 0.022,0.191995 -0.025,0.065 -0.077,0.123997 -0.156996,0.173996 -0.057,0.036 -0.112998,0.058 -0.171996,0.066 -0.058,0.008 -0.110997,0.003 -0.156996,-0.017 -0.046,-0.021 -0.084,-0.054 -0.113997,-0.100998 l 0.149996,-0.094 c 0.05,0.08 0.122997,0.089 0.218994,0.029 0.035,-0.023 0.057,-0.048 0.069,-0.074 0.011,-0.026 0.007,-0.053 -0.009,-0.079 m -1.509962,0.872978 c -0.028,-0.03 -0.04,-0.063 -0.038,-0.099 0.003,-0.035 0.019,-0.067 0.049,-0.095 0.031,-0.027 0.065,-0.041 0.099,-0.04 0.036,0 0.066,0.015 0.094,0.044 l 0.017,0.019 c 0.026,0.03 0.039,0.062 0.038,0.097 -0.003,0.035 -0.02,0.068 -0.05,0.095 -0.032,0.028 -0.064,0.041 -0.1,0.041 -0.035,-0.001 -0.067,-0.016 -0.095,-0.047 z m -0.638984,0.80098 -0.206995,0.266993 0.181995,0.140997 0.242994,-0.314993 0.111997,0.088 -0.350991,0.451989 -0.675983,-0.521987 0.349991,-0.452989 0.113997,0.088 -0.242993,0.311992 0.160996,0.124997 0.207994,-0.266993 z m -0.202995,0.950976 -0.089,0.152996 -0.315992,-0.184995 -0.171996,0.296992 0.315992,0.183996 -0.089,0.152996 -0.738981,-0.429989 0.089,-0.152997 0.298992,0.174996 0.173996,-0.296992 -0.299993,-0.173996 0.088,-0.152996 z m -1.147972,0.614985 -0.1,0.241994 0.658983,0.272993 -0.068,0.161996 -0.657983,-0.271994 -0.099,0.238994 -0.130997,-0.054 0.265994,-0.643984 z m -0.354991,1.939951 c -0.04,-0.009 -0.069,-0.028 -0.088,-0.059 -0.018,-0.03 -0.023,-0.066 -0.015,-0.104998 0.009,-0.043 0.029,-0.073 0.058,-0.091 0.029,-0.02 0.064,-0.027 0.100998,-0.018 l 0.025,0.005 c 0.04,0.009 0.069,0.029 0.088,0.059 0.017,0.03 0.022,0.066 0.013,0.105998 -0.008,0.04 -0.027,0.07 -0.057,0.09 -0.029,0.02 -0.065,0.026 -0.104997,0.016 z m -0.037,0.981976 -0.015,0.338991 0.348991,0.015 -0.007,0.175995 -0.853979,-0.038 0.025,-0.556986 0.140996,0.006 -0.016,0.379991 0.219994,0.01 0.016,-0.336991 z m -0.08,0.906977 c 0.083,-0.007 0.157996,10e-4 0.223995,0.026 0.065,0.025 0.117997,0.064 0.155996,0.114997 0.039,0.052 0.062,0.114997 0.068,0.185996 0.005,0.07 -0.006,0.135996 -0.035,0.192995 -0.03,0.057 -0.075,0.104997 -0.134997,0.140996 -0.061,0.036 -0.132996,0.057 -0.213994,0.064 l -0.043,0.003 c -0.083,0.007 -0.157996,-0.001 -0.223995,-0.027 -0.067,-0.025 -0.118997,-0.064 -0.157996,-0.115997 -0.039,-0.053 -0.061,-0.114997 -0.066,-0.184995 -0.006,-0.07 0.006,-0.134997 0.035,-0.192995 0.03,-0.059 0.075,-0.104998 0.135997,-0.140997 0.061,-0.035 0.133996,-0.056 0.217994,-0.064 z m -0.025,0.180995 c -0.088,0.007 -0.155996,0.029 -0.199995,0.065 -0.043,0.035 -0.062,0.082 -0.058,0.140996 0.005,0.06 0.032,0.102998 0.08,0.132997 0.048,0.027 0.116997,0.038 0.205995,0.031 l 0.041,-0.003 c 0.087,-0.007 0.153996,-0.028 0.198995,-0.066 0.045,-0.035 0.066,-0.082 0.061,-0.143997 -0.005,-0.058 -0.033,-0.101997 -0.081,-0.129996 -0.049,-0.027 -0.117997,-0.037 -0.205995,-0.031 z m 0.325992,1.804955 c -0.038,0.012 -0.075,0.008 -0.104998,-0.011 -0.03,-0.017 -0.051,-0.047 -0.061,-0.086 -0.012,-0.04 -0.009,-0.078 0.009,-0.107998 0.016,-0.03 0.043,-0.051 0.081,-0.062 l 0.024,-0.008 c 0.04,-0.01 0.073,-0.006 0.104997,0.013 0.03,0.019 0.051,0.047 0.061,0.086 0.011,0.041 0.009,0.076 -0.009,0.107997 -0.016,0.032 -0.045,0.052 -0.085,0.063 z m 0.738981,1.109972 -0.158996,-0.338991 0.126997,-0.059 0.234994,0.496988 -0.773981,0.364991 -0.074,-0.159996 z m 0.310992,0.707983 0.165996,0.259993 0.179996,-0.043 0.1,0.156996 -0.891977,0.188996 -0.088,-0.137997 0.551986,-0.726982 0.1,0.155996 z m 0.02,0.295992 -0.114997,-0.180995 -0.211995,0.262993 z m 0.329992,0.570986 0.215994,0.259994 0.175996,-0.146997 -0.251994,-0.304992 0.108997,-0.091 0.365991,0.440989 -0.658983,0.544987 -0.364991,-0.43799 0.109997,-0.092 0.252994,0.303992 0.156996,-0.129997 -0.215995,-0.259993 z m 0.846979,0.725982 c -0.023,0.025 -0.031,0.051 -0.026,0.08 0.005,0.029 0.022,0.071 0.053,0.126997 0.032,0.057 0.053,0.103997 0.067,0.142996 0.035,0.103998 0.022,0.189995 -0.039,0.253994 -0.031,0.033 -0.069,0.055 -0.112997,0.063 -0.045,0.009 -0.091,0.004 -0.139997,-0.015 -0.05,-0.017 -0.096,-0.048 -0.140996,-0.09 -0.045,-0.041 -0.076,-0.086 -0.096,-0.134997 -0.02,-0.048 -0.025,-0.097 -0.018,-0.142996 0.009,-0.049 0.03,-0.092 0.065,-0.128997 l 0.128997,0.120997 c -0.027,0.028 -0.039,0.059 -0.035,0.091 0.003,0.033 0.021,0.065 0.054,0.095 0.031,0.03 0.061,0.045 0.091,0.049 0.03,0.003 0.055,-0.006 0.075,-0.027 0.02,-0.022 0.025,-0.048 0.018,-0.08 -0.008,-0.033 -0.025,-0.074 -0.054,-0.122997 -0.053,-0.091 -0.08,-0.168996 -0.084,-0.231994 -0.002,-0.064 0.019,-0.119997 0.064,-0.168996 0.051,-0.054 0.110997,-0.076 0.180995,-0.069 0.069,0.006 0.138997,0.044 0.207995,0.108997 0.048,0.044 0.083,0.094 0.105997,0.148996 0.024,0.053 0.031,0.105998 0.024,0.155996 -0.009,0.05 -0.032,0.095 -0.07,0.134997 L 17.163771,28.42525 c 0.065,-0.068 0.056,-0.141996 -0.026,-0.217995 -0.032,-0.03 -0.06,-0.046 -0.089,-0.049 -0.029,-0.003 -0.054,0.005 -0.075,0.028"/><path fill="#efae0e" d="m 22.5,31.38975 c -4.909877,0 -8.889778,-3.979901 -8.889778,-8.889778 0,-4.909877 3.979901,-8.889778 8.889778,-8.889778 4.909877,0 8.889778,3.979901 8.889778,8.889778 0,4.909877 -3.979901,8.889778 -8.889778,8.889778 m 0,-18.419539 c -5.259869,0 -9.529762,4.269893 -9.529762,9.529761 0,5.259869 4.269893,9.529762 9.529762,9.529762 5.259868,0 9.529762,-4.269893 9.529762,-9.529762 0,-5.259868 -4.269894,-9.529761 -9.529762,-9.529761"/></svg>