<svg xmlns="http://www.w3.org/2000/svg" viewBox="0 0 45 45"><path fill="#AA0200" d="m 45,22.5 v 11.25 c 0,2.761 -2.238944,5 -4.999875,5 H 5.001 c -2.760931,0 -4.999875,-2.239 -4.999875,-5 V 22.5 Z"/><path fill="#071D49" d="M 0,22.5 V 11.25 c 0,-2.761 2.238944,-5 4.999875,-5 H 39.999 c 2.760931,0 4.999875,2.239 4.999875,5 V 22.5 Z"/><path fill="#EDECEC" d="m 45,19.370172 v 9.38 H 33.340291 l -10.839729,6.26 -10.839729,-6.26 H 0.001125 v -9.38 l 4.4998875,-3.12 2.2499437,1.56 6.7498318,-4.69 1.619959,1.13 7.379815,-4.26 7.379816,4.26 1.619959,-1.13 6.749832,4.69 2.249943,-1.56 z"/><path fill="#071D49" d="m 31.88175,27.916635 v -10.833 l -9.380765,-5.417 -9.382766,5.417 v 10.833 l 9.382766,5.417 z"/><path fill="#FFB81D" d="m 30.62475,27.191367 -8.124797,4.691 -8.124797,-4.691 v -9.380999 l 8.124797,-4.692001 8.124797,4.692001 z m -8.124797,-14.542 -8.530787,4.926 v 9.851001 l 8.530787,4.925999 8.530787,-4.925999 v -9.851001 z"/><path fill="#FFFFFF" d="m 22.5,27.400623 0.335992,1.034999 h 1.086972 l -0.879978,0.64 0.336992,1.033 L 22.5,29.469623 l -0.879978,0.638999 0.334991,-1.033 -0.877978,-0.64 h 1.085973 z"/><path fill="#FFB81D" d="m 23.31975,26.019838 v -0.23 c 0,-0.22 -0.09,-0.43 -0.239994,-0.58 -0.149996,-0.15 -0.349991,-0.24 -0.579986,-0.24 -0.449988,0 -0.819979,0.37 -0.819979,0.82 v 0.23 h -5.309867 l 0.239994,-1.57 h 11.779705 l 0.239994,1.57 z"/><path fill="#FFB81D" d="M 28.29,23.919785 H 16.71029 l 0.309992,-1.57 h 10.959726 z"/><path fill="#FFB81D" d="M 27.86025,21.819733 H 17.140518 l 0.449989,-1.57 h 9.819754 z"/><path fill="#FFB81D" d="m 27.18,19.71968 h -9.359766 l 0.939976,-1.57 h 7.479814 z"/><path fill="#FFB81D" d="m 25.5255,17.402123 0.224994,0.216999 h -6.499837 l 0.225994,-0.216999 c 0.854979,-0.819001 1.889953,-1.351 3.021925,-1.351 1.130971,0 2.176945,0.531999 3.026924,1.351"/></svg>