<svg xmlns="http://www.w3.org/2000/svg" xmlns:xlink="http://www.w3.org/1999/xlink" viewBox="0 0 36 36">
	<path fill="#039" d="M 0 9 a 4 4 0 0 1 4 -4 h 11 v 10 h -15 v -6 m 36 0 a -4 -4 0 0 0 -4 -4 h -11 v 10 h 15 v -6 m 0 18 a 4 4 0 0 1 -4 4 h -11 v -10 h 15 v 6 m -36 0 a 4 4 0 0 0 4 4 h 11 v -10 h -15 v 6 z" />
	<path fill="#EEE" d="M 21 5 h -6 v 10 H 0 v 6 h 15 v 10 h 6 V 21 h 15 v -6 H 21 z"/>

	<path id="fleur" d="M 8.7875 11.7583 v -0.5375 h -0.4792 c 0 -0.275 0.1333 -0.5417 0.275 -0.625 c 0.0833 -0.0708 0.2708 -0.1042 0.4333 -0.0208 c 0.2125 0.1208 0.225 0.4708 0.1167 0.6292 c 1.0125 -0.1875 0.9125 -1.1667 0.5667 -1.5208 c -0.2792 -0.2875 -0.5833 -0.3292 -0.8167 -0.2417 c -0.5333 0.1917 -0.8917 0.8292 -0.9083 1.7792 h -0.2792 c 0 -0.8625 0.15 -1.1375 0.5417 -2.225 c 0.2 -0.5125 0.0792 -1.1458 -0.2708 -1.7292 c -0.1292 -0.2083 -0.2875 -0.3958 -0.4667 -0.6 c -0.1792 0.2042 -0.3375 0.3917 -0.4667 0.6 c -0.35 0.5833 -0.4708 1.2167 -0.2708 1.7292 c 0.3917 1.0875 0.5417 1.3625 0.5417 2.225 h -0.2792 c -0.0167 -0.95 -0.375 -1.5875 -0.9083 -1.7792 c -0.2333 -0.0875 -0.5375 -0.0458 -0.8167 0.2417 c -0.3458 0.3542 -0.4458 1.3333 0.5667 1.5208 c -0.1083 -0.1583 -0.0958 -0.5083 0.1167 -0.6292 c 0.1625 -0.0833 0.35 -0.05 0.4333 0.0208 c 0.1417 0.0833 0.275 0.35 0.275 0.625 h -0.4792 v 0.5375 h 0.9958 c -0.0125 0.2792 -0.1625 0.4958 -0.4417 0.6167 c 0.0333 0.1167 0.2042 0.3542 0.4375 0.3375 c 0.0458 0.25 0.0875 0.3917 0.2958 0.6208 c 0.2083 -0.2292 0.25 -0.3708 0.2958 -0.6208 c 0.2333 0.0167 0.4042 -0.2208 0.4375 -0.3375 c -0.2792 -0.1208 -0.4292 -0.3375 -0.4417 -0.6167 z" fill="#EEE" />
	
	<use xlink:href="#fleur" x="21" y="0" />
	<use xlink:href="#fleur" x="0" y="16" />
	<use xlink:href="#fleur" x="21" y="16" />
</svg>