<?xml version="1.0" encoding="utf-8"?>
<!-- Generator: Adobe Illustrator 26.0.2, SVG Export Plug-In . SVG Version: 6.00 Build 0)  -->
<svg version="1.1" id="Layer_3" xmlns="http://www.w3.org/2000/svg" xmlns:xlink="http://www.w3.org/1999/xlink" x="0px" y="0px"
	 viewBox="0 0 72 72" style="enable-background:new 0 0 72 72;" xml:space="preserve">
<style type="text/css">
	.st0{fill:#FFCC4D;}
	.st1{fill:#614613;}
	.st2{fill:#4FACF0;}
	.st3{fill:#C8D4D9;}
	.st4{fill:#E1E7EB;}
	.st5{fill:#EDF0F3;}
	.st6{fill:#9BA8B3;}
	.st7{fill:#FA743E;}
	.st8{fill:#3B88C3;}
	.st9{fill:none;}
	.st10{fill:#FFFFFF;}
	.st11{fill:#C6E5B3;}
	.st12{fill:#77B255;}
	.st13{fill:#4E932B;}
	.st14{fill:#F47C01;}
	.st15{fill:#F4531F;}
	.st16{fill:#FEA726;}
</style>
<g>
	<g>
		<g>
			<g>
				<g>
					<g>
						<path class="st14" d="M27.17,37.21c0,0-1.39,1.06-2.87-0.57c-1.43-1.57-2.4-7.74,0.79-10.54c0.24-0.21,0.39-0.51,0.43-0.83
							C25.89,22.3,28.09,7.79,36.79,0c0,0-16.49,1.39-16.33,15.52c0,0.28-0.39,0.36-0.5,0.1l-2.72-6.25c0,0-7.37,9.62-0.75,19.71
							c0.12,0.19-0.11,0.4-0.28,0.27l-5.21-4.03c0,0,0,5.76,4.76,8.6c0.26,0.16,0.19,0.55-0.11,0.6l-3.01,0.5
							c0,0,2.96,7.77,11.67,9.15"/>
						<path class="st15" d="M24.31,44.17l1.82-4.42c-0.36,0.02-0.79,0.06-1.29,0.15c-8.17,1.42-12.2-4.87-12.2-4.87v0
							C12.63,35.02,15.59,42.79,24.31,44.17z"/>
						<path class="st14" d="M36.64,47.19c12.5,2.3,23.35-8.88,23.35-8.88l-9.66,0.29c-0.23,0.01-0.3-0.31-0.09-0.41
							c11.97-5.07,10.73-14.68,10.73-14.68l-9.63,4.38c-0.19,0.09-0.35-0.17-0.19-0.31c10.42-9.15,4.24-16.57,4.24-16.57l-5.87,7.27
							c-0.11,0.13-0.31,0-0.24-0.15C55.2,6.24,40.75,0,40.75,0c5.99,13.17,1.31,22.36-0.7,25.39c-0.38,0.57-0.27,1.33,0.25,1.78
							c1.3,1.13,3.14,3.79,1.27,9.17c-1.09,3.14-3.3,4.28-4.6,4.28c-1.64,0-1.97-1.32-2.3-3.95c-0.18-1.45-0.66-3.11-1.06-4.3
							c-0.27-0.81,0.05-1.73,0.81-2.13c2.76-1.45,2.38-4.59,2.38-4.59s-0.99,2.3-4.6,2.3c-3.62,0-6.58-0.33-6.58,3.95
							c0,0,0.99-0.99,2.3-0.66s2.3,2.96,0.99,4.28c-1.32,1.32-5.56,3.7-4.6,9.54c1.12,6.83,9.21,9.54,15.78,6.25
							C40.09,51.3,37.63,49.49,36.64,47.19z"/>
						<circle cx="29.82" cy="29.68" r="0.58"/>
						<path class="st0" d="M27.48,31.18L27.48,31.18l2.07,0.08c-1.99-1.99-0.44-3.17-0.33-3.25c-2.12,0.17-3.6,0.89-3.6,3.89
							C25.62,31.9,26.39,31.13,27.48,31.18z"/>
					</g>
					<g>
						<path class="st16" d="M52.6,51.52c1.68,0.52,1.99,1.04,1.99,1.04s-0.17-1.72-1.52-2.6C51.71,49.08,50.92,51,52.6,51.52z"/>
						<path class="st16" d="M56.23,58.81c0,0,0.68,1.96,0.18,3.41c-0.5,1.45,0.15,2.88,1,3.89c0,0,0.18-1.79,0.53-3.02
							C58.46,61.21,57.64,59.75,56.23,58.81z"/>
						<path class="st14" d="M47.08,51.24c-0.37-2.81,3.24-1.31,3.24-1.31c-1.63-2.18-4.71-1.62-6.04-0.2c-0.11,0.12,0.09-0.14,0,0
							c0,0-1.03,1.15-2.56,1.68c-0.48,0.17-1.03,0.17-1.63-0.11l0.11,6.07c-0.01,0.31-0.01,0.63,0.02,0.94l0,0.01l0,0
							c0.02,0.34,0.07,0.68,0.14,1.01c0.8,3.77,2.61,0.57,3.83,6.34c0.43,2.05,3.69,2.72,3.69,2.72c-1.47-1.44-1.49-3.38-0.75-3.54
							c0.75-0.16,0.93-0.2,1.72,3.53c0.79,3.73,3.84,3.62,3.84,3.62c-1.75-1.62-1.86-3.45-1.16-5.47c0.7-2.02-0.87-4.1-0.87-4.1
							c1.89,0.84,1.96,2.63,2.43,4.86s3.05,2.47,3.05,2.47s-1.31-0.69-1.2-3.83c0.11-3.14-0.11-6.01-2.76-7
							c-0.2-0.08-0.39-0.16-0.55-0.24c-2.05-1.04-0.59-4.17,1.52-3.26c1.57,0.68,2.86,2.68,2.86,2.68
							C54,48.61,47.47,54.23,47.08,51.24z"/>
					</g>
				</g>
			</g>
			<path class="st14" d="M34.8,56.36c0,0,0.18,2.55-0.06,3.91c-0.24,1.35-0.92,1.46-2.05,1.9c-1.03,0.41-2.78,0.9-3.17,1.9
				c-0.05,0.12,0.07,0.24,0.19,0.2l1.57-0.54c0.08-0.03,0.13,0.08,0.06,0.13c-0.66,0.42-1.53,1.17-1.54,2.17
				c0,0.12,0.13,0.19,0.23,0.13l2.6-1.64c0.06-0.04,0.13,0.03,0.1,0.09c-0.18,0.4-0.5,1.22-0.22,1.74c0.05,0.09,0.16,0.1,0.23,0.04
				c0.55-0.52,2.73-2.62,3.02-3.47c0.32-0.97-0.02-1.06,0.21-2.64c0.22-1.58,0.56-4.89,0.56-4.89"/>
			<path class="st14" d="M32.45,54.82c0,0-1,4.23-1.11,4.78c0,0-0.22,1-1,1.67s-2.91,1.81-2.91,1.81c-0.05,0.04-0.12,0.02-0.15-0.03
				c-0.21-0.44,0.33-1.12,0.68-1.5c0.06-0.07-0.01-0.17-0.09-0.14l-2.51,0.94c-0.06,0.01-0.12-0.03-0.12-0.1
				c0-0.76,1.05-1.24,1.75-1.48c0.09-0.03,0.07-0.17-0.03-0.17l-1.4,0.01c-0.08-0.01-0.12-0.11-0.06-0.17
				c0.21-0.2,0.62-0.55,1.08-0.63c0.67-0.11,2.11,0,3-0.11c0.44-0.06,0.71-0.33,0.85-0.59c0.12-0.21,0.18-0.44,0.2-0.68l0.28-3.4"/>
			<path class="st16" d="M37.62,48.84c-0.29-0.38-0.56-0.79-0.78-1.23c-0.71-1.29-1.3-2.93-1.43-4.94c-0.39-5.9-5.86-7.36-8.57-5.32
				c-1.74,1.31-3.16,3.87-2.53,7.7c0.25,1.54,0.87,2.86,1.74,3.96L26,49c0.56,0.83,1.8,1.83,3.12,2.72l0,0c0,0,1.39,1.78,1.39,2.78
				c0,1,1.58,2.16,2.53-0.39c1.36,1.04,1.07,3.36,2.47,2.89c1.09-0.36,1.66-2.06,1.88-2.95c0.09-0.35,0.31-0.64,0.62-0.82
				c1.59-0.93,2.08-1.92,2.09-1.93c0,0,0,0,0,0C40.09,51.3,38.84,50.41,37.62,48.84z"/>
			<g>
				<path class="st15" d="M37.05,48c0.15,0.26,0.32,0.5,0.49,0.74C37.37,48.5,37.2,48.25,37.05,48z"/>
				<path class="st15" d="M36.98,47.86c0.02,0.04,0.05,0.09,0.08,0.13C37.03,47.95,37,47.91,36.98,47.86z"/>
				<path class="st16" d="M37.05,47.99C37.05,47.99,37.05,48,37.05,47.99C37.05,48,37.05,47.99,37.05,47.99z"/>
				<path class="st16" d="M36.85,47.63c0.04,0.08,0.08,0.15,0.12,0.23C36.93,47.79,36.89,47.71,36.85,47.63z"/>
			</g>
			<g>
				<path class="st15" d="M50.33,38.6l0.75-0.02c-0.28,0.01-0.55,0.01-0.8,0.02C50.29,38.6,50.31,38.6,50.33,38.6z"/>
				<path class="st15" d="M56.12,34.58C56.12,34.58,56.12,34.58,56.12,34.58C56.12,34.58,56.12,34.58,56.12,34.58z"/>
				<path class="st15" d="M59.78,29.69c0,0.01-0.01,0.02-0.01,0.02C59.78,29.71,59.78,29.7,59.78,29.69z"/>
				<path class="st15" d="M56.45,34.27C56.45,34.27,56.45,34.27,56.45,34.27C56.45,34.27,56.45,34.27,56.45,34.27z"/>
				<path class="st15" d="M60.36,28.21c0,0.01-0.01,0.02-0.01,0.03C60.36,28.23,60.36,28.22,60.36,28.21z"/>
				<path class="st15" d="M56.77,33.97C56.77,33.97,56.77,33.97,56.77,33.97C56.77,33.97,56.77,33.97,56.77,33.97z"/>
				<path class="st15" d="M59.95,29.32c0,0.01,0,0.01-0.01,0.02C59.94,29.33,59.94,29.32,59.95,29.32z"/>
				<path class="st15" d="M59.17,30.87c0,0,0,0.01-0.01,0.01C59.17,30.87,59.17,30.87,59.17,30.87z"/>
				<path class="st15" d="M58.4,32.06C58.4,32.06,58.4,32.06,58.4,32.06C58.4,32.06,58.4,32.06,58.4,32.06z"/>
				<path class="st15" d="M60.24,28.57c0,0.01-0.01,0.02-0.01,0.02C60.24,28.58,60.24,28.57,60.24,28.57z"/>
				<path class="st15" d="M49.96,8.74c0,0,0,0.01,0,0.01C49.96,8.75,49.96,8.75,49.96,8.74z"/>
				<path class="st15" d="M50.05,8.98C50.05,8.98,50.05,8.98,50.05,8.98C50.05,8.98,50.05,8.98,50.05,8.98z"/>
				<path class="st15" d="M49.87,8.52C49.87,8.53,49.87,8.53,49.87,8.52C49.87,8.53,49.87,8.53,49.87,8.52z"/>
				<path class="st15" d="M55.76,22.03c-0.02,0.03-0.04,0.07-0.06,0.1C55.73,22.1,55.75,22.06,55.76,22.03z"/>
				<path class="st15" d="M56.34,20.83C56.34,20.83,56.34,20.83,56.34,20.83C56.34,20.83,56.34,20.83,56.34,20.83z"/>
				<path class="st15" d="M55.93,21.7c-0.01,0.03-0.03,0.06-0.04,0.09C55.91,21.76,55.92,21.73,55.93,21.7z"/>
				<path class="st15" d="M57.2,16.56c0,0.04,0,0.07,0,0.11C57.2,16.63,57.2,16.6,57.2,16.56z"/>
				<path class="st15" d="M57.19,17.11c0,0.03,0,0.07-0.01,0.1C57.19,17.18,57.19,17.15,57.19,17.11z"/>
				<path class="st15" d="M55.57,22.37c-0.02,0.03-0.04,0.06-0.06,0.1C55.54,22.44,55.55,22.41,55.57,22.37z"/>
				<path class="st15" d="M56.47,20.5c-0.01,0.03-0.02,0.06-0.03,0.09C56.45,20.55,56.46,20.53,56.47,20.5z"/>
				<path class="st15" d="M57.2,16.84c0,0.04,0,0.07,0,0.11C57.2,16.91,57.2,16.87,57.2,16.84z"/>
				<path class="st15" d="M56.92,19.05C56.92,19.05,56.92,19.05,56.92,19.05C56.92,19.05,56.92,19.05,56.92,19.05z"/>
				<path class="st15" d="M56.99,18.74c-0.01,0.03-0.01,0.06-0.02,0.09C56.98,18.8,56.98,18.77,56.99,18.74z"/>
				<path class="st15" d="M57.13,17.88c0,0.02,0,0.04-0.01,0.06C57.12,17.92,57.13,17.9,57.13,17.88z"/>
				<path class="st15" d="M57.05,18.43c-0.01,0.03-0.01,0.07-0.02,0.1C57.03,18.5,57.04,18.47,57.05,18.43z"/>
				<path class="st15" d="M57.18,17.4c0,0.01,0,0.03,0,0.04C57.17,17.42,57.18,17.41,57.18,17.4z"/>
				<path class="st15" d="M57.09,15.16c0.01,0.03,0.01,0.07,0.01,0.1C57.1,15.22,57.09,15.19,57.09,15.16z"/>
				<path class="st15" d="M56.77,19.61c0,0.01,0,0.01-0.01,0.02C56.77,19.62,56.77,19.61,56.77,19.61z"/>
				<path class="st15" d="M56.59,20.17c-0.01,0.03-0.02,0.06-0.03,0.1C56.57,20.24,56.58,20.2,56.59,20.17z"/>
				<path class="st15" d="M56.69,19.86c-0.01,0.03-0.02,0.06-0.03,0.09C56.67,19.92,56.68,19.89,56.69,19.86z"/>
				<path class="st15" d="M57.17,15.9c0,0.02,0,0.04,0,0.06C57.18,15.95,57.18,15.92,57.17,15.9z"/>
				<path class="st15" d="M57.05,14.93c0.01,0.03,0.01,0.06,0.02,0.08C57.06,14.99,57.05,14.96,57.05,14.93z"/>
				<path class="st15" d="M57.12,15.4c0,0.03,0.01,0.07,0.01,0.1C57.13,15.47,57.13,15.43,57.12,15.4z"/>
				<path class="st15" d="M57.15,15.65c0,0.03,0.01,0.07,0.01,0.1C57.16,15.71,57.15,15.68,57.15,15.65z"/>
				<path class="st15" d="M57.09,18.14c0,0.03-0.01,0.06-0.01,0.1C57.08,18.2,57.09,18.17,57.09,18.14z"/>
				<path class="st15" d="M54.81,23.57c-0.03,0.04-0.06,0.08-0.09,0.13C54.75,23.66,54.78,23.62,54.81,23.57z"/>
				<path class="st15" d="M55.37,22.72c-0.01,0.01-0.01,0.02-0.02,0.04C55.35,22.75,55.36,22.74,55.37,22.72z"/>
				<path class="st15" d="M57.2,16.31c0,0.03,0,0.06,0,0.09C57.2,16.37,57.2,16.34,57.2,16.31z"/>
				<path class="st15" d="M57.13,15.5c0.01,0.05,0.01,0.1,0.02,0.15C57.15,15.6,57.14,15.55,57.13,15.5z"/>
				<path class="st15" d="M57.12,17.94c-0.01,0.07-0.02,0.13-0.03,0.2C57.1,18.07,57.11,18.01,57.12,17.94z"/>
				<path class="st15" d="M57.17,17.44c-0.01,0.15-0.03,0.29-0.04,0.44C57.15,17.73,57.16,17.58,57.17,17.44z"/>
				<path class="st15" d="M57.1,15.26c0.01,0.05,0.01,0.1,0.02,0.14C57.12,15.35,57.11,15.3,57.1,15.26z"/>
				<path class="st15" d="M57.06,15.02c0.01,0.05,0.02,0.09,0.02,0.14C57.08,15.11,57.07,15.06,57.06,15.02z"/>
				<path class="st15" d="M57.18,15.97c0.01,0.11,0.01,0.23,0.02,0.34C57.19,16.19,57.19,16.08,57.18,15.97z"/>
				<path class="st15" d="M57.2,16.4c0,0.05,0,0.11,0,0.16C57.2,16.51,57.2,16.45,57.2,16.4z"/>
				<path class="st15" d="M57.2,16.94c0,0.06,0,0.11-0.01,0.17C57.2,17.06,57.2,17,57.2,16.94z"/>
				<path class="st15" d="M57.2,16.67c0,0.05,0,0.11,0,0.17C57.2,16.78,57.2,16.72,57.2,16.67z"/>
				<path class="st15" d="M49.87,8.53c0.03,0.07,0.06,0.14,0.09,0.22C49.93,8.67,49.9,8.6,49.87,8.53z"/>
				<path class="st15" d="M49.97,8.76c0.03,0.07,0.06,0.15,0.09,0.22C50.02,8.9,49.99,8.83,49.97,8.76z"/>
				<polygon class="st15" points="55.38,11.02 55.38,11.02 55.38,11.02 				"/>
				<path class="st15" d="M57.16,15.75c0,0.05,0.01,0.1,0.01,0.16C57.17,15.85,57.17,15.8,57.16,15.75z"/>
				<path class="st15" d="M57.19,17.21c0,0.06-0.01,0.12-0.01,0.18C57.18,17.34,57.19,17.28,57.19,17.21z"/>
				<path class="st15" d="M56.66,19.95c-0.02,0.07-0.05,0.15-0.08,0.22C56.61,20.1,56.64,20.02,56.66,19.95z"/>
				<path class="st15" d="M56.77,33.97c-0.1,0.1-0.21,0.2-0.32,0.31C56.56,34.17,56.66,34.07,56.77,33.97z"/>
				<path class="st15" d="M55.77,34.88c0.12-0.1,0.23-0.2,0.35-0.3C56,34.68,55.89,34.78,55.77,34.88
					C55.77,34.88,55.77,34.88,55.77,34.88z"/>
				<path class="st15" d="M59.17,30.88c-0.23,0.39-0.48,0.79-0.77,1.19C58.68,31.67,58.94,31.27,59.17,30.88z"/>
				<path class="st15" d="M56.45,34.27c-0.11,0.1-0.22,0.2-0.33,0.3C56.23,34.48,56.34,34.37,56.45,34.27z"/>
				<path class="st15" d="M59.94,29.33c-0.05,0.12-0.1,0.24-0.16,0.36C59.84,29.57,59.89,29.45,59.94,29.33z"/>
				<path class="st15" d="M59.77,29.71c-0.17,0.38-0.37,0.76-0.6,1.15C59.4,30.48,59.6,30.09,59.77,29.71z"/>
				<path class="st15" d="M56.77,33.97c0.63-0.63,1.17-1.27,1.63-1.9c-0.38,0.53-0.82,1.07-1.33,1.59
					C56.97,33.76,56.87,33.86,56.77,33.97z"/>
				<path class="st15" d="M60.23,28.59c-0.09,0.24-0.18,0.48-0.29,0.73C60.05,29.07,60.15,28.83,60.23,28.59z"/>
				<path class="st15" d="M57.08,18.24c-0.01,0.06-0.02,0.13-0.03,0.2C57.06,18.37,57.07,18.3,57.08,18.24z"/>
				<path class="st15" d="M54.18,24.43c0.19-0.24,0.37-0.49,0.55-0.73C54.55,23.94,54.37,24.19,54.18,24.43L54.18,24.43z"/>
				<path class="st15" d="M54.81,23.57c0.19-0.27,0.37-0.55,0.53-0.82c-0.13,0.21-0.26,0.42-0.4,0.63
					C54.9,23.45,54.85,23.51,54.81,23.57z"/>
				<path class="st15" d="M50.17,15.92L50.17,15.92c0.82-2.63,0.62-4.94-0.12-6.94C50.8,10.97,50.99,13.29,50.17,15.92z"/>
				<path class="st15" d="M56.44,20.58c-0.03,0.08-0.06,0.16-0.1,0.24C56.37,20.75,56.4,20.66,56.44,20.58z"/>
				<path class="st15" d="M56.55,20.27c-0.03,0.08-0.06,0.15-0.08,0.23C56.5,20.42,56.53,20.34,56.55,20.27z"/>
				<path class="st15" d="M56.97,18.83c-0.02,0.07-0.03,0.15-0.05,0.22C56.94,18.97,56.95,18.9,56.97,18.83z"/>
				<path class="st15" d="M56.92,19.05c-0.04,0.18-0.09,0.37-0.15,0.55C56.82,19.42,56.87,19.24,56.92,19.05z"/>
				<path class="st15" d="M56.76,19.63c-0.02,0.08-0.05,0.15-0.07,0.23C56.72,19.78,56.74,19.71,56.76,19.63z"/>
				<path class="st15" d="M55.71,22.13c-0.04,0.08-0.09,0.16-0.13,0.24C55.62,22.29,55.66,22.21,55.71,22.13z"/>
				<path class="st15" d="M60.35,28.24c-0.04,0.11-0.07,0.22-0.11,0.33C60.28,28.46,60.32,28.35,60.35,28.24z"/>
				<path class="st15" d="M55.52,22.47c-0.05,0.08-0.1,0.17-0.15,0.25C55.42,22.64,55.47,22.55,55.52,22.47z"/>
				<path class="st15" d="M56.34,20.83c-0.12,0.29-0.25,0.58-0.4,0.87C56.08,21.41,56.22,21.12,56.34,20.83z"/>
				<path class="st15" d="M57.03,18.54c-0.01,0.07-0.03,0.13-0.04,0.2C57,18.67,57.02,18.6,57.03,18.54z"/>
				<path class="st15" d="M55.89,21.79c-0.04,0.08-0.08,0.16-0.13,0.24C55.81,21.95,55.85,21.87,55.89,21.79z"/>
				<path class="st15" d="M50.27,38.6c-0.18-0.04-0.22-0.32-0.03-0.4c2.29-0.97,4.1-2.11,5.53-3.32c0,0,0,0,0,0
					c0.12-0.1,0.23-0.2,0.35-0.3c0,0,0,0,0,0c0.11-0.1,0.22-0.2,0.33-0.3c0,0,0,0,0,0c0.11-0.1,0.21-0.2,0.32-0.31c0,0,0,0,0,0
					c0.1-0.1,0.2-0.21,0.3-0.31c0.5-0.53,0.94-1.06,1.33-1.59c0,0,0,0,0,0c0.29-0.4,0.54-0.79,0.77-1.19c0,0,0-0.01,0.01-0.01
					c0.23-0.39,0.42-0.77,0.6-1.15c0-0.01,0.01-0.02,0.01-0.02c0.06-0.12,0.11-0.24,0.16-0.36c0-0.01,0-0.01,0.01-0.02
					c0.1-0.25,0.2-0.49,0.29-0.73c0-0.01,0.01-0.02,0.01-0.02c0.04-0.11,0.08-0.22,0.11-0.33c0-0.01,0.01-0.02,0.01-0.03
					c0.08-0.23,0.14-0.46,0.2-0.68c-0.01,0.01-5.33,9.26-14.82,10.19c-0.25,0.02-0.28,0.38-0.03,0.44
					C46.6,38.37,48.06,38.6,50.27,38.6z"/>
				<rect x="55.38" y="11.02" class="st15" width="0" height="0"/>
				<path class="st15" d="M47.38,20.86c-0.14,0.16-0.39-0.02-0.29-0.21c3.3-5.95,2.36-13,2.36-13c0,0,0,0,0,0
					c0.15,0.28,0.29,0.57,0.42,0.87c0,0,0,0,0,0c0.03,0.07,0.06,0.14,0.09,0.22c0,0,0,0.01,0,0.01c0.03,0.07,0.06,0.15,0.09,0.22
					c0,0,0,0,0,0c0.74,1.99,0.94,4.31,0.12,6.94l0,0c-0.22,0.71-0.52,1.45-0.9,2.21c-0.06,0.12,0.05,0.23,0.16,0.2L47.38,20.86
					L47.38,20.86z"/>
				<path class="st15" d="M46.74,29.25c-0.21,0.11-0.11,0.44,0.13,0.4c0.69-0.11,1.32-0.36,1.32-0.36l3.08-1.39
					c-0.15,0-0.25-0.2-0.11-0.33c1.23-1.08,2.22-2.13,3.03-3.15l0,0c0.19-0.24,0.37-0.49,0.55-0.73c0.03-0.04,0.06-0.08,0.09-0.13
					c0.04-0.06,0.09-0.13,0.13-0.19c0.14-0.21,0.28-0.42,0.4-0.63c0.01-0.01,0.01-0.02,0.02-0.04c0.05-0.08,0.1-0.17,0.15-0.25
					c0.02-0.03,0.04-0.06,0.06-0.1c0.05-0.08,0.09-0.16,0.13-0.24c0.02-0.03,0.04-0.07,0.06-0.1c0.04-0.08,0.09-0.16,0.13-0.24
					c0.02-0.03,0.03-0.06,0.04-0.09c0.15-0.29,0.28-0.58,0.4-0.87c0,0,0,0,0,0c0.03-0.08,0.07-0.16,0.1-0.24
					c0.01-0.03,0.02-0.06,0.03-0.09c0.03-0.08,0.06-0.15,0.08-0.23c0.01-0.03,0.02-0.07,0.03-0.1c0.03-0.07,0.05-0.15,0.08-0.22
					c0.01-0.03,0.02-0.06,0.03-0.09c0.02-0.08,0.05-0.15,0.07-0.23c0-0.01,0-0.01,0.01-0.02c0.05-0.19,0.1-0.37,0.15-0.55
					c0,0,0-0.01,0-0.01c0.02-0.07,0.03-0.15,0.05-0.22c0.01-0.03,0.01-0.06,0.02-0.09c0.01-0.07,0.03-0.13,0.04-0.2
					c0.01-0.03,0.01-0.07,0.02-0.1c0.01-0.07,0.02-0.13,0.03-0.2c0.01-0.03,0.01-0.07,0.01-0.1c0.01-0.07,0.02-0.13,0.03-0.2
					c0-0.02,0-0.04,0.01-0.06c0.02-0.15,0.03-0.3,0.04-0.44c0-0.01,0-0.03,0-0.04c0-0.06,0.01-0.12,0.01-0.18
					c0-0.03,0-0.07,0.01-0.1c0-0.06,0-0.11,0.01-0.17c0-0.04,0-0.07,0-0.11c0-0.06,0-0.11,0-0.17c0-0.04,0-0.07,0-0.11
					c0-0.05,0-0.11,0-0.16c0-0.03,0-0.06,0-0.09c0-0.12-0.01-0.23-0.02-0.34c0-0.02,0-0.04,0-0.06c0-0.05-0.01-0.1-0.01-0.16
					c0-0.03-0.01-0.07-0.01-0.1c-0.01-0.05-0.01-0.1-0.02-0.15c0-0.03-0.01-0.07-0.01-0.1c-0.01-0.05-0.01-0.1-0.02-0.14
					c0-0.03-0.01-0.07-0.01-0.1c-0.01-0.05-0.01-0.1-0.02-0.14c0-0.03-0.01-0.06-0.02-0.08c-0.02-0.12-0.04-0.24-0.07-0.35
					C56.98,14.58,55.23,24.67,46.74,29.25z"/>
			</g>
			<g>
				<path class="st9" d="M47.88,68.39c0,0-0.1-0.02-0.26-0.06C47.7,68.36,47.79,68.38,47.88,68.39z"/>
				<path class="st15" d="M44.27,49.73C44.36,49.59,44.16,49.85,44.27,49.73L44.27,49.73z"/>
				<path class="st16" d="M40.22,58.31L40.22,58.31L40.22,58.31c0.03,0.35,0.07,0.69,0.14,1.02c0.8,3.77,2.61,0.57,3.83,6.34
					c0.36,1.69,2.64,2.45,3.43,2.66c-2.91-0.94-1.67-8.62-4.16-8.73c-2.56-0.11-3.37-8.3-3.37-8.3l0.11,6.07
					C40.19,57.69,40.2,58,40.22,58.31z"/>
				<path class="st15" d="M50.02,67.61c-0.78-2.67-2.32-2.76-2.32-2.76l0,0c0.35,0.18,0.61,0.96,1.16,3.53
					c0.79,3.73,3.84,3.62,3.84,3.62C51.14,71.39,50.8,70.28,50.02,67.61z"/>
			</g>
			<g>
				<path class="st15" d="M16.2,29.35c0.01,0.01,0.03,0.02,0.04,0.02l-5.25-4.05L16.2,29.35z"/>
				<path class="st15" d="M26.96,3.39c-3.5,2.26-6.57,5.99-6.5,12.13c0,0.28-0.39,0.37-0.5,0.11l-2.72-6.25l3.78,8.69
					c0.17,0.39,0.75,0.31,0.8-0.12C22.18,14.53,23.4,6.69,26.96,3.39z"/>
				<path class="st15" d="M16.49,29.08c0.11,0.17-0.07,0.37-0.24,0.29l2.43,1.87c0.32,0.25,0.75-0.11,0.57-0.47
					C17.5,27.37,13.95,19,16.2,11.02C14.44,14.19,11.52,21.5,16.49,29.08z"/>
				<polygon class="st15" points="10.99,25.32 10.99,25.32 10.99,25.32 				"/>
				<path class="st15" d="M11.08,26.35c0.24,1.79,1.16,5.48,4.68,7.58c0.23,0.14,0.2,0.47-0.02,0.57l2.71-0.46
					c0.31-0.05,0.33-0.49,0.03-0.57C16.39,32.9,12.87,31.25,11.08,26.35z"/>
			</g>
		</g>
		<g>
			<path class="st15" d="M53.5,64c-1-2.5-2.84-1.57-2.84-1.57c1.89,0.84,1.96,2.63,2.43,4.86c0.47,2.24,3.05,2.47,3.05,2.47
				s-0.01,0-0.02-0.01C53.81,68.5,54.5,66.49,53.5,64z"/>
		</g>
	</g>
	<g>
		<path class="st9" d="M35.7,44.59c-0.14-0.6-0.25-1.23-0.3-1.91C35.45,43.36,35.57,43.99,35.7,44.59L35.7,44.59z"/>
		<path class="st15" d="M35.7,44.59c0.27,1.16,0.66,2.17,1.13,3.02c0.22,0.43,0.49,0.85,0.78,1.23c1.21,1.56,2.45,2.45,2.47,2.46
			c-0.01-0.02-2.8-3.67-0.44-3.8c0.08,0,0.12-0.02,0.18-0.03c11.09,0.14,20.16-9.16,20.16-9.16c0,0-14.78,8.79-24.58,4.35
			c0,0,0,0.01,0,0.01C35.45,43.36,35.57,43.99,35.7,44.59L35.7,44.59z"/>
	</g>
</g>
</svg>
