<svg xmlns="http://www.w3.org/2000/svg" viewBox="0 0 36 36"><path fill="#F3D2A2" d="M 9.993,1.015 c 1.214,-0.871 3.488,-0.718 4.13,0.795 c 0.638,1.502 0.813,4.067 -0.598,4.266 c -1.479,0.209 -3.036,0.269 -3.994,-1.066 c -0.959,-1.335 -0.752,-3.124 0.462,-3.995 Z"/><path fill="#F3D2A2" d="M 10.01,5.295 c -2.544,-1.808 2.238,-2.778 2.238,-2.778 c 0.902,-0.194 0.664,1.452 1.29,2.159 c 0.431,0.49 -0.708,1.096 -0.708,1.096 s -0.56,0.133 -0.419,0.817 l 0.002,0.006 c 0.037,0.174 0.107,0.374 0.256,0.627 c 0.743,1.253 -0.866,2.543 -1.609,1.287 c -0.294,-0.497 -0.352,-0.985 -0.382,-1.441 l -0.003,-0.041 c -0.043,-0.679 -0.036,-1.285 -0.665,-1.732 Z"/><path fill="#FFE51E" d="M 8.591,1.948 c 0.632,-1.277 1.777,-2.16 4.077,-1.742 c 0.937,0.17 1.279,-0.066 1.441,0.071 c 0.778,0.661 0.222,1.753 -0.13,1.652 c -1.114,-0.321 -1.948,0.069 -2.068,0.535 s 0.272,1.15 0.092,1.2 c -0.486,0.137 -0.528,-0.363 -0.791,-0.59 c -0.431,-0.371 -0.85,0.006 -0.829,0.535 c 0.017,0.42 0.272,1.075 0.953,1.03 c -0.196,1.086 -0.998,1.604 -0.998,1.604 s -0.256,0.184 -0.986,-0.652 c -0.729,-0.836 -1.389,-2.375 -0.761,-3.643 Z"/><path fill="#292F33" d="M 27.78,28.583 s -0.108,-0.118 -0.211,-0.409 c -0.104,-0.291 -0.147,-0.888 -0.133,-0.98 s 0.039,-0.164 0.148,-0.171 c 0.083,-0.006 0.768,0.08 1.145,-0.039 c 0.699,-0.22 0.812,-0.957 0.812,-0.957 s 0.46,0.083 0.829,0.152 c 0.368,0.069 0.818,0.209 1.134,0.274 c 0.271,0.056 0.548,0.03 0.823,-0.03 s 0.485,-0.147 0.55,-0.165 c 0.066,-0.017 0.575,-0.27 0.782,0.25 l 0.051,0.154 s -0.811,0.718 -2.114,1.182 s -1.639,0.152 -2.481,0.452 c -0.843,0.3 -1.335,0.287 -1.335,0.287 Z"/><path fill="#292F33" d="M 29.757,28.821 c -0.038,0.069 -1.574,0.472 -1.689,0.488 s -0.182,-0.064 -0.196,-0.105 l -0.222,-0.623 c -0.008,-0.024 0.007,-0.049 0.032,-0.051 c 0.108,-0.009 0.403,0.007 0.768,-0.123 c 0.474,-0.168 1.182,-0.27 1.681,-0.309 c 0.401,-0.032 0.88,-0.085 1.583,-0.335 c 0.704,-0.25 1.085,-0.471 1.458,-0.717 s 0.569,-0.459 0.569,-0.459 s 0.104,0.147 0.119,0.176 s 0.041,0.041 -0.011,0.107 s -0.303,0.298 -0.646,0.526 c -0.343,0.229 -0.904,0.584 -1.375,0.752 s -0.905,0.217 -1.158,0.244 s -0.79,0.098 -0.83,0.137 s -0.045,0.222 -0.083,0.292 Z"/><path fill="#4289C1" d="M 10.903,17.21 c 0.06,-1.245 4.065,-0.84 5.266,-0.958 c 1.2,-0.116 4.419,-0.181 5.539,0.231 c 1.377,0.507 1.947,1.674 1.654,2.63 c -0.344,1.121 -1.155,1.632 -2.33,1.956 c -1.06,0.292 -1.507,0.304 -2.481,0.577 c -0.973,0.273 -1.545,0.457 -2.073,0.484 c -0.198,0.01 -0.634,0.07 -0.684,0.032 c -0.056,-0.042 0.106,-0.268 0.201,-0.712 c 0.167,-0.781 -0.531,-1.189 -0.531,-1.189 s -1.99,0.419 -3.056,0.151 c -1.114,-0.28 -1.574,-1.77 -1.505,-3.202 Z"/><path fill="#4289C1" d="M 28.998,27.225 c -0.647,0.143 -0.814,0.383 -1.64,0.139 c -0.773,-2.319 -2.044,-4.1 -2.844,-6.406 c -1.645,-1.299 -2.92,-1.019 -5.522,-0.846 c -1.492,0.099 -3.421,-0.988 -2.786,-1.891 c 0.634,-0.905 -0.498,-1.583 1.778,-1.912 c 0,0 3.548,-0.713 5.629,-1.028 c 1.616,-0.244 2.438,1.438 3.133,3.182 c 0,0 2.325,5.667 3.671,7.538 c -0.126,0.624 -0.773,1.081 -1.419,1.224 Z"/><path fill="#77B255" d="M 10.431,16.971 c -0.211,-0.688 -0.56,-2.256 -1.002,-4.854 s -0.135,-4.401 1.308,-5.266 c 1.104,-0.662 3.409,0.429 4.171,3.289 c 0.58,2.179 1.51,4.475 1.559,6.148 c 0,0 -4.077,1.088 -5.521,2.045 c -0.366,0.242 -0.304,-0.674 -0.515,-1.362 Z"/><path fill="#66757F" d="M 8.189,10.609 c 0.022,0.274 -0.184,0.517 -0.458,0.539 s -0.517,-0.184 -0.539,-0.458 l -0.425,-5.242 c -0.022,-0.274 0.184,-0.517 0.458,-0.539 s 0.517,0.184 0.539,0.458 l 0.425,5.242 Z"/><path fill="#292F33" d="M 20,21 v2 s 2,0 2,2 v3 c 0,1 -1,2 -2,2 h-10 c -1,0 -2,-1 -2,-2 v-5 c 0,-1 1,-2 2,-2 h10 Z"/><path fill="#292F33" d="M 13.044,22.559 c -0.985,0.174 -0.985,0.174 -1.158,-0.811 c -0.096,-0.541 0.269,-1.062 0.811,-1.158 l 9.848,-1.736 c 0.541,-0.096 1.062,0.269 1.158,0.811 c 0.174,0.984 0.174,0.984 -0.811,1.158 l -9.848,1.736 Z"/><path fill="#292F33" d="M 10.762,19.023 c 0.193,0.922 0.557,1.827 2.094,1.537 s 1.782,1.225 0.824,1.493 c -0.958,0.267 -3.252,0.646 -3.921,-0.446 c -0.668,-1.092 -0.78,-2.139 -0.713,-2.606 s 1.572,-0.66 1.716,0.022 Z"/><path fill="#DD2E44" d="M 12.558,22.896 c -0.27,0.048 -0.531,-0.135 -0.579,-0.406 c -0.047,-0.271 0.135,-0.531 0.406,-0.579 l 10.833,-1.91 c 0.271,-0.047 0.531,0.135 0.579,0.406 c 0.047,0.271 -0.135,0.531 -0.406,0.579 l -10.833,1.91 Z"/><path fill="#292F33" d="M 7.068,9.642 c -0.173,-0.985 -0.173,-0.985 0.811,-1.158 c 0.541,-0.096 1.062,0.269 1.158,0.811 l 1.736,9.848 c 0.096,0.541 -0.269,1.062 -0.811,1.158 c -0.984,0.174 -0.984,0.174 -1.158,-0.811 l -1.736,-9.848 ZM 6.076,2.152 l 0.713,4.025 c 0.087,0.493 0.168,1.007 1.153,0.834 c 0.542,-0.096 0.882,-0.715 0.763,-1.398 l -0.639,-3.609 c -0.163,-0.579 -0.626,-1.004 -1.167,-0.909 c -0.985,0.173 -0.91,0.564 -0.823,1.057 Z"/><path fill="#DD2E44" d="M 6.594,9.224 c -0.048,-0.271 0.134,-0.531 0.406,-0.579 c 0.271,-0.047 0.531,0.135 0.579,0.406 l 1.91,10.833 c 0.047,0.271 -0.135,0.531 -0.406,0.579 c -0.271,0.047 -0.531,-0.135 -0.579,-0.406 l -1.91,-10.833 ZM 5.351,1.769 l 0.91,5.18 c 0.048,0.271 0.308,0.453 0.579,0.406 c 0.271,-0.048 0.453,-0.308 0.406,-0.579 l -0.91,-5.18 c -0.048,-0.271 -0.308,-0.453 -0.579,-0.406 s -0.454,0.308 -0.406,0.579 Z"/><path fill="#292F33" d="M 10.506,18.441 c -0.747,0.132 -0.747,0.132 -0.877,-0.606 c -0.071,-0.406 0.206,-0.797 0.617,-0.869 l 7.466,-1.316 c 0.411,-0.072 0.806,0.201 0.877,0.606 c 0.13,0.737 0.13,0.737 -0.617,0.869 l -7.466,1.316 Z"/><path fill="#DD2E44" d="M 12.877,21.824 c 1.97,-0.347 2.143,0.638 0.174,0.986 c -2.397,0.422 -4.113,-0.29 -4.634,-3.245 s 0.464,-3.128 0.985,-0.174 s 2.482,2.608 3.475,2.433 ZM 23.207,20.003 c -1.971,0.34 -2.277,1.422 -0.308,1.07 c 0.873,-0.156 0.984,0.212 1.251,0.958 c 0.252,0.702 0.611,1.757 1.144,3.23 c 0.391,1.082 1.279,0.603 0.95,-0.342 c -0.551,-1.588 -1.061,-2.968 -1.392,-3.847 c -0.338,-0.895 -0.613,-1.247 -1.645,-1.069 Z"/><path fill="#DD2E44" d="M 25.38,24.01 c 0.258,-0.094 0.547,0.04 0.641,0.299 l 2.052,5.638 c 0.094,0.258 -0.04,0.547 -0.299,0.641 c -0.258,0.094 -0.547,-0.04 -0.641,-0.299 l -2.052,-5.638 c -0.094,-0.259 0.041,-0.547 0.299,-0.641 Z"/><path fill="#66757F" d="M 27.774,30.588 c -0.258,0.094 -0.547,-0.041 -0.641,-0.299 c -0.094,-0.259 0.041,-0.547 0.299,-0.641 l 3.759,-1.368 c 0.259,-0.094 0.547,0.041 0.641,0.299 c 0.094,0.259 -0.041,0.547 -0.299,0.641 l -3.759,1.368 Z"/><path fill="#DD2E44" d="M 22.156,30.862 l -2.95,-2.95 c -0.194,-0.194 -0.194,-0.513 0,-0.707 s 0.513,-0.194 0.707,0 l 2.95,2.95 c 0.194,0.194 0.194,0.513 0,0.707 s -0.512,0.194 -0.707,0 ZM 4,34 c 0.55,0 1,-0.45 1,-1 v-3 c 0,-0.55 -0.45,-1 -1,-1 s -1,0.45 -1,1 v3 c 0,0.55 0.45,1 1,1 Z"/><path fill="#DD2E44" d="M 22.5,34 c -0.55,0 -1,-0.45 -1,-1 v-3 c 0,-0.55 0.45,-1 1,-1 s 1,0.45 1,1 v3 c 0,0.55 -0.45,1 -1,1 ZM 9.517,27.995 c 0.275,0 0.5,-0.225 0.5,-0.5 s -0.225,-0.5 -0.5,-0.5 h-2 c -0.275,0 -0.5,0.225 -0.5,0.5 s 0.225,0.5 0.5,0.5 h2 Z"/><path fill="#DD2E44" d="M 4.877,30.803 c -0.195,0.195 -0.513,0.195 -0.707,0 c -0.194,-0.194 -0.194,-0.513 0,-0.707 l 2.95,-2.95 c 0.194,-0.194 0.513,-0.194 0.707,0 s 0.194,0.513 0,0.707 l -2.95,2.95 Z"/><path fill="#292F33" d="M 24.328,16.127 c 0.624,-0.267 0.669,-0.044 0.757,0.2 c 0.089,0.245 -0.446,0.735 -1.181,1.181 s -1.114,0.914 -1.136,1.515 c -0.022,0.602 -1.537,0.178 -1.938,0.067 c -0.401,-0.112 -0.245,-0.535 -0.334,-1.092 c -0.09,-0.557 0.356,-0.624 0.356,-0.624 c -0.2,-0.579 0.134,-1.002 0.134,-1.002 s -0.111,-0.133 -0.089,-0.512 c 0.023,-0.379 0.29,-0.445 0.379,-0.245 s 0.223,0.668 0.223,0.668 c 0.356,0 0.49,0.891 0.49,0.891 c 0.289,-0.111 1.597,-0.729 2.339,-1.047 Z"/><path fill="#DD2E44" d="M 9.5,25 c -0.275,0 -0.5,-0.225 -0.5,-0.5 s 0.225,-0.5 0.5,-0.5 h11 c 0.275,0 0.5,0.225 0.5,0.5 s -0.225,0.5 -0.5,0.5 h-11 Z"/><path fill="#F3D2A2" d="M 13.309,10.276 c 0.579,1.455 1.125,3.55 1.381,3.561 c 1.473,0.062 3.079,0.948 4.006,0.893 c 0.672,-0.04 1.306,-0.167 1.651,-0.05 c 0.552,0.187 1.159,0.289 1.351,0.632 c 0.195,0.348 -0.171,0.657 -1.035,0.656 c -0.635,0 -1.045,0.208 -1.674,0.06 c -0.896,-0.21 -3.986,0.754 -5.665,-0.345 c -0.566,-0.371 -1.441,-1.871 -2.525,-4.663 c 1.084,-0.477 2.51,-0.744 2.51,-0.744 Z"/><circle fill="#66757F" cx="14.5" cy="31.5" r="4.5"/><circle fill="#66757F" cx="22.5" cy="33.5" r="2.5"/><circle fill="#66757F" cx="4" cy="34" r="2"/><circle fill="#CCD6DD" cx="14.5" cy="31.5" r="2.5"/><circle fill="#CCD6DD" cx="22.5" cy="33.5" r="1.5"/><circle fill="#292F33" cx="4" cy="34" r="1"/><g fill="#292F33"><circle cx="14" cy="30.634" r=".5"/><circle cx="15" cy="32.366" r=".5"/><circle cx="15.366" cy="31" r=".5"/><circle cx="13.634" cy="32" r=".5"/></g><circle fill="#292F33" cx="22.5" cy="33.5" r=".75"/><circle fill="#66757F" cx="4" cy="34" r=".5"/></svg>
