<svg xmlns="http://www.w3.org/2000/svg" viewBox="0 0 36 36"><path fill="#292F33" d="M 28.019,29.995 s -0.097,-0.127 -0.175,-0.426 s -0.069,-0.897 -0.047,-0.988 s 0.053,-0.16 0.163,-0.158 c 0.083,0.001 0.759,0.146 1.144,0.061 c 0.716,-0.158 0.892,-0.883 0.892,-0.883 s 0.452,0.123 0.812,0.223 c 0.361,0.101 0.796,0.279 1.106,0.372 c 0.265,0.079 0.543,0.078 0.823,0.041 s 0.496,-0.105 0.563,-0.116 s 0.597,-0.219 0.757,0.317 l 0.037,0.159 s -0.871,0.645 -2.209,0.993 s -1.646,0.009 -2.511,0.234 c -0.866,0.226 -1.355,0.171 -1.355,0.171 Z"/><path fill="#292F33" d="M 29.968,30.404 c -0.044,0.066 -1.608,0.333 -1.722,0.338 c -0.116,0.006 -0.175,-0.08 -0.186,-0.122 l -0.167,-0.64 c -0.007,-0.025 0.011,-0.048 0.036,-0.048 c 0.108,0 0.401,0.042 0.776,-0.056 c 0.486,-0.127 1.2,-0.166 1.701,-0.162 c 0.402,0.004 0.884,-0.007 1.606,-0.195 s 1.121,-0.375 1.514,-0.587 s 0.607,-0.407 0.607,-0.407 s 0.09,0.155 0.103,0.186 s 0.037,0.045 -0.02,0.106 s -0.327,0.27 -0.689,0.468 s -0.952,0.503 -1.436,0.629 s -0.921,0.137 -1.175,0.142 s -0.796,0.028 -0.839,0.064 c -0.044,0.036 -0.065,0.218 -0.109,0.284 Z"/><path fill="#4289C1" d="M 12.198,17.195 c 0.167,-1.235 4.127,0.061 5.333,0.05 s 4.415,-0.34 5.495,0.168 c 1.328,0.625 1.794,1.837 1.419,2.764 c -0.44,1.086 -1.293,1.525 -2.491,1.745 c -1.082,0.199 -1.528,0.172 -2.522,0.359 s -1.58,0.321 -2.108,0.301 c -0.198,-0.007 -0.638,0.015 -0.684,-0.027 c -0.052,-0.047 0.129,-0.258 0.262,-0.692 c 0.234,-0.763 -0.426,-1.231 -0.426,-1.231 s -2.019,0.244 -3.058,-0.116 c -1.085,-0.376 -1.413,-1.9 -1.22,-3.321 Z"/><path fill="#4289C1" d="M 29.23,28.689 c -0.656,0.086 -1.044,0.177 -1.524,0.055 c -0.569,-2.378 -1.679,-4.263 -2.275,-6.63 c -1.526,-1.437 -2.821,-1.27 -5.428,-1.324 c -1.496,-0.031 -3.323,-1.281 -2.611,-2.126 c 0.71,-0.846 -0.848,-1.443 1.448,-1.573 c 0,0 3.456,-0.145 5.772,-0.032 c 1.632,0.08 2.451,1.326 2.992,3.124 c 0,0 1.63,5.571 3.136,7.609 c -0.402,0.502 -0.854,0.811 -1.51,0.897 Z"/><path fill="#F3D2A2" d="M 14.158,0.878 c 1.405,-0.68 3.719,-0.115 4.11,1.557 c 0.388,1.661 0.109,4.333 -1.379,4.285 c -1.56,-0.05 -3.174,-0.266 -3.921,-1.812 c -0.748,-1.545 -0.215,-3.35 1.19,-4.03 Z"/><path fill="#F3D2A2" d="M 13.41,5.288 c -2.295,-2.316 2.801,-2.46 2.801,-2.46 c 0.964,-0.038 0.424,1.613 0.942,2.453 c 0.356,0.582 -0.925,1.001 -0.925,1.001 s -0.6,0.036 -0.577,0.766 v0.007 c 0.007,0.186 0.043,0.404 0.151,0.691 c 0.54,1.423 -1.347,2.463 -1.887,1.037 c -0.213,-0.564 -0.186,-1.077 -0.136,-1.552 l 0.006,-0.041 c 0.077,-0.707 0.193,-1.329 -0.375,-1.902 Z"/><path fill="#FFE51E" d="M 12.547,1.588 c 0.879,-1.202 2.17,-1.771 4.509,-1.065 c 2.044,0.617 1.525,2.243 1.042,2.008 c -1.331,-0.647 -2.128,0.052 -2.699,1.138 c -0.228,-0.495 -1.083,-0.745 -1.194,0.013 c -0.126,0.852 0.68,1.158 0.593,1.394 c -0.431,0.911 -1.22,1.246 -1.22,1.246 s -0.297,0.144 -0.898,-0.847 s -1.005,-2.693 -0.133,-3.887 Z"/><path fill="#FFE51E" d="M 13.066,2.681 c -1.968,0.317 -1.157,2.559 -1.358,3.601 c -0.247,1.283 -1.436,1.361 -1.436,1.361 s 0.463,-0.666 0.35,-1.611 c -0.156,-1.312 -1.379,-2.377 -0.405,-3.613 c 1.244,-1.58 4.072,0.065 2.849,0.262 Z"/><path fill="#9268CA" d="M 11.647,16.862 c 0.015,-1.321 -0.092,-3.215 -0.068,-5.25 c 0.015,-1.341 -1.429,-1.291 0.777,-3.121 c 0.553,-0.872 1.338,-1.288 2.15,-1.2 c 1.175,0.126 2.098,1.34 2.926,2.661 c 0.744,1.187 0.824,2.506 0.369,3.041 c -1.493,1.753 -0.808,3.579 -0.624,4.823 c 0,0 -1.7,0.806 -3.583,1.221 c -0.702,0.155 -1.99,0.495 -1.954,0.176 c 0.064,-0.574 -0.008,-1.03 0.007,-2.351 Z"/><g fill="#DD2E44"><path d="M 22.535,27.092 l -10.824,0.95 c -0.274,0.024 -0.518,-0.181 -0.542,-0.455 s 0.181,-0.518 0.455,-0.542 l 10.824,-0.95 c 0.274,-0.024 0.518,0.181 0.542,0.455 s -0.181,0.518 -0.455,0.542 Z"/><path d="M 11.712,28.041 c -0.274,0.024 -0.518,-0.18 -0.542,-0.455 l -0.436,-4.981 c -0.023,-0.274 0.181,-0.518 0.455,-0.542 c 0.274,-0.023 0.518,0.181 0.542,0.455 l 0.436,4.981 c 0.023,0.274 -0.181,0.518 -0.455,0.542 ZM 22.45,20.461 c -0.274,0.024 -0.478,0.268 -0.455,0.542 l 1.015,11.597 c 0.024,0.274 0.268,0.479 0.542,0.455 s 0.479,-0.268 0.455,-0.542 l -1.015,-11.597 c -0.024,-0.274 -0.268,-0.479 -0.542,-0.455 Z"/></g><path fill="#292F33" d="M 12.476,20.592 c 0.888,0.128 2.917,2.053 1.073,2.251 c -1.843,0.198 -2.929,-1.015 -3.418,-1.707 s 0.914,-0.75 2.345,-0.544 Z"/><path fill="#292F33" d="M 13.55,22.843 c -0.996,0.087 -0.996,0.087 -1.083,-0.909 c -0.048,-0.548 0.361,-1.035 0.909,-1.083 l 9.962,-0.872 c 0.548,-0.048 1.035,0.361 1.083,0.909 c 0.087,0.996 0.087,0.996 -0.909,1.083 l -9.962,0.872 Z"/><path fill="#DD2E44" d="M 13.036,23.136 c -0.274,0.024 -0.517,-0.18 -0.542,-0.455 c -0.023,-0.274 0.181,-0.518 0.455,-0.542 l 10.958,-0.959 c 0.274,-0.023 0.518,0.181 0.542,0.455 c 0.023,0.274 -0.181,0.518 -0.455,0.542 l -10.958,0.959 Z"/><path fill="#292F33" d="M 8.722,9.454 c -0.087,-0.996 -0.087,-0.996 0.909,-1.083 c 0.548,-0.048 1.035,0.361 1.083,0.909 l 0.872,9.962 c 0.048,0.548 -0.361,1.035 -0.909,1.083 c -0.996,0.087 -0.996,0.087 -1.083,-0.909 l -0.872,-9.962 Z"/><path fill="#DD2E44" d="M 8.286,8.996 c -0.024,-0.274 0.181,-0.517 0.455,-0.542 c 0.274,-0.023 0.518,0.181 0.542,0.455 l 0.959,10.958 c 0.023,0.274 -0.181,0.518 -0.455,0.542 c -0.274,0.023 -0.518,-0.181 -0.542,-0.455 l -0.959,-10.958 Z"/><path fill="#292F33" d="M 11.38,18.519 c -0.756,0.066 -0.756,0.066 -0.82,-0.68 c -0.036,-0.41 0.275,-0.776 0.69,-0.812 l 7.552,-0.661 c 0.415,-0.036 0.784,0.27 0.82,0.68 c 0.065,0.746 0.065,0.746 -0.69,0.812 l -7.552,0.661 Z"/><path fill="#DD2E44" d="M 13.447,22.096 c 1.993,-0.174 2.08,0.822 0.087,0.996 c -2.424,0.212 -4.071,-0.648 -4.333,-3.636 s 0.735,-3.075 0.996,-0.087 s 2.246,2.815 3.25,2.727 ZM 23.896,21.182 c -1.993,0.166 -2.392,1.218 -0.4,1.039 c 0.883,-0.079 0.962,0.297 1.163,1.063 c 0.189,0.721 0.456,1.803 0.858,3.318 c 0.295,1.112 1.221,0.712 0.977,-0.257 c -0.411,-1.63 -0.798,-3.05 -1.052,-3.953 c -0.258,-0.922 -0.502,-1.297 -1.546,-1.21 Z"/><g fill="#66757F"><circle cx="11.5" cy="27.5" r="1.5"/><path d="M 4.755,30.817 l 6.062,-3.5 l -3.5,-6.062 l 0.866,-0.5 l 3.5,6.062 l 6.062,-3.5 l 0.5,0.866 l -6.062,3.5 l 3.5,6.062 l -0.866,0.5 l -3.5,-6.062 l -6.062,3.5 l -0.5,-0.866 Z"/><path d="M 9.076,34.615 l 1.812,-6.761 l -6.762,-1.812 l 0.259,-0.966 l 6.761,1.812 l 1.812,-6.762 l 0.966,0.259 l -1.812,6.761 l 6.762,1.812 l -0.259,0.966 l -6.761,-1.812 l -1.812,6.762 l -0.966,-0.259 Z"/></g><path fill="#292F33" d="M 11.5,19 c 4.694,0 8.5,3.806 8.5,8.5 s -3.806,8.5 -8.5,8.5 s -8.5,-3.806 -8.5,-8.5 s 3.806,-8.5 8.5,-8.5 ZM 11.5,34 c 3.59,0 6.5,-2.91 6.5,-6.5 s -2.91,-6.5 -6.5,-6.5 s -6.5,2.91 -6.5,6.5 s 2.91,6.5 6.5,6.5 Z"/><path fill="#66757F" d="M 11.5,20 c 4.142,0 7.5,3.358 7.5,7.5 s -3.358,7.5 -7.5,7.5 s -7.5,-3.358 -7.5,-7.5 s 3.358,-7.5 7.5,-7.5 ZM 11.5,34 c 3.59,0 6.5,-2.91 6.5,-6.5 s -2.91,-6.5 -6.5,-6.5 s -6.5,2.91 -6.5,6.5 s 2.91,6.5 6.5,6.5 ZM 20.652,33.567 l 0.5,0.866 l 2.165,-1.25 l 1.25,2.165 l 0.866,-0.5 l -1.25,-2.165 l 2.165,-1.25 l -0.5,-0.866 l -2.165,1.25 l -1.25,-2.165 l -0.866,0.5 l 1.25,2.165 l -2.165,1.25 Z"/><path fill="#292F33" d="M 23.5,29 c 1.933,0 3.5,1.567 3.5,3.5 s -1.567,3.5 -3.5,3.5 s -3.5,-1.567 -3.5,-3.5 s 1.567,-3.5 3.5,-3.5 ZM 23.5,35 c 1.381,0 2.5,-1.119 2.5,-2.5 s -1.119,-2.5 -2.5,-2.5 s -2.5,1.119 -2.5,2.5 s 1.119,2.5 2.5,2.5 Z"/><path fill="#DD2E44" d="M 25.712,25.363 c 0.266,-0.071 0.541,0.088 0.612,0.354 l 1.553,5.796 c 0.071,0.266 -0.088,0.541 -0.354,0.612 s -0.541,-0.088 -0.612,-0.354 l -1.553,-5.796 c -0.07,-0.265 0.089,-0.541 0.354,-0.612 Z"/><path fill="#66757F" d="M 27.524,32.125 c -0.266,0.071 -0.541,-0.088 -0.612,-0.354 c -0.072,-0.266 0.088,-0.541 0.354,-0.612 l 3.864,-1.035 c 0.265,-0.071 0.541,0.088 0.612,0.354 c 0.071,0.265 -0.088,0.541 -0.354,0.612 l -3.864,1.035 Z"/><path fill="#DD2E44" d="M 5.897,9.969 c -0.271,0.048 -0.531,-0.134 -0.579,-0.406 c -0.047,-0.271 0.135,-0.531 0.406,-0.579 l 2.954,-0.521 c 0.271,-0.047 0.531,0.135 0.579,0.406 c 0.047,0.271 -0.135,0.531 -0.406,0.579 l -2.954,0.521 Z"/><path fill="#292F33" d="M 4.912,10.143 c -0.271,0.048 -0.531,-0.135 -0.579,-0.406 c -0.047,-0.271 0.135,-0.531 0.406,-0.579 l 2.615,-0.467 c 0.27,-0.047 0.338,0.169 0.386,0.44 c 0.047,0.271 0.058,0.497 -0.213,0.545 l -2.615,0.467 Z"/><path fill="#F3D2A2" d="M 13.343,10.9 c -1.111,1.023 -3.158,2.426 -3.128,2.68 c 0.174,1.464 -0.402,3.203 -0.2,4.11 c 0.147,0.657 0.805,1.117 0.745,1.476 c -0.667,0.012 -0.407,1.163 -0.677,1.687 c -0.284,0.551 -1.174,-0.056 -1.311,-0.909 c -0.101,-0.627 0.068,-1.112 0.113,-1.757 c 0.064,-0.918 -1.207,-3.625 -0.39,-5.457 c 0.276,-0.618 1.167,-1.842 3.212,-3.751 c 0.608,0.439 1.636,1.921 1.636,1.921 Z"/></svg>
