<svg xmlns="http://www.w3.org/2000/svg" viewBox="0 0 36 36"><path fill="#3B88C3" d="M36 32a4 4 0 0 1-4 4H4a4 4 0 0 1-4-4V4a4 4 0 0 1 4-4h28a4 4 0 0 1 4 4z"/><path fill="#FFF" d="M14.284 14.196c-.195 0-.263-.255-.097-.353 1.425-.863 2.392-2.5 2.392-4.245 0-1.22-.483-2.389-1.341-3.251a4.57 4.57 0 0 0-6.476 0 4.6 4.6 0 0 0-1.34 3.251c0 1.745.966 3.382 2.391 4.245.166.098.098.353-.098.353C7.11 14.196 5 16.314 5 18.931v9.343c0 .402.322.726.722.726h12.555c.4 0 .723-.323.723-.726v-9.343c0-2.608-2.109-4.735-4.716-4.735"/><path fill="#FFF" d="M26.285 14.196c-.196 0-.264-.255-.098-.353 1.425-.863 2.392-2.5 2.392-4.245 0-1.22-.483-2.389-1.341-3.251a4.57 4.57 0 0 0-6.476 0 4.6 4.6 0 0 0-1.34 3.251c0 1.745.966 3.382 2.391 4.245.166.098.098.353-.098.353-2.606 0-4.715 2.118-4.715 4.735v9.343c0 .402.322.726.723.726h12.555c.4 0 .722-.323.722-.726v-9.343c0-2.608-2.109-4.735-4.715-4.735"/><path fill="#3B88C3" d="M8.044 23.78a4.76 4.76 0 0 1 4.76-4.76c.224 0 .472.01.725.064a4.76 4.76 0 0 1 3.644 2.796v.001c.727 1.684.402 3.64-.707 5.047a5.4 5.4 0 0 1 1.733 2.982 1.944 1.944 0 0 1-1.905 2.34h-6.97c-.581 0-1.133-.25-1.503-.711a1.93 1.93 0 0 1-.402-1.627v-.001a5.47 5.47 0 0 1 1.734-2.99 5.07 5.07 0 0 1-1.109-3.141"/><path fill="#FFF" d="M16.964 30.15a4.22 4.22 0 0 0-2.34-2.96c-.1-.05-.11-.19-.02-.25 1.4-.92 2.16-2.84 1.41-4.58a3.53 3.53 0 0 0-2.69-2.06 3.507 3.507 0 0 0-4.04 3.47c0 1.28.68 2.48 1.7 3.16.09.06.09.21-.02.25a4.18 4.18 0 0 0-2.34 2.96c-.09.44.24.85.68.85h6.97c.46.01.78-.4.69-.84"/><path fill="#3B88C3" d="M18.414 23.78a4.76 4.76 0 0 1 4.76-4.76c.224 0 .472.01.725.064a4.76 4.76 0 0 1 3.644 2.796v.001c.727 1.684.402 3.64-.707 5.047a5.4 5.4 0 0 1 1.733 2.982 1.944 1.944 0 0 1-1.905 2.34h-6.97c-.581 0-1.133-.25-1.503-.711a1.93 1.93 0 0 1-.402-1.627v-.001a5.47 5.47 0 0 1 1.734-2.99 5.07 5.07 0 0 1-1.109-3.141"/><path fill="#FFF" d="M27.334 30.15a4.22 4.22 0 0 0-2.34-2.96c-.1-.05-.11-.19-.02-.25 1.4-.92 2.16-2.84 1.41-4.58a3.53 3.53 0 0 0-2.69-2.06 3.508 3.508 0 0 0-4.04 3.47c0 1.28.68 2.48 1.7 3.16.09.06.09.21-.02.25a4.18 4.18 0 0 0-2.34 2.96c-.09.44.24.85.68.85h6.97c.46.01.78-.4.69-.84"/></svg>