<svg xmlns="http://www.w3.org/2000/svg" viewBox="0 0 36 36"><circle fill="#AA8DD8" cx="18" cy="18" r="18"/><path fill="#AA8DD8" d="M10 4C7.42 4 4.369 1.534 3.414.586 2.843.014 1.981-.157 1.235.153.487.462 0 1.191 0 2c0 3.459 1.672 10 8 10 .757 0 1.45-.428 1.789-1.106l2-4c.31-.62.277-1.356-.088-1.946C11.337 4.359 10.693 4 10 4zM34.766.153c-.75-.311-1.607-.139-2.18.434C31.7 1.472 28.589 4 26 4c-.693 0-1.337.359-1.701.949-.364.589-.397 1.326-.088 1.946l2 4C26.55 11.572 27.242 12 28 12c6.328 0 8-6.541 8-10 0-.809-.487-1.538-1.234-1.847z"/><path fill="#553986" d="M15.707 18.293C12.452 15.038 7.221 15 7 15c-.552 0-.999.447-.999.998-.001.552.446 1.001.998 1.002.029 0 1.925.022 3.983.737-.593.64-.982 1.634-.982 2.763 0 1.934 1.119 3.5 2.5 3.5s2.5-1.566 2.5-3.5c0-.174-.019-.34-.037-.507.013 0 .025.007.037.007.256 0 .512-.098.707-.293.391-.391.391-1.023 0-1.414zM29 15c-.221 0-5.451.038-8.707 3.293-.391.391-.391 1.023 0 1.414.195.195.451.293.707.293.013 0 .024-.007.036-.007-.016.167-.036.333-.036.507 0 1.934 1.119 3.5 2.5 3.5s2.5-1.566 2.5-3.5c0-1.129-.389-2.123-.982-2.763 2.058-.715 3.954-.737 3.984-.737.551-.001.998-.45.997-1.002-.001-.551-.447-.998-.999-.998zM24.282 29.595c-.039-.165-.985-3.848-6.282-3.848-5.291 0-6.245 3.69-6.282 3.848-.063.26.047.525.274.661.227.135.515.098.703-.092.015-.016 1.583-1.522 5.306-1.522s5.291 1.507 5.305 1.521c.108.112.259.176.412.176.1 0 .199-.026.289-.079.224-.134.338-.407.275-.665z"/></svg>