<svg xmlns="http://www.w3.org/2000/svg" viewBox="0 0 36 36"><circle cx="18" cy="18" r="18" fill="#AA8DD8"/><path fill="#AA8DD8" d="M10 4C7.42 4 4.369 1.534 3.414.586A2 2 0 0 0 1.235.153 2 2 0 0 0 0 2c0 3.459 1.672 10 8 10a2 2 0 0 0 1.789-1.106l2-4A2 2 0 0 0 10 4M34.766.153a2 2 0 0 0-2.18.434C31.7 1.472 28.589 4 26 4a2 2 0 0 0-1.789 2.895l2 4A2 2 0 0 0 28 12c6.328 0 8-6.541 8-10 0-.809-.487-1.538-1.234-1.847"/><path fill="#553986" d="M15.707 18.293C12.452 15.038 7.221 15 7 15a1 1 0 0 0-.001 2c.029 0 1.925.022 3.983.737-.593.64-.982 1.634-.982 2.763 0 1.934 1.119 3.5 2.5 3.5s2.5-1.566 2.5-3.5c0-.174-.019-.34-.037-.507.013 0 .025.007.037.007a.999.999 0 0 0 .707-1.707M29 15c-.221 0-5.451.038-8.707 3.293A.999.999 0 0 0 21 20c.013 0 .024-.007.036-.007-.016.167-.036.333-.036.507 0 1.934 1.119 3.5 2.5 3.5s2.5-1.566 2.5-3.5c0-1.129-.389-2.123-.982-2.763A14 14 0 0 1 29.002 17 1 1 0 0 0 29 15m-4.718 14.595c-.039-.165-.985-3.848-6.282-3.848-5.291 0-6.245 3.69-6.282 3.848a.6.6 0 0 0 .274.661.57.57 0 0 0 .703-.092c.015-.016 1.583-1.522 5.306-1.522s5.291 1.507 5.305 1.521a.57.57 0 0 0 .701.097.61.61 0 0 0 .275-.665"/></svg>