<svg xmlns="http://www.w3.org/2000/svg" viewBox="0 0 36 36">
 <circle cx="18" cy="18" r="18" fill="#ffcc4d"/>
 <path d="m0 18s0-1 0.105-1.94l6.895 3.94 11-3 11 3 6.895-3.94c0.105 0.94 0.105 1.94 0.105 1.94l-7 4v5.5l5.733-2.867c-0.733 1.767-0.933 1.967-1.316 2.659l-4.417 2.208c-7 6-15 6-22 0l-4.417-2.208c-0.383-0.692-0.583-0.892-1.316-2.659l5.733 2.867v-5.5z" fill="#f5f8fa" stroke-width="1.0016"/>
 <ellipse cx="12" cy="13.5" rx="2.5" ry="3.5" fill="#664500"/>
 <ellipse cx="24" cy="13.5" rx="2.5" ry="3.5" fill="#664500"/>
</svg>
