<?xml version="1.0" encoding="utf-8"?>
<!-- Generator: Adobe Illustrator 26.0.2, SVG Export Plug-In . SVG Version: 6.00 Build 0)  -->
<svg version="1.1" id="Layer_3" xmlns="http://www.w3.org/2000/svg" xmlns:xlink="http://www.w3.org/1999/xlink" x="0px" y="0px"
	 viewBox="0 0 72 72" style="enable-background:new 0 0 72 72;" xml:space="preserve">
<style type="text/css">
	.st0{fill:#FFCC4D;}
	.st1{fill:#614613;}
	.st2{fill:#4FACF0;}
	.st3{fill:#C8D4D9;}
	.st4{fill:#E1E7EB;}
	.st5{fill:#EDF0F3;}
	.st6{fill:#9BA8B3;}
	.st7{fill:#FA743E;}
	.st8{fill:#3B88C3;}
	.st9{fill:none;}
	.st10{fill:#FFFFFF;}
	.st11{fill:#C6E5B3;}
	.st12{fill:#77B255;}
	.st13{fill:#4E932B;}
	.st14{fill:#F47C01;}
	.st15{fill:#F4531F;}
	.st16{fill:#FEA726;}
</style>
<g>
	<path class="st0" d="M63.79,40.1c0,17.62-14.28,31.9-31.9,31.9S0,57.72,0,40.1s14.28-31.9,31.9-31.9S63.79,22.49,63.79,40.1z"/>
	<path class="st1" d="M40.46,35.84c-0.31-0.21-0.75-0.21-1.08-0.02c-0.02,0.01-2.23,1.31-6.56,1.31c-4.32,0-6.54-1.3-6.56-1.31
		c-0.32-0.2-0.77-0.19-1.08,0.01c-0.32,0.21-0.42,0.56-0.26,0.86c0.11,0.2,2.66,4.79,7.9,4.79c5.24,0,7.79-4.6,7.9-4.79
		C40.88,36.4,40.78,36.04,40.46,35.84z"/>
	<path class="st1" d="M18.12,35.82c-0.02,0.01-2.23,1.31-6.56,1.31c-4.33,0-6.54-1.3-6.56-1.31c-0.32-0.2-0.77-0.19-1.08,0.01
		C3.6,36.04,3.5,36.39,3.66,36.7c0.11,0.2,2.66,4.79,7.9,4.79c5.24,0,7.79-4.6,7.9-4.79c0.16-0.3,0.06-0.65-0.26-0.86
		C18.89,35.63,18.44,35.62,18.12,35.82z"/>
	<path class="st2" d="M52.46,53.66c-1.06,0-1.94-0.83-1.99-1.9c-0.05-1.1,0.8-2.04,1.9-2.09c2.61-0.13,11.49-0.77,15.86-3.68
		c0.92-0.61,2.16-0.36,2.77,0.55c0.61,0.92,0.36,2.16-0.55,2.77c-5.09,3.39-14.2,4.17-17.88,4.35
		C52.53,53.66,52.5,53.66,52.46,53.66z"/>
	<g>
		<path class="st2" d="M67.76,30.77c-0.81-0.33-1.66-0.49-2.53-0.49h-2.4c-0.19,0-0.37,0.06-0.55,0.11c0.4,1.26,0.72,2.56,0.96,3.88
			h1.99c0.36,0,0.71,0.07,1.04,0.2c1.3,0.53,1.75,1.71,1.75,2.63c-0.01,0.44-0.15,1.91-1.74,2.51c-0.78,0.29-1.62,0.55-2.49,0.8
			c-4.38,1.23-9.95,1.86-16.63,1.86c-1.1,0-2,0.89-2,2c0,1.1,0.89,2,2,2c6.34,0,11.79-0.55,16.28-1.63
			c1.52-0.37,2.94-0.79,4.24-1.28c2.6-0.98,4.29-3.41,4.33-6.2C72.03,34.33,70.37,31.82,67.76,30.77z"/>
	</g>
	<path class="st1" d="M33.31,49.93c-0.21-0.19-0.52-0.2-0.74-0.03c-0.05,0.03-4.57,3.38-10.14,3.38c-5.55,0-10.1-3.35-10.14-3.38
		c-0.22-0.17-0.53-0.15-0.74,0.03c-0.21,0.19-0.25,0.49-0.11,0.73c0.15,0.25,3.75,6.11,10.99,6.11s10.84-5.86,10.99-6.11
		C33.56,50.43,33.51,50.12,33.31,49.93z"/>
</g>
</svg>
