<?xml version="1.0" encoding="utf-8"?>
<!-- Generator: Adobe Illustrator 26.0.2, SVG Export Plug-In . SVG Version: 6.00 Build 0)  -->
<svg version="1.1" id="Layer_3" xmlns="http://www.w3.org/2000/svg" xmlns:xlink="http://www.w3.org/1999/xlink" x="0px" y="0px"
	 viewBox="0 0 72 72" style="enable-background:new 0 0 72 72;" xml:space="preserve">
<style type="text/css">
	.st0{fill:#FFCC4D;}
	.st1{fill:#614613;}
	.st2{fill:#4FACF0;}
	.st3{fill:#C8D4D9;}
	.st4{fill:#E1E7EB;}
	.st5{fill:#EDF0F3;}
	.st6{fill:#9BA8B3;}
	.st7{fill:#FA743E;}
	.st8{fill:#3B88C3;}
	.st9{fill:none;}
	.st10{fill:#FFFFFF;}
	.st11{fill:#C6E5B3;}
	.st12{fill:#77B255;}
	.st13{fill:#4E932B;}
	.st14{fill:#F47C01;}
	.st15{fill:#F4531F;}
	.st16{fill:#FEA726;}
</style>
<g>
	<g>
		<path class="st0" d="M67.95,40.05C67.95,57.69,53.65,72,36,72S4.05,57.69,4.05,40.05S18.35,8.1,36,8.1S67.95,22.4,67.95,40.05z"/>
		<g>
			<path class="st1" d="M55.69,41.94c-0.31-0.21-0.76-0.21-1.08-0.02c-0.02,0.01-2.24,1.31-6.57,1.31c-4.33,0-6.55-1.3-6.57-1.31
				c-0.32-0.2-0.77-0.19-1.08,0.01c-0.32,0.21-0.42,0.56-0.26,0.87c0.11,0.2,2.66,4.8,7.91,4.8c5.25,0,7.81-4.61,7.91-4.8
				C56.11,42.5,56.01,42.15,55.69,41.94z"/>
			<path class="st1" d="M30.53,41.92c-0.02,0.01-2.24,1.31-6.57,1.31c-4.33,0-6.55-1.3-6.57-1.31c-0.32-0.2-0.77-0.19-1.08,0.01
				c-0.32,0.21-0.42,0.56-0.26,0.87c0.11,0.2,2.66,4.8,7.91,4.8c5.25,0,7.81-4.61,7.91-4.8c0.16-0.3,0.06-0.65-0.26-0.86
				C31.3,41.73,30.85,41.73,30.53,41.92z"/>
		</g>
		<path class="st1" d="M24.8,55.06c0.07,0.27,1.78,6.66,11.39,6.66c9.61,0,11.32-6.39,11.39-6.66c0.08-0.33-0.07-0.67-0.36-0.84
			c-0.3-0.17-0.67-0.12-0.91,0.12c-0.03,0.03-2.97,2.82-10.11,2.82s-10.08-2.79-10.11-2.82c-0.15-0.14-0.34-0.22-0.54-0.22
			c-0.13,0-0.26,0.03-0.37,0.1C24.86,54.38,24.72,54.73,24.8,55.06z"/>
	</g>
	<path class="st2" d="M13.22,31.89c-0.82,0-1.58-0.5-1.88-1.32C5.12,13.48,16.73,1.26,17.22,0.75c0.77-0.79,2.04-0.81,2.83-0.04
		c0.79,0.77,0.81,2.03,0.04,2.82l0,0C19.67,3.97,9.76,14.52,15.1,29.21c0.38,1.04-0.16,2.19-1.2,2.56
		C13.68,31.85,13.45,31.89,13.22,31.89z"/>
	<path class="st2" d="M18.43,25.26c-0.97,0-1.82-0.7-1.97-1.69c-1.22-7.67,1.56-13.68,4.11-17.38c0.63-0.91,1.87-1.14,2.78-0.51
		c0.91,0.63,1.14,1.87,0.52,2.78c-3.1,4.51-4.26,9.38-3.45,14.49c0.17,1.09-0.57,2.12-1.66,2.29
		C18.64,25.25,18.53,25.26,18.43,25.26z"/>
</g>
</svg>
