<?xml version="1.0" encoding="UTF-8" standalone="no"?>
<svg
   viewBox="0 0 36 36"
   version="1.1"
   id="svg3"
   sodipodi:docname="1f644.svg"
   inkscape:version="1.3 (0e150ed6c4, 2023-07-21)"
   xmlns:inkscape="http://www.inkscape.org/namespaces/inkscape"
   xmlns:sodipodi="http://sodipodi.sourceforge.net/DTD/sodipodi-0.dtd"
   xmlns="http://www.w3.org/2000/svg"
   xmlns:svg="http://www.w3.org/2000/svg">
  <defs
     id="defs3" />
  <sodipodi:namedview
     id="namedview3"
     pagecolor="#ffffff"
     bordercolor="#000000"
     borderopacity="0.25"
     inkscape:showpageshadow="2"
     inkscape:pageopacity="0.0"
     inkscape:pagecheckerboard="0"
     inkscape:deskcolor="#d1d1d1"
     inkscape:zoom="14.416667"
     inkscape:cx="18"
     inkscape:cy="18"
     inkscape:window-width="1366"
     inkscape:window-height="697"
     inkscape:window-x="-8"
     inkscape:window-y="-8"
     inkscape:window-maximized="1"
     inkscape:current-layer="svg3" />
  <circle
     fill="#FFCC4D"
     cx="18"
     cy="18"
     r="18"
     id="circle1" />
  <circle
     fill="#F4F7F9"
     cx="24.5"
     cy="13.5"
     r="5.5"
     id="circle2" />
  <circle
     fill="#F4F7F9"
     cx="11.5"
     cy="13.5"
     r="5.5"
     id="circle3" />
  <path
     d="M 23.5,13 C 24.881,13 26,11.881 26,10.5 26,9.248 25.077,8.22 23.876,8.038 23.087,8.127 22.35,8.386 21.699,8.774 21.268,9.223 21,9.829 21,10.5 c 0,1.381 1.119,2.5 2.5,2.5 z"
     id="path5"
     style="fill:#292f33;fill-opacity:1" />
  <path
     d="M 10.5,13 C 11.881,13 13,11.881 13,10.5 13,9.248 12.077,8.22 10.876,8.038 10.086,8.127 9.35,8.386 8.698,8.774 8.268,9.223 8,9.829 8,10.5 8,11.881 9.119,13 10.5,13 Z"
     id="path4"
     style="fill:#292f33;fill-opacity:1" />
  <path
     d="m 23.109,23.424 c -2.763,-0.667 -8.873,-0.06 -11.162,4.405 -0.082,0.158 -0.04,0.353 0.1,0.464 0.068,0.055 0.151,0.082 0.234,0.082 0.085,0 0.171,-0.029 0.241,-0.087 3.084,-2.58 7.436,-2.58 10.036,-2.58 1.635,0 2.536,0 2.536,-0.708 0,-0.708 -0.705,-1.268 -1.985,-1.576 z"
     id="path3"
     style="fill:#65471b;fill-opacity:1" />
</svg>
