<svg xmlns="http://www.w3.org/2000/svg" viewBox="0 0 36 36"><path fill="#3B88C3" d="M36 32a4 4 0 0 1-4 4H4a4 4 0 0 1-4-4V4a4 4 0 0 1 4-4h28a4 4 0 0 1 4 4v28z"/><circle fill="#FFFFFF" cx="18" cy="28.5" r="2.5"/><path fill="#FFFFFF" d="M17.999 20.01a9.931 9.931 0 0 0-7.062 2.921l2.119 2.123a6.953 6.953 0 0 1 4.943-2.044 6.97 6.97 0 0 1 4.956 2.056l2.124-2.118a9.93 9.93 0 0 0-7.067-2.938h-.013z"/><path fill="#FFFFFF" d="M18 14.01a15.9 15.9 0 0 0-11.301 4.673l2.119 2.124A12.916 12.916 0 0 1 18 17.01h.015a12.917 12.917 0 0 1 9.188 3.818l2.124-2.119a15.9 15.9 0 0 0-11.309-4.699H18z"/><path fill="#FFFFFF" d="M18 8.01a21.862 21.862 0 0 0-15.539 6.426L4.58 16.56A18.875 18.875 0 0 1 18 11.01h.022a18.873 18.873 0 0 1 13.428 5.58l2.124-2.119A21.858 21.858 0 0 0 18.025 8.01H18z"/></svg>
