<?xml version="1.0" encoding="UTF-8" standalone="no"?>
<svg
   viewBox="0 0 36 36"
   version="1.1"
   id="svg3"
   sodipodi:docname="1f6dc.svg"
   inkscape:version="1.3 (0e150ed6c4, 2023-07-21)"
   xml:space="preserve"
   xmlns:inkscape="http://www.inkscape.org/namespaces/inkscape"
   xmlns:sodipodi="http://sodipodi.sourceforge.net/DTD/sodipodi-0.dtd"
   xmlns="http://www.w3.org/2000/svg"
   xmlns:svg="http://www.w3.org/2000/svg"><defs
     id="defs3" /><sodipodi:namedview
     id="namedview3"
     pagecolor="#ffffff"
     bordercolor="#000000"
     borderopacity="0.25"
     inkscape:showpageshadow="2"
     inkscape:pageopacity="0.0"
     inkscape:pagecheckerboard="0"
     inkscape:deskcolor="#d1d1d1"
     inkscape:zoom="7.2083333"
     inkscape:cx="15.052023"
     inkscape:cy="15.606936"
     inkscape:window-width="1366"
     inkscape:window-height="697"
     inkscape:window-x="-8"
     inkscape:window-y="-8"
     inkscape:window-maximized="1"
     inkscape:current-layer="svg3"
     showguides="true" /><path
     fill="#9266CC"
     d="M36 32c0 2.209-1.791 4-4 4H4c-2.209 0-4-1.791-4-4V4c0-2.209 1.791-4 4-4h28c2.209 0 4 1.791 4 4v28z"
     id="path1"
     style="fill:#3b88c3;fill-opacity:1" /><path
     id="path7"
     style="fill:none;stroke:#ffffff;stroke-width:4;stroke-linecap:round;stroke-dasharray:none"
     d="m 6.94302,11.237831 c 0,0 4.565584,-2.8641851 11.05698,-2.8641851 6.491397,1e-7 11.05698,2.8641851 11.05698,2.8641851"
     sodipodi:nodetypes="czc" /><path
     id="path8"
     style="fill:none;stroke:#ffffff;stroke-width:4;stroke-linecap:round;stroke-dasharray:none"
     d="m 9.9112531,16.132124 c 0,0 3.3399579,-1.970611 8.0887469,-1.970611 4.74879,0 8.088747,1.970611 8.088747,1.970611"
     sodipodi:nodetypes="czc" /><path
     id="path9"
     style="fill:none;stroke:#ffffff;stroke-width:4;stroke-linecap:round;stroke-dasharray:none"
     d="m 12.930762,21.347638 c 0,0 2.093159,-1.32074 5.069238,-1.32074 2.976079,0 5.069238,1.32074 5.069238,1.32074"
     sodipodi:nodetypes="czc" /><circle
     style="fill:#ffffff;fill-opacity:1;stroke:none;stroke-width:4;stroke-linecap:round;stroke-dasharray:none;stroke-opacity:1"
     id="path10"
     cx="18"
     cy="26.539648"
     r="3.0867054" /></svg>
