<?xml version="1.0" encoding="UTF-8"?><svg id="Layer_3" xmlns="http://www.w3.org/2000/svg" xmlns:xlink="http://www.w3.org/1999/xlink" viewBox="0 0 36 36"><defs><style>.cls-1{fill:none;}.cls-2{clip-path:url(#clippath);}.cls-3{fill:#fff;}.cls-4{fill:#2b87c7;}</style><clipPath id="clippath"><rect class="cls-1" width="36" height="36"/></clipPath></defs><g class="cls-2"><path class="cls-4" d="m36,32c0,4-4,4-4,4H4c-4,0-4-4-4-4V4C0,0,4,0,4,0h28s4,0,4,4v28Z"/></g><g><g><path class="cls-3" d="m5.1,13.01l1.46,1.65c.15.16.39.19.57.07,3.01-1.98,6.77-3.17,10.83-3.17s7.88,1.2,10.9,3.21c.18.12.42.09.57-.07l1.47-1.64c.17-.2.14-.5-.07-.65-3.56-2.45-8.02-3.91-12.87-3.91s-9.24,1.44-12.79,3.86c-.22.15-.25.45-.08.65Z"/><path class="cls-3" d="m9.43,17.9l1.45,1.64c.15.16.39.2.58.08,1.8-1.2,4.06-1.92,6.51-1.92s4.74.73,6.54,1.95c.18.12.42.1.57-.07l1.47-1.64c.18-.2.14-.5-.08-.65-2.34-1.66-5.29-2.65-8.5-2.65s-6.12.98-8.45,2.61c-.22.15-.26.45-.08.65Z"/><path class="cls-3" d="m13.65,22.67l1.46,1.64c.14.16.39.19.57.07.63-.41,1.42-.65,2.28-.65s1.67.25,2.3.66c.18.12.42.09.57-.07l1.46-1.64c.17-.19.14-.49-.06-.64-1.17-.86-2.65-1.37-4.27-1.37s-3.08.51-4.24,1.35c-.21.15-.24.45-.07.64Z"/></g><circle class="cls-3" cx="17.91" cy="27.64" r="1.86"/></g></svg>