<svg xmlns="http://www.w3.org/2000/svg" viewBox="0 0 36 36"><path fill="#292F33" d="M 27.789,30.079 s -0.097,-0.127 -0.175,-0.426 s -0.069,-0.897 -0.047,-0.988 s 0.053,-0.16 0.163,-0.158 c 0.083,0.001 0.759,0.146 1.144,0.061 c 0.716,-0.158 0.892,-0.883 0.892,-0.883 s 0.452,0.123 0.812,0.223 c 0.361,0.101 0.796,0.279 1.106,0.372 c 0.265,0.079 0.543,0.078 0.823,0.041 c 0.279,-0.036 0.496,-0.105 0.563,-0.116 s 0.597,-0.219 0.757,0.317 l 0.037,0.159 s -0.871,0.645 -2.209,0.993 s -1.646,0.009 -2.511,0.234 s -1.355,0.171 -1.355,0.171 Z"/><path fill="#292F33" d="M 29.738,30.488 c -0.043,0.067 -1.608,0.334 -1.722,0.338 c -0.116,0.006 -0.175,-0.08 -0.186,-0.122 l -0.167,-0.64 c -0.007,-0.025 0.011,-0.048 0.036,-0.048 c 0.108,0 0.401,0.042 0.776,-0.056 c 0.486,-0.127 1.2,-0.166 1.701,-0.162 c 0.402,0.004 0.884,-0.007 1.606,-0.195 s 1.121,-0.375 1.514,-0.587 s 0.607,-0.407 0.607,-0.407 s 0.09,0.155 0.103,0.186 s 0.037,0.045 -0.02,0.106 s -0.327,0.27 -0.689,0.468 s -0.952,0.503 -1.436,0.629 s -0.921,0.137 -1.175,0.142 s -0.796,0.028 -0.839,0.064 c -0.044,0.036 -0.065,0.218 -0.109,0.284 Z"/><path fill="#4289C1" d="M 11.968,17.279 c 0.168,-1.235 4.123,-0.483 5.33,-0.494 c 1.206,-0.012 4.418,0.204 5.498,0.712 c 1.328,0.625 1.794,1.837 1.419,2.764 c -0.44,1.086 -1.293,1.525 -2.491,1.745 c -1.082,0.199 -1.528,0.172 -2.522,0.359 c -0.994,0.186 -1.58,0.321 -2.108,0.301 c -0.198,-0.007 -0.638,0.015 -0.684,-0.027 c -0.052,-0.047 0.129,-0.258 0.262,-0.692 c 0.234,-0.763 -0.426,-1.231 -0.426,-1.231 s -2.019,0.244 -3.058,-0.116 c -1.085,-0.376 -1.413,-1.9 -1.22,-3.321 Z"/><path fill="#4289C1" d="M 29.121,28.832 c -0.656,0.087 -0.844,0.311 -1.643,-0.004 c -0.569,-2.378 -1.679,-4.263 -2.275,-6.63 c -1.526,-1.437 -2.821,-1.27 -5.428,-1.324 c -1.496,-0.031 -3.323,-1.281 -2.611,-2.126 c 0.71,-0.846 -0.358,-1.62 1.938,-1.75 c 0,0 3.597,-0.4 5.697,-0.533 c 1.63,-0.103 2.302,1.645 2.843,3.443 c 0,0 1.822,5.847 3,7.829 c -0.18,0.61 -0.865,1.009 -1.521,1.095 Z"/><path fill="#F7DECE" d="M 14.545,0.928 c 1.345,-0.655 3.485,-0.098 3.942,1.483 c 0.637,2.207 -0.496,4.206 -1.922,4.164 c -1.496,-0.044 -2.431,-0.302 -3.152,-1.782 c -0.72,-1.48 -0.214,-3.21 1.132,-3.865 Z"/><path fill="#F7DECE" d="M 13.838,5.155 c -2.205,-2.215 2.678,-2.364 2.678,-2.364 c 0.923,-0.039 0.41,1.545 0.908,2.349 c 0.342,0.557 -0.884,0.962 -0.884,0.962 s -0.575,0.036 -0.551,0.735 v0.006 c 0.007,0.178 0.042,0.387 0.147,0.662 c 0.521,1.362 -1.285,2.364 -1.805,0.999 c -0.206,-0.54 -0.181,-1.031 -0.133,-1.487 l 0.004,-0.04 c 0.072,-0.677 0.181,-1.274 -0.364,-1.822 Z"/><path fill="#292F33" d="M 12.836,1.546 c 0.612,-0.98 2.846,-1.978 4.396,-0.919 c 0.996,-0.254 1.458,0.676 1.416,1.235 c -0.034,0.447 -1.109,0.645 -1.316,1.504 c -0.205,-0.195 -0.289,-0.622 -0.266,-0.855 c -0.319,0.359 -0.1,1.221 -1.414,1.898 c -1.27,0.654 -0.947,1.796 -0.947,1.796 s -0.717,-0.273 -1.242,-0.792 c -1.003,-0.992 -1.302,-2.787 -0.627,-3.867 Z"/><path fill="#FA743E" d="M 11.302,16.173 c 0.029,-0.719 0.012,-2.271 0.456,-4.869 c 0.203,-1.191 -0.779,-1.536 0.327,-2.596 c 0.217,-0.208 0.863,-0.916 1.141,-1.169 c 0.375,-0.342 0.989,-0.737 1.511,-0.77 c 1.241,-0.078 2.675,2.036 2.851,4.059 c 0.154,1.771 -0.941,3.695 -0.425,6.461 c 0,0 -3.906,0.027 -5.585,0.451 c -0.426,0.107 -0.305,-0.848 -0.276,-1.567 Z"/><g fill="#DD2E44"><path d="M 22.535,27.092 l -10.824,0.95 c -0.274,0.024 -0.518,-0.181 -0.542,-0.455 s 0.181,-0.518 0.455,-0.542 l 10.824,-0.95 c 0.274,-0.024 0.518,0.181 0.542,0.455 s -0.181,0.518 -0.455,0.542 Z"/><path d="M 11.712,28.041 c -0.274,0.024 -0.518,-0.18 -0.542,-0.455 l -0.436,-4.981 c -0.023,-0.274 0.181,-0.518 0.455,-0.542 c 0.274,-0.023 0.518,0.181 0.542,0.455 l 0.436,4.981 c 0.023,0.274 -0.181,0.518 -0.455,0.542 ZM 22.45,20.461 c -0.274,0.024 -0.478,0.268 -0.455,0.542 l 1.015,11.597 c 0.024,0.274 0.268,0.479 0.542,0.455 s 0.479,-0.268 0.455,-0.542 l -1.015,-11.597 c -0.024,-0.274 -0.268,-0.479 -0.542,-0.455 Z"/></g><path fill="#292F33" d="M 12.476,20.592 c 0.888,0.128 2.917,2.053 1.073,2.251 c -1.843,0.198 -2.929,-1.015 -3.418,-1.707 s 0.914,-0.75 2.345,-0.544 Z"/><path fill="#292F33" d="M 13.55,22.843 c -0.996,0.087 -0.996,0.087 -1.083,-0.909 c -0.048,-0.548 0.361,-1.035 0.909,-1.083 l 9.962,-0.872 c 0.548,-0.048 1.035,0.361 1.083,0.909 c 0.087,0.996 0.087,0.996 -0.909,1.083 l -9.962,0.872 Z"/><path fill="#DD2E44" d="M 13.036,23.136 c -0.274,0.024 -0.517,-0.18 -0.542,-0.455 c -0.023,-0.274 0.181,-0.518 0.455,-0.542 l 10.958,-0.959 c 0.274,-0.023 0.518,0.181 0.542,0.455 c 0.023,0.274 -0.181,0.518 -0.455,0.542 l -10.958,0.959 Z"/><path fill="#292F33" d="M 8.722,9.454 c -0.087,-0.996 -0.087,-0.996 0.909,-1.083 c 0.548,-0.048 1.035,0.361 1.083,0.909 l 0.872,9.962 c 0.048,0.548 -0.361,1.035 -0.909,1.083 c -0.996,0.087 -0.996,0.087 -1.083,-0.909 l -0.872,-9.962 Z"/><path fill="#DD2E44" d="M 8.286,8.996 c -0.024,-0.274 0.181,-0.517 0.455,-0.542 c 0.274,-0.023 0.518,0.181 0.542,0.455 l 0.959,10.958 c 0.023,0.274 -0.181,0.518 -0.455,0.542 c -0.274,0.023 -0.518,-0.181 -0.542,-0.455 l -0.959,-10.958 Z"/><path fill="#292F33" d="M 11.38,18.519 c -0.756,0.066 -0.756,0.066 -0.82,-0.68 c -0.036,-0.41 0.275,-0.776 0.69,-0.812 l 7.552,-0.661 c 0.415,-0.036 0.784,0.27 0.82,0.68 c 0.065,0.746 0.065,0.746 -0.69,0.812 l -7.552,0.661 Z"/><path fill="#DD2E44" d="M 13.447,22.096 c 1.993,-0.174 2.08,0.822 0.087,0.996 c -2.424,0.212 -4.071,-0.648 -4.333,-3.636 s 0.735,-3.075 0.996,-0.087 s 2.246,2.815 3.25,2.727 ZM 23.896,21.182 c -1.993,0.166 -2.392,1.218 -0.4,1.039 c 0.883,-0.079 0.962,0.297 1.163,1.063 c 0.189,0.721 0.456,1.803 0.858,3.318 c 0.295,1.112 1.221,0.712 0.977,-0.257 c -0.411,-1.63 -0.798,-3.05 -1.052,-3.953 c -0.258,-0.922 -0.502,-1.297 -1.546,-1.21 Z"/><g fill="#66757F"><circle cx="11.5" cy="27.5" r="1.5"/><path d="M 4.755,30.817 l 6.062,-3.5 l -3.5,-6.062 l 0.866,-0.5 l 3.5,6.062 l 6.062,-3.5 l 0.5,0.866 l -6.062,3.5 l 3.5,6.062 l -0.866,0.5 l -3.5,-6.062 l -6.062,3.5 l -0.5,-0.866 Z"/><path d="M 9.076,34.615 l 1.812,-6.761 l -6.762,-1.812 l 0.259,-0.966 l 6.761,1.812 l 1.812,-6.762 l 0.966,0.259 l -1.812,6.761 l 6.762,1.812 l -0.259,0.966 l -6.761,-1.812 l -1.812,6.762 l -0.966,-0.259 Z"/></g><path fill="#292F33" d="M 11.5,19 c 4.694,0 8.5,3.806 8.5,8.5 s -3.806,8.5 -8.5,8.5 s -8.5,-3.806 -8.5,-8.5 s 3.806,-8.5 8.5,-8.5 ZM 11.5,34 c 3.59,0 6.5,-2.91 6.5,-6.5 s -2.91,-6.5 -6.5,-6.5 s -6.5,2.91 -6.5,6.5 s 2.91,6.5 6.5,6.5 Z"/><path fill="#66757F" d="M 11.5,20 c 4.142,0 7.5,3.358 7.5,7.5 s -3.358,7.5 -7.5,7.5 s -7.5,-3.358 -7.5,-7.5 s 3.358,-7.5 7.5,-7.5 ZM 11.5,34 c 3.59,0 6.5,-2.91 6.5,-6.5 s -2.91,-6.5 -6.5,-6.5 s -6.5,2.91 -6.5,6.5 s 2.91,6.5 6.5,6.5 ZM 20.652,33.567 l 0.5,0.866 l 2.165,-1.25 l 1.25,2.165 l 0.866,-0.5 l -1.25,-2.165 l 2.165,-1.25 l -0.5,-0.866 l -2.165,1.25 l -1.25,-2.165 l -0.866,0.5 l 1.25,2.165 l -2.165,1.25 Z"/><path fill="#292F33" d="M 23.5,29 c 1.933,0 3.5,1.567 3.5,3.5 s -1.567,3.5 -3.5,3.5 s -3.5,-1.567 -3.5,-3.5 s 1.567,-3.5 3.5,-3.5 ZM 23.5,35 c 1.381,0 2.5,-1.119 2.5,-2.5 s -1.119,-2.5 -2.5,-2.5 s -2.5,1.119 -2.5,2.5 s 1.119,2.5 2.5,2.5 Z"/><path fill="#DD2E44" d="M 25.712,25.363 c 0.266,-0.071 0.541,0.088 0.612,0.354 l 1.553,5.796 c 0.071,0.266 -0.088,0.541 -0.354,0.612 s -0.541,-0.088 -0.612,-0.354 l -1.553,-5.796 c -0.07,-0.265 0.089,-0.541 0.354,-0.612 Z"/><path fill="#66757F" d="M 27.524,32.125 c -0.266,0.071 -0.541,-0.088 -0.612,-0.354 c -0.072,-0.266 0.088,-0.541 0.354,-0.612 l 3.864,-1.035 c 0.265,-0.071 0.541,0.088 0.612,0.354 c 0.071,0.265 -0.088,0.541 -0.354,0.612 l -3.864,1.035 Z"/><path fill="#DD2E44" d="M 5.897,9.969 c -0.271,0.048 -0.531,-0.134 -0.579,-0.406 c -0.047,-0.271 0.135,-0.531 0.406,-0.579 l 2.954,-0.521 c 0.271,-0.047 0.531,0.135 0.579,0.406 c 0.047,0.271 -0.135,0.531 -0.406,0.579 l -2.954,0.521 Z"/><path fill="#292F33" d="M 4.912,10.143 c -0.271,0.048 -0.531,-0.135 -0.579,-0.406 c -0.047,-0.271 0.135,-0.531 0.406,-0.579 l 2.615,-0.467 c 0.27,-0.047 0.338,0.169 0.386,0.44 c 0.047,0.271 0.058,0.497 -0.213,0.545 l -2.615,0.467 Z"/><path fill="#F7DECE" d="M 13.882,10.597 c -1.142,0.988 -3.458,2.697 -3.436,2.951 c 0.128,1.469 -0.543,3.175 -0.369,4.087 c 0.126,0.661 0.665,1.138 0.594,1.495 c -0.667,-0.009 -0.443,1.15 -0.729,1.665 c -0.301,0.542 -1.171,-0.093 -1.282,-0.949 c -0.081,-0.629 0.102,-1.11 0.167,-1.752 c 0.093,-0.915 -1.094,-3.661 -0.22,-5.467 c 0.295,-0.609 1.531,-2.277 3.635,-4.122 c 0.595,0.457 1.64,2.092 1.64,2.092 Z"/></svg>
