<?xml version="1.0" encoding="utf-8"?>
<!-- Generator: Adobe Illustrator 26.0.2, SVG Export Plug-In . SVG Version: 6.00 Build 0)  -->
<svg version="1.1" id="Layer_3" xmlns="http://www.w3.org/2000/svg" xmlns:xlink="http://www.w3.org/1999/xlink" x="0px" y="0px"
	 viewBox="0 0 72 72" style="enable-background:new 0 0 72 72;" xml:space="preserve">
<style type="text/css">
	.st0{fill:#FFCC4D;}
	.st1{fill:#614613;}
	.st2{fill:#4FACF0;}
	.st3{fill:#C8D4D9;}
	.st4{fill:#E1E7EB;}
	.st5{fill:#EDF0F3;}
	.st6{fill:#9BA8B3;}
	.st7{fill:#FA743E;}
	.st8{fill:#3B88C3;}
	.st9{fill:none;}
	.st10{fill:#FFFFFF;}
	.st11{fill:#C6E5B3;}
	.st12{fill:#77B255;}
	.st13{fill:#4E932B;}
	.st14{fill:#F47C01;}
	.st15{fill:#F4531F;}
	.st16{fill:#FEA726;}
</style>
<g>
	<rect x="0.06" y="0.07" class="st9" width="71.88" height="71.88"/>
	<path class="st8" d="M71.94,63.97c0,4.41-3.58,7.99-7.99,7.99H8.04c-4.41,0-7.99-3.58-7.99-7.99V8.06c0-4.41,3.58-7.99,7.99-7.99
		h55.91c4.41,0,7.99,3.58,7.99,7.99V63.97z"/>
	<g>
		<g>
			<path class="st10" d="M35.72,27.79L35.72,27.79c-0.4,0-0.54-0.52-0.19-0.73c2.92-1.75,4.9-5.1,4.9-8.66
				c0-5.18-4.2-9.38-9.38-9.38s-9.38,4.2-9.38,9.38c0,3.56,1.98,6.9,4.9,8.66c0.34,0.21,0.21,0.73-0.19,0.73h0
				c-5.34,0-9.67,4.33-9.67,9.67v19.05c0,0.82,0.67,1.49,1.49,1.49H43.9c0.82,0,1.49-0.67,1.49-1.49V37.46
				C45.39,32.12,41.06,27.79,35.72,27.79z"/>
		</g>
		<g>
			<path class="st10" d="M55.39,61.28c-0.54-2.63-2.31-4.81-4.68-5.92c-0.2-0.1-0.22-0.38-0.04-0.51c2.79-1.85,4.33-5.68,2.82-9.15
				c-0.95-2.19-3.01-3.77-5.37-4.11c-4.35-0.64-8.09,2.72-8.09,6.95c0,2.56,1.37,4.97,3.41,6.32c0.19,0.12,0.17,0.41-0.03,0.51
				c-2.37,1.11-4.14,3.29-4.68,5.92c-0.18,0.87,0.47,1.69,1.36,1.69h13.94C54.92,62.98,55.57,62.15,55.39,61.28z"/>
			<path class="st8" d="M47.06,41.52c0.35,0,0.7,0.03,1.06,0.08c2.36,0.35,4.42,1.92,5.37,4.11c1.51,3.47-0.03,7.31-2.82,9.15
				c-0.19,0.12-0.17,0.41,0.04,0.51c2.37,1.11,4.14,3.29,4.68,5.92c0.18,0.87-0.47,1.69-1.36,1.69H40.1c-0.89,0-1.54-0.82-1.36-1.69
				c0.54-2.63,2.31-4.81,4.68-5.92c0.2-0.1,0.22-0.38,0.03-0.51c-2.04-1.35-3.41-3.76-3.41-6.32
				C40.04,44.66,43.18,41.52,47.06,41.52 M47.06,39.52c-4.98,0-9.03,4.05-9.03,9.03c0,2.33,0.89,4.59,2.41,6.33
				c-1.87,1.51-3.19,3.63-3.68,6.01c-0.21,1.01,0.05,2.05,0.7,2.85c0.65,0.79,1.6,1.24,2.62,1.24h13.94c1.02,0,1.98-0.45,2.62-1.24
				c0.65-0.8,0.91-1.84,0.7-2.85c-0.49-2.38-1.81-4.5-3.68-6.01c2.37-2.7,3.1-6.63,1.66-9.96c-1.22-2.82-3.87-4.85-6.92-5.3
				C47.97,39.55,47.51,39.52,47.06,39.52L47.06,39.52z"/>
		</g>
	</g>
</g>
</svg>
