<?xml version="1.0" encoding="utf-8"?>
<!-- Generator: Adobe Illustrator 26.0.2, SVG Export Plug-In . SVG Version: 6.00 Build 0)  -->
<svg version="1.1" id="Layer_3" xmlns="http://www.w3.org/2000/svg" xmlns:xlink="http://www.w3.org/1999/xlink" x="0px" y="0px"
	 viewBox="0 0 72 72" style="enable-background:new 0 0 72 72;" xml:space="preserve">
<style type="text/css">
	.st0{fill:#FFCC4D;}
	.st1{fill:#614613;}
	.st2{fill:#4FACF0;}
	.st3{fill:#C8D4D9;}
	.st4{fill:#E1E7EB;}
	.st5{fill:#EDF0F3;}
	.st6{fill:#9BA8B3;}
	.st7{fill:#FA743E;}
	.st8{fill:#3B88C3;}
	.st9{fill:none;}
	.st10{fill:#FFFFFF;}
	.st11{fill:#C6E5B3;}
	.st12{fill:#77B255;}
	.st13{fill:#4E932B;}
	.st14{fill:#F47C01;}
	.st15{fill:#F4531F;}
	.st16{fill:#FEA726;}
</style>
<g>
	<path class="st8" d="M72.1,63.79c0.02,4.41-3.54,8.01-7.96,8.03L8.18,72.08c-4.41,0.02-8.01-3.54-8.03-7.96L-0.1,8.16
		c-0.02-4.41,3.54-8.01,7.96-8.03l55.96-0.25c4.41-0.02,8.01,3.54,8.03,7.96L72.1,63.79z"/>
	<g>
		<path class="st10" d="M40.64,27.77L40.64,27.77c-0.4,0-0.54-0.52-0.2-0.73c2.91-1.77,4.87-5.12,4.86-8.68
			c-0.02-5.18-4.24-9.36-9.42-9.34c-5.18,0.02-9.36,4.24-9.34,9.42c0.02,3.56,2.01,6.89,4.94,8.63c0.34,0.2,0.21,0.73-0.19,0.73h0
			c-5.34,0.02-9.65,4.37-9.63,9.71l0.09,19.05c0,0.82,0.67,1.49,1.5,1.48l25.72-0.12c0.82,0,1.49-0.67,1.48-1.5l-0.09-19.05
			C50.33,32.05,45.98,27.74,40.64,27.77z"/>
	</g>
	
		<rect x="0.02" y="0" transform="matrix(1 -4.523620e-03 4.523620e-03 1 -0.1624 0.1632)" class="st9" width="71.95" height="71.95"/>
	
		<rect x="0.03" y="0.07" transform="matrix(1 -4.523620e-03 4.523620e-03 1 -0.1625 0.1631)" class="st9" width="71.88" height="71.88"/>
	<g>
		<path class="st10" d="M30.27,55.39c-0.2-0.09-0.23-0.38-0.04-0.51c2.78-1.86,4.3-5.7,2.78-9.17c-0.96-2.19-3.03-3.75-5.39-4.09
			c-4.35-0.62-8.07,2.76-8.05,6.98c0.01,2.56,1.39,4.96,3.44,6.3c0.19,0.12,0.17,0.41-0.03,0.51c-2.37,1.12-4.12,3.31-4.65,5.94
			c-0.17,0.87,0.48,1.69,1.37,1.68l13.94-0.06c0.89,0,1.53-0.83,1.35-1.7C34.42,58.66,32.64,56.49,30.27,55.39z"/>
		<path class="st8" d="M26.55,41.56c0.35,0,0.7,0.02,1.06,0.07c2.37,0.34,4.43,1.9,5.39,4.09c1.52,3.47,0.01,7.31-2.78,9.17
			c-0.19,0.13-0.17,0.41,0.04,0.51c2.38,1.1,4.15,3.27,4.7,5.9c0.18,0.87-0.46,1.69-1.35,1.7l-13.94,0.06
			c-0.89,0-1.54-0.81-1.37-1.68c0.53-2.63,2.29-4.82,4.65-5.94c0.2-0.1,0.22-0.38,0.03-0.51c-2.05-1.34-3.43-3.75-3.44-6.3
			C19.54,44.74,22.67,41.58,26.55,41.56 M26.54,39.56c-4.98,0.02-9.01,4.09-8.98,9.07c0.01,2.33,0.91,4.59,2.44,6.32
			c-1.86,1.51-3.17,3.65-3.65,6.03c-0.2,1.01,0.06,2.05,0.71,2.84c0.65,0.79,1.61,1.24,2.63,1.23l13.94-0.06
			c1.02,0,1.97-0.46,2.62-1.26c0.65-0.8,0.9-1.84,0.69-2.85c-0.5-2.38-1.83-4.5-3.7-5.99c2.36-2.71,3.07-6.64,1.61-9.97
			c-1.24-2.82-3.9-4.83-6.94-5.26C27.44,39.59,26.99,39.56,26.54,39.56L26.54,39.56z"/>
	</g>
	<g>
		<path class="st10" d="M53.97,61.2c-0.55-2.63-2.33-4.8-4.7-5.9c-0.2-0.09-0.23-0.38-0.04-0.51c2.78-1.86,4.3-5.7,2.78-9.17
			c-0.96-2.19-3.03-3.75-5.39-4.09c-4.35-0.62-8.07,2.76-8.05,6.98c0.01,2.56,1.39,4.96,3.44,6.3c0.19,0.12,0.17,0.41-0.03,0.51
			c-2.37,1.12-4.12,3.31-4.65,5.94c-0.17,0.87,0.48,1.69,1.37,1.68l13.94-0.06C53.5,62.9,54.15,62.07,53.97,61.2z"/>
		<path class="st8" d="M45.55,41.47c0.35,0,0.7,0.02,1.06,0.07c2.37,0.34,4.43,1.9,5.39,4.09c1.52,3.47,0.01,7.31-2.78,9.17
			c-0.19,0.13-0.17,0.41,0.04,0.51c2.38,1.1,4.15,3.27,4.7,5.9c0.18,0.87-0.46,1.69-1.35,1.7l-13.94,0.06
			c-0.89,0-1.54-0.81-1.37-1.68c0.53-2.63,2.29-4.82,4.65-5.94c0.2-0.1,0.22-0.38,0.03-0.51c-2.05-1.34-3.43-3.75-3.44-6.3
			C38.54,44.65,41.67,41.49,45.55,41.47 M45.54,39.47c-4.98,0.02-9.01,4.09-8.98,9.07c0.01,2.33,0.91,4.59,2.44,6.32
			c-1.86,1.51-3.17,3.65-3.65,6.03c-0.2,1.01,0.06,2.05,0.71,2.84c0.65,0.79,1.61,1.24,2.63,1.23l13.94-0.06
			c1.02,0,1.97-0.46,2.62-1.26c0.65-0.8,0.9-1.84,0.69-2.85c-0.5-2.38-1.83-4.5-3.7-5.99c2.36-2.71,3.07-6.64,1.61-9.97
			c-1.24-2.82-3.9-4.83-6.94-5.26C46.44,39.5,45.99,39.47,45.54,39.47L45.54,39.47z"/>
	</g>
</g>
</svg>
