<svg viewBox="0 0 36 36" xmlns="http://www.w3.org/2000/svg"><g fill="#cdd5db"><path d="m16.15 28.25-3.76-24.38c-.34-.06-.69-.11-1-.15l3.93 25.55z"/><path d="m18.46 25.54-3.21-20.82c-.35-.15-.71-.28-1.08-.4l3.43 22.23z"/><path d="m20.78 22.83-2.49-16.14a10.47 10.47 0 0 0 -1.17-.94l2.79 18.09z"/><path d="m22.7 20.57.39-.46-1.5-9.75a10.55 10.55 0 0 1 -1.22-1.28l1.86 12z"/><path d="m25.39 17.41-.81-5.3a4.83 4.83 0 0 1 -.5-.16 5.05 5.05 0 0 1 -.59-.26l1 6.73z"/></g><path d="m22.23 35.06-.6-2a.73.73 0 0 0 -.71-.52h-12.73a.73.73 0 0 0 -.71.52l-.6 2a.73.73 0 0 0 .71.94h13.93a.73.73 0 0 0 .71-.94z" fill="#efae56"/><path d="m14 32.59h-5.81a.73.73 0 0 0 -.71.52l-.27.89h14.69l-.27-.88a.73.73 0 0 0 -.71-.52z" fill="#e59438"/><path d="m32.31 11.84a3.41 3.41 0 0 0 -2.25-2.29 12 12 0 0 0 -2.69-.55 5.42 5.42 0 0 1 -4.61-2.67c-3.14-4.24-7.6-6.33-13.64-6.33h-3.62a1.88 1.88 0 0 0 -1.91 1.55 1.79 1.79 0 0 0 1.77 2.05h.39l4.06 26.3h-.2a.7.7 0 0 0 -.67.49l-.55 1.84a.69.69 0 0 0 .66.89h11a.69.69 0 0 0 .66-.89l-.55-1.84a.7.7 0 0 0 -.67-.49h-.07l11.4-13.35c.35-.42 2.06-2.61 1.49-4.71zm-4.5 2.69a34.22 34.22 0 0 1 -2.41 2.87l-.85 1-1.45 1.7-.39.46-.47.55-1.45 1.71-.87 1-1.45 1.7-.86 1-.68.79-.77.91-.87 1-.49.57a.2.2 0 0 1 -.07.06h-1.63a1.14 1.14 0 0 1 -.33-.63l-3.38-23.75a1.56 1.56 0 0 1 1.67-1.79h.29c.35 0 .7.09 1 .15a14 14 0 0 1 1.78.45c.37.12.73.25 1.08.4a10.89 10.89 0 0 1 1.87 1 10.47 10.47 0 0 1 1.17.94 12.35 12.35 0 0 1 1.59 1.77c.16.21.32.42.49.62a10.55 10.55 0 0 0 1.22 1.28 8.67 8.67 0 0 0 1.91 1.32 5.05 5.05 0 0 0 .59.26 4.83 4.83 0 0 0 .5.16 9.81 9.81 0 0 0 1.4.33c.65.1 1.61 0 2 .67a1.37 1.37 0 0 1 -.14 1.5z" fill="#efae56"/><path d="m28 12.44c-.43-.61-1.35-.56-2-.66a9.84 9.84 0 0 1 -1.4-.34l-.5-.15-.6-.29a8.39 8.39 0 0 1 -1.91-1.3 11.25 11.25 0 0 1 -1.22-1.27c-.17-.2-.33-.41-.49-.62a12.44 12.44 0 0 0 -1.59-1.81 10.38 10.38 0 0 0 -1.17-.93 10.89 10.89 0 0 0 -1.87-1c-.35-.15-.71-.28-1.08-.4a17.12 17.12 0 0 0 -4.88-.73c-1.29 0-2.64-.08-3.93 0 0 0-1.63.1-1.77-1.39a1.79 1.79 0 0 0 1.77 2.05h.39l.49 3.16h3.33l-.18-1.29a1.56 1.56 0 0 1 1.45-1.79h.22.29c.35 0 .7.09 1 .15a14 14 0 0 1 1.78.45c.37.12.73.25 1.08.4a10.89 10.89 0 0 1 1.87 1 10.47 10.47 0 0 1 1.17.94 12.35 12.35 0 0 1 1.59 1.77c.16.21.32.42.49.62a10.55 10.55 0 0 0 1.22 1.28 8.67 8.67 0 0 0 1.91 1.32 5.05 5.05 0 0 0 .59.26 4.83 4.83 0 0 0 .5.16 9.81 9.81 0 0 0 1.4.33c.65.1 1.61 0 2 .67a1.37 1.37 0 0 1 -.18 1.43 1.92 1.92 0 0 0 .23-2.02z" fill="#e59438"/></svg>