<svg xmlns="http://www.w3.org/2000/svg" viewBox="0 0 36 36"><path fill="var(--color1, #d99e82)" d="M24.071 19.858a5.882 5.882 0 0 0-.705 1.476c-.426 1.321-.493 2.112-.742 4.124-.183 1.492-.335 3.231-.702 4.37-.568 1.763-1.828 2.505-3.304 2.031s-2.066-1.814-1.498-3.577c.367-1.138 1.259-2.639 1.98-3.958.973-1.779 1.262-2.497 1.688-3.819.231-.712.305-1.291.295-1.798z"/><path fill="var(--color2, #c1694f)" d="M24.932 18.88c-.477.466-1.123 1.257-1.466 2.173a5.934 5.934 0 0 1-1.387-.283l.042.012a5.789 5.789 0 0 1-1.274-.58l.026.015a5.298 5.298 0 0 0 .083-2.511c.574-.048 3.542.807 3.976 1.174z"/><path fill="var(--color3, #dd2e44)" d="M26.556 17.625c-.834.694-.822.571-1.653 1.308-1.184.094-3.034-.496-3.931-1.259-.168-.691-.283-1.058-.506-1.827-.459-1.613-.801-3.285-.741-4.968a7.31 7.31 0 0 1 .331-1.978c1.467-4.491 4.532-6.602 7.787-5.568 2.554.76 3.697 3.496 3.407 6.66a12.28 12.28 0 0 1-.728 3.139s-2.512 3.338-3.966 4.493z"/><path fill="var(--color4, #78b159)" d="M20.344 15.397c-.13-.49-.588-1.788-.65-4.31 1.013.748 9.055 2.983 10.372 2.93-.875 1.872-3.084 3.31-3.252 3.436-1.105-.081-2.212-.314-3.374-.683a15.035 15.035 0 0 1-3.096-1.372z"/><path fill="var(--color5, #ffd600)" d="M21.556 5.798c.698.798 2.22 1.868 4.434 2.572 2.209.702 4.275.881 5.316.638.025 1.254-.129 2.463-.591 3.706a8.239 8.239 0 0 1-.834 1.658l.019-.031s-1.97.632-5.515-.493c-3.545-1.126-4.694-2.707-4.694-2.707 0-.078.003-.152.005-.23.025-.67.125-1.337.331-1.978.378-1.155.88-2.229 1.53-3.135z"/><path fill="var(--color1, #d99e82)" d="M10.225 15.634c-.011.506.064 1.085.295 1.798.426 1.321.716 2.039 1.688 3.819.721 1.318 1.613 2.819 1.98 3.958.568 1.763-.021 3.103-1.498 3.577s-2.736-.268-3.304-2.031c-.367-1.138-.52-2.878-.702-4.37-.25-2.012-.316-2.803-.742-4.124a5.882 5.882 0 0 0-.705-1.476z"/><path fill="var(--color2, #c1694f)" d="M10.354 14.632a5.31 5.31 0 0 0 .083 2.511c-.358.22-.771.412-1.207.554l-.041.012c-.469.15-.927.238-1.345.271-.343-.916-.989-1.707-1.466-2.173.434-.367 3.403-1.222 3.976-1.174z"/><path fill="var(--color3, #dd2e44)" d="M.787 10.057A12.277 12.277 0 0 1 .06 6.918c-.291-3.164.853-5.9 3.406-6.66 3.255-1.034 6.319 1.078 7.786 5.568.207.64.307 1.307.332 1.977.06 1.683-.283 3.355-.742 4.968-.223.769-.337 1.136-.505 1.828-.897.764-2.747 1.353-3.931 1.259-.831-.737-.819-.614-1.653-1.308C3.299 13.395.787 10.056.787 10.056z"/><path fill="var(--color6, #f4900c)" d="M7.869 13.695c-1.162.37-2.269.603-3.374.683-.168-.126-2.377-1.564-3.252-3.436 1.317.054 9.36-2.182 10.373-2.93-.063 2.523-.52 3.82-.65 4.31a14.973 14.973 0 0 1-3.095 1.372z"/><path fill="var(--color5, #ffd600)" d="M9.752 2.724c.649.906 1.152 1.98 1.529 3.135a7.31 7.31 0 0 1 .337 2.209s-1.149 1.581-4.695 2.707-5.515.493-5.515.493a8.052 8.052 0 0 1-.796-1.57l-.019-.057C.131 8.398-.023 7.189.002 5.935c1.04.243 3.107.064 5.316-.638 2.214-.705 3.736-1.774 4.434-2.573z"/></svg>