<?xml version="1.0" encoding="UTF-8" standalone="no"?>
<svg
   viewBox="0 0 36 36"
   version="1.1"
   id="svg9"
   sodipodi:docname="1fa87.svg"
   inkscape:version="1.3 (0e150ed6c4, 2023-07-21)"
   xmlns:inkscape="http://www.inkscape.org/namespaces/inkscape"
   xmlns:sodipodi="http://sodipodi.sourceforge.net/DTD/sodipodi-0.dtd"
   xmlns="http://www.w3.org/2000/svg"
   xmlns:svg="http://www.w3.org/2000/svg">
  <defs
     id="defs9" />
  <sodipodi:namedview
     id="namedview9"
     pagecolor="#ffffff"
     bordercolor="#000000"
     borderopacity="0.25"
     inkscape:showpageshadow="2"
     inkscape:pageopacity="0.0"
     inkscape:pagecheckerboard="0"
     inkscape:deskcolor="#d1d1d1"
     inkscape:zoom="10.194123"
     inkscape:cx="20.158674"
     inkscape:cy="21.139632"
     inkscape:window-width="1366"
     inkscape:window-height="697"
     inkscape:window-x="-8"
     inkscape:window-y="-8"
     inkscape:window-maximized="1"
     inkscape:current-layer="svg9" />
  <path
     fill="#E3CBB1"
     d="M 14.135108,7.7436186 C 11.779999,3.6190311 7.539947,0.85804232 4.0266068,2.8643867 0.5132671,4.8707308 0.7356644,9.9262705 3.0907739,14.050859 c 3.4397261,6.024497 7.9211431,4.546724 9.7485131,7.748187 2.101184,3.679949 2.808008,5.76142 4.743834,9.150765 1.726922,3.024344 2.950555,4.071935 4.531092,3.14816 1.580532,-0.923786 1.011608,-2.76925 -0.514578,-5.442518 -1.93449,-3.388401 -3.702166,-4.996079 -5.747154,-8.577608 -1.828317,-3.200128 1.722552,-6.308593 -1.71737,-12.3342298 z"
     id="path6"
     style="fill:#e3b8a4;fill-opacity:1;stroke-width:1"
     sodipodi:nodetypes="csccczcccc" />
  <path
     id="path14"
     style="fill:#d49071;fill-opacity:1;stroke-width:6;stroke-linecap:round"
     d="m 15.877489,20.119385 c -0.114703,0.337653 -0.443098,1.213221 -1.027344,2.001953 -0.370493,0.500167 -0.86005,0.833268 -1.253906,1.042969 1.342916,2.496473 2.091469,4.307402 3.363281,6.664063 0.331946,-0.634116 0.881961,-1.521016 1.617188,-2.113282 0.585563,-0.471703 1.260469,-0.788221 1.814453,-0.99414 -1.477959,-2.199445 -2.911049,-3.804332 -4.513672,-6.601563 z" />
  <path
     fill="#35A7BA"
     d="m 15.396485,18.881999 c -0.351129,-1.665472 0.314361,-3.408979 0.307556,-5.639074 -1.838063,-2.175506 -9.616298,2.26396 -8.675572,4.953394 1.9161885,1.13916 3.757687,1.452347 5.012793,2.601572 0.251461,-1.332348 2.081037,-2.375582 3.355221,-1.915897 z"
     id="path7"
     style="fill:#55acee;fill-opacity:1;stroke-width:1" />
  <path
     fill="#166784"
     d="m 15.804,19.99348 a 4.1995167,4.1995167 0 0 1 -0.407515,-1.111481 c -1.274184,-0.459687 -3.10376,0.583549 -3.355221,1.915896 0.278319,0.254964 0.523783,0.55779 0.739449,0.912648 0.18281,-1.048419 2.027593,-2.091914 3.023284,-1.717068 z"
     id="path8"
     style="fill:#226699;fill-opacity:1;stroke-width:1" />
  <path
     fill="#EF7100"
     d="M 1.6979048,10.632982 C 1.9663813,8.8660126 3.628208,6.9740385 5.6968523,5.7924623 7.766635,4.6106906 10.24001,4.1410445 11.89837,4.8093966 9.5692315,2.4928166 6.60393,1.3926826 4.0256627,2.8657215 1.4473967,4.3387598 0.8872135,7.4496653 1.6979048,10.632982 Z m 2.2280971,4.697719 c 0.199799,-0.867153 0.4030489,-1.727858 0.6109219,-2.575277 0.7460674,-0.007 1.5094552,0.03224 2.2795162,0.117286 a 0.86603469,0.86603469 0 0 0 0.927654,-0.617672 c 0.2444365,-0.83257 0.4921625,-1.6528 0.7418435,-2.4616344 0.787965,0.1758305 1.5801275,0.3966934 2.3645085,0.6611214 a 0.86719095,0.86719095 0 0 0 1.093609,-0.5323244 c 0.237203,-0.6694421 0.475026,-1.3284315 0.712324,-1.9767727 0.718701,0.3261287 1.427926,0.699633 2.12813,1.0957994 A 13.812618,13.812618 0 0 0 13.193397,6.3013835 C 12.959729,6.1971216 12.726143,6.0799571 12.492457,5.9827534 A 0.86487844,0.86487844 0 0 0 11.348703,6.4826096 C 11.096716,7.1616232 10.84421,7.8512832 10.592516,8.5525362 A 24.47791,24.47791 0 0 0 8.0523725,7.9344197 0.87297221,0.87297221 0 0 0 7.064158,8.5272774 C 6.799596,9.3656432 6.539659,10.217293 6.281869,11.081481 a 19.929205,19.929205 0 0 0 -2.4703912,-0.04 0.85909716,0.85909716 0 0 0 -0.8001146,0.656815 c -0.1237528,0.49632 -0.2407665,1.011428 -0.3620128,1.51553 0.1375909,0.282601 0.2839088,0.56136 0.4402802,0.837226 0.2728714,0.476443 0.5526812,0.890695 0.8363669,1.279647 z"
     id="path9"
     style="fill:#e95f28;fill-opacity:1;stroke-width:1" />
  <path
     fill="#E3CBB1"
     d="M 30.860616,20.511526 C 34.375643,17.317259 36.150425,12.578983 33.429288,9.5849243 30.708151,6.5908654 25.821427,7.9053511 22.306399,11.099619 17.172198,15.76505 19.5875,19.81884 16.859037,22.297573 c -3.13611,2.849879 -5.014524,3.991669 -7.9028517,6.617053 -2.5773756,2.342233 -3.3343781,3.764087 -2.089546,5.106418 1.244841,1.342324 2.922808,0.386377 5.2010517,-1.683699 2.887695,-2.623875 4.073337,-4.698379 7.125572,-7.47204 2.726959,-2.479366 6.532084,0.312094 11.667355,-4.353777 z"
     id="path10"
     style="fill:#e3b8a4;fill-opacity:1;stroke-width:1"
     sodipodi:nodetypes="csccczcccc" />
  <path
     fill="#35A7BA"
     d="m 20.261614,24.160603 c 1.549544,-0.704276 3.395935,-0.433112 5.571381,-0.923835 1.724651,-2.266467 -4.297362,-8.895583 -6.71847,-7.393499 -0.696061,2.117774 -0.602003,3.983356 -1.45143,5.457989 1.355164,-0.04375 2.770665,1.515758 2.598523,2.859343 z"
     id="path11"
     style="fill:#55acee;fill-opacity:1;stroke-width:1" />
  <path
     fill="#166784"
     d="m 19.265093,24.799667 a 4.1995167,4.1995167 0 0 1 0.996521,-0.639064 c 0.172146,-1.343585 -1.24336,-2.903086 -2.598522,-2.859344 -0.188475,0.327027 -0.430795,0.632373 -0.730378,0.919924 1.063104,-0.04912 2.48216,1.525164 2.332383,2.578481 z"
     id="path12"
     style="fill:#226699;fill-opacity:1;stroke-width:1" />
  <path
     fill="#EF7100"
     d="m 25.340437,8.9980521 c 1.783116,-0.1214758 3.990706,1.0900419 5.593146,2.8528819 1.602875,1.763908 2.598212,4.076367 2.305771,5.840264 1.755765,-2.776459 2.185999,-5.909861 0.188426,-8.1069056 C 31.430207,7.3872488 28.271878,7.5156972 25.340437,8.9980521 Z m -4.102063,3.1946919 c 0.889847,0.0068 1.774149,0.01838 2.646484,0.03735 0.168781,0.726759 0.296182,1.480464 0.380319,2.250624 a 0.86603469,0.86603469 0 0 0 0.804308,0.77146 c 0.865777,0.05789 1.720223,0.121659 2.563971,0.189816 -5.98e-4,0.807344 -0.04424,1.628562 -0.132102,2.45164 a 0.86719095,0.86719095 0 0 0 0.757019,0.951983 c 0.704968,0.08624 1.399869,0.17534 2.084261,0.266251 -0.162346,0.772357 -0.372995,1.545747 -0.607726,2.315251 a 13.812618,13.812618 0 0 0 2.329141,-2.147905 c 0.05105,-0.250728 0.114716,-0.504179 0.15888,-0.753392 a 0.86487844,0.86487844 0 0 0 -0.736211,-1.007981 c -0.717521,-0.09859 -1.445548,-0.195369 -2.184716,-0.28884 a 24.47791,24.47791 0 0 0 0.052,-2.613758 0.87297221,0.87297221 0 0 0 -0.79323,-0.835963 C 27.684967,13.70301 26.7972,13.634131 25.897661,13.570075 a 19.929205,19.929205 0 0 0 -0.497196,-2.420173 0.85909716,0.85909716 0 0 0 -0.814833,-0.638465 c -0.511348,-0.01307 -1.039575,-0.01548 -1.557976,-0.02441 -0.245997,0.195654 -0.486347,0.398993 -0.721692,0.611518 -0.405853,0.369785 -0.749489,0.732843 -1.067589,1.094194 z"
     id="path13"
     style="fill:#e95f28;fill-opacity:1;stroke-width:1" />
</svg>
