<svg viewBox="0 0 36 36" xmlns="http://www.w3.org/2000/svg"><path d="m27.46 12.21-14.73 14.73a2.76 2.76 0 0 1 -3.88.12 2.76 2.76 0 0 1 .15-3.88l14.7-14.73" fill="#e59438"/><path d="m35.25 5.48-4.75-4.76a2.57 2.57 0 0 0 -3.5 0l-.53.53a6.07 6.07 0 0 0 -1.62 6.05l-2.17 2.17 3.76 3.76 2.13-2.12a6.13 6.13 0 0 0 1.3.28 5.43 5.43 0 0 0 .57 0 5.86 5.86 0 0 0 4.15-1.72l.66-.67a2.5 2.5 0 0 0 .75-1.75 2.46 2.46 0 0 0 -.75-1.77zm-2.66 2.22a3 3 0 0 1 -2.45.88 3.08 3.08 0 0 1 -2.27-1.37 3.2 3.2 0 0 1 .54-4l.32-.31 4.27 4.35z" fill="#69757e"/><path d="m13.55 22.45a19.84 19.84 0 0 1 -1.79-2.05l-3.14 3.13a2.75 2.75 0 0 0 -.11 3.88 2.75 2.75 0 0 0 3.87-.12l3.13-3.12a20.79 20.79 0 0 1 -1.96-1.72z" fill="#69757e"/><path d="m18.51 26.06a19 19 0 0 1 -5-3.61 19.14 19.14 0 0 1 -3.57-4.95 1 1 0 0 0 -1.59-.26l-5.08 5.08c-4.27 4.24-3.35 9.54-2.72 11.75a2 2 0 0 0 1.38 1.38c2.21.63 7.51 1.52 11.75-2.72l5.08-5.08a1 1 0 0 0 -.25-1.59z" fill="#8a97a4"/><path d="m17.39 22.28-3.76-3.76-4.63 4.66a2.76 2.76 0 0 0 -.12 3.88 2.76 2.76 0 0 0 3.88-.12z" fill="#69757e"/></svg>