<svg xmlns="http://www.w3.org/2000/svg" viewBox="0 0 36 36"><path fill="#E3CBB1" d="M31.52 14.486c2.64-3.147 3.61-7.414.929-9.664s-6.715-.554-9.356 2.593c-3.857 4.596-1.315 7.79-3.364 10.232-3.616 4.309-6.168 6.573-8.338 9.158-2.893 3.447-2.85 4.952-2.85 4.952l1.532 1.286s1.489-.219 4.382-3.666c2.169-2.585 3.956-5.492 7.571-9.801 2.051-2.443 5.637-.494 9.494-5.09z"/><path fill="#CBAB8D" d="M14.457 29.376c1.152-1.372 2.203-2.844 3.469-4.559-1.363.02-2.164-1.83-2.056-2.844-1.727 1.834-3.174 3.279-4.478 4.832-.16.19-.307.372-.449.55 1.121.463 1.508 2.812.537 4.938.721-.525 1.715-1.414 2.977-2.917z"/><path fill="#35A7BA" d="M20.911 11.852c-.35 1.896-.052 3.484-.608 4.846 1.156-.195 2.551.977 2.56 2.148 1.245-.784 2.86-.767 4.667-1.441 1.214-2.142-4.719-7.122-6.619-5.553z"/><path fill="#166784" d="M20.302 16.698a3.54 3.54 0 0 1-.519.873l.001.01c.906-.166 2.304 1.009 2.298 1.928l.01-.001c.238-.27.494-.489.77-.663-.008-1.17-1.403-2.342-2.56-2.147z"/><path fill="#EF7100" d="M32.449 4.822c-1.967-1.651-4.661-1.172-7 .44 1.514-.312 3.547.469 5.126 1.794 1.579 1.325 2.701 3.191 2.657 4.736 1.181-2.584 1.184-5.32-.783-6.97zM31.52 14.486c.141-.168.274-.34.405-.513l-.147-1.248a.749.749 0 0 0-.521-.627 13.34 13.34 0 0 0-2.347-.511l-.285-2.235a.75.75 0 0 0-.706-.654 13.692 13.692 0 0 0-2.245.072l-.261-1.982a.747.747 0 0 0-.892-.638c-.094.019-.186.052-.281.073a11.89 11.89 0 0 0-1.882 2.17 12.507 12.507 0 0 1 1.675-.588l.252 1.913a.744.744 0 0 0 .299.506.737.737 0 0 0 .572.135 12.21 12.21 0 0 1 2.062-.179l.279 2.187a.749.749 0 0 0 .686.652 11.87 11.87 0 0 1 2.162.374l.245 2.072c.308-.292.618-.607.93-.979z"/><path fill="#E3CBB1" d="M13.248 7.465C11.843 3.605 8.632.632 5.344 1.829s-3.837 5.539-2.432 9.399C4.964 16.866 9 16.261 10.09 19.257c1.924 5.286 2.608 8.628 3.763 11.8C15.392 35.285 16.717 36 16.717 36l1.879-.684s.555-1.399-.984-5.628c-1.154-3.171-2.778-6.172-4.702-11.458-1.091-2.995 2.39-5.126.338-10.765z"/><path fill="#35A7BA" d="M12.696 17.144c-.056-1.471.766-2.86 1.086-4.762-1.249-2.123-8.528.525-8.119 2.955 1.467 1.251 2.991 1.787 3.893 2.95.409-1.099 2.121-1.721 3.14-1.143z"/><path fill="#166784" d="M12.881 18.151a3.632 3.632 0 0 1-.185-1.007c-1.019-.578-2.731.044-3.14 1.143.2.258.365.552.497.886.309-.867 2.034-1.487 2.828-1.022z"/><path fill="#EF7100" d="M2.224 8.111c.487-1.467 2.18-2.837 4.116-3.542 1.937-.705 4.114-.744 5.43.068C10.123 2.322 7.756.951 5.343 1.83S1.998 5.279 2.224 8.111zM3.437 12.441c.297-.71.596-1.414.897-2.106.637.103 1.282.248 1.926.433a.749.749 0 0 0 .881-.391c.33-.674.661-1.337.992-1.99.646.265 1.289.569 1.919.909a.75.75 0 0 0 1.01-.294c.3-.536.599-1.063.896-1.581.565.383 1.115.805 1.654 1.245a11.946 11.946 0 0 0-.956-2.568c-.184-.123-.366-.257-.551-.374a.748.748 0 0 0-1.048.259c-.314.542-.63 1.093-.947 1.654a21.17 21.17 0 0 0-2.075-.898.755.755 0 0 0-.929.361c-.348.676-.694 1.364-1.04 2.063a17.236 17.236 0 0 0-2.1-.395.743.743 0 0 0-.778.443c-.178.405-.353.827-.53 1.239.076.261.16.52.253.778.163.446.341.84.526 1.213z"/></svg>
