<?xml version="1.0" encoding="UTF-8" standalone="no"?>
<svg
   viewBox="0 0 36 36"
   version="1.1"
   id="svg9"
   sodipodi:docname="1fa87.svg"
   inkscape:version="1.3 (0e150ed6c4, 2023-07-21)"
   xmlns:inkscape="http://www.inkscape.org/namespaces/inkscape"
   xmlns:sodipodi="http://sodipodi.sourceforge.net/DTD/sodipodi-0.dtd"
   xmlns="http://www.w3.org/2000/svg"
   xmlns:svg="http://www.w3.org/2000/svg">
  <defs
     id="defs9" />
  <sodipodi:namedview
     id="namedview9"
     pagecolor="#ffffff"
     bordercolor="#000000"
     borderopacity="0.25"
     inkscape:showpageshadow="2"
     inkscape:pageopacity="0.0"
     inkscape:pagecheckerboard="0"
     inkscape:deskcolor="#d1d1d1"
     inkscape:zoom="8"
     inkscape:cx="19.9375"
     inkscape:cy="30.1875"
     inkscape:window-width="1366"
     inkscape:window-height="697"
     inkscape:window-x="-8"
     inkscape:window-y="-8"
     inkscape:window-maximized="1"
     inkscape:current-layer="svg9"
     showguides="true" />
  <g
     id="g11"
     transform="translate(-14.90439,0.125)">
    <path
       id="path6"
       style="fill:#e3b8a4;stroke-width:6;stroke-linecap:round"
       d="m 19.577063,4.8171745 c -3.59274,2.0742696 -3.947092,6.6165595 -1.631038,10.6280835 1.97667,3.423693 6.293094,4.704792 8.197066,5.962457 2.182963,1.441953 2.644196,5.346411 4.846569,9.161031 1.59694,2.765981 3.342915,3.110505 4.773926,2.28431 C 37.194598,32.026861 37.76922,30.34254 36.17228,27.576558 34.004582,23.821993 30.819171,21.41027 30.661879,18.798791 30.52469,16.521071 31.573443,12.142389 29.596773,8.718696 27.280718,4.7071716 23.169803,2.742905 19.577063,4.8171745 Z"
       sodipodi:nodetypes="sssssssss" />
    <path
       id="path7"
       style="fill:#55acee;fill-opacity:1;stroke-width:6;stroke-linecap:round"
       d="m 20.974505,18.550116 c 1.896628,1.293601 3.992189,2.080774 5.167969,2.857433 0.218371,0.144244 0.416421,0.319682 0.603799,0.510655 0,0 0.153037,-0.987414 1.638752,-1.845192 1.485715,-0.857778 2.417359,-0.496605 2.417359,-0.496605 -0.07197,-0.258183 -0.124644,-0.517608 -0.140344,-0.778233 -0.08472,-1.406583 0.281352,-3.614979 0.109375,-5.904308 z"
       sodipodi:nodetypes="csczcscc" />
    <path
       id="path8"
       style="fill:#ffcc4d;fill-opacity:1;stroke-width:6;stroke-linecap:round"
       d="M 19.577063,4.8171745 C 16.122937,6.8114151 15.668818,11.086249 17.6966,14.978085 L 29.316901,8.2691008 C 26.960363,4.5670719 23.031189,2.822934 19.577063,4.8171745 Z" />
    <path
       id="path9"
       style="fill:#e95f28;fill-opacity:1;stroke-width:6;stroke-linecap:round"
       d="m 17.244133,14.014703 c 0.197489,0.481185 0.429733,0.959162 0.701892,1.430555 0.764221,1.32367 1.878534,2.32403 3.067595,3.129636 l 9.7597,-5.634766 C 30.670175,11.507569 30.360994,10.042366 29.596773,8.718696 29.324614,8.2473028 29.026796,7.8071847 28.708821,7.3955621 Z" />
    <path
       id="path10"
       style="fill:#d49071;fill-opacity:1;stroke-width:6;stroke-linecap:round"
       d="m 30.794922,19.544922 c -0.459873,0.978079 -1.082712,1.963333 -1.939453,2.828125 -0.352977,0.356292 -0.711605,0.694379 -1.072266,1.015625 0.997526,1.878842 1.689071,4.550505 3.207031,7.179687 0.115405,0.199888 0.23087,0.383527 0.347657,0.558594 0.734208,-0.939748 1.511611,-1.859759 2.291015,-2.646484 0.621815,-0.627655 1.318454,-1.204389 2.035156,-1.730469 -1.904545,-2.950012 -4.289016,-5.061188 -4.86914,-7.205078 z" />
    <path
       id="path1"
       style="fill:#e3b8a4;stroke-width:6;stroke-linecap:round"
       d="M 47.525002,8.8793781 C 44.591542,5.945918 40.112314,6.7792709 36.836918,10.054667 c -2.795434,2.795433 -2.915707,7.296351 -3.637734,9.460954 -0.827828,2.481787 -4.479868,3.937851 -7.594491,7.052475 -2.258415,2.258415 -2.139309,4.034067 -0.970892,5.202483 1.168416,1.168416 2.944069,1.287524 5.202483,-0.97089 3.065589,-3.06559 4.570691,-6.76666 7.052474,-7.594493 2.164602,-0.722032 6.665521,-0.8423 9.460955,-3.637733 3.275396,-3.275397 4.108749,-7.754625 1.175289,-10.6880849 z"
       sodipodi:nodetypes="sssssssss" />
    <path
       id="path3"
       style="fill:#55acee;fill-opacity:1;stroke-width:6;stroke-linecap:round"
       d="m 34.621685,13.78355 c -0.75864,2.16681 -0.976621,4.394702 -1.4225,5.731432 -0.08281,0.248266 -0.201016,0.484969 -0.336983,0.715391 0,0 0.993377,-0.107739 2.206458,1.105342 1.213082,1.213082 1.105342,2.20646 1.105342,2.20646 0.230748,-0.136364 0.467712,-0.254364 0.715393,-0.336981 1.33673,-0.445883 3.564622,-0.663862 5.731432,-1.4225 z"
       sodipodi:nodetypes="csczcscc" />
    <path
       id="path5"
       style="fill:#ffcc4d;fill-opacity:1;stroke-width:6;stroke-linecap:round"
       d="M 47.525002,8.8793781 C 44.70472,6.059096 40.458013,6.7268587 37.223617,9.6928273 l 9.487936,9.4879367 c 2.965969,-3.234397 3.633731,-7.481104 0.813449,-10.3013859 z" />
    <path
       id="rect5"
       style="fill:#e95f28;fill-opacity:1;stroke-width:6;stroke-linecap:round"
       d="m 38.037065,9.0064358 c -0.413674,0.3153014 -0.815257,0.66334 -1.200147,1.0482312 -1.080772,1.080772 -1.758641,2.416027 -2.229044,3.773078 l 7.968761,7.968762 c 1.357051,-0.470404 2.692306,-1.148272 3.773078,-2.229044 0.384891,-0.384891 0.732932,-0.786473 1.04823,-1.200149 z" />
  </g>
</svg>
