<svg xmlns="http://www.w3.org/2000/svg" viewBox="0 0 36 36"><path fill="#FFCC4D" d="M3.419 35.41 35.41 3.419c.586-.586.427-1.694-.354-2.475-.781-.781-1.889-.939-2.475-.354L.59 32.581l2.829 2.829z"/><path fill="#FFAC33" d="M35.594 1.798c.237.605.185 1.229-.206 1.621L3.396 35.41l-.707-.707L35.594 1.798z"/><g fill="#C1694F"><path d="M30.54 5.46c.781.781.939 1.889.354 2.475l.707-.707c.586-.586.427-1.694-.354-2.475-.781-.781-1.889-.939-2.475-.354l-.707.707c.586-.585 1.694-.427 2.475.354zM4.479 31.521c.781.781.939 1.889.354 2.475l-.177.177.884-.884c.586-.586.427-1.694-.354-2.475-.781-.781-1.889-.939-2.475-.354l-.707.707c.586-.586 1.694-.427 2.475.354zM28.54 7.46c.781.781.939 1.889.354 2.475l.707-.707c.586-.586.427-1.694-.354-2.475-.781-.781-1.889-.939-2.475-.354l-.707.707c.586-.585 1.694-.427 2.475.354zM6.479 29.521c.781.781.939 1.889.354 2.475l-.177.177.884-.884c.586-.586.427-1.694-.354-2.475-.781-.781-1.889-.939-2.475-.354l-.707.707c.586-.586 1.694-.427 2.475.354z"/></g><ellipse transform="rotate(-45.001 2.004 33.996)" fill="#FFCC4D" cx="2.004" cy="33.996" rx="1.5" ry="2"/><ellipse transform="rotate(-45.001 2.031 34.023)" fill="#292F33" cx="2.032" cy="34.023" rx="1" ry="1.5"/><circle fill="#292F33" cx="32" cy="2.75" r=".75"/><path fill="#C1694F" d="M32.134 2.13c.174 0 .327.069.454.168a.735.735 0 0 0-.582-.296.75.75 0 0 0-.75.75c0 .24.12.444.296.582a.736.736 0 0 1-.168-.454.75.75 0 0 1 .75-.75z"/><circle fill="#292F33" cx="21.5" cy="13.25" r=".75"/><path fill="#C1694F" d="M21.634 12.63c.174 0 .327.069.454.168a.735.735 0 0 0-.582-.296.75.75 0 0 0-.75.75c0 .24.12.444.296.582a.736.736 0 0 1-.168-.454.75.75 0 0 1 .75-.75z"/><circle fill="#292F33" cx="19" cy="15.75" r=".75"/><path fill="#C1694F" d="M19.134 15.13c.174 0 .327.069.454.168a.735.735 0 0 0-.582-.296.75.75 0 0 0-.75.75c0 .24.12.444.296.582a.736.736 0 0 1-.168-.454.75.75 0 0 1 .75-.75z"/><circle fill="#292F33" cx="16.5" cy="18.25" r=".75"/><path fill="#C1694F" d="M16.634 17.63c.174 0 .327.069.454.168a.735.735 0 0 0-.582-.296.75.75 0 0 0-.75.75c0 .24.12.444.296.582a.736.736 0 0 1-.168-.454.75.75 0 0 1 .75-.75z"/><circle fill="#292F33" cx="14" cy="20.75" r=".75"/><path fill="#C1694F" d="M14.134 20.13c.174 0 .327.069.454.168a.735.735 0 0 0-.582-.296.75.75 0 0 0-.75.75c0 .24.12.444.296.582a.736.736 0 0 1-.168-.454.75.75 0 0 1 .75-.75z"/><circle fill="#292F33" cx="11.5" cy="23.25" r=".75"/><path fill="#C1694F" d="M11.634 22.63c.174 0 .327.069.454.168a.735.735 0 0 0-.582-.296.75.75 0 0 0-.75.75c0 .24.12.444.296.582a.736.736 0 0 1-.168-.454.75.75 0 0 1 .75-.75z"/><circle fill="#292F33" cx="9" cy="25.75" r=".75"/><path fill="#C1694F" d="M9.134 25.13c.174 0 .327.069.454.168a.735.735 0 0 0-.582-.296.75.75 0 0 0-.75.75c0 .24.12.444.296.582a.736.736 0 0 1-.168-.454.75.75 0 0 1 .75-.75z"/></svg>
