<?xml version="1.0" encoding="UTF-8" standalone="no"?>
<svg
   viewBox="0 0 36 36"
   version="1.1"
   id="svg3"
   sodipodi:docname="1faaf.svg"
   inkscape:version="1.3 (0e150ed6c4, 2023-07-21)"
   xml:space="preserve"
   xmlns:inkscape="http://www.inkscape.org/namespaces/inkscape"
   xmlns:sodipodi="http://sodipodi.sourceforge.net/DTD/sodipodi-0.dtd"
   xmlns="http://www.w3.org/2000/svg"
   xmlns:svg="http://www.w3.org/2000/svg"><defs
     id="defs3" /><sodipodi:namedview
     id="namedview3"
     pagecolor="#ffffff"
     bordercolor="#000000"
     borderopacity="0.25"
     inkscape:showpageshadow="2"
     inkscape:pageopacity="0.0"
     inkscape:pagecheckerboard="0"
     inkscape:deskcolor="#d1d1d1"
     inkscape:zoom="10.194123"
     inkscape:cx="19.177717"
     inkscape:cy="21.237727"
     inkscape:window-width="1366"
     inkscape:window-height="697"
     inkscape:window-x="-8"
     inkscape:window-y="-8"
     inkscape:window-maximized="1"
     inkscape:current-layer="svg3"
     showguides="true" /><path
     fill="#9266CC"
     d="M36 32c0 2.209-1.791 4-4 4H4c-2.209 0-4-1.791-4-4V4c0-2.209 1.791-4 4-4h28c2.209 0 4 1.791 4 4v28z"
     id="path1" /><path
     id="path3"
     style="fill:#ffffff;fill-opacity:1;stroke:none;stroke-width:2.5;stroke-linecap:round"
     d="m 17.999999,3.9299637 a 8.1658237,8.1658237 0 0 0 -8.1652603,8.1652613 8.1658237,8.1658237 0 0 0 8.1652603,8.16526 8.1658237,8.1658237 0 0 0 8.165261,-8.16526 8.1658237,8.1658237 0 0 0 -8.165261,-8.1652613 z m 0,2.1558201 a 6.0100463,6.0100463 0 0 1 6.00944,6.0094412 6.0100463,6.0100463 0 0 1 -6.00944,6.009439 6.0100463,6.0100463 0 0 1 -6.00944,-6.009439 6.0100463,6.0100463 0 0 1 6.00944,-6.0094412 z" /><path
     id="rect3"
     style="fill:#ffffff;stroke-width:2.5;stroke-linecap:round"
     d="m 15.375272,3.2734151 2.624727,-2.1685181 2.624729,2.1685181 c 0,0 -0.777697,5.3836559 -0.777697,9.4283379 0,4.044683 0.777697,9.099882 0.777697,9.099882 l -2.624729,1.089301 -2.624727,-1.089301 c 0,0 0.777697,-5.055199 0.777697,-9.099882 0,-4.044682 -0.777697,-9.4283379 -0.777697,-9.4283379 z"
     sodipodi:nodetypes="ccczccczc" /><path
     id="rect4"
     style="fill:#ffffff;stroke-width:2.50001;stroke-linecap:round"
     d="m 17.083131,21.602843 h 1.833738 v 10.722016 h -1.833738 z"
     sodipodi:nodetypes="ccccc" /><path
     id="path4"
     style="fill:#ffffff;stroke-width:2.50001;stroke-linecap:round"
     d="m 20.058855,33.125009 c 0,1.137074 -0.921781,2.058854 -2.058855,2.058855 -1.137074,-10e-7 -2.058855,-0.921781 -2.058855,-2.058855 0,-1.137075 0.921781,-2.058855 2.058855,-2.058855 1.137074,0 2.058855,0.92178 2.058855,2.058855 z"
     sodipodi:nodetypes="sssss" /><path
     id="path5"
     style="opacity:1;fill:#ffffff;fill-opacity:1;stroke:none;stroke-width:2.5;stroke-linecap:round"
     d="m 5.4885815,14.357949 c 0.3617972,4.473205 4.9438275,8.465704 6.8286595,10.323751 l 1.165053,1.148497 1.025136,-1.476654 7.007595,4.74969 c -0.05061,0.05634 -0.0981,0.115403 -0.14221,0.176959 -0.652237,0.93079 -0.426852,2.214031 0.503539,2.866852 0.930205,0.65307 2.213649,0.428835 2.867309,-0.500939 0.653482,-0.930794 0.4285,-2.215124 -0.502465,-2.868363 l -8.688504,-5.92948 C 12.495947,20.762181 8.6642897,17.907868 8.2793442,13.148467 7.9365854,8.9106451 10.332565,6.090658 10.332565,6.090658 c 0,0 -2.0928542,0.7336366 -3.2482877,2.4215527 C 5.9288439,10.200127 5.2947904,11.961949 5.4885815,14.357949 Z"
     sodipodi:nodetypes="sscccccccsscss" /><path
     id="path7"
     style="opacity:1;fill:#ffffff;fill-opacity:1;stroke:none;stroke-width:2.5;stroke-linecap:round"
     d="m 30.511419,14.357949 c -0.361798,4.473205 -4.943829,8.465704 -6.82866,10.323751 l -1.165053,1.148497 -1.025136,-1.476654 -7.007595,4.74969 c 0.05061,0.05634 0.0981,0.115403 0.14221,0.176959 0.652237,0.93079 0.426852,2.214031 -0.50354,2.866852 -0.930204,0.65307 -2.213648,0.428835 -2.867308,-0.500939 -0.653482,-0.930794 -0.4285,-2.215124 0.502465,-2.868363 l 8.688504,-5.92948 c 3.056747,-2.086081 6.888404,-4.940394 7.273349,-9.699795 0.342759,-4.2378219 -2.05322,-7.057809 -2.05322,-7.057809 0,0 2.092854,0.7336366 3.248288,2.4215527 1.155433,1.6879163 1.789486,3.4497383 1.595696,5.8457383 z"
     sodipodi:nodetypes="sscccccccsscss" /></svg>
