<?xml version="1.0" encoding="utf-8"?>
<!-- Generator: Adobe Illustrator 27.2.0, SVG Export Plug-In . SVG Version: 6.00 Build 0)  -->
<svg version="1.1" id="Layer_1" xmlns="http://www.w3.org/2000/svg" xmlns:xlink="http://www.w3.org/1999/xlink" x="0px" y="0px"
	 viewBox="0 0 36 36" style="enable-background:new 0 0 36 36;" xml:space="preserve">
<style type="text/css">
	.st0{fill:#9266CC;}
	.st1{fill:#FFFFFF;}
</style>
<g>
	<path class="st0" d="M36,32c0,2.2-1.8,4-4,4H4c-2.2,0-4-1.8-4-4V4c0-2.2,1.8-4,4-4h28c2.2,0,4,1.8,4,4V32z"/>
	<path class="st1" d="M23.5,6.9c0,0,4,2.3,3.6,7.5c-0.4,5.1-8.3,10.1-8.3,10.1v-1.6l2.1-1.5c-0.1-0.5-0.2-0.9-0.3-1.4
		c2.8-1.1,4.9-3.8,4.9-7c0-3.2-2-5.9-4.8-7C20.8,5.3,20.9,5,20.9,5L18,2l-2.9,3c0,0,0.1,0.3,0.2,0.9c-2.8,1.1-4.8,3.8-4.8,7
		c0,3.2,2,5.9,4.8,7c-0.1,0.5-0.2,0.9-0.3,1.4l2.1,1.5v1.6c0,0-7.9-4.9-8.3-10.1c-0.4-5.1,3.6-7.5,3.6-7.5s-6.1,1-6.5,7.5
		c-0.4,6.3,5.8,11,5.8,11s1.1,0.9,1.2,1.9l2.7-2l1,0.7l-3.4,2.6c-0.3,0.2-0.5,0.6-0.5,1c0,0.8,0.6,1.4,1.4,1.4s1.4-0.6,1.4-1.4
		c0-0.3-0.1-0.6-0.3-0.8l1.9-1.3v3c-0.6,0.3-1,0.9-1,1.6c0,1,0.8,1.9,1.9,1.9s1.9-0.8,1.9-1.9c0-0.7-0.4-1.3-1-1.6v-3l1.9,1.3
		c-0.2,0.2-0.3,0.5-0.3,0.8c0,0.8,0.6,1.4,1.4,1.4s1.4-0.6,1.4-1.4c0-0.4-0.2-0.8-0.5-1l-3.4-2.6l1-0.7l2.7,2c0.1-1,1.2-1.9,1.2-1.9
		s6.2-4.7,5.8-11C29.6,7.9,23.5,6.9,23.5,6.9z M24,12.9c0,2.5-1.5,4.6-3.6,5.5c-0.7-4.6-0.3-8.6,0.1-11C22.5,8.4,24,10.5,24,12.9z
		 M12,12.9c0-2.4,1.5-4.5,3.6-5.5c0.4,2.4,0.7,6.4,0.1,11C13.5,17.5,12,15.4,12,12.9z"/>
</g>
</svg>
