<svg xmlns="http://www.w3.org/2000/svg" viewBox="0 0 36 36"><path fill="#CD9939" d="m22.431 27.802-1.647 2.286a2.818 2.818 0 0 0 3.294-4.572l-1.647 2.286z"/><path fill="#DB5F6F" d="M22.431 27.802 35.613 9.505c-7.472-5.382-17.809-5.823-25.864-.343-5.732 3.9-9.1 9.976-9.749 16.373l22.431 2.267z"/><path fill="#BD4754" d="M22.656 27.911 32.68 7.722l-.9-.434-8.184 17.442 5.442-18.482-.963-.272-5.03 18.599 2.15-19.147-.995-.101-1.725 19.19-1.208-19.229-.997.074 1.634 19.198-4.529-18.728-.969.246 4.943 18.623-7.712-17.657-.912.41 8.102 17.481L10.166 8.886l-.827.563 11.015 15.809L7.068 11.303l-.717.698 13.592 13.656L4.436 14.222l-.584.811 15.757 11.088-17.258-8.568-.434.9 20.405 9.574zM.605 22.158l12.176 3.293c.057-.234.117-.466.191-.695L.877 21.195l-.272.963z"/><path fill="#E1AE5B" d="m22.431 27.802 5.816-8.073a9.951 9.951 0 0 0-15.743 7.419l9.927.654z"/><path fill="#CD9939" d="m22.551 27.848 3.642-9.259-.468-.178-2.828 7.742 1.639-8.077-.492-.093-1.441 8.114.212-8.239-.5-.007-.01 8.242-1.223-8.152-.494.08 1.422 8.12-2.62-7.816-.472.164 2.81 7.751-3.937-7.242-.436.245 4.112 7.142-5.134-6.447-.387.316 5.29 6.32-6.177-5.459-.327.379 6.309 5.306-7.031-4.303-.256.429 7.134 4.131-7.67-3.017-.178.468 7.742 2.828-8.077-1.639-.093.492 9.795 1.739z"/><path fill="#E1AE5B" d="M21.099 30.152a.5.5 0 0 1-.405-.792L35.08 9.39a.498.498 0 1 1 .81.585l-14.387 19.97a.496.496 0 0 1-.404.207z"/></svg>
