<?xml version="1.0" encoding="UTF-8"?><svg id="Layer_3" xmlns="http://www.w3.org/2000/svg" viewBox="0 0 36 36"><defs><style>.cls-1{fill:#fff;}.cls-2{fill:#e80040;}.cls-3{fill:#a80018;}.cls-4{fill:#de9a7e;}</style></defs><path class="cls-2" d="m18,28l17.08-10.2c.42-.25.52-.84.19-1.2-4.29-4.66-10.43-7.59-17.27-7.59S5.02,11.93.73,16.59c-.33.36-.24.95.19,1.2l17.08,10.2Z"/><g><path class="cls-3" d="m18,25.79l.03-.05.47-1.71v-15.02c-.17,0-.33-.01-.5-.01s-.33,0-.5.01v15.02l.47,1.71.03.05Z"/><polygon class="cls-3" points="17.19 27.05 17.13 27.15 17.36 27.3 17.33 27.2 17.19 27.05"/><path class="cls-3" d="m20.18,24.26l8.25-12.81c-.3-.15-.6-.3-.91-.43l-7.68,11.93-.58,2.12.92-.81Z"/><polygon class="cls-3" points="18.01 25.81 18.03 25.74 18 25.79 18.01 25.81"/><path class="cls-3" d="m18.77,26.82l14.15-12.45c-.26-.22-.53-.43-.8-.63l-11.95,10.51-.92.81-.48,1.75Z"/><polygon class="cls-3" points="17.23 26.85 17.11 26.96 17.19 27.05 17.33 27.2 17.23 26.85"/><polygon class="cls-3" points="18.44 27.47 18.5 27.7 18.54 27.68 18.64 27.3 18.51 27.38 18.44 27.47"/><path class="cls-3" d="m19.25,25.07l.58-2.12,3.63-13.3c-.32-.08-.65-.15-.98-.21l-3.98,14.59-.47,1.71-.02.07.55.86.2.18v-.03s.49-1.75.49-1.75Z"/><path class="cls-3" d="m16.17,22.95l-7.68-11.93c-.31.14-.61.28-.91.43l8.25,12.81.92.81-.58-2.12Z"/><polygon class="cls-3" points="17.97 25.74 18.11 26.27 18.57 26.67 18.01 25.81 18 25.79 17.97 25.74"/><polygon class="cls-3" points="18.51 27.38 18.64 27.3 18.87 27.15 18.81 27.05 18.51 27.38"/><polygon class="cls-3" points="18.57 26.67 18.11 26.27 18.44 27.47 18.51 27.38 18.81 27.05 18.89 26.96 18.77 26.85 18.57 26.67"/><path class="cls-3" d="m16.75,25.07l-.92-.81L3.87,13.75c-.27.2-.54.41-.8.63l14.15,12.45-.48-1.75Z"/><path class="cls-3" d="m18.44,27.47l-.33-1.19-.14-.53-.47-1.71-3.98-14.59c-.33.06-.66.13-.98.21l3.63,13.3.58,2.12.48,1.75v.03s.1.35.1.35l.03.09.1.38.54.32.5-.3-.06-.23Z"/></g><path class="cls-4" d="m18,28l6.59-3.94c-1.59-1.87-3.95-3.06-6.59-3.06s-5.01,1.19-6.59,3.06l6.59,3.94Z"/><path class="cls-1" d="m12.19,23.95c1.53-1.56,3.62-2.45,5.81-2.45s4.28.88,5.81,2.45l-5.81,3.47-5.81-3.47Z"/><path class="cls-4" d="m19.52,27.09l5.07-3.03c-1.59-1.87-3.95-3.06-6.59-3.06s-5.01,1.19-6.59,3.06l5.07,3.03-2.08,1.49c-.18.13-.22.38-.08.55.93,1.15,2.24,1.87,3.69,1.87s2.75-.72,3.69-1.87c.14-.17.09-.42-.08-.55l-2.08-1.49Zm3.47-3.23l-3.4,2.03c-.1-.15-.22-.28-.35-.4l1.83-2.84c.69.3,1.34.71,1.92,1.21Zm-4.61-1.84c.68.03,1.34.16,1.97.36l-1.76,2.73c-.07-.02-.14-.04-.22-.06v-3.03Zm-.75,0v3.03c-.07.02-.15.03-.22.06l-1.76-2.73c.63-.21,1.3-.33,1.97-.36Zm-4.61,1.84c.58-.5,1.23-.9,1.92-1.21l1.83,2.84c-.13.12-.25.25-.35.4l-3.4-2.03Z"/><circle class="cls-3" cx="18" cy="27" r="1"/></svg>