<?xml version="1.0" encoding="UTF-8" standalone="no"?>
<!-- Created with Inkscape (http://www.inkscape.org/) -->

<svg
   width="200mm"
   height="200mm"
   viewBox="0 0 200 200"
   version="1.1"
   id="svg5"
   sodipodi:docname="hairpick.svg"
   inkscape:version="1.2.2 (732a01da63, 2022-12-09)"
   inkscape:export-filename="hairpick.png"
   inkscape:export-xdpi="5.7150002"
   inkscape:export-ydpi="5.7150002"
   xmlns:inkscape="http://www.inkscape.org/namespaces/inkscape"
   xmlns:sodipodi="http://sodipodi.sourceforge.net/DTD/sodipodi-0.dtd"
   xmlns="http://www.w3.org/2000/svg"
   xmlns:svg="http://www.w3.org/2000/svg">
  <sodipodi:namedview
     id="namedview7"
     pagecolor="#505050"
     bordercolor="#eeeeee"
     borderopacity="1"
     inkscape:showpageshadow="0"
     inkscape:pageopacity="0"
     inkscape:pagecheckerboard="0"
     inkscape:deskcolor="#505050"
     inkscape:document-units="mm"
     showgrid="false"
     inkscape:zoom="0.5"
     inkscape:cx="660"
     inkscape:cy="200"
     inkscape:window-width="1920"
     inkscape:window-height="1057"
     inkscape:window-x="1912"
     inkscape:window-y="-8"
     inkscape:window-maximized="1"
     inkscape:current-layer="layer1" />
  <defs
     id="defs2">
    <inkscape:path-effect
       effect="mirror_symmetry"
       start_point="87.926909,50.106182"
       end_point="87.926909,134.01125"
       center_point="87.926909,92.058716"
       id="path-effect20809"
       is_visible="true"
       lpeversion="1.2"
       lpesatellites=""
       mode="free"
       discard_orig_path="false"
       fuse_paths="false"
       oposite_fuse="false"
       split_items="false"
       split_open="false"
       link_styles="false" />
    <inkscape:path-effect
       effect="mirror_symmetry"
       start_point="0,200"
       end_point="200,0"
       center_point="100,100"
       id="path-effect17903"
       is_visible="true"
       lpeversion="1.2"
       lpesatellites=""
       mode="free"
       discard_orig_path="false"
       fuse_paths="false"
       oposite_fuse="false"
       split_items="false"
       split_open="false"
       link_styles="false" />
    <inkscape:path-effect
       effect="mirror_symmetry"
       start_point="0,200"
       end_point="200,0"
       center_point="100,100"
       id="path-effect17864"
       is_visible="true"
       lpeversion="1.2"
       lpesatellites=""
       mode="free"
       discard_orig_path="false"
       fuse_paths="false"
       oposite_fuse="false"
       split_items="false"
       split_open="false"
       link_styles="false" />
    <inkscape:path-effect
       effect="mirror_symmetry"
       start_point="87.926909,50.106182"
       end_point="87.926909,134.01125"
       center_point="87.926909,92.058716"
       id="path-effect20809-8"
       is_visible="true"
       lpeversion="1.2"
       lpesatellites=""
       mode="free"
       discard_orig_path="false"
       fuse_paths="false"
       oposite_fuse="false"
       split_items="false"
       split_open="false"
       link_styles="false" />
  </defs>
  <g
     inkscape:label="Layer 1"
     inkscape:groupmode="layer"
     id="layer1">
    <path
       id="path163"
       style="fill:#4d4d4d;stroke-width:0.472713"
       d="M 8.2933852e-4,95.192981 C 0.0367318,97.172731 0.84181724,99.570901 3.3256377,102.17625 l 68.7797013,72.14483 c 3.443485,3.61196 8.079498,5.29049 12.700222,5.1212 4.267213,-0.15635 11.379571,-5.40032 15.630249,-7.18099 l 19.0448,-7.97837 c 0.3702,-0.12183 0.73105,-0.22299 1.0946,-0.3304 16.32959,-4.57538 26.76831,10.4412 29.0433,16.21429 v 6.5e-4 a 25.510613,25.510613 0 0 0 0.47349,1.76647 c 4e-5,0.004 10e-4,0.0102 10e-4,0.0143 l 0.003,-0.002 a 25.510613,25.510613 0 0 0 24.39406,18.05424 25.510613,25.510613 0 0 0 25.51037,-25.51036 25.510613,25.510613 0 0 0 -17.97426,-24.37152 l 6.5e-4,-6.5e-4 c -10e-4,0 -0.003,-6.5e-4 -0.004,-6.5e-4 a 25.510613,25.510613 0 0 0 -1.81005,-0.48585 c -5.81023,-2.30405 -20.8304,-12.75625 -16.25852,-29.06281 0.10673,-0.36101 0.20684,-0.71922 0.3278,-1.0868 l 7.97836,-19.04546 c 1.78067,-4.250659 7.02531,-11.362379 7.18165,-15.629589 0.16929,-4.62075 -1.50925,-9.25674 -5.1212,-12.70022 L 102.17603,3.3262206 c -6.947591,-6.62352 -12.420555,-1.30794 -12.420555,-1.30794 0,0 -0.04327,0.0403 -0.105369,0.12359 -0.0621,0.0833 -0.142982,0.2094 -0.219832,0.38178 -0.461104,1.03435 -0.761958,3.72447 4.210643,8.6970504 l 65.559843,68.15793 c 1.69128,1.62651 0.46286,1.95192 -0.3148,2.73491 -0.77764,0.78298 -1.10319,2.01192 -2.7297,0.32064 l -68.157921,-65.5596 c -4.972599,-4.9726 -7.66271,-4.67174 -8.697055,-4.21065 -0.172389,0.0769 -0.298485,0.15839 -0.38178,0.22049 -0.08329,0.062 -0.123568,0.10471 -0.123568,0.10471 0,0 -0.04327,0.0403 -0.105369,0.1236 -0.0621,0.0833 -0.142982,0.20939 -0.219833,0.38178 -0.461104,1.03434 -0.761953,3.72447 4.210644,8.69706 l 65.559602,68.15792 c 1.69128,1.62653 0.46271,1.95218 -0.31024,2.72515 -0.77297,0.77294 -1.09863,2.00151 -2.72514,0.31023 l -68.157275,-65.5596 c -4.9726,-4.9726 -7.657674,-4.68344 -8.68925,-4.22821 -0.171927,0.0759 -0.298104,0.15637 -0.381129,0.21789 -0.08303,0.0615 -0.122926,0.10408 -0.122926,0.10408 0,0 -0.04316,0.0398 -0.105369,0.12296 -0.06221,0.0832 -0.143434,0.2096 -0.220483,0.38178 -0.462296,1.03315 -0.765206,3.72121 4.207392,8.69381 l 65.5596,68.157269 c 1.69128,1.62652 0.4622,1.95192 -0.31544,2.7349 -0.77764,0.78299 -1.10255,2.01258 -2.72905,0.3213 L 66.09375,38.770791 c -4.972593,-4.97259 -7.662711,-4.67175 -8.697053,-4.21064 -0.172391,0.0769 -0.299136,0.15839 -0.382432,0.22049 -0.08329,0.062 -0.122926,0.10471 -0.122926,0.10471 0,0 -0.04327,0.0403 -0.105369,0.12359 -0.0621,0.0833 -0.143632,0.2094 -0.220483,0.38178 -0.461106,1.03435 -0.7613,3.72512 4.211294,8.69771 L 126.33638,112.2457 c 1.69128,1.62653 0.46208,1.9522 -0.31088,2.72515 -0.77297,0.77296 -1.09801,2.00217 -2.72449,0.31089 L 55.14244,49.721411 c -4.972599,-4.9726 -7.693149,-4.64319 -8.742581,-4.16772 -0.174903,0.0793 -0.302872,0.16285 -0.387634,0.22633 -0.08477,0.0634 -0.126175,0.10736 -0.126175,0.10736 0,0 -0.04382,0.0408 -0.10732,0.12548 -0.0635,0.0847 -0.146441,0.21337 -0.225686,0.38827 -0.475473,1.04944 -0.804877,3.76999 4.167718,8.74259 L 115.28036,123.301 c 1.69129,1.6265 0.46208,1.95219 -0.31088,2.72514 -0.77296,0.77296 -1.09799,2.00216 -2.72449,0.31089 L 44.087062,60.776791 c -4.972586,-4.9726 -7.662708,-4.67175 -8.697054,-4.21065 -0.172391,0.0769 -0.298485,0.15839 -0.381781,0.22049 -0.08329,0.062 -0.12358,0.10471 -0.12358,0.10471 0,0 -0.04327,0.0403 -0.105369,0.1236 -0.0621,0.0833 -0.142982,0.20939 -0.219833,0.38178 -0.461107,1.03434 -0.761955,3.72447 4.210644,8.69705 L 104.32969,134.2517 c 1.69129,1.62651 0.46244,1.95214 -0.32064,2.7297 -0.78299,0.77765 -1.1084,2.00672 -2.7349,0.31544 L 33.116235,71.736561 c -4.972601,-4.97259 -7.662713,-4.67175 -8.697055,-4.21065 -0.17239,0.0769 -0.298485,0.15838 -0.38178,0.22048 -0.08329,0.062 -0.12358,0.10472 -0.12358,0.10472 0,0 -0.04327,0.0403 -0.105357,0.12359 -0.0621,0.0833 -0.142983,0.20939 -0.219833,0.38178 -0.461101,1.03435 -0.761953,3.72446 4.210644,8.69705 l 65.559604,68.157919 c 1.691298,1.62652 0.462848,1.9519 -0.314791,2.7349 -0.77765,0.78299 -1.103187,2.01193 -2.729699,0.32064 L 22.156463,82.707381 c -4.972594,-4.97259 -7.662711,-4.67175 -8.697053,-4.21064 -0.172391,0.0769 -0.298485,0.15774 -0.381781,0.21984 -0.08329,0.062 -0.123581,0.10534 -0.123581,0.10534 0,0 -0.04327,0.0403 -0.105369,0.1236 -0.0621,0.0833 -0.142981,0.20939 -0.219832,0.38178 -0.461106,1.03434 -0.761954,3.72446 4.210643,8.69705 l 65.559617,68.157919 c 1.691276,1.62653 0.462706,1.95219 -0.310238,2.72515 -0.772958,0.77296 -1.098654,2.00151 -2.725145,0.31024 L 11.205798,93.658051 c -4.9726001,-4.97259 -7.6549651,-4.68138 -8.6853465,-4.22495 -0.1717304,0.076 -0.2975702,0.15689 -0.3804809,0.21852 -0.082908,0.0617 -0.122273,0.10409 -0.122273,0.10409 0,0 -2.07670652,2.1377 -2.01686826148,5.43728 z M 161.69371,174.49018 a 12.795374,12.795374 0 0 1 12.79582,-12.79518 12.795374,12.795374 0 0 1 12.79519,12.79518 12.795374,12.795374 0 0 1 -12.79519,12.79518 12.795374,12.795374 0 0 1 -12.79582,-12.79518 z" />
  </g>
</svg>
