<svg xmlns="http://www.w3.org/2000/svg" viewBox="0 0 36 36"><g fill="#6F6B6E"><path d="m23.081 1.221-.313-.312L9.726 13.743l.781.781zM12.465 16.482 25.082 3.223l-.312-.312-13.086 12.791zM14.423 18.441 27.084 5.225l-.312-.313L13.643 17.66zM16.382 20.399 29.086 7.226l-.312-.312-13.173 12.704zM31.088 9.228l-.313-.312-13.216 12.661.781.78zM33.089 11.23l-.312-.312-13.259 12.617.78.781zM35.091 13.231l-.312-.312-13.303 12.574.781.781z"/></g><path fill="#23272F" d="M21.541 25.428 8.88 12.768l-2.382 2.383a2.793 2.793 0 0 0-.655 2.914l1.418 3.97a3.938 3.938 0 0 1-1.559 4.581L2.382 28.8c-1.03.677-1.551 1.905-1.333 3.143.304 1.731 1.413 2.728 3.008 3.008 1.238.217 2.466-.304 3.143-1.333l2.183-3.32a3.939 3.939 0 0 1 4.581-1.559l3.97 1.418a2.793 2.793 0 0 0 2.914-.655l2.384-2.382-1.691-1.692z"/></svg>
