<svg xmlns="http://www.w3.org/2000/svg" viewBox="0 0 36 36"><path fill="#9266CC" d="M36 32a4 4 0 0 1-4 4H4a4 4 0 0 1-4-4V4a4 4 0 0 1 4-4h28a4 4 0 0 1 4 4v28z"/><path fill="#FFFFFF" d="M25 28c0-2.449 6-5.137 6-12 0-3.231-1.907-6.797-5.644-8 2.884 2.791 3.957 5.097 2.572 8.892-1.213 3.125-3.873 5.572-6.775 7.428-.731.399-1.431.747-2.152 1.054v-1.716C20.12 22.553 21.5 22 21.5 22s-.28-.561-.631-1.472C23.868 19.518 26 16.98 26 14s-2.132-5.518-5.131-6.528C21.22 6.561 21.5 6 21.5 6S19 5 18 3c-1 2-3.5 3-3.5 3s.28.561.631 1.472C12.132 8.482 10 11.02 10 14s2.132 5.518 5.131 6.528C14.78 21.439 14.5 22 14.5 22s1.38.553 2.5 1.658v1.716a24.477 24.477 0 0 1-2.152-1.054c-2.903-1.856-5.563-4.303-6.775-7.428-1.386-3.795-.312-6.101 2.571-8.892C6.907 9.203 5 12.769 5 16c0 6.863 6 9.551 6 12l2.76-2.64c.908.48 1.62.811 2.231 1.062-3.147 1.186-3.407 2.95-2.979 3.428.292.399.776.445 1.189.209.517-.361.855-.935.539-1.644a14.276 14.276 0 0 1 2.259-.995v2.055c-.453.226-.75.599-.75 1.024 0 .69.784 1.25 1.75 1.25s1.75-.56 1.75-1.25c0-.424-.297-.798-.75-1.024V27.45c.608.211 1.3.493 2.176.966-.316.709.022 1.283.539 1.644a.992.992 0 0 0 .647.131.814.814 0 0 0 .626-.34c.43-.481.166-2.259-3.023-3.445a25.422 25.422 0 0 0 2.245-1.074L25 28zM20.377 8.885C22.79 9.689 24.5 11.673 24.5 14c0 2.327-1.71 4.311-4.123 5.115-.455-1.449-.877-3.279-.877-5.115s.422-3.666.877-5.115zm-4.754 10.23C13.21 18.311 11.5 16.327 11.5 14c0-2.327 1.71-4.311 4.123-5.115.455 1.449.877 3.279.877 5.115s-.422 3.666-.877 5.115z"/></svg>
