<svg xmlns="http://www.w3.org/2000/svg" viewBox="0 0 36 36"><path fill="#1C73AB" d="M18.422 9.449c-3.34 2.94-4.264 7.993-4.429 12.309-.105 4.384 1.292 10.209-3.24 12.987-.268.168-.543-.241-.27-.421 4.283-2.8 2.682-8.253 2.761-12.577.01-2.333.301-4.687.967-6.947.696-2.229 1.669-4.505 3.59-6.134a.5.5 0 1 1 .621.783z"/><path fill="#47D0FF" d="M17.805 10.942c-1.742.106-2.921 1.913-3.594 3.443-1.059 2.571-2.316 5.778-5.162 6.974-2.355 1.174-6.204.74-7.128 3.703-.042.322-.561.241-.493-.085.849-3.29 4.865-3.025 7.329-4.241 2.676-1.253 3.597-4.066 4.653-6.705.781-1.842 2.082-3.902 4.368-4.09.665-.025.702.991.027 1.001zM27.29 13.132c3.707 3.082-.069 7.801.191 11.535.164 2.362 1.777 4.401 1.328 6.919-.059.317-.563.223-.49-.101.255-1.464-.423-2.932-.937-4.406-1.443-3.038.133-6.347.592-9.331.154-1.336-.087-3.011-1.233-3.78-.56-.354-.004-1.212.549-.836z"/><path fill="#1C73AB" d="M27.832 13.668c1.117 4.799-3.963 9.399-7.835 11.342-4.171 2.252-9.802.14-13.133 3.929a.25.25 0 0 1-.388-.316c.769-.961 1.828-1.658 2.963-2.083 3.318-1.19 7.125-.53 10.235-2.207 3.425-1.776 8.191-6.139 7.206-10.359-.212-.624.757-.942.952-.306z"/><path fill="#47D0FF" d="M21.62 10.225c-2.037.884-3.38 3.121-4.412 5.909-1.042 2.802-2.036 5.955-3.732 8.864-1.684 2.89-3.939 5.341-6.481 6.4-1.88.783-3.695.737-5.071.028.252.427.559.781.916 1.131.157.153.244.36.417.512.191.168.426.3.686.378a2.159 2.159 0 0 0 1.537-.122c.291-.145.547-.363.913-.45.436-.104.904.004 1.367.058.462.054 1.047.027 1.414-.251.266-.201.341-.462.465-.702.139-.269.477-.529.849-.729.488-.262 1.039-.448 1.579-.684.539-.236 1.101-.547 1.467-.961.594-.673.5-1.37 1.014-2.129.671-.992 2.03-1.702 2.866-2.729 1.375-1.69.578-2.45.693-3.865.047-.574.239-1.325.655-1.866.495-.644 1.278-.918 1.415-1.688.068-.378-.078-.717-.085-1.096-.01-.538.282-1.025.622-1.323.34-.298.748-.473 1.112-.751.628-.433 1.04-1.174 1.062-1.919a2.238 2.238 0 0 0-.962-1.893l-.306-.122z"/><path fill="#1C73AB" d="M23.236 10.729c-4.499 2.926-5.866 8.1-7.864 12.781-2.086 5.045-6.908 10.377-13.045 8.984-.931-.222-.64-1.639.308-1.463 1.099.231 2.434.107 3.591-.282 6.499-2.301 7.403-10.077 9.909-15.665 1.103-2.562 3.058-5.014 5.246-6.712a1.5 1.5 0 1 1 1.855 2.357z"/><path fill="#47D0FF" d="M15.202 7.795c-.212 3.584-3.446 5.669-5.227 8.402-1.823 2.74-1.88 6.285-3.691 9.045-1.056 1.856-2.543 4.293-5.064 4.028-.321-.047-.25-.548.076-.494 2.203.174 3.504-2.121 4.443-3.839 1.198-1.835 1.486-3.961 2.172-6.098.638-2.131 1.9-4.13 3.425-5.714 1.455-1.593 2.76-3.353 2.869-5.402.034-.654 1.055-.598.997.072zM31.369 13.485c.594 3.204-.718 6.369-2.896 8.603-2.928 2.592-5.417 3.76-4.604 8.249.267 1.195.792 2.693-.048 3.826-.184.237-.494.428-.822.439-.323.015-.35-.479-.025-.499.848-.158.816-1.496.683-2.208-1.029-2.977-.704-6.466 2.029-8.424 1.518-1.255 3.013-2.477 3.849-4.28.83-1.704 1.293-3.723.859-5.486-.156-.636.836-.874.975-.22zM27.485 11.325c-.404.425-.818.869-1.139 1.364-.256.396-.543.706-.53 1.199.01.396.147.776.209 1.171.062.394.034.837-.237 1.152-.238.276-.627.412-.855.706-.416.538-.104 1.301-.375 1.93-.216.501-.751.811-1.233 1.129-.3.198-.609.436-.818.737-.188.271-.194.519-.266.809-.149.603-.265 1.179-.307 1.803-.071 1.046.067 2.321-.49 3.435-.355.71-1.032 1.365-1.352 2.017-.673 1.371-.324 3.161.398 4.205-.103-.149-.777-.178-.96-.239-.32-.107-.675-.221-.946-.424-.466-.349-1.108-.402-1.499-.852-.349-.4-.403-1.163.044-1.662.295-.329.733-.473.99-.827.284-.392.229-.868.128-1.248s-.226-.787-.036-1.198c.263-.57 1.015-.885 1.243-1.444.113-.276.067-.551-.03-.778-.097-.227-.242-.422-.333-.646-.257-.632.018-1.49.601-2.09.666-.685 1.352-1.352 1.75-2.16.392-.796.348-1.255 1.058-2.777 1.103-2.365 2.218-3.668 2.782-4.965.433-1 .161-1.177.442-1.813.186-.422.712-.623 1.17-.446.612.236 1.035 1.057.766 1.655a.96.96 0 0 1-.175.257z"/><path fill="#1C73AB" d="M25.22 9.778c2.215 4.187-2.942 7.691-2.201 11.836.138.894.422 2.015.231 3.247-.358 2.247-2.128 3.489-2.832 5.337-.299.715-.263 1.64.073 1.943.704.656-.285 1.751-1.01 1.109-.586-.519-.795-1.215-.856-1.816-.355-2.605 2.249-4.605 2.58-6.841.131-1.202-.665-2.828-.595-4.256-.03-2.975 2.019-5.565 2.271-8.357-.02-.435-.163-.491-.278-.796-.778-1.69 1.638-2.983 2.617-1.406z"/><path fill="#47D0FF" d="M27.752 1.218c-5.178-2.347-11.476.26-14.068 5.823-.853 1.831.645.771 1.249 1.533.39.492-.359 2.201.459 2.503.656.242 2.092-.249 2.782.193.608.391.404 2.214 1.186 2.384.721.157 2.01-.601 2.728-.275.718.325 1.054 1.7 1.564 2.221.552.563 2.018-.8 2.714-.6 1.185.342 1.021 1.362 1.472 1.8 1.293 1.257 1.97-1.167 2.604-1.196.981-.044 1.141 1.768 1.995-.064 2.588-5.563.492-11.975-4.685-14.322z"/><path fill="#89F7FF" d="M32.229 12.277c-.437.995-1.143 1.531-1.832 1.227-2.919-1.289 2.067-4.482-8.809-8.328-4.906-1.735.714-5.7 6.026-3.192 4.945 2.335 5.625 7.995 4.615 10.293z"/><path fill="#FFFFFF" d="M15.342 7.222c1.036-3.838 5.256-5.241 8.789-5.396a.25.25 0 0 1 .059.496c-3.288.34-7.072 1.627-7.883 5.166-.165.649-1.157.38-.965-.266zM18.602 10.079c1.173-2.806 3.089-5.43 5.88-6.717a.25.25 0 0 1 .18.466c-2.458 1.29-4.223 4.003-5.105 6.547-.177.661-1.185.354-.955-.296zM26.528 13.827c.869-2.875 1.236-6.186.725-9.17-.069-.306.413-.421.487-.113.699 3.19.506 6.418-.26 9.591a.5.5 0 1 1-.952-.308zM22.48 12.027l3.311-7.603c.123-.295.589-.099.46.197l-2.852 7.8c-.243.643-1.216.231-.919-.394zM30.64 14.388c.682-3.508.699-7.739-2.1-10.342-.238-.208.089-.585.33-.376 1.526 1.268 2.415 3.168 2.763 5.081.359 1.928.278 3.897-.008 5.809a.5.5 0 1 1-.985-.172z"/></svg>
