<svg xmlns="http://www.w3.org/2000/svg" viewBox="0 0 36 36"><path fill="#FFAC33" d="M20.466 33.256a4.84 4.84 0 0 0-.374-2.613l-1.586-3.569c-.252-.57-1.13-.23-.933.361l1.188 3.582a.857.857 0 0 1-.377 1.008l-1.953 1.153c-1.197.751.014 2.498 1.137 1.645l.868-.696-.174.558a1.004 1.004 0 1 0 1.953.432l.251-1.861z"/><path fill="#FFAC33" d="M15.533 25.173c-.127-.615-1.063-.461-.987.161l.524 4.319a.93.93 0 0 1-.823 1.039l-2.967.33a1.007 1.007 0 0 0-.867 1.212c.12.54.655.88 1.195.761l1.148-.255-.099.074a1.01 1.01 0 0 0-.116 1.509 1.003 1.003 0 0 0 1.418.01l1.749-1.708a2.9 2.9 0 0 0 .814-2.658l-.989-4.794z"/><path fill="#F4900C" d="M6.391 3.366C5.282 2.257 6.386.526 6.413.485c-.868.37-1.638.901-2.265 1.438C2.971 2.931.781 3.526.781 4.488L7.512 5.61l-.16-.755a3.968 3.968 0 0 0-.961-1.489z"/><path fill="#EBDCC6" d="M14 15s-.878-2.659-.878-8.269C13.122 1.923 10.878 0 8.634 0c-.791 0-1.533.192-2.216.482l-.006.003c-.026.04-1.13 1.772-.022 2.881.539.539.815 1.075.961 1.49.157.448.161.754.161.754s1.122 1.122 1.122 3.366C8.634 14.584 5 15 5 19c0 3.359 8 10 10 10 3 0 9 0 10-2 2.864-5.727 7-3 8-6-6-1-10-5-19-6z"/><path fill="#DCC7AA" d="M25.008 25.256c-2.007 1.379-5.244 1.708-7.458.33-1.347-.751-2.307-1.406-3.728-1.778-1.4-.348-2.752-.997-3.52-2.291-1.026-1.496-.043-3.516 1.588-3.736.27-.095.458.258.215.411-2.44 1.765.108 3.564 2.162 3.765 2.314.312 4.162 2.349 6.222 2.902 1.399.308 2.921.179 4.418-.055.275-.041.364.355.101.452z"/><circle fill="#292F33" cx="8.5" cy="1.5" r=".881"/></svg>
