<?xml version="1.0" encoding="UTF-8"?><svg id="Layer_3" xmlns="http://www.w3.org/2000/svg" viewBox="0 0 36 36"><defs><style>.cls-1{fill:#fff;}.cls-2{fill:#2b87c7;}.cls-3{fill:#44abf3;}</style></defs><g><path class="cls-3" d="m13.5,35c-.26,0-.53-.07-.77-.21-.71-.43-.94-1.35-.51-2.06l1.59-2.65c.45-.75.3-1.71-.34-2.29-1.77-1.59-2.12-4.19-.84-6.19l2.2-3.44c.45-.7,1.37-.9,2.07-.45.7.45.9,1.37.45,2.07l-2.2,3.44c-.48.75-.35,1.73.32,2.33,1.72,1.54,2.1,4.09.92,6.06l-1.59,2.65c-.28.47-.78.73-1.29.73Z"/><path class="cls-3" d="m7.5,33c-.26,0-.53-.07-.77-.21-.71-.43-.94-1.35-.51-2.06l1.59-2.65c.45-.75.3-1.71-.34-2.29-1.77-1.59-2.12-4.19-.84-6.19l2.2-3.44c.45-.7,1.37-.9,2.07-.45.7.45.9,1.38.45,2.07l-2.2,3.44c-.48.75-.35,1.73.32,2.33,1.72,1.54,2.1,4.09.92,6.06l-1.59,2.65c-.28.47-.78.73-1.29.73Z"/><path class="cls-3" d="m21.94,35c-.51,0-1.01-.26-1.29-.73l-1.59-2.65c-1.19-1.98-.8-4.53.92-6.06.67-.6.8-1.58.32-2.33l-2.2-3.44c-.45-.7-.24-1.63.45-2.07.7-.45,1.63-.24,2.07.45l2.2,3.44c1.28,2,.93,4.6-.84,6.19-.65.58-.79,1.54-.34,2.29l1.59,2.65c.43.71.2,1.63-.51,2.06-.24.15-.51.21-.77.21Z"/><path class="cls-3" d="m27.94,33c-.51,0-1.01-.26-1.29-.73l-1.59-2.65c-1.19-1.98-.8-4.53.92-6.06.67-.6.8-1.58.32-2.33l-2.2-3.44c-.45-.7-.24-1.62.45-2.07.7-.45,1.63-.24,2.07.45l2.2,3.44c1.28,2,.93,4.6-.84,6.19-.65.58-.79,1.54-.34,2.29l1.59,2.65c.43.71.2,1.63-.51,2.06-.24.15-.51.21-.77.21Z"/></g><g><path class="cls-3" d="m18,22.27c-1.17,0-2.3-.29-3.36-.85-.71-.38-1.28-.82-1.68-1.31-.61-.75-1.5-1.17-2.42-1.17-.11,0-.21,0-.32.02-.33.04-.72.06-1.15.06-3.21,0-5.26-1.36-6.1-4.04-1.37-4.38,1.76-7.47,4.62-9.28,1.13-.72,5.7-2.68,10.42-2.68s9.29,1.97,10.42,2.68c2.87,1.82,6,4.9,4.62,9.28-.84,2.68-2.89,4.04-6.1,4.04h0c-.43,0-.82-.03-1.15-.06-.11-.01-.21-.02-.32-.02-.92,0-1.81.43-2.42,1.17-.41.5-.97.94-1.68,1.32-1.06.57-2.2.85-3.36.85Z"/><path class="cls-2" d="m18,4c4.44,0,8.86,1.88,9.89,2.53,2.57,1.63,5.39,4.36,4.21,8.14-.26.83-1.05,3.34-5.15,3.34-.34,0-.7-.02-1.05-.06-.14-.02-.28-.02-.43-.02-1.23,0-2.39.56-3.19,1.54-.32.39-.79.75-1.38,1.07-.92.49-1.89.74-2.9.74s-1.98-.25-2.9-.74c-.59-.32-1.06-.67-1.38-1.07-.8-.98-1.97-1.54-3.19-1.54-.14,0-.28,0-.43.02-.35.04-.7.06-1.05.06-4.1,0-4.89-2.51-5.15-3.34-1.18-3.78,1.63-6.51,4.21-8.14,1.02-.65,5.44-2.53,9.89-2.53m0-2c-5,0-9.76,2.08-10.96,2.84C4.44,6.48.36,10.02,2,15.26c1.25,3.99,4.67,4.74,7.06,4.74.47,0,.89-.03,1.26-.07.07,0,.14-.01.22-.01.61,0,1.21.27,1.65.81.54.66,1.25,1.17,1.99,1.56,1.22.65,2.53.97,3.83.97s2.62-.32,3.83-.97c.73-.39,1.44-.9,1.99-1.56.44-.54,1.04-.81,1.65-.81.07,0,.14,0,.22.01.36.04.79.07,1.26.07,2.39,0,5.81-.75,7.06-4.74,1.64-5.25-2.44-8.78-5.04-10.43-1.19-.76-5.96-2.84-10.96-2.84h0Z"/></g><path class="cls-1" d="m8.12,12.67c-.57,1.67-.98,2.83-1.99,2.49s-1.36-1.97-.79-3.64,1.84-2.75,2.84-2.41.5,1.89-.06,3.57Z"/><path class="cls-2" d="m23.12,6.98c-.61-.48-1.76-1.72-5.12-1.72s-4.51,1.25-5.12,1.72c-.78.61-.86,1.53-.19,2.06.67.53,1.85.46,2.62-.15.11-.08.24-.21.39-.35-.11.37-.18.7-.18.9,0,.86,1.11,1.56,2.48,1.56s2.48-.7,2.48-1.56c0-.21-.06-.53-.18-.9.15.15.28.27.39.35.78.61,1.95.68,2.62.15.67-.53.59-1.45-.19-2.06Z"/><ellipse class="cls-1" cx="10" cy="7.5" rx="1.5" ry="1" transform="translate(-2.44 8.75) rotate(-42.63)"/><path class="cls-1" d="m30.24,15.68c-.77,1.03-1.9,1.49-2.52,1.03s-.5-1.68.28-2.71,1.9-1.49,2.52-1.03.5,1.67-.27,2.71Z"/></svg>