<?xml version="1.0" encoding="UTF-8" standalone="no"?>
<svg
   viewBox="0 0 36 36"
   version="1.1"
   id="svg4"
   sodipodi:docname="1fabf.svg"
   inkscape:version="1.3 (0e150ed6c4, 2023-07-21)"
   xmlns:inkscape="http://www.inkscape.org/namespaces/inkscape"
   xmlns:sodipodi="http://sodipodi.sourceforge.net/DTD/sodipodi-0.dtd"
   xmlns="http://www.w3.org/2000/svg"
   xmlns:svg="http://www.w3.org/2000/svg">
  <defs
     id="defs4" />
  <sodipodi:namedview
     id="namedview4"
     pagecolor="#ffffff"
     bordercolor="#000000"
     borderopacity="0.25"
     inkscape:showpageshadow="2"
     inkscape:pageopacity="0.0"
     inkscape:pagecheckerboard="0"
     inkscape:deskcolor="#d1d1d1"
     inkscape:zoom="10.194123"
     inkscape:cx="13.193877"
     inkscape:cy="20.354866"
     inkscape:window-width="1366"
     inkscape:window-height="697"
     inkscape:window-x="-8"
     inkscape:window-y="-8"
     inkscape:window-maximized="1"
     inkscape:current-layer="svg4"
     showguides="false" />
  <path
     d="m25.338 33.098c-0.0979-0.18-0.2499-0.302-0.4179-0.391-1.5969-1.7059-0.462-3.7068-0.462-3.7068 0-0.5529 0.9999-1.9998 0-1.9998l-0.9999 0.9999c-1 0.9999-1 3.9997-1 3.9997h-1.9998c-0.553 0-1 0.447-1 1 0 0.5529 0.447 0.9999 1 0.9999h1.1069l-0.222 0.12c-0.486 0.263-0.6669 0.8689-0.404 1.3549 0.263 0.486 0.869 0.667 1.3559 0.404l2.6389-1.4269c0.4859-0.262 0.6669-0.868 0.4039-1.3539zm-6.9995 0c-0.097-0.18-0.25-0.302-0.417-0.391-1.5969-1.7059-0.4629-3.7068-0.4629-3.7068 0-0.5529 0.9999-1.9998 0-1.9998l-1 0.9999c-0.9999 0.9999-0.9999 3.9997-0.9999 3.9997h-1.9999c-0.5529 0-0.9999 0.447-0.9999 1 0 0.5529 0.447 0.9999 0.9999 0.9999h1.108l-0.222 0.12c-0.486 0.263-0.667 0.8689-0.404 1.3549s0.8689 0.667 1.3559 0.404l2.6388-1.4269c0.485-0.262 0.666-0.868 0.403-1.3539z"
     fill="#ffac33"
     id="path1" />
  <path
     d="m 20.507299,29.079976 c 11.966805,0 13.032229,-13.826299 11.114701,-14.613576 -1.652404,-0.678425 -3.247774,3.262779 -9.40533,3.262779 -11.62434,0 -8.074235,-12.7073201 -10.06217,-15.758479 -1.871683,-2.87273108 -4.7662421,-2.33392723 -6.06,-0.33453 -1.2937421,1.9993728 1.8818,3.8812 1.8818,3.8812 0,0 0.3726798,7.350838 0.32926,10.758265 -0.06656,5.22342 0.2349326,12.804341 12.201739,12.804341 z"
     fill="#e1e8ed"
     id="path2"
     sodipodi:nodetypes="zsssscsz" />
  <path
     d="m5.9589 1.8806c-0.51751 1.2273-2.68 1.9734-2.4424 2.8019s4.2066 0.9876 4.4603 0.83616c-0.24979-1.4455-0.82351-3.1525-2.0179-3.6381z"
     fill="#ffac33"
     id="path3"
     style="fill:#ffac33;fill-opacity:1" />
  <path
     d="m9.3052 1.5681c-0.3247 0-0.61743 0.19559-0.74168 0.49558-0.12426 0.29998-0.05558 0.64528 0.17402 0.87488 0.2296 0.22959 0.57489 0.29828 0.87488 0.17402 0.29998-0.12426 0.49557-0.41699 0.49557-0.74169 0-0.21291-0.0846-0.4171-0.23513-0.56766-0.15055-0.15055-0.35475-0.23513-0.56766-0.23513z"
     id="path4"
     style="fill:#292f33;fill-opacity:1" />
</svg>
