<svg xmlns="http://www.w3.org/2000/svg" viewBox="0 0 36 36"><path fill="#BAADA0" d="M17.71 32.837c-.021-.006-.053-.017-.06-.017-1.554-.359-10.49-6.563-11.767-7.99a6.192 6.192 0 0 1-.893.37c2.04 2.2.83 4.78 2.44 7.08 2.559 4.102 13.496 4.323 15.11 2.43-2.933-1.134-4.54-1.788-4.83-1.873z"/><path fill="#C4B8AA" d="m27.73 28.41-5.98-.84c-1.99 0-12.023-3.906-13.306-5.067a6.554 6.554 0 0 1-1.096 1.314v4.121l4.379 2.495c1.131 1.054 4.399 2.035 5.923 2.387.007 0 .039.011.06.017.629.151 6.814 1.611 8.01-1.047l-5.23-1.48s6.37.79 7.24-1.9z"/><path fill="#BFB3A5" d="M10.906 29.347c-.035-.013-.068-.029-.102-.044a2.476 2.476 0 0 1-.527-.302c-.028-.022-.052-.047-.079-.07a2.117 2.117 0 0 1-.437-.483c-1.212-1.646-.917-3.089-2.412-4.633a6.32 6.32 0 0 1-1.465 1.013c1.277 1.427.841 2.655 1.477 4.81.837 1.953 3.26 1.881 4.367.793.256-.252.439-.557.518-.905l.002-.006a2.835 2.835 0 0 1-1.342-.173z"/><path fill="#CEC2B3" d="m30.74 20.36-5.37 1.08-.02.01c-2.613.834-15.259.633-16.342-.071a6.527 6.527 0 0 1-.564 1.124c1.282 1.161 1.826 2.893 3.983 3.981.634.32 1.209.426 1.704.386a2.137 2.137 0 0 0 1.203-.477c1.742.851 4.425 1.176 6.415 1.176 0 0 7.01.4 7.57-2.68l-5.29-.4c.001.001 7.191-.879 6.711-4.129z"/><path fill="#D7CCBD" d="M26.32 18.03c-1.259.63-1.255.627 0 0 .4-.22 7.19-4.01 6.19-6.28-4.366 2.203-4.75 2.158-4.75 2.158-2.308 1.416-17.1 6.813-18.452 6.435a6.56 6.56 0 0 1-.301 1.036c1.083.704 2.75 2.17 4.972 2.921.777.262 1.408.235 1.903.043.871-.34 1.304-1.205 1.288-1.999 2.462.231 5.567-.059 8.179-.893l.02-.01c.38-.15 6.92-2.75 5.96-5.25L26.32 18.03z"/><path fill="#E4D8C9" d="m33.55 6.84-4.81 2.9c.33-.29 6.2-5.53 4.77-7.38L28.83 5.7C26.21 8.327 9.445 19.085 9.445 19.085l-.136 1.258c1.352.378 3.41 1.138 6.031 1.413 1.061.109 1.864-.293 2.338-.932.563-.76.63-1.678.455-2.221.002.003.006.002.008.006 2.6-.747 7.259-3.258 9.58-4.678 3.767-2.459 6.858-5.311 5.829-7.091z"/><path fill="#F0E4D6" d="M15.976 19.5c.888-.273 1.54-.761 1.926-1.283.37-.501.494-1.032.329-1.443-.155-.384-.56-.658-1.243-.698-.043.038-3.344.305-3.344.305l-4.38 1.087s.187 1.087.181 1.617c1.971.078 4.513 1.028 6.531.415z"/><path fill="#F7EBDD" d="M30.77.04c-2.02 2.04-8.48 8.74-15.56 13.3-1.858 1.208-4.098 2.434-6.21 3.24v.01c.111.293.194.586.263.878 2.611-.321 5.264.588 7.598-1.279.047-.038.083-.076.126-.113.745-.649.948-1.312.771-1.835.129-.063.633-.311.884-.458 2.737-1.684 7.467-5.362 10.188-8.083.31-.38 3.32-4.1 1.94-5.66z"/><path fill="#F0E4D6" d="M9 16.59v-.01c-2.24.87-4.43 1.33-6.46 1.16-.798-.063-1.513.574-1.47 1.34.15 3.388 2.021 4.236 3.92 6.12 3.424-1.079 6.152-5.202 4.01-8.61z"/><path fill="#D5C9BB" d="M4.99 25.2a6.581 6.581 0 0 0 1.813-.895c-1.289-1.508-5.582-2.633-5.733-5.225.15 3.387 2.021 4.235 3.92 6.12z"/></svg>
