<?xml version="1.0" encoding="UTF-8" standalone="no"?>
<svg
   viewBox="0 0 36 36"
   version="1.1"
   id="svg4"
   sodipodi:docname="1fabd.svg"
   inkscape:version="1.3 (0e150ed6c4, 2023-07-21)"
   xmlns:inkscape="http://www.inkscape.org/namespaces/inkscape"
   xmlns:sodipodi="http://sodipodi.sourceforge.net/DTD/sodipodi-0.dtd"
   xmlns="http://www.w3.org/2000/svg"
   xmlns:svg="http://www.w3.org/2000/svg">
  <sodipodi:namedview
     id="namedview4"
     pagecolor="#ffffff"
     bordercolor="#000000"
     borderopacity="0.25"
     inkscape:showpageshadow="2"
     inkscape:pageopacity="0.0"
     inkscape:pagecheckerboard="0"
     inkscape:deskcolor="#d1d1d1"
     inkscape:zoom="10.194123"
     inkscape:cx="12.114823"
     inkscape:cy="20.845344"
     inkscape:window-width="1366"
     inkscape:window-height="697"
     inkscape:window-x="-8"
     inkscape:window-y="-8"
     inkscape:window-maximized="1"
     inkscape:current-layer="svg4"
     showguides="false" />
  <defs
     id="defs4" />
  <path
     id="rect1"
     style="fill:#e1e8ed;fill-opacity:1;stroke-width:6;stroke-linecap:round"
     d="M 30.168934,2.5069542 C 28.897722,2.3312257 26.111576,3.832711 22.679086,4.146439 L 8.9212448,5.4038994 C 8.0494398,5.483582 6.8684752,5.6843203 6.7435104,7.456973 L 5.0696823,31.200576 c -0.124969,1.772654 0.9109507,2.306721 1.8691406,2.306721 0.2456041,0 0.5162633,-0.0025 0.7792969,-0.07168 1.6998154,-0.155776 6.5039542,-0.790216 9.2895742,-1.503309 0.225928,-0.05785 0.449752,-0.121999 0.671225,-0.19021 4.598069,-1.415831 8.189259,-4.971462 8.653464,-6.751782 0.07965,-0.305327 0.06665,-0.557043 -0.0484,-0.738233 -0.533582,-0.84056 -2.773535,-0.04478 -5.879252,0.25475 4.265384,-1.664133 7.383571,-5.126367 7.417129,-6.582715 0.009,-0.273047 -0.07821,-0.475531 -0.264775,-0.608004 -0.721485,-0.570584 -2.838324,0.1151 -5.688814,0.36584 4.526565,-1.80278 7.790905,-5.523188 7.441294,-6.824181 -0.06165,-0.240768 -0.222915,-0.3958 -0.481006,-0.479714 -0.881537,-0.3258 -2.88079,0.277073 -5.489036,0.495228 6.159236,-1.8371528 8.18843,-6.8822478 7.459683,-8.0301581 C 30.676415,2.6497086 30.462286,2.547507 30.16893,2.5069542 Z"
     sodipodi:nodetypes="sssscsccccccccccccss" />
</svg>
