<?xml version="1.0" encoding="UTF-8" standalone="no"?>
<svg
   viewBox="0 0 36 36"
   version="1.1"
   id="svg1"
   sodipodi:docname="1fabc.svg"
   inkscape:version="1.3 (0e150ed6c4, 2023-07-21)"
   xmlns:inkscape="http://www.inkscape.org/namespaces/inkscape"
   xmlns:sodipodi="http://sodipodi.sourceforge.net/DTD/sodipodi-0.dtd"
   xmlns="http://www.w3.org/2000/svg"
   xmlns:svg="http://www.w3.org/2000/svg">
  <defs
     id="defs1">
    <inkscape:path-effect
       effect="fillet_chamfer"
       id="path-effect2"
       is_visible="true"
       lpeversion="1"
       nodesatellites_param="F,0,1,1,0,2.2072506,0,1 @ F,0,1,1,0,2.2072506,0,1 @ F,0,0,1,0,2.2072506,0,1"
       radius="0"
       unit="px"
       method="auto"
       mode="F"
       chamfer_steps="1"
       flexible="false"
       use_knot_distance="true"
       apply_no_radius="true"
       apply_with_radius="true"
       only_selected="false"
       hide_knots="false" />
  </defs>
  <sodipodi:namedview
     id="namedview1"
     pagecolor="#ffffff"
     bordercolor="#000000"
     borderopacity="0.25"
     inkscape:showpageshadow="2"
     inkscape:pageopacity="0.0"
     inkscape:pagecheckerboard="0"
     inkscape:deskcolor="#d1d1d1"
     inkscape:zoom="10.194123"
     inkscape:cx="19.32486"
     inkscape:cy="22.120589"
     inkscape:window-width="1366"
     inkscape:window-height="697"
     inkscape:window-x="-8"
     inkscape:window-y="-8"
     inkscape:window-maximized="1"
     inkscape:current-layer="svg1" />
  <path
     style="fill:none;fill-opacity:1;stroke:#f4abba;stroke-width:2.5;stroke-linecap:round;stroke-dasharray:none;stroke-opacity:1"
     d="m 15.780447,18.218588 c 0,0 -1.550278,0.760111 -1.550278,2.336748 0,1.576636 1.392969,2.905814 1.392969,4.173978 0,1.268165 -2.161138,3.063248 -2.161138,4.67416 0,1.61091 2.185475,3.401301 2.185475,3.401301"
     id="path4"
     sodipodi:nodetypes="csssc" />
  <path
     style="fill:none;fill-opacity:1;stroke:#f4abba;stroke-width:2.5;stroke-linecap:round;stroke-dasharray:none;stroke-opacity:1"
     d="m 9.894471,17.574712 c 0,0 -1.5251973,1.508087 -1.5251973,3.084724 0,1.576636 1.8444253,3.667393 1.8444253,4.935557 0,1.268164 -2.695699,2.39923 -2.695699,4.010142 0,1.61091 2.837577,3.744647 2.837577,3.744647"
     id="path3"
     sodipodi:nodetypes="csssc" />
  <path
     style="fill:none;fill-opacity:1;stroke:#f4abba;stroke-width:2.5;stroke-linecap:round;stroke-dasharray:none;stroke-opacity:1"
     d="m 19.787,18.218588 c 0,0 1.550279,0.760111 1.550279,2.336748 0,1.576636 -1.392969,2.905814 -1.392969,4.173978 0,1.268165 2.076269,3.063248 2.076269,4.67416 0,1.61091 -2.185476,3.401301 -2.185476,3.401301"
     id="path5"
     sodipodi:nodetypes="csssc" />
  <path
     style="fill:none;fill-opacity:1;stroke:#f4abba;stroke-width:2.5;stroke-linecap:round;stroke-dasharray:none;stroke-opacity:1"
     d="m 25.588851,17.574712 c 0,0 1.525198,1.508087 1.525198,3.084724 0,1.576636 -1.844426,3.667393 -1.844426,4.935557 0,1.268164 2.695699,2.39923 2.695699,4.010142 0,1.61091 -2.837578,3.744647 -2.837578,3.744647"
     id="path6"
     sodipodi:nodetypes="csssc" />
  <path
     id="path2"
     style="fill:#ea596e;fill-opacity:1;stroke-width:6;stroke-linecap:round"
     d="m 6.9269879,14.758954 c 0,2.077732 0.85559,4.952728 11.1207201,4.952728 10.26513,0 11.120725,-2.753421 11.120725,-4.952696 0,-6.3571159 -3.165629,-13.1962585 -11.120713,-13.1962692 C 10.092634,1.5627062 6.9269879,8.2303304 6.9269879,14.758954 Z"
     sodipodi:nodetypes="ssszs" />
  <path
     id="path7"
     style="fill:none;stroke:#ffffff;stroke-width:2.5;stroke-linecap:round;stroke-opacity:1"
     d="m 19.12775,5.5984676 c 3.24803,2e-7 5.881078,2.6346557 5.881078,5.8846674"
     sodipodi:nodetypes="cc" />
</svg>
