<?xml version="1.0" encoding="UTF-8" standalone="no"?>
<svg
   viewBox="0 0 36 36"
   version="1.1"
   id="svg4"
   sodipodi:docname="1fabd.svg"
   inkscape:version="1.3 (0e150ed6c4, 2023-07-21)"
   xmlns:inkscape="http://www.inkscape.org/namespaces/inkscape"
   xmlns:sodipodi="http://sodipodi.sourceforge.net/DTD/sodipodi-0.dtd"
   xmlns="http://www.w3.org/2000/svg"
   xmlns:svg="http://www.w3.org/2000/svg">
  <defs
     id="defs4" />
  <sodipodi:namedview
     id="namedview4"
     pagecolor="#ffffff"
     bordercolor="#000000"
     borderopacity="0.25"
     inkscape:showpageshadow="2"
     inkscape:pageopacity="0.0"
     inkscape:pagecheckerboard="0"
     inkscape:deskcolor="#d1d1d1"
     inkscape:zoom="10.194123"
     inkscape:cx="13.193877"
     inkscape:cy="20.354866"
     inkscape:window-width="1366"
     inkscape:window-height="697"
     inkscape:window-x="-8"
     inkscape:window-y="-8"
     inkscape:window-maximized="1"
     inkscape:current-layer="svg4"
     showguides="false" />
  <path
     d="m 33.810075,12.662412 c 0.347927,4.553094 -5.249306,6.663493 -7.698886,7.354987 1.910624,0.437488 3.947271,0.718234 3.947271,0.718234 0,0 1.39519,0.03815 0.518086,1.805291 -1.314705,2.656 -5.531642,2.902533 -8.067565,2.79373 0.869165,1.024845 2.554759,3.102907 2.761612,3.82291 1.047395,3.565882 -5.052156,1.22945 -8.509572,0.340472 1.033492,1.187759 3.499826,4.388504 0.27675,4.800174 C 8.8462373,35.333665 -2.3992515,22.468976 4.4693577,13.716374 8.0653715,9.1138797 16.913909,8.5678488 16.913909,8.5678488 c 10.620868,-1.46474 13.04022,-3.8081286 14.794968,-6.553751 0.27682,-0.4331351 1.069946,-1.14690906 1.541132,0.055082 2.249147,5.7375696 -2.28232,9.6853582 -6.362844,11.0532172 4.927971,-0.09937 6.223582,-1.398348 6.223582,-1.398348 0,0 0.617986,-0.208745 0.689905,0.939567 z"
     style="fill:#e1e8ed;fill-opacity:1;stroke-width:0.999993"
     id="path1"
     sodipodi:nodetypes="ccccccccccsscccc" />
</svg>
