<svg viewBox="0 0 36 36" xmlns="http://www.w3.org/2000/svg"><path d="m26 23.07a1.11 1.11 0 0 0 .24-.22l6.46-7.25c.82-.95.1-1.72-.9-1l-2.8 2.23a.45.45 0 0 1 -.72-.25l-.64-2.78a.75.75 0 0 0 -.77-.57.74.74 0 0 0 -.7.78l.16 3.66a2.22 2.22 0 0 1 -.84 1.84l-1.32 1.06-2.09 1.67-.44-6 9-10a.84.84 0 0 0 -1.11-1.24l-2.48 2a.47.47 0 0 1 -.75-.26l-.67-2.74a.77.77 0 0 0 -1.52.22l.17 3.78a2.31 2.31 0 0 1 -.87 1.91l-5.25 4.2-1.89-2.16a1.91 1.91 0 0 1 -.27-2.17l5.34-7.85a.84.84 0 0 0 -1.27-1.09l-7.38 7a1.08 1.08 0 0 1 -1.67.1l-1.02-1.13-.78-.88.17-.15 2.23-2.73c.54-.58.1-1.08-.55-.62l-3 1.85a.61.61 0 0 0 -.17.15l-1.52-1.71a.77.77 0 0 0 -1.12-.09.79.79 0 0 0 -.09 1l1.36 2.08 8 11.92.73 1.1a4.23 4.23 0 0 1 .7 2.7l-.19 1.67-5.55-1.1a1.85 1.85 0 0 1 -1.12-1.16l-1.35-7.54c-.2-1.15-1.18-1.08-1.22.09l-.2 6.19-2.25-1.7c-.9-.74-1.6-.05-.87.86l3.86 5a1.67 1.67 0 0 0 .4.36l.27.17 7.45 3.82-.48 4.18a2.77 2.77 0 0 0 1.65 2.6c1.49.68 4.07.76 5.39-.34a2.89 2.89 0 0 0 1.06-2.26l-.39-5.27" fill="#5e2618"/></svg>