<svg xmlns="http://www.w3.org/2000/svg" viewBox="0 0 36 36"><path fill="#A06253" d="M17 35.5a1 1 0 0 1-1-1V23a1 1 0 1 1 2 0v11.5a1 1 0 0 1-1 1z"/><path fill="#CED0FC" d="M27.031 17.306c-.562-1.224-1.425-2.476-2.595-3.406.08-.001.156-.009.237-.007.906-.013 1.84.147 1.555-.757a5.588 5.588 0 0 0-1.576-1.487c-.634-.414-1.475-.686-2.194-.786a9.211 9.211 0 0 0-.424-.052c.055-.08.118-.153.166-.238.218-.382.351-.828.367-1.268.417.042.896.017 1.368-.137.647-.2 1.207-.643 1.494-1.109.298-.465.336-.912.222-1.153-.108-.247-.349-.291-.679-.235-.834.415-1.606-.077-1.683-.41.059-.048-.189-.266-.455-.474a4.088 4.088 0 0 0-1.049-.579 3.522 3.522 0 0 0-1.438-.209h-.001c.084-.308.132-.626.152-.938.006-.302.016-1.383-.314-2.181-.315-.814-.846-1.264-1.387-.776-.47.774-1.073 1.419-1.493 2.01a3.826 3.826 0 0 0-.342.594c-.313-.372-.79-.888-1.3-1.229a3.407 3.407 0 0 0-.504-.282 4.591 4.591 0 0 0-.145-.798c-.157-.56-.43-1.03-.742-1.188-.292-.164-.519-.014-.723.302-.3.934-1.043 1.743-1.581 2.567a7.673 7.673 0 0 0-.707 1.247 4.828 4.828 0 0 0-.222.637c-.028.115-.05.205-.067.317l-.021.069a3.255 3.255 0 0 0-.771-.325c-.607-.167-1.18-.067-1.426.151-.26.221-.197.478.001.784.717.657.663 1.502.942 2.423.234.903.526 1.652 1.231 2.452.019.02.045.034.066.052-.594-.103-1.246-.16-1.831-.079-.683.063-1.25.253-1.53.481-.283.224-.278.485.111.783 1.32.531 2.407 1.368 3.325 2.167.481.415.948.825 1.457 1.22-2.027.1-3.576 2.896-3.259 3.112 1.788.646 2.104-.071 4.289.525-.345.641-1.086 2.154.019 2.493.563.032 1.167.068 1.714-.008.237.739 1.095 2.983 2.098 2.102.149-.248.301-.493.448-.738a.961.961 0 0 0 .254.033c.898-.238 1.515-1.223 1.737-2.051.171-.592.285-1.102.357-1.628 1.059 1.124 2.496 2.411 2.655 1.126-.182-1.318-.375-2.686-.804-3.931.217.065.436.131.659.203.346.075 1.544.486 2.558.888 1.01.376 1.931.681 1.781-.279z"/><g fill="#A6D388"><path d="M16 36c.569-6.496-2.959-13.517-8.926-16.406-.476-.246-.971.407-.6.8C10.544 24.78 13.607 29.899 14 36h2zM27.495 21.212C21.245 22.881 16.639 29.577 17 36h2c.61-5.695 4.428-10.498 8.912-13.879.44-.303.105-1.043-.417-.909z"/></g><g fill="#77B255"><path d="M16 36h1.984c.337-1.363-.443-3.856-.872-4.664-2.108-4.24-7.645-6.648-12.062-4.789-.484.191-.346.973.181.98 1.377.068 2.666.273 3.886.663C12.728 29.237 15.661 32.155 16 36zM29.873 26.538C24.268 24.859 18.434 30.336 19 36h2c.589-4.621 4.413-7.685 8.856-8.47.494-.105.514-.866.017-.992z"/></g><g fill="#98A2FC"><path d="M19.218 16.131a.12.12 0 0 0-.11-.129c-.834-.058-1.616.114-2.377.378-.3-.951-.668-1.899-1.35-2.657a.116.116 0 0 0-.149.067c-.263.712-.361 1.423-.39 2.154.006.18-.002.357-.007.529-.91-.159-1.841-.246-2.757-.019a.116.116 0 0 0-.011.163c.505.567 1.086.988 1.717 1.358l.038.02c-.921.665-1.787 1.395-2.487 2.318-.057.071.006.185.097.175.935-.082 1.806-.325 2.668-.635.546-.239 1.126-.364 1.562-.698.021.035.039.072.063.105.708.849 1.476 1.694 2.503 2.179a.114.114 0 0 0 .109-.121c-.042-.767-.236-1.468-.502-2.161-.159-.339-.259-.691-.43-.98.198-.152.399-.301.582-.48.483-.451.94-.939 1.231-1.566z"/><path d="M26.823 14.911c-.99-.018-1.925.2-2.841.504-.024-.941-.121-1.889-.516-2.76a.114.114 0 0 0-.159.025c-.461.645-.76 1.334-1.001 2.062a4.11 4.11 0 0 1-.079.274c-1.031-.831-2.11-1.665-3.371-2.087a.109.109 0 0 0-.06.141c.381.921.899 1.735 1.479 2.521.261.31.482.646.73.942-.114.048-.229.095-.341.153-.663.334-1.334.698-1.852 1.266a.116.116 0 0 0 .079.143c1.07.298 2.144.259 3.218.122.076-.014.15-.035.222-.062.02.042.034.087.062.122.184.254.35.517.562.757.44.516.916 1.013 1.543 1.342a.12.12 0 0 0 .131-.106c.095-.986-.117-1.913-.43-2.822.359-.165.674-.46 1.042-.702.623-.496 1.266-1.019 1.691-1.722a.11.11 0 0 0-.109-.113z"/><path d="M20.024 10.903c-.549-.525-1.161-.897-1.821-1.215-.142-.056-.277-.12-.41-.183.557-.756 1.062-1.563 1.278-2.495a.115.115 0 0 0-.141-.08c-.747.214-1.396.563-2.021.979-.295.229-.615.405-.862.632-.016-.017-.029-.037-.045-.054-.889-.796-1.833-1.601-2.993-1.982a.112.112 0 0 0-.083.136c.198.801.538 1.51.945 2.199.271.391.463.818.769 1.115-.032.03-.066.058-.095.091-.685.886-1.356 1.828-1.615 2.947.017.061.08.097.141.08.747-.214 1.396-.563 2.021-.979.176-.137.36-.254.533-.374.64 1.201 1.312 2.45 2.354 3.35a.11.11 0 0 0 .113-.105c.029-.954-.109-1.864-.315-2.774-.089-.299-.148-.602-.221-.893.829.06 1.667.04 2.471-.23a.118.118 0 0 0-.003-.165z"/><path d="M22.819 5.536c-.248-.231-.464-.488-.703-.707.852-.453 1.698-.933 2.358-1.678-.348-.256-1.691.075-2.16.15-.383.114-.776.162-1.113.314-.239-.672-.532-1.274-1.043-1.848-.042-.049-.128-.032-.147.03a4.913 4.913 0 0 0-.249 1.536c.018.281-.015.552.037.792-.096.015-.19.037-.28.069-.938.397-1.885.806-2.645 1.54.295.287 1.656.09 2.104.059.277-.055.555-.076.817-.127-.023.977-.025 1.963.312 2.916.386-.158.764-1.484.923-1.911.053-.23.129-.451.188-.67.931.601 1.883 1.208 2.985 1.475-.005-.493-1.034-1.519-1.384-1.94zM14.764 4.804c-.337-.343-.603-.744-.979-.99l.008-.008c.475-.675.905-1.356 1.068-2.214a.085.085 0 0 0-.108-.053 5.45 5.45 0 0 0-1.453.767c-.103.087-.211.164-.315.24-.044-.083-.081-.169-.133-.25-.262-.425-.579-.876-1.026-1.218a.086.086 0 0 0-.102.068 4.974 4.974 0 0 0-.044 1.698c-.69-.099-1.38-.142-2.097.036.011.366 1.089.93 1.398 1.12.113.05.22.107.326.162-.065.073-.134.139-.194.218-.331.423-.677.903-.86 1.47a.085.085 0 0 0 .1.067c.859-.17 1.543-.521 2.239-.971.051-.037.099-.078.143-.124.092.122.197.229.313.321.917.639 1.849 1.298 2.959 1.599.036-.462-.932-1.529-1.243-1.938zM15.672 20.413c-2.482.424-3.254 1.863-3.254 1.863s1.484.289 1.857-.022c0 0-.194.859.71 1.482 0-.001.71-1.662.687-3.323zM19.601 19.608c1.229-.1 2.874.831 3.539 2.127 0 0-.889-.066-1.537-.216 0 0 .233.54.224 1.379 0 0-.764-.507-1.047-1.105 0 0-.041.804-.557 1.445-.596-1.178-.647-1.944-.622-3.63zM13.891 15.277c-1.006.451-2.807.68-3.956.066 0 0 .408-.301 1.031-.658 0 0-.581-.257-1.19-.927 0 0 .977-.16 1.64.106 0 0-.157-.377-.106-1.111 1.04.562 2.099 1.096 2.581 2.524zM12.569 10.355c-1.255-1.359-.723-2.546-2.471-3.862 0 0-.2.913.136 1.733l-1.79-.24s.576.972 1.288 1.282c0 0-.812.176-1.371.839 0 0 1.288.479 2.212.182.924-.297 1.996.066 1.996.066zM16.204 4.748c-.902-1.344-.122-3.323-.282-4.033 0 0 .759.906.819 1.515 0 0 .544-1.359 1.254-1.759 0 0-.024 1.533-.174 2.003 0 0 .727-.213 1.306-.453-.07 1.325-1.83 1.794-2.923 2.727z"/><path d="M21.189 11.998c.056-1.892.787-3.044 1.008-4.501.416.659.561.976.558 1.885 0 0 .929-1.079 2.034-1.334 0 0-.046 1.167-1.241 2.048 0 0 1.539-.56 2.15-.005-1.374.623-2.676 1.881-4.509 1.907z"/></g><g fill="#4763E4"><circle cx="15.882" cy="17.732" r=".743"/><circle cx="22.91" cy="16.63" r=".743"/><circle cx="16.101" cy="10.2" r=".743"/><circle cx="20.811" cy="4.885" r=".615"/><circle cx="12.616" cy="3.705" r=".581"/><path d="M12.64 9.56c-.439-.72-.566-1.555-.66-2.398-.003-.05-.074-.065-.098-.021-.392.703-.551 1.864-.201 2.697-.332.016-.691.08-1.01.282-.657.426-.862 1.26-.743 1.941.383-.316.508-1.011 1.128-1.21.502-.173.963.15 1.54-.1a.5.5 0 0 0 .163-.143c.222-.224.01-.856-.119-1.048zM22.007 19.091c-.217.164-.453.219-.679.263-.824.16-1.169-.309-1.936-.346a.316.316 0 0 0-.153.017c-.005.001-.009.007-.015.009a.333.333 0 0 0-.11.074c-.01.012-.019.028-.028.043a.28.28 0 0 0-.044.105c-.009.027-.024.042-.031.075-.049.334.016.509.066.705.259.673-.011 1.42-.274 2.081-.023.044.026.095.071.071a2.316 2.316 0 0 0 1.204-2.002c.817.111 1.826-.306 2.014-1.043.013-.049-.048-.087-.085-.052zM21.77 11.215c.012-.313-.055-.641-.098-.958-.126-.586-.393-1.337-.985-1.585a.05.05 0 0 0-.025.066c.215.509.197 1.057.187 1.592.016.575-.248 1.062.092 1.63.031.058.08.096.135.123a.26.26 0 0 0 .193.12c.726.099 1.245-.319 1.921-.387.675-.132 1.317.044 1.973.216-.492-.962-2.275-1.326-3.393-.817z"/></g></svg>
