<svg viewBox="0 0 36 36" xmlns="http://www.w3.org/2000/svg"><path d="m25.338 33.098c-0.0979-0.18-0.2499-0.302-0.4179-0.391-1.5969-1.7059-0.462-3.7068-0.462-3.7068 0-0.5529 0.9999-1.9998 0-1.9998l-0.9999 0.9999c-1 0.9999-1 3.9997-1 3.9997h-1.9998c-0.553 0-1 0.447-1 1 0 0.5529 0.447 0.9999 1 0.9999h1.1069l-0.222 0.12c-0.486 0.263-0.6669 0.8689-0.404 1.3549 0.263 0.486 0.869 0.667 1.3559 0.404l2.6389-1.4269c0.4859-0.262 0.6669-0.868 0.4039-1.3539zm-6.9995 0c-0.097-0.18-0.25-0.302-0.417-0.391-1.5969-1.7059-0.4629-3.7068-0.4629-3.7068 0-0.5529 0.9999-1.9998 0-1.9998l-1 0.9999c-0.9999 0.9999-0.9999 3.9997-0.9999 3.9997h-1.9999c-0.5529 0-0.9999 0.447-0.9999 1 0 0.5529 0.447 0.9999 0.9999 0.9999h1.108l-0.222 0.12c-0.486 0.263-0.667 0.8689-0.404 1.3549s0.8689 0.667 1.3559 0.404l2.6388-1.4269c0.485-0.262 0.666-0.868 0.403-1.3539z" fill="#ffac33" /><path d="m8.3058 16.276c-0.57976 3.3577-0.91692 9.5624 3.534 12.53 4.4509 2.9682 12.958 2.0276 16.817-1.6676 3.8589-3.6953 4.744-12.509 2.9652-12.672s-3.9706 3.4386-10.092 2.7723c-13.04-1.4195-7.4793-12.159-9.3755-15.268-1.9616-2.8121-4.7662-2.3339-6.06-0.33453-1.2937 1.9994 1.8818 3.8812 1.8818 3.8812s0.90878 7.4002 0.32902 10.758z" fill="#e1e8ed"/><path d="m5.9589 1.8806c-0.51751 1.2273-2.68 1.9734-2.4424 2.8019s4.2066 0.9876 4.4603 0.83616c-0.24979-1.4455-0.82351-3.1525-2.0179-3.6381z" fill="#ffac33"/><path d="m9.3052 1.5681c-0.3247 0-0.61743 0.19559-0.74168 0.49558-0.12426 0.29998-0.05558 0.64528 0.17402 0.87488 0.2296 0.22959 0.57489 0.29828 0.87488 0.17402 0.29998-0.12426 0.49557-0.41699 0.49557-0.74169 0-0.21291-0.0846-0.4171-0.23513-0.56766-0.15055-0.15055-0.35475-0.23513-0.56766-0.23513z" /></svg>
