<?xml version="1.0" encoding="UTF-8" standalone="no"?>
<svg
   viewBox="0 0 36 36"
   version="1.1"
   id="svg4"
   sodipodi:docname="1fabf.svg"
   inkscape:version="1.3 (0e150ed6c4, 2023-07-21)"
   xmlns:inkscape="http://www.inkscape.org/namespaces/inkscape"
   xmlns:sodipodi="http://sodipodi.sourceforge.net/DTD/sodipodi-0.dtd"
   xmlns="http://www.w3.org/2000/svg"
   xmlns:svg="http://www.w3.org/2000/svg">
  <defs
     id="defs4" />
  <sodipodi:namedview
     id="namedview4"
     pagecolor="#ffffff"
     bordercolor="#000000"
     borderopacity="0.25"
     inkscape:showpageshadow="2"
     inkscape:pageopacity="0.0"
     inkscape:pagecheckerboard="0"
     inkscape:deskcolor="#d1d1d1"
     inkscape:zoom="10.194123"
     inkscape:cx="15.940557"
     inkscape:cy="21.63011"
     inkscape:window-width="1366"
     inkscape:window-height="697"
     inkscape:window-x="-8"
     inkscape:window-y="-8"
     inkscape:window-maximized="1"
     inkscape:current-layer="svg4"
     showguides="false" />
  <path
     d="m 24.913946,33.109811 c -0.0975,-0.179267 -0.248883,-0.30077 -0.416199,-0.389408 -1.590399,-1.698956 -0.460119,-3.691711 -0.460119,-3.691711 0,-0.550649 0.99583,-1.991659 0,-1.991659 l -0.99583,0.99583 c -0.995929,0.995829 -0.995929,3.983418 -0.995929,3.983418 H 20.05421 c -0.550749,0 -0.99593,0.44518 -0.99593,0.995929 0,0.550649 0.445181,0.99583 0.99593,0.99583 h 1.102394 l -0.221097,0.119511 c -0.484021,0.26193 -0.664185,0.865363 -0.402355,1.349385 0.261929,0.484022 0.865462,0.664285 1.35038,0.402355 L 24.51169,34.4582 c 0.483922,-0.260934 0.664185,-0.864467 0.402256,-1.348389 z m -6.971007,0 c -0.09661,-0.179267 -0.248982,-0.30077 -0.415302,-0.389408 -1.5904,-1.698956 -0.461016,-3.691711 -0.461016,-3.691711 0,-0.550649 0.99583,-1.991659 0,-1.991659 l -0.995929,0.99583 c -0.99583,0.995829 -0.99583,3.983418 -0.99583,3.983418 h -1.991759 c -0.550649,0 -0.99583,0.44518 -0.99583,0.995929 0,0.550649 0.445181,0.99583 0.99583,0.99583 h 1.10349 l -0.221097,0.119511 c -0.484021,0.26193 -0.664284,0.865363 -0.402355,1.349385 0.261929,0.484022 0.865363,0.664285 1.350381,0.402355 L 17.54158,34.4582 c 0.483025,-0.260934 0.663289,-0.864467 0.401359,-1.348389 z"
     fill="#ffac33"
     id="path1"
     style="stroke-width:1" />
  <path
     d="m 20.495293,29.694322 c 11.918091,0 12.783785,-12.402266 10.874063,-13.186338 -1.645677,-0.675663 -3.039161,3.054104 -9.171651,3.054104 -8.138773,0 -9.13119,-4.942712 -9.13119,-10.6532506 V 5.1029176 C 13.066515,1.4202863 11.416232,0 9.4976947,0 7.0980602,0 6.5779422,1.5841565 5.8705233,2.6774144 4.4220079,4.9159767 7.6320383,7.0229311 7.6320383,7.0229311 l 0.037856,6.7928879 c 0.028994,5.202499 0.9073053,15.878503 12.8253987,15.878503 z"
     fill="#e1e8ed"
     id="path2"
     sodipodi:nodetypes="zsssssscsz"
     style="stroke-width:1" />
  <path
     d="M 5.7187012,2.9510862 C 5.1392804,4.3252108 2.7180868,5.1605684 2.9841113,6.0881838 3.250136,7.0157991 7.3485474,7.1939326 7.6325981,7.0243755 7.3529252,5.4059471 7.0559788,3.4947348 5.7187012,2.9510414 Z"
     fill="#ffac33"
     id="path3"
     style="fill:#ffac33;fill-opacity:1;stroke-width:1"
     sodipodi:nodetypes="csccc" />
  <path
     d="m 9.1544585,2.1867103 c -0.3635446,0 -0.6912945,0.2189889 -0.8304088,0.5548673 C 8.1849242,3.0774449 8.2618205,3.4640539 8.5188881,3.7211215 8.7759557,3.9781779 9.1625535,4.0550854 9.498432,3.9159599 9.8342992,3.7768345 10.053288,3.4490845 10.053288,3.0855398 10.053288,2.847159 9.9585672,2.6185412 9.790029,2.4499695 9.6214684,2.2814088 9.3928394,2.1867103 9.1544585,2.1867103 Z"
     id="path4"
     style="fill:#292f33;fill-opacity:1;stroke-width:1"
     sodipodi:nodetypes="scccscs" />
</svg>
