<?xml version="1.0" encoding="UTF-8"?><svg id="Layer_3" xmlns="http://www.w3.org/2000/svg" viewBox="0 0 36 36"><defs><style>.cls-1{fill:#69b546;}.cls-2{fill:#cd95ff;}.cls-3{fill:#ae6dee;}.cls-4{fill:#894fc4;}</style></defs><path class="cls-1" d="m31.71,28.26c-1.78-.49-4.33.36-6.77,1.57,1.9-2.33,3.91-4.76,6.1-6.08,1.82-1.09,2.07-2.09,1.86-2.82-.24-.86-1.17-1.32-2.05-1.18-4.49.7-9.71,8.85-11.86,12.52v-5.53h-2v5.53c-2.14-3.68-7.36-11.82-11.86-12.52-.88-.14-1.81.32-2.05,1.18-.2.73.05,1.73,1.86,2.82,2.19,1.32,4.2,3.75,6.1,6.08-2.44-1.21-5-2.07-6.77-1.57-.68.19-1.2.83-1.09,1.53.09.59.6,1.24,2.28,1.43,4.21.49,9.43,4.74,12.53,4.52,3.1.23,8.32-4.03,12.53-4.52,1.68-.19,2.18-.84,2.28-1.43.11-.7-.41-1.34-1.09-1.53Z"/><path class="cls-4" d="m23.68,6.26c1.93-4-1.93-3-1.93-3-.75-3.5-3.75-.94-3.75-.94,0,0-3-2.56-3.75.94,0,0-3.86-1-1.93,3,0,0-3.07,1-2.07,4l.82,3.68s-2.32,7.91,1.93,5.62c0,0-1.75,3.7,2.25,2.7,0,0-.46,3.38,1.02,5.32.88,1.16,2.57,1.16,3.45,0,1.48-1.94,1.02-5.32,1.02-5.32,4,1,2.25-2.7,2.25-2.7,4.25,2.3,1.93-5.62,1.93-5.62l.82-3.68c1-3-2.07-4-2.07-4Z"/><g><g><g><g><path class="cls-3" d="m19.17,2.98c0,1.93-.52,4.28-1.17,4.28s-1.17-2.34-1.17-4.28.52-2.72,1.17-2.72,1.17.79,1.17,2.72Z"/><path class="cls-3" d="m19.17,10.54c0-1.93-.52-4.28-1.17-4.28s-1.17,2.34-1.17,4.28.52,2.72,1.17,2.72,1.17-.79,1.17-2.72Z"/></g><g><g><path class="cls-3" d="m21.62,5.05c-1.17,1.17-2.9,2.27-3.29,1.88s.71-2.12,1.88-3.29,1.96-1.33,2.35-.94.23,1.18-.94,2.35Z"/><path class="cls-3" d="m21.62,8.47c-1.17-1.17-2.9-2.27-3.29-1.88s.71,2.12,1.88,3.29,1.96,1.33,2.35.94.23-1.18-.94-2.35Z"/></g><g><path class="cls-3" d="m14.38,5.05c1.17,1.17,2.9,2.27,3.29,1.88s-.71-2.12-1.88-3.29-1.96-1.33-2.35-.94-.23,1.18.94,2.35Z"/><path class="cls-3" d="m14.38,8.47c1.17-1.17,2.9-2.27,3.29-1.88s-.71,2.12-1.88,3.29-1.96,1.33-2.35.94-.23-1.18.94-2.35Z"/></g></g></g><circle class="cls-2" cx="18" cy="6.76" r=".8"/></g><g><g><g><path class="cls-3" d="m19.17,16.98c0,1.93-.52,4.28-1.17,4.28s-1.17-2.34-1.17-4.28.52-2.72,1.17-2.72,1.17.79,1.17,2.72Z"/><path class="cls-3" d="m19.17,24.54c0-1.93-.52-4.28-1.17-4.28s-1.17,2.34-1.17,4.28.52,2.72,1.17,2.72,1.17-.79,1.17-2.72Z"/></g><g><g><path class="cls-3" d="m21.62,19.05c-1.17,1.17-2.9,2.27-3.29,1.88s.71-2.12,1.88-3.29,1.96-1.33,2.35-.94.23,1.18-.94,2.35Z"/><path class="cls-3" d="m21.62,22.47c-1.17-1.17-2.9-2.27-3.29-1.88s.71,2.12,1.88,3.29,1.96,1.33,2.35.94.23-1.18-.94-2.35Z"/></g><g><path class="cls-3" d="m14.38,19.05c1.17,1.17,2.9,2.27,3.29,1.88s-.71-2.12-1.88-3.29-1.96-1.33-2.35-.94-.23,1.18.94,2.35Z"/><path class="cls-3" d="m14.38,22.47c1.17-1.17,2.9-2.27,3.29-1.88s-.71,2.12-1.88,3.29-1.96,1.33-2.35.94-.23-1.18.94-2.35Z"/></g></g></g><circle class="cls-2" cx="18" cy="20.76" r=".8"/></g></g><g><g><g><path class="cls-3" d="m22.17,13.3c1.19.62,2.8,1.04,3.01.65s-1.07-1.47-2.26-2.08-1.84-.55-2.05-.15.11.97,1.31,1.59Z"/><path class="cls-3" d="m22.17,14.21c1.19-.62,2.8-1.04,3.01-.65s-1.07,1.47-2.26,2.08-1.84.55-2.05.15.11-.97,1.31-1.59Z"/></g><g><path class="cls-3" d="m27.83,13.3c-1.19.62-2.8,1.04-3.01.65s1.07-1.47,2.26-2.08,1.84-.55,2.05-.15-.11.97-1.31,1.59Z"/><path class="cls-3" d="m27.83,14.21c-1.19-.62-2.8-1.04-3.01-.65s1.07,1.47,2.26,2.08,1.84.55,2.05.15-.11-.97-1.31-1.59Z"/></g><g><path class="cls-3" d="m26.84,11.03c-.58,1.47-1.67,3.1-2.16,2.91s-.19-2.13.39-3.61,1.21-1.92,1.7-1.73.65.95.08,2.42Z"/><path class="cls-3" d="m26.84,16.49c-.58-1.47-1.67-3.1-2.16-2.91s-.19,2.13.39,3.61,1.21,1.92,1.7,1.73.65-.95.08-2.42Z"/></g></g><ellipse class="cls-2" cx="25.35" cy="13.76" rx=".4" ry=".8"/><g><g><path class="cls-3" d="m13.83,13.3c-1.19.62-2.8,1.04-3.01.65s1.07-1.47,2.26-2.08,1.84-.55,2.05-.15-.11.97-1.31,1.59Z"/><path class="cls-3" d="m13.83,14.21c-1.19-.62-2.8-1.04-3.01-.65s1.07,1.47,2.26,2.08,1.84.55,2.05.15-.11-.97-1.31-1.59Z"/></g><g><path class="cls-3" d="m8.17,13.3c1.19.62,2.8,1.04,3.01.65s-1.07-1.47-2.26-2.08-1.84-.55-2.05-.15.11.97,1.31,1.59Z"/><path class="cls-3" d="m8.17,14.21c1.19-.62,2.8-1.04,3.01-.65s-1.07,1.47-2.26,2.08-1.84.55-2.05.15.11-.97,1.31-1.59Z"/></g><g><path class="cls-3" d="m9.16,11.03c.58,1.47,1.67,3.1,2.16,2.91s.19-2.13-.39-3.61-1.21-1.92-1.7-1.73-.65.95-.08,2.42Z"/><path class="cls-3" d="m9.16,16.49c.58-1.47,1.67-3.1,2.16-2.91s.19,2.13-.39,3.61-1.21,1.92-1.7,1.73-.65-.95-.08-2.42Z"/></g></g><ellipse class="cls-2" cx="10.65" cy="13.76" rx=".4" ry=".8"/></g></svg>