<?xml version="1.0" encoding="UTF-8"?><svg id="Layer_1" xmlns="http://www.w3.org/2000/svg" viewBox="0 0 35.87 29.7"><path d="M34.16,11.69c-.49,4.25-6.69,5.54-9.36,5.89,1.9,.63,3.96,1.13,3.96,1.13,0,0,1.44,.2,.2,1.73-1.86,2.3-6.28,2.03-8.89,1.63,.71,1.05,2.07,3.17,2.15,3.86,.42,3.42-5.47,.54-8.89-.69,.85,1.22,2.81,4.47-.61,4.47C4.03,29.7-5.23,16.48,3.53,9.2c4.59-3.83,13.87-3.29,13.87-3.29C28.69,5.81,34.61,.04,34.61,.04c0,0,.44-.3,.9,.81,2.2,5.28-6.43,9.33-9.52,10.58,5.13,.49,7.62-.69,7.62-.69,0,0,.68-.12,.54,.95Z" style="fill:#f3f7f9;"/><g><path d="M26.01,11.42C32.8,7.21,34.46,2.28,34.87,.01c.17,.05,.41,.24,.64,.83,2.2,5.28-6.4,9.33-9.5,10.58Z" style="fill:#ccd6dd;"/><path d="M34.16,11.68c-.47,4.17-6.45,5.49-9.21,5.88,4.84-1.63,6.71-4.37,7.42-6.42,.83-.2,1.25-.41,1.25-.41,0,0,.68-.12,.54,.95Z" style="fill:#ccd6dd;"/><path d="M28.96,20.43c-1.86,2.3-6.28,2.03-8.89,1.63h-.02c-.08-.14-.15-.25-.22-.34t-.02,.02c-.1-.14-.2-.22-.29-.27-.1-.08-.2-.14-.3-.24,.19,.03,.61,.1,1.17,.15,1.51,.1,4.06-.05,6.1-1.83,.42-.37,.78-.78,1.05-1.17,.73,.2,1.22,.32,1.22,.32,0,0,1.44,.2,.2,1.73Z" style="fill:#ccd6dd;"/><path d="M13.35,25.22h-.02l-.08-.1-.64-.64c.15,.05,.29,.1,.42,.14,.03,.02,.07,.02,.08,.02,.19,.07,.39,.12,.56,.17,5.99,1.69,6.84-.81,6.94-1.91,.17,.27,.36,.56,.54,.83,.52,.88,1.02,1.79,1.07,2.2,.42,3.42-5.44,.56-8.87-.69Z" style="fill:#ccd6dd;"/><path d="M12.72,29.69c-4.98,0-10.14-4.35-12.01-9.43,1.39,2.66,4.93,7.65,11.89,7.4,1.52-.05,1.46-1,1.25-1.61,.85,1.46,1.66,3.64-1.13,3.64Z" style="fill:#ccd6dd;"/></g></svg>