<svg xmlns="http://www.w3.org/2000/svg" viewBox="0 0 36 36"><path fill="#391000" d="M7.95 11.291c-.002-.005 0-.01-.002-.015-.218-.435-.702-1.814-.094-2.423 1.241-1.241.141-3.482.094-3.577a.505.505 0 0 0-.368-.27.497.497 0 0 0-.434.14c-.15.151-.235.136-.273.131-.312-.05-.737-.627-.926-1.002a.502.502 0 0 0-.944.285c.07.575-.053.954-.337 1.041-.261.077-.589-.072-.721-.33a.5.5 0 0 0-.892.453c.867 1.734 1.85 3.701 1.207 4.443a.5.5 0 0 0 .167.781c.92.428 1.299.823 1.462 1.089-.45.035-.855.092-1.197.164H4.68c-.628.138-1.193-.382-1.48-.956a.498.498 0 1 0-.894.446c.145.29.343.569.58.808-.918-.052-1.657-.672-1.816-1.552a.5.5 0 0 0-.984.178c.253 1.404 1.456 2.385 2.923 2.385.466 0 .898-.103 1.356-.211.573-.138 1.224-.292 2.139-.299.031 0 .059-.012.089-.018.033-.006.067-.007.098-.02a.49.49 0 0 0 .162-.108l1-1a.488.488 0 0 0 .125-.245c.004-.019.009-.036.011-.055a.496.496 0 0 0-.039-.263z"/><path fill="#81523C" d="M2.548 16.193c.186-.313.416-.602.686-.857L4.652 14l1.635-2.089A2.375 2.375 0 0 1 8.157 11H10.8c.789 0 1.567-.184 2.273-.537a6.545 6.545 0 0 1 5.853 0l.182.091a8.488 8.488 0 0 0 5.462.731l1.302-.26A4.287 4.287 0 0 1 31 15.229V18s-4.179-.368-7 1-7 1-9.428 1c-.98 0-1.9-.491-2.443-1.307l-.258-.387A2.933 2.933 0 0 0 9.43 17H9l.78 4.68A1.133 1.133 0 0 1 8.662 23 .662.662 0 0 1 8 22.338V19h-.419A2.193 2.193 0 0 1 5.5 17.5s-.109.326-.326.673l-2.626-.006v-1.974z"/><path fill="#8F624B" d="m12.102 18.653.938 1.389a.801.801 0 0 1-.097 1.015l-1.188 1.188A2.579 2.579 0 0 0 11 24.068v3.151c0 .509.151 1.007.433 1.431l1.038 1.557a.288.288 0 0 0 .529-.16V29.03c0-.337-.144-.657-.397-.88l-.172-.152.569.003V27.5l-1-.5v-2.581c0-.255.14-.49.365-.611C13.419 23.241 16.544 21.456 19 19l-6.898-.347z"/><path fill="#72422C" d="M17 20c.35 1.368.268 3.333.154 4.636a8.78 8.78 0 0 0 .225 2.88l.871 2.984h-.5l-.25-.5-.258.515a.876.876 0 0 1-.784.485H15.41a.137.137 0 0 1-.128-.089.135.135 0 0 1 .041-.15c.441-.369 1.177-1.151 1.177-2.26 0-2.519-1.335-6.004-2.5-9.5L17 20z"/><path fill="#512614" d="M17.154 24.636c.097-1.106.168-2.684-.026-3.973a30.094 30.094 0 0 1-2.059 1.506c.479 1.442.903 2.829 1.162 4.09l.918-.154a8.788 8.788 0 0 1 .005-1.469z"/><path fill="#72422C" d="m24 18 2.5 3s1.5 2 1.5 3c0 .757-1.145 3.231-1.703 4.391a4.019 4.019 0 0 1-.751 1.071l-1.284 1.308a.137.137 0 0 0-.028.148.139.139 0 0 0 .126.082h1.098a.876.876 0 0 0 .784-.485L26.5 30l.25.5h.5a2.923 2.923 0 0 1 .182-1.936l2.163-4.727c.35-.764.267-1.66-.217-2.347C28.749 20.598 28 19.096 28 17c0-4-4 1-4 1z"/><path fill="#8F624B" d="M31 18c0 .662 1.316 1.325 2.205 1.696.478.2.796.661.813 1.179.05 1.525.242 4.646.982 6.125l.456.171-.016.407-.594.023.332.292a.855.855 0 0 1 .27.828l-.242 1.091a.322.322 0 0 1-.606.067l-1.033-2.201a3.845 3.845 0 0 1-.359-1.424l-.133-2.393a2.666 2.666 0 0 0-1.221-2.096L26 18s2-1 5 0z"/><path fill="#72422C" d="m8.8 10.5 4.2 2.1c-.679.735-1.164.8-1.6.8-1.6 0-3.15-2.4-3.15-2.4l.55-.5z"/><path fill="#8F624B" d="m8.8 10.5 1.328 1.562a.712.712 0 0 0 .791.206c.422-.158 1.145-.246 2.081.332l-3.4-2.1h-.8z"/><path fill="#391000" d="M14.815 4.112a.5.5 0 0 0-.476-.085c-.295.1-.539.096-.744-.012-.357-.188-.56-.667-.607-.833a.499.499 0 0 0-.967.252c.292 1.166.083 1.982-.21 2.358-.104.132-.217.208-.311.208-.5 0-1.43-1.242-2.178-2.239l-.397-.527-.027-.037a.5.5 0 0 0-.796.606l.021.027c1.448 1.941 1.007 5.204.234 6.893A1.466 1.466 0 0 1 7.5 11C5.271 11 3 9.233 3 7.5a.5.5 0 0 0-1 0C2 9.771 4.724 12 7.5 12a2.46 2.46 0 0 0 1.864-.853c.295-.342.717-.733 1.602-1.041a5.735 5.735 0 0 0 3.49-3.392l-.021-.008.001-.002.021.008a.47.47 0 0 0 .026-.101c.33-.7.511-2.034.513-2.051a.496.496 0 0 0-.181-.448z"/><path fill="#72422C" d="M5.072 17.94a2.66 2.66 0 0 0-1.91-1.55 3.108 3.108 0 0 1-.613-.196A3.914 3.914 0 0 0 2 18.196c0 .444.36.804.804.804H4c.536 0 .923-.429 1.172-.828l-.1-.232z"/><path d="M7 13.494c0 .344.451.589.888.461.404-.118.667-.433.588-.702-.151-.511-1.476-.631-1.476.241z"/><path fill="#81523C" d="M26.714 10.942c2.967 0 4.748 1.892 5.035 3.44-.991-.379-2.304-1.239-2.304-1.239l-2.731-2.201z"/><path d="M17.852 29.135c-.31.271-1.076.862-1.848.864a3.742 3.742 0 0 1-.681.76.136.136 0 0 0 .087.241h1.048a.876.876 0 0 0 .784-.485L17.5 30l.25.5h.5l-.398-1.365z"/><path d="M17.852 29.135c-.31.271-1.076.862-1.848.864a3.742 3.742 0 0 1-.681.76.136.136 0 0 0 .087.241h1.048a.876.876 0 0 0 .784-.485L17.5 30l.25.5h.5l-.398-1.365zM27.274 29s-1.257.985-2.254.998l-.757.771a.135.135 0 0 0 .097.231h1.098a.876.876 0 0 0 .784-.485L26.5 30l.25.5h.5a2.922 2.922 0 0 1 .024-1.5zM12 27s.082.911-.567 1.65l1.038 1.557a.288.288 0 0 0 .529-.16V29.03c0-.337-.144-.657-.397-.88l-.172-.152.569.003V27.5l-1-.5zM35.178 27.893l-.332-.292.594-.023.016-.407L35 27a5.099 5.099 0 0 1-.278-.716c-.084 1.055-.33 1.47-.885 1.967l.764 1.628a.321.321 0 0 0 .606-.067l.242-1.091a.859.859 0 0 0-.271-.828z"/><path fill="#8F624B" d="M16.504 10.643c-3 0-2.504.357-5.504.357l.012-.012a5.077 5.077 0 0 0 2.061-.524 6.545 6.545 0 0 1 5.853 0l.182.091a8.484 8.484 0 0 0 3.891.89c-2.477.764-5.182-.802-6.495-.802zM26.714 10.942c-.28 0-.561.027-.841.083l-1.302.26c1.741-.323 4.443.132 6.043 1.144-.863-.84-2.174-1.487-3.9-1.487z"/><path fill="#72422C" d="M34.018 20.875a1.326 1.326 0 0 0-.813-1.179C32.316 19.325 31 18.662 31 18v-2.771c0-.446-.093-.876-.225-1.292-2.879-.837-4.919.92-7.775 2.063-5 2-11 0-11 0-3-1-5.907.315-6.5 1.5A2.194 2.194 0 0 0 7.581 19H8v3.338c0 .366.296.662.662.662a1.134 1.134 0 0 0 1.118-1.32L9 17h.43c.981 0 1.897.49 2.441 1.306l.258.387.002.002.91 1.347a.801.801 0 0 1-.097 1.015l-1.188 1.188A2.576 2.576 0 0 0 11 24.068v.898c.329.079.663.154 1 .224v-.771c0-.255.14-.49.365-.611a33.708 33.708 0 0 0 2.704-1.639 30.435 30.435 0 0 0 2.059-1.506c.247-.198.494-.407.739-.619 2.068-.011 4.366-.187 6.133-1.044a7.83 7.83 0 0 1 .615-.262 10.685 10.685 0 0 1 1.772-.489l2.02 1.299 3.448 2.216a2.67 2.67 0 0 1 1.221 2.096l.015.278c.489-.443.928-.834 1.08-.901h.001a36.861 36.861 0 0 1-.154-2.362z"/><path fill="#512614" d="M29.378 21.49a7.502 7.502 0 0 1-.971-1.943l-2.02-1.299c-1.389-.893-6.294-.266-8.52 1.795 2.068-.01 4.366-.186 6.133-1.043a7.83 7.83 0 0 1 .615-.262L26.5 21s1.5 2 1.5 3c0 .258-.138.721-.335 1.258.482-.096.957-.201 1.424-.314l.506-1.106a2.37 2.37 0 0 0-.217-2.348zM5.5 17.5A2.194 2.194 0 0 0 7.581 19H8v3.338c0 .366.296.662.662.662a1.134 1.134 0 0 0 1.118-1.32L9 17v-1.294c-1.738.206-3.114 1.021-3.5 1.794z"/><path fill="#562916" d="m13.167 20.476.009-.007-.01-.01.001.017z"/></svg>
