<svg xmlns="http://www.w3.org/2000/svg" viewBox="0 0 36 36"><path fill="#99766D" d="M26.298 22.288c1.555-.208 3.756-.575 4.927-2.675-.533 2.018.952 4.215 1.58 5.028.177.23.302.498.361.782l.817 3.912c.088.237.085.499-.01.734l-.13.321a1.343 1.343 0 0 0-.058.826l.086.346a.334.334 0 0 1-.125.349l-.916.677a.334.334 0 0 1-.53-.23l-.11-.97a1.335 1.335 0 0 1 .124-.733l.389-.807-.893-3.608a1.005 1.005 0 0 0-.429-.604c-1.026-.674-4.128-2.708-5.083-3.348zM13.289 30.672c.238-.187.311-.524.302-.833l-.154-5.484 1.273-.645.164 6.493c.013.507-.12 1.061-.554 1.327l-.295.181a1.344 1.344 0 0 0-.538.63l-.137.329a.333.333 0 0 1-.308.206h-1.139a.335.335 0 0 1-.289-.501l.488-.845c.126-.219.312-.398.536-.516 0 .001.506-.228.651-.342z"/><path fill="#B39388" d="M31.247 15.986c.75 2.014 1.151 4.641 3.309 5.765a1.988 1.988 0 0 1 1.065 1.644.196.196 0 0 1-.286.185c-.897-.469-3.49-2.029-3.963-4.582l-.689-1.757.564-1.255z"/><path fill="#644047" d="M34.923 22c1.019.748 1.077 2.093 1.077 2.093l-.449-.289s.391.665-.521 2.416c0 0-.665-.781-.665-1.533s.372-1.001.164-1.578c.001-.001-.624-1.886.394-1.109zM7.189 7.733l1.177.348.432-.519.578.829.638-.304.423.863.729-.171.369.907.866.028.22.896.876.056.295.903.845-.025.358.91.818-.083.4.904.819-.08.3.898-5.418-.83z"/><path fill="#B39388" d="M6.753 10.086a.624.624 0 0 0 .802-.942c-.543-.62-1.241-2.509-2.758-3.108-1.002-.396.605.9.686 3.541.344.128.943.305 1.27.509z"/><path fill="#99766D" d="M4.797 6.036c.93.368 1.55 1.219 2.018 1.967l.001.001-.001.001S5.353 6.94 5.124 7.613l-.003-.003c-.439-1.285-1.031-1.853-.324-1.574z"/><path fill="#7A5A5A" d="M4.549 6.276c1.23.663 1.604 2.099 1.582 3.162a.265.265 0 0 1-.353.244c-.113-.039-.227-.08-.295-.105-.051-1.662-.706-2.791-.934-3.301z"/><path fill="#99766D" d="m9.432 19 17.106-3v-3c-4 0-4 1-8 1-4.159 0-6.267-1.459-9.553-4.927a2.533 2.533 0 0 0-2.779-.609c-.766.306-1.599.745-2.075 1.322a70.839 70.839 0 0 0-1.281 1.665 4.46 4.46 0 0 1-1.593 1.318l-.003.001a2.147 2.147 0 0 0-1.132 2.478 1.691 1.691 0 0 0 2.206 1.16l4.29-1.541L9.432 19z"/><path fill="#B39388" d="M11.538 18.039c0 2.893 3.48 5.238 7.773 5.238s7.773-2.345 7.773-5.238H11.538z"/><path fill="#B39388" d="M12.156 23.73 9.432 19l-1.585-2.33c.752-.223 1.277.152 1.719.794 1.37 1.991 1.928 6.57 5.905 3.997l.024 1.386c.021.477-.206.932-.599 1.202l-3.398 2.337a.677.677 0 0 0-.069 1.057l2.113 1.899.889.276a.965.965 0 0 1 .617.582l.23.613a.754.754 0 0 1 .015.483l-.109.353a.173.173 0 0 1-.295.064 4.785 4.785 0 0 0-2.294-1.436 2.4 2.4 0 0 1-1.217-.795l-1.921-2.354a.675.675 0 0 1 .061-.918l2.638-2.48zM6.267 12.896c.328-.723 1.281-1.642 1.281-1.642.361.591.854 3.055-.928 3.612l-1.84.66c1.547-.555 1.158-1.907 1.487-2.63zM2.032 13.966c.513.079 1.421-.316 1.539.079s-.393 2.057-.393 2.057l-.849.305a1.689 1.689 0 0 1-2.206-1.16 2.15 2.15 0 0 1 1.132-2.478l.003-.001c.685-.002.261 1.119.774 1.198z"/><ellipse transform="rotate(-19.718 5.272 10.916)" cx="5.271" cy="10.915" rx=".521" ry=".777"/><ellipse transform="rotate(-.81 .675 14.305)" cx=".696" cy="14.347" rx=".305" ry=".455"/><path d="M11.614 32.71a.332.332 0 0 1 0-.334l.488-.845c.079-.136.187-.25.306-.35l1.337.762.001.006a1.332 1.332 0 0 0-.26.393l-.136.328a.333.333 0 0 1-.308.206h-1.139a.334.334 0 0 1-.289-.166zM13.563 30.666l.973-.986c.23.105.422.281.512.521l.23.613a.754.754 0 0 1 .015.483l-.109.353a.173.173 0 0 1-.295.064 4.753 4.753 0 0 0-1.321-1.038l-.005-.01z"/><path fill="#B39388" d="M7.567 9.643a.624.624 0 0 0 .855-.893c-.505-.652-1.092-2.578-2.57-3.265-.977-.454.551.934.478 3.575.335.148.923.359 1.237.583z"/><path fill="#99766D" d="M5.852 5.485c.907.421 1.476 1.308 1.899 2.082l.001.001-.001.001S6.354 6.42 6.086 7.078l-.003-.003c-.362-1.309-.921-1.91-.231-1.59z"/><path fill="#7A5A5A" d="M5.59 5.71c1.329.82 1.534 2.542 1.349 3.605 0 0-.446-.183-.609-.255.046-1.663-.542-2.828-.74-3.35z"/><path d="M32.189 31.387a1.335 1.335 0 0 1 .028-.463l1.536-.183a1.33 1.33 0 0 0 .031.474l.086.346a.334.334 0 0 1-.125.349l-.916.677a.334.334 0 0 1-.53-.23l-.11-.97z"/><path fill="#99766D" d="M30.309 22.134c.522-1.145 1.229-2.997 1.229-4.634 0-2.485-2.239-4.5-5-4.5-1.414 0-16.972 4.463-16.972 4.463 1.37 1.991 1.928 7.205 5.905 4.632l-.016-1.051.037-.006c3.698-.836 4.977 2.421 8.74 1.053l.043-.026-.004.006c.684-.332 1.349-.234 2.006.2 1.097.724 3.703.584 4.032-.137z"/><path fill="#B39388" d="M26.298 22.288c1.555-.208 3.756-.575 4.927-2.675a16.175 16.175 0 0 1-.916 2.521 2.544 2.544 0 0 0 .072 2.255l.658 1.225c.237.442.293.959.154 1.442l-1.162 4.042c-.07.244-.229.452-.445.584l-.295.181a1.344 1.344 0 0 0-.538.63l-.136.329a.333.333 0 0 1-.308.206H27.17a.335.335 0 0 1-.289-.501l.488-.845c.126-.219.312-.398.536-.516l.793-.418.939-3.203c.074-.251.047-.52-.073-.753-1.106-2.128-2.177-3.774-3.266-4.504z"/><path d="M26.881 32.861a.332.332 0 0 1 0-.334l.488-.845c.079-.136.187-.25.306-.35l1.337.762.001.006a1.332 1.332 0 0 0-.26.393l-.136.329a.333.333 0 0 1-.308.206H27.17a.333.333 0 0 1-.289-.167z"/></svg>
