<?xml version="1.0" encoding="UTF-8" standalone="no"?>
<svg
   viewBox="0 0 36 36"
   version="1.1"
   id="svg8"
   sodipodi:docname="1facf.svg"
   inkscape:version="1.3 (0e150ed6c4, 2023-07-21)"
   xmlns:inkscape="http://www.inkscape.org/namespaces/inkscape"
   xmlns:sodipodi="http://sodipodi.sourceforge.net/DTD/sodipodi-0.dtd"
   xmlns="http://www.w3.org/2000/svg"
   xmlns:svg="http://www.w3.org/2000/svg">
  <defs
     id="defs8" />
  <sodipodi:namedview
     id="namedview8"
     pagecolor="#ffffff"
     bordercolor="#000000"
     borderopacity="0.25"
     inkscape:showpageshadow="2"
     inkscape:pageopacity="0.0"
     inkscape:pagecheckerboard="0"
     inkscape:deskcolor="#d1d1d1"
     inkscape:zoom="7.2083333"
     inkscape:cx="16.300578"
     inkscape:cy="9.9190751"
     inkscape:window-width="1366"
     inkscape:window-height="697"
     inkscape:window-x="-8"
     inkscape:window-y="-8"
     inkscape:window-maximized="1"
     inkscape:current-layer="svg8" />
  <path
     d="m 11.695221,21.171073 0.468855,10.376515 1.57,0.187 0.709145,-11.772515 z"
     style="fill:#66757f;fill-opacity:1"
     id="path11"
     sodipodi:nodetypes="ccccc" />
  <path
     fill="#292f33"
     d="m 10.737271,33.429423 c 0.527352,0.328338 2.977255,0.178259 3.118099,-0.04635 0.187153,-0.298636 0.07202,-1.461485 -0.04598,-1.648485 -0.118,-0.187 -1.583875,-0.310041 -1.704928,-0.125999 -0.118147,0.179624 -1.911239,1.482589 -1.367191,1.820834 z"
     id="path12"
     sodipodi:nodetypes="ccssc" />
  <path
     d="m 21.898024,21.171073 0.468855,10.376515 1.57,0.187 0.709145,-11.772515 z"
     style="fill:#66757f;fill-opacity:1"
     id="path1-8"
     sodipodi:nodetypes="ccccc" />
  <path
     fill="#292f33"
     d="m 20.940074,33.429423 c 0.527352,0.328338 2.977255,0.178259 3.118099,-0.04635 0.187153,-0.298636 0.07202,-1.461485 -0.04598,-1.648485 -0.118,-0.187 -1.583875,-0.310041 -1.704928,-0.125999 -0.118147,0.179624 -1.911239,1.482589 -1.367191,1.820834 z"
     id="path9"
     sodipodi:nodetypes="ccssc" />
  <path
     fill="#292F33"
     d="M28.721 12.849s3.809 1.643 5.532.449c1.723-1.193 2.11-2.773 1.159-4.736-.951-1.961-3.623-2.732-3.712-5.292 0 0-.298 4.141 1.513 5.505 2.562 1.933-.446 4.21-3.522 3.828-3.078-.382-.97.246-.97.246z"
     id="path1" />
  <path
     style="fill:#99aab5;fill-opacity:1"
     d="m 16.613004,19.426829 0.468855,13.00929 1.57,0.187 0.709145,-10.775748 z"
     id="path14"
     sodipodi:nodetypes="ccccc" />
  <path
     style="fill:#99aab5;fill-opacity:1"
     d="m 27.188,11.188 c -3.437,0.156 -7.207,0.438 -9.5,0.438 -3.655,0 -5.219,-1.428 -6.562,-2.625 C 8.838,6.964 8.167,4.779 6,5.501 6,5.501 5.368,5.09 4.753,4.723 L 4.492,4.571 C 4.236,4.423 4,4.295 3.836,4.224 3.672,4.152 3.578,4.137 3.608,4.214 3.627,4.265 3.701,4.357 3.844,4.5 4.316,4.972 4.519,5.45 4.572,5.895 2.562,7.097 2.479,8.171 1.701,9.447 c -0.492,0.807 -1.36,2.054 -1.56,2.515 -0.412,0.948 1.024,2.052 1.706,1.407 0.893,-0.845 0.961,-1.122 2.032,-1.744 0.983,-0.016 1.975,-0.416 2.308,-1.02 0,0 0.938,2.083 1.938,3.583 1,1.5 2.5,3.125 2.5,3.125 -0.131,1.227 0.12,2.176 0.549,2.922 0.857698,1.50699 2.360807,2.107147 4.016,2.267 2.266,0.097 6.022,-0.369 8.626,-1.702 0.958,1.86 2.978,2.513 2.978,2.513 l 0.468855,8.512696 1.57,0.187 L 29.542,22.104 C 34.688,19.125 36,10.788 27.188,11.188 Z"
     id="path6"
     sodipodi:nodetypes="csccccccsccccccsccccccccc" />
  <path
     fill="#292f33"
     d="m 25.858979,33.646529 c 0.527352,0.328338 2.977255,0.178259 3.118099,-0.04635 0.187153,-0.298636 0.07202,-1.461485 -0.04598,-1.648485 -0.118,-0.187 -1.583875,-0.310041 -1.704928,-0.125999 -0.118147,0.179624 -1.911239,1.482589 -1.367191,1.820834 z"
     id="path7"
     sodipodi:nodetypes="ccssc" />
  <circle
     fill="#292F33"
     cx="4.25"
     cy="8.047"
     r=".349"
     id="circle7" />
  <path
     fill="#292F33"
     d="M12.655 9.07c1.773 1.446 3.147.322 3.147.322-1.295-.271-2.056-.867-2.708-1.562.835-.131 1.287-.666 1.287-.666-1.061-.013-1.824-.3-2.485-.699-.565-.614-1.233-1.202-2.254-1.631-.294-.125-.606-.21-.922-.276-.086-.025-.178-.063-.258-.073-.906-.114-1.845.051-2.737.603-.322.2-.214.639.117.623 1.741-.085 2.866.582 3.47 1.633 2.169 3.772 5.344 3.875 5.344 3.875s-1.29-.688-2.001-2.149z"
     id="path8" />
  <path
     fill="#292f33"
     d="m 15.704864,33.646529 c 0.527352,0.328338 2.977255,0.178259 3.118099,-0.04635 0.187153,-0.298636 0.07202,-1.461485 -0.04598,-1.648485 -0.118,-0.187 -1.583875,-0.310041 -1.704928,-0.125999 -0.118147,0.179624 -1.911239,1.482589 -1.367191,1.820834 z"
     id="path10"
     sodipodi:nodetypes="ccssc" />
</svg>
