<svg viewBox="0 0 36 36" xmlns="http://www.w3.org/2000/svg"><g fill="#5dadec"><path d="m6.61 31.55a1 1 0 0 1 -.79-.39c-.1-.14-2.58-3.5-3-12.46a25.93 25.93 0 0 1 1.18-9.96 1 1 0 0 1 1.89.67 23.91 23.91 0 0 0 -1.11 9.19c.42 8.24 2.62 11.32 2.64 11.4a1 1 0 0 1 -.21 1.4 1 1 0 0 1 -.6.15z"/><path d="m32.26 22.26a1 1 0 0 1 -.95-.69c-.26-.76-.5-1.67-.74-2.7a1 1 0 1 1 2-.44c.22 1 .45 1.81.68 2.51a1 1 0 0 1 -.63 1.27 1.12 1.12 0 0 1 -.36.05z"/><path d="m30.78 15.57a1 1 0 0 1 -1-.88c0-.11-1.54-11.44-10.33-12.53s-12 4.18-12.1 4.41a1 1 0 0 1 -1.74-1c.16-.25 3.85-6.66 14.09-5.39s12.06 14.14 12.07 14.27a1 1 0 0 1 -.87 1.11z"/><path d="m11.84 35a1 1 0 0 1 -.87-.5s-.51-.9-1.2-2.33a1 1 0 0 1 1.81-.86c.64 1.36 1.12 2.18 1.12 2.19a1 1 0 0 1 -.86 1.5z"/><path d="m9.29 29.55a1 1 0 0 1 -.93-.63c-1.68-4.28-3.47-10.53-2.36-16.06 1.4-7.08 6.73-9.54 11.27-9.45a1 1 0 0 1 1 1 1 1 0 0 1 -1 1c-1.8 0-7.82.45-9.28 7.84-1 5.05.69 10.91 2.28 14.93a1 1 0 0 1 -.56 1.3.94.94 0 0 1 -.42.07z"/><path d="m27.44 16.45a1 1 0 0 1 -1-.82c-.57-3.07-1.66-7.35-4.63-9a1 1 0 0 1 -.37-1.37 1 1 0 0 1 1.36-.37c3.7 2.11 5 7 5.6 10.42a1 1 0 0 1 -.8 1.16z"/><path d="m30.78 26.61a1 1 0 0 1 -.8-.4 17.4 17.4 0 0 1 -2.91-6.79 1 1 0 0 1 2-.35 15.35 15.35 0 0 0 2.51 5.93 1 1 0 0 1 -.2 1.4 1 1 0 0 1 -.6.21z"/><path d="m16.37 36a1 1 0 0 1 -.87-.5 52 52 0 0 1 -4.68-11 1 1 0 0 1 .66-1.25 1 1 0 0 1 1.25.65 49.25 49.25 0 0 0 4.5 10.59 1 1 0 0 1 -.36 1.36.93.93 0 0 1 -.5.15z"/><path d="m10.67 21.39a1 1 0 0 1 -1-.74 17.18 17.18 0 0 1 -.48-6.18 1 1 0 0 1 2 .22 15.13 15.13 0 0 0 .42 5.44 1 1 0 0 1 -.7 1.22.84.84 0 0 1 -.24.04z"/><path d="m11 12.6a.87.87 0 0 1 -.38-.08 1 1 0 0 1 -.55-1.3 6.85 6.85 0 0 1 7.8-4.42 7.82 7.82 0 0 1 5 2.43 1 1 0 0 1 -1.49 1.33 5.87 5.87 0 0 0 -3.79-1.78 4.87 4.87 0 0 0 -5.71 3.22 1 1 0 0 1 -.88.6z"/><path d="m28.71 30a1 1 0 0 1 -.8-.4 25.7 25.7 0 0 1 -4-8.68 29.84 29.84 0 0 1 -.51-3.49 27.45 27.45 0 0 0 -.65-4.07 1 1 0 0 1 .71-1.23 1 1 0 0 1 1.22.7 27.18 27.18 0 0 1 .7 4.38 27.41 27.41 0 0 0 .48 3.25 23.71 23.71 0 0 0 3.65 7.94 1 1 0 0 1 -.2 1.4 1 1 0 0 1 -.6.2z"/><path d="m20 35.38a1 1 0 0 1 -.79-.38c-3.44-4.43-5.46-12.26-6.11-16.19-.61-3.74-.4-5.91.71-7.25a3.83 3.83 0 0 1 3-1.3c4-.09 4.47 3.29 5.29 9.42a21.07 21.07 0 0 0 1.5 5.32 1 1 0 1 1 -1.85.77 23.63 23.63 0 0 1 -1.64-5.77c-.87-6.47-1.21-7.73-3.26-7.69a1.8 1.8 0 0 0 -1.52.58c-.68.81-.76 2.66-.27 5.65.8 4.85 2.93 11.7 5.71 15.28a1 1 0 0 1 -.18 1.4 1 1 0 0 1 -.59.16z"/><path d="m26.21 32.72a1 1 0 0 1 -.8-.4 32 32 0 0 1 -2.33-3.78 1 1 0 0 1 .42-1.35 1 1 0 0 1 1.35.41 32.41 32.41 0 0 0 2.15 3.53 1 1 0 0 1 -.2 1.39 1 1 0 0 1 -.59.2z"/><path d="m17.55 20.25a1 1 0 0 1 -1-.84 25 25 0 0 1 -.33-4.51 1.05 1.05 0 0 1 1-1 1 1 0 0 1 1 1 22.66 22.66 0 0 0 .31 4.14 1 1 0 0 1 -.83 1.15z"/><path d="m23.72 34.56a1 1 0 0 1 -.8-.39 37.39 37.39 0 0 1 -5.8-12.17 1 1 0 0 1 1.93-.51 35.94 35.94 0 0 0 5.46 11.51 1 1 0 0 1 -.18 1.4 1 1 0 0 1 -.61.16z"/></g></svg>