<svg xmlns="http://www.w3.org/2000/svg" viewBox="0 0 36 36"><path fill="#89BA42" d="M30.689 5.208s-5.911 2.534-6.511 2.454c-3.416 2.705-8.539 7.35-13.846 11.322-4.095 3.065-8.995 7.06-9.722 13.891a90.987 90.987 0 0 0-.172 1.989.63.63 0 0 0 1.093.472c.624-.688 1.462-1.279 2.456-1.181 2.184.217 3.793-1.227 6.031-1.37 2.938-1.207 3.542-2.33 5.279-3.008 1.816-.438 2.734-.113 4.244-1.167 1.026-.796 1.862-2.209 2.892-2.895 1.159-.758 2.496-1.116 3.059-2.004.788-1.243.877-2.911 1.721-3.977 1.011-1.277 2.529-2.126 2.969-3.627.379-1.514.571-2.539.69-3.762-.598-.477.24-6.502-.183-7.137z"/><ellipse transform="rotate(-44.928 23.89 11.958)" fill="#C5DF50" cx="23.892" cy="11.958" rx="1.639" ry="1.139"/><ellipse transform="rotate(-44.928 18.738 16.996)" fill="#C5DF50" cx="18.739" cy="16.996" rx="1.639" ry="1.139"/><path fill="#C5DF50" d="M12.491 20.622c-.642.638-.805 1.517-.362 1.965.442.447 1.321.293 1.963-.345.642-.638.805-1.517.362-1.965-.442-.447-1.321-.293-1.963.345zM7.353 24.869c-.642.638-.805 1.517-.362 1.965.442.447 1.321.293 1.963-.345.642-.638.805-1.517.362-1.965-.441-.447-1.32-.293-1.963.345z"/><path fill="#C5DF50" d="M1.551 32.639a.5.5 0 0 0 .58.404c6.415-1.144 12.502-4.684 18.09-10.521 4.336-4.529 7.55-8.758 9.104-11.875a6.837 6.837 0 0 1-.591-1.067c-.226.51-.509 1.062-.848 1.652-.005.008-.219.378-.33.561-.796 1.31-1.833 2.778-3.075 4.35a80.357 80.357 0 0 1-4.982 5.688c-.305.319-.617.604-.925.909l-.001.001c-5.129 5.072-10.65 8.203-16.439 9.278-.06.011-.119.03-.179.04a.5.5 0 0 0-.404.58z"/><path fill="#89BA42" d="M34.905 2.015A1.313 1.313 0 0 0 33.702.6a1.284 1.284 0 0 0-1.13.51.659.659 0 0 1-.525.259h-.014c-1.51.012-2.719 1.082-2.884 2.456-3.311 2.14-5.088.116-7.496 3.776 4.334-1.517 5.092.255 7.84-.86-.319 2.956 2.78 6.811 5.088 6.841-1.625-3.356-2.014-4.875-1.617-6.739.888-.761 1.563-1.855 1.541-2.764a4.744 4.744 0 0 0-.017-.297c-.041-.441.052-.88.266-1.269.084-.149.137-.316.151-.498z"/><path fill="#68951D" d="m32.007 5.501-1.176.589c-.271 1.974.612 4.058 1.91 5.502.039.045.112-.011.08-.059-.961-1.829-1.426-4.037-.814-6.032zM30.689 5.208c.504-.353.014-1.143-.527-.848a9.579 9.579 0 0 1-2.37.988c-.884.283-1.8.268-2.688.603-.051.021-.027.101.026.092 1.848.083 3.943.379 5.559-.835z"/><path fill="#C5DF50" d="M30.405 3.462c.377.362 1.181.321 1.796-.092.615-.413.807-1.04.43-1.402-.377-.362-1.181-.32-1.796.092-.615.412-.807 1.04-.43 1.402zM33.165.997c-.224.15-.294.378-.156.51s.43.117.653-.034.294-.378.156-.51-.429-.116-.653.034z"/><path fill="#55861D" d="M29.494 6.74c-2.748 1.115-3.506-.657-7.84.86.955-.098 1.77-.037 2.523.063.6.08 1.163.182 1.719.254-4.453 2.82-10.35 9.138-14.811 12.308-6.546 4.652-8.366 8.651-8.952 11.794 2.387-.443 4.726-1.256 7.014-2.391a5.203 5.203 0 0 1-2.787.567 3.873 3.873 0 0 1-.818-2.9 3.934 3.934 0 0 1 5.155-3.237 3.87 3.87 0 0 1-.018-1.01 3.934 3.934 0 0 1 4.394-3.412c.406.051.781.179 1.135.341-.1-.437-.14-.894-.081-1.364a3.934 3.934 0 0 1 4.394-3.412c.36.045.693.153 1.012.285a3.883 3.883 0 0 1-.253-1.911 3.934 3.934 0 0 1 4.394-3.412c.713.09 1.345.378 1.877.785.025.278.023.561.003.846.418-.687.849-1.469 1.178-2.213.159.366.362.723.591 1.067.423.635.95 1.221 1.548 1.699 1.101.881 2.427 1.406 3.71 1.234-2.307-.03-5.406-3.886-5.087-6.841z"/><path fill="#55861D" d="M18.573 22.741c.308-.305.62-.591.926-.909a80.58 80.58 0 0 0 4.982-5.688c-.464.203-.96.343-1.477.406-.037-.044-.081-.086-.121-.128-.029-.031-.057-.062-.087-.092a3.811 3.811 0 0 0-.342-.306c.025.34.018.688-.026 1.039-.301 2.393-2.183 4.18-4.465 4.487a3.907 3.907 0 0 0-.144-.218 4.028 4.028 0 0 0-.475-.571 3.923 3.923 0 0 0-.293-.269c.019.319.017.642-.024.97-.287 2.279-2.013 3.991-4.147 4.417a3.88 3.88 0 0 0-.274-.42c-.06-.081-.127-.155-.192-.231a3.969 3.969 0 0 0-.227-.241c-.076-.074-.149-.149-.231-.218a5.27 5.27 0 0 1-.022.904 5.164 5.164 0 0 1-2.631 3.878c3.202-1.615 6.303-3.877 9.27-6.81z"/></svg>
