<svg viewBox="0 0 36 36" xmlns="http://www.w3.org/2000/svg"><path d="m14.74 9.43s-2.52.57-2.94-3.91-1.45-5.63-3.8-4.82-2.85 4.23-.7 6.05 3.48 2.89 2.62 4.12a2.35 2.35 0 0 1 -3.53.27c-1.07-.91-3.06-1.5-4.07.67s1.55 2.6 3 2.44 2.73.42 2.83 1.92a3 3 0 0 1 -3 2.95c-1.66-.05-5.24-.32-5.15 3.16s4.29 1.55 5.89.43 4.5-.38 3.22 2.78-5.57 4-5.68 7.61 5.73 3.1 6.32-.65 1.45-5.83 3-6.05.91.59 2.46 1.07 2.57-1 3.65 1 2.67 4.93 5 3.75.8-2.95-.7-4.61 2-3.8 4.39 0 7.5 3.11 8.2.7-.27-5.14-5.36-5.73-5.67-2-5.67-3.11 1.12-1.34 1.17-2.62-2.57-2-2-3.75 5.68-1.18 7-2.41 1.45-2.68.27-4.5-4.45-1.82-6.05.59-3.43 4.17-5.2 3.32-.91-2.68.27-3.91a2.7 2.7 0 0 0 -1.5-4.5c-2.6-.69-3.4 1.58-3.19 3.08s1.02 4.49-.75 4.66z" fill="#9266cc"/><path d="m33.42 16.69a2.78 2.78 0 0 1 -3 2.49 5.82 5.82 0 0 1 -3.06-1.57 1.21 1.21 0 0 1 0-1.83 5.84 5.84 0 0 1 3.06-1.58 2.79 2.79 0 0 1 3 2.49z" fill="#9266cc"/><path d="m13.57 35.42c-1.07-.2-1.69-1.68-1.39-3.32a6.41 6.41 0 0 1 1.82-2.78.81.81 0 0 1 1.41.26 6.4 6.4 0 0 1 .59 3.23c-.26 1.63-1.37 2.8-2.43 2.61z" fill="#9266cc"/><g fill="#cbb8e9"><path d="m5.71 20.15a9.71 9.71 0 0 0 -3.1 0c-1.61.28-1.7 1.85-.98 1.85s2.85-1.85 4.08-1.85z"/><path d="m6.75 12.24a4.63 4.63 0 0 0 -2.27-1.16c-1 0-1.33.68-1 .94s2.41-.02 3.27.22z"/><path d="m15.14 10.51a2.12 2.12 0 0 0 -2.05.51c-.74.88 1.12.16 2.52.22s-.47-.73-.47-.73z"/><path d="m28.86 16.44h.23c.49-.07 2-.37 1.78-1.16-.15-.5-1.07-.2-1.39-.08s-1.72.8-.93 1.19a.67.67 0 0 0 .31.05z"/><path d="m10.57 3.54a2.21 2.21 0 0 0 -.57-1.86 1.7 1.7 0 0 0 -2-.13s-.41.16.06.49l1.27.9a4.17 4.17 0 0 1 .92.73s.32.4.32-.13z"/><path d="m18.29 2.53a5.2 5.2 0 0 1 .54 3.57c-.46 1.9 3.26-3.69-.54-3.57z"/></g></svg>