<svg xmlns="http://www.w3.org/2000/svg" viewBox="0 0 36 36"><path fill="#CDA878" d="M34.979 30.314v-.013.013zM35.702 26.126c-.158-.685-1.312-2.053-1.336-2.563-.018-.38.101-.752.136-1.13a2.592 2.592 0 0 0-.777-2.077c-.594-.567-1.414-.811-2.165-1.142-.781-.343-1.506-.793-2.214-1.27a14.435 14.435 0 0 0-3.091-2.044c-.004-.01-.013-.018-.016-.028-.091-.301.193-.604.5-.674.306-.07.623.017.933.064s.663.04.893-.173a.641.641 0 0 0 .177-.315c.539.056 1.07.095 1.571.095.72 0 1.392-.057 1.987-.168a3.088 3.088 0 0 0 2.47-3.602 3.085 3.085 0 0 0-3.602-2.47c-.679.127-1.768.067-2.913-.181a2.965 2.965 0 0 0 .194-1.742c.102-.501.425-.986.283-1.474-.095-.325-.375-.556-.643-.763-.359-.277-.726-.556-1.084-.844l-1.266-2.503c-.551-1.09-1.782-1.358-2.736-.595 0 0-1.215.975-2.741 2.484-.368.088-.843.066-1.395-.05-.001-.036.006-.073-.002-.109-.029-.126-.116-.229-.2-.327-.377-.439-.811-.91-1.387-.968-.318-.032-.633.07-.937.17l-.931.309c-1.956-.205-3.282.481-4.24.979-1.087.565-2.215 1.144-6.123.087-.306-.312-.564-.678-.925-.924-.86-.587-2.214-.198-2.63.757-.118.271-.17.563-.225.854-.316.34-.568.747-.708 1.222a3.119 3.119 0 0 0-.114.709c-.084.137-.169.274-.252.412-.135.225-.271.477-.234.737.022.148.097.282.171.411.321.563.647 1.132 1.091 1.605.444.473 1.025.847 1.67.917.612.067 1.215-.14 1.815-.275.138-.031.279-.049.419-.073 1.364.278 2.55.412 3.563.412.54 0 1.032-.037 1.494-.097a4.245 4.245 0 0 1-.622 1.209 1.77 1.77 0 0 1-.612.147c-.139.005-.279-.01-.417.009-.31.043-.575.259-.751.518-.176.259-.276.561-.374.858l-.226.683c-.042.036-.084.07-.126.107-2.065 1.733-3.389 4.19-3.911 6.811a34.146 34.146 0 0 1-2.17 3.404c-.14.193-.287.397-.309.634-.022.237.086.465.191.678l1.189 2.419c.15.306.311.625.59.821.346.243.799.249 1.222.242.144-.001.288-.008.432-.011.405.746.893 1.453 1.48 2.098a13.125 13.125 0 0 0 3.354 2.644c.635.663 1.303 1.31 2.136 1.686.731.33 1.541.429 2.32.619.696.169 1.373.413 2.077.542a6.602 6.602 0 0 0 3.311-.245c.643-.22 1.271-.556 1.683-1.096.277-.363 1.25-1.387 1.461-1.793 2.118-4.079.231-4.474-1.03-4.791-.677-1.523-2.133-2.733-4.453-2.923-2.937-.076-6.029-.646-5.545-4.231.162-1.951 1.138-2.501 2.448-4.061-.04.521-.069 1.023-.088 1.495l-.965 1.528c-.079.125-.161.261-.154.409.008.161.118.295.22.419.346.418.652.867.937 1.329a2.22 2.22 0 0 0 2.298 1.844l5.542-.303a2.227 2.227 0 0 0 2.069-1.868 7.624 7.624 0 0 1 1.501 1.496c.795.99-1.05 3.364-.865 5.019-2.033 8.8 10.782 11.188 10.952 2.2v-.013c.005-.39.005-.786-.003-1.193.689-.81.966-1.949.728-2.983z"/><path fill="#9E7C3B" d="M31.867 19.343c-.932.732-1.057 1.476-.878 2.492.016.089.074.299.077.373-.003.205.002.263.041.424a1.64 1.64 0 0 1-.029.401c-.059.118-.253.253-.686.543-.758.514-2.888.829-2.879 3.005-.013.565-.024.98.157 1.518a.773.773 0 0 0 1.512-.318c-.053-.251-.154-.306-.13-.938.007-.367-.012-.67.19-.865l.456-.339c.821-.485 1.059-.445 1.559-.785.846-.564 1.358-.953 1.39-1.982.014-.349-.002-.398-.039-.607.005-.304-.022-.38-.101-.703-.104-.59-.12-.774.68-1.259l.253-.163c-.467-.347-1.022-.571-1.573-.797z"/><path fill="#B6925A" d="M30.503 25.598a12.324 12.324 0 0 0-2.139-.18c-.997 0-3.066.127-4.088 1.092-3.355 10.479 10.528 13.05 10.703 3.804v-.013c.005-.39.005-.786-.003-1.193.017-.02.027-.045.043-.066-.842-1.611-3.256-3.206-4.516-3.444z"/><path fill="#9E7C3B" d="M1.477 2.981c.616.345.828.524 1.799.524.534 0 1.047-.07 1.75-.426-.522-.54-.767-.999-1.51-1.139l-.016.001c-.842-.172-1.721.3-2.023 1.04zM4.266 28.298c.008-.505-.124-.773-.258-1.041-.1-.343-.167-.484-.411-.819-.786-1.121-1.575-1.013-2.524-1.168 1.498 3.049 1.236 3.075 3.193 3.028zM8.274 9.343a.767.767 0 0 0-.476.489 11.32 11.32 0 0 0 2.292-.054c.046-.036-.093.062.381-.248.833-.276 1.339-1.18 1.454-2.013.043-.284.096-.575.09-.856a.772.772 0 0 0-.772-.759h-.013a.772.772 0 0 0-.759.785c.002.164-.084.899-.235 1.107-.057.079-.166.227-.244.268-.193.063-.372.141-.523.287-.336.167-.927.73-1.195.994zM19.292 31.924c-.379.13-.494.281-.631.339-.866.36-.769.601-2.437.555-.345-.009-.564-.095-.779-.163-.055-.017-.112-.03-.122-.036a1.58 1.58 0 0 0-.169-.126c-.124-.075-.238-.108-.229-.098a1.875 1.875 0 0 0-.288-.183c-.486-.286-.359-.103-1.294-.467-1-.387-1.518-.362-2.484-.34-.124-.025-.309.013-.459.028-.491.047-.499-.016-1.25.233-.031.01-1.569.339-1.599.344.507.381 1.03.727 1.573 1.03l.095.096c.757-.167.269-.168 1.319-.268 1.55-.149 1.859.077 2.847.427.373.132.271.01.658.24.164.128.192.133.384.213.225.184.402.222.717.323.541.192 1.032.188 1.17.192 1.906.05 2.243-.394 2.901-.669.254-.105.4-.242.547-.307.428-.148.538-.347 1.082-.69.096-.06.272-.173.266-.195.099.038.781.499.868.56.211-.294.506-.974.641-1.308-1.521-1.004-1.661-.912-3.327.27zM26.075 18.729c-.144.111-.34.141-.663.272-.168.07-.5.074-.878.35-.594.432-.749 1.038-.959 1.678a5.4 5.4 0 0 0-.168.584c.491.373.932.812 1.324 1.298.043-.334.169-1.001.298-1.361.157-.435.222-.81.415-.951.018-.013.114-.037.172-.051.297-.074 1.026-.307 1.402-.597a.772.772 0 1 0-.943-1.222zM15.408 2.035c-.035-.004-.066-.002-.1-.005.617 1.51 2.029 2.029 3.67.945-.04-.007-.072-.006-.113-.015-.002-.104.035-.16-.202-.436-1.172-1.367-1.552-1.053-3.255-.489zM13.429 11.252c-.106.077-.251.145-.424.291-.682.577-.998 1.352-.671 2.327.169.954-.504 1.947-.332 2.576l-.097 1.076a.759.759 0 0 0 .318.679c.37-.425.811-.866 1.299-1.446.013-.152.043-.299-.013-.514.03-.188.622-1.754.296-2.837l-.045-.241c-.006-.036-.015-.064-.029-.024.123-.41.312-.42.611-.642a.772.772 0 1 0-.913-1.245zM21.759 4.698c-.688.239-.693 1.221.001 1.46.092.072.121.08.213.133.085.22.234.349.325.418l.056.067c.425.508.883.976 1.552 1.012.113.033.205.059.455.056 1.349.243 2.374.502 2.928.498l.965.101c.208-.48.28-1.016.217-1.53l-1.081-.114-.048-.011-.082.01c-.497-.005-2.592-.543-2.882-.481a1.042 1.042 0 0 0-.382-.076c-.194-.104-.493-.515-.596-.618-.101-.313-.406-.537-.698-.69-.376-.335-.72-.311-.943-.235zM26.738 15.198c.306-.07.623.017.933.064.49.073.942-.01 1.07-.489 1.193.125 1.927.12 2.845.022-.262-.245-1.118-.884-1.969-1.331-.921-.635-2.903-.38-3.897-.95-.495-.283-1.079-.41-1.677-1.02-.45-.503-.826-.953-.826-.953a.773.773 0 0 0-1.237.924c.035.048.686.824.835.975.688.751.627.508.686.952.113.824.213.783.783 1.317.23.216.424.388.721.589a.716.716 0 0 0 .216.11c.23.148.04.028.659.333l.028-.005.351.166a.008.008 0 0 0-.004-.002c-.124-.322.176-.632.483-.702zM35.702 26.126c-.131-.567-.938-1.598-1.227-2.226-.945 1.671-.808 3.712.503 5.205a3.477 3.477 0 0 0 .724-2.979zM4.512 24.283a1.52 1.52 0 0 0 .58-.172c.282-.091.648-.112 1.059-.297 1.35-.608.715-.885 2.63-.284.383.168.564.162 1.034.128.836-.036 1.499-.34 1.411-.355l.286-.029c-.266-.405-.427-.906-.462-1.516a.769.769 0 0 0-.179.052c-.403.123-.453.276-1.118.305-.106.007-.251.031-.354-.001-.395-.17-.75-.22-1.016-.315-.389-.137-.739-.139-1.125-.141-.533-.007-.825.215-1.074.376-1.029.658-.8.31-1.842.714a1.795 1.795 0 0 0-.775.27.773.773 0 0 0 .027 1.544c.44 0 .759-.246.918-.279zM13.079 21.311c.139.202.274.406.403.615.056.327.19.624.371.885 2.783-.268 2.831-1.037 3.745-2.079.658-.758 1.013-1.19 1.885-1.444 1.576-.459 3.156.12 3.259.137.587.272 1.217-.243 1.095-.872l-.085-.441c-.284-.096-.545-.199-.697-.195-1.216-.415-2.866-.442-4.004-.112-1.228.358-1.782.953-2.618 1.913-.84.967-.717 1.154-1.502 1.337-.798.185-1.16.239-1.852.256zM4.775 18.258c.377-.196.422-.229.691-.403.566-.369.288-.163.783-.471.326-.206.287-.152.304-.181.307.13.707.529 1.318.646.309.059.541.02.644.046.084.02.163.033.201.021.087.039.295.152.357.206.034.731.651 1.048 1.145.81a.77.77 0 0 0 .396-.94c-.009-.574-.364-.969-.85-1.263-.455-.279-.638-.307-.879-.332-.278-.069-.663-.053-.559-.055-.643.011-1.251-1.202-2.631-.426-.203.114-1.338.807-1.363.822-.349.67-.636 1.371-.859 2.095.584-.136.892-.362 1.302-.575zM18.489 26.712c.047-.049.293-.186.447-.259.186-.088.41-.207.615-.388a5.2 5.2 0 0 0-1.675-.795c-.281.171-.522.326-.745.699-.117.163-.214.318-.254.547l.01-.081c-.415.316-.545.57-.83 1.338a2.06 2.06 0 0 0-.054.183l-.225-.008a.772.772 0 0 0 0 1.544c.948.034 1.473-.085 1.727-1.182.021-.055.224-.559.237-.582.169-.165.571-.35.653-.907a.331.331 0 0 0-.003.042c.039-.058.078-.115.097-.151z"/><path fill="#E3C288" d="M29.89 35.266c-1.642-.001-3.286-.784-4.289-2.046-1.078-1.354-1.395-3.159-.919-5.218.35-1.515 2.812-1.678 3.855-1.678.616 0 1.282.056 1.779.15 1.28.242 3.998 2.17 4.006 3.747-.088 4.679-3.415 5.045-4.432 5.045z"/><path fill="#FADC98" d="M29.728 34.345c-1.192-.207-1.143-.325-1.755-1.015-1.032-1.165-1.697-.341-2.718-2.407-.27-.545-.091-1.887.047-2.482.346-1.496 3.271-1.568 4.748-1.288 1.146.217 3.41 1.879 3.375 3.218-.043 1.65-.646 3.393-2.252 3.802-.049.013-.093.036-.141.051-.691.216-.881.194-1.304.121z"/></svg>
