<svg viewBox="0 0 36 36" xmlns="http://www.w3.org/2000/svg"><path d="m35.36 1.58c-1.36-1.41-1.91-.16-3.36-1.15s-2.94-.36-8.5 2.93c-5.1 3-6.52 7.31-5.37 9.38a3 3 0 0 1 0 3.23 18.65 18.65 0 0 1 -1.82 2.56l1 .76 1.69-1.8a7.85 7.85 0 0 1 5.55-2.08c2.61 0 5.6-1.92 8.34-6.76 2.66-4.65 3.82-5.65 2.47-7.07z" fill="#688f47"/><path d="m32.74 23.38a1.46 1.46 0 0 1 -.26-1.08 4.43 4.43 0 0 0 -.63-3.53 8.33 8.33 0 0 0 -4.59-2.54h-.15l-.4-.07c-5.26-.8-10.32 3.31-10.32 3.31l.67 1s5.72-3.54 7.33 3.06-2.09 9.75-2.09 9.75a.49.49 0 0 0 .16.88 2.66 2.66 0 0 0 .75 0 4 4 0 0 0 1-.19 8 8 0 0 0 2.91-1.63 1.5 1.5 0 0 1 .88-.34l1.17-.23a7.08 7.08 0 0 0 2-1.13 8.31 8.31 0 0 0 1.75-2 4.69 4.69 0 0 0 -.18-5.26z" fill="#688f47"/><path d="m16.92 12.06c-1.65-3.06-4.92-5.34-8.08-6.69-4.49-1.92-7.67-.31-8.66 3.43a3.1 3.1 0 0 0 .15 2c0 .06 1.11 2.27 4.68 2.23 3.3 0 2.32 1.42 6.1.5.34-.08.7-.17 1.13-.3a7 7 0 0 1 1-.12 5.17 5.17 0 0 1 .84.06 1.75 1.75 0 0 1 1.38 2.12 16.75 16.75 0 0 1 -1.26 5l1.8 1.24a21.23 21.23 0 0 0 1.36-4.34 7.21 7.21 0 0 0 -.44-5.13z" fill="#77b255"/><path d="m29.75 21.53a5.91 5.91 0 0 0 -6.27-3.05.65.65 0 0 1 -.59-.22c-.51-.6-2-1.75-5.27.32a13.06 13.06 0 0 0 -1.23.86l.67 1s5.72-3.54 7.33 3.06-2.09 9.75-2.09 9.75a.49.49 0 0 0 .16.88 2.66 2.66 0 0 0 .75 0 4 4 0 0 0 1-.19 8 8 0 0 0 2.91-1.63 5.53 5.53 0 0 0 1.26-3.55.71.71 0 0 1 .21-.49 5.66 5.66 0 0 0 1.16-6.74z" fill="#77b255"/><g fill="#dd2e44"><path d="m21.21 28.51a9.17 9.17 0 0 1 -.45 1.13 9.17 9.17 0 0 0 .45-1.13z"/><path d="m20.37 30.35.06-.1z"/><path d="m20.07 30.81.3-.46c-.1.16-.19.31-.3.46z"/><path d="m20.43 30.25.28-.51c-.09.17-.18.35-.28.51z"/><path d="m21.21 28.51a8.65 8.65 0 0 0 -2.13-8.77c-.18-.17-.36-.35-.55-.51l-2.81-2.35-.13-.09a8.64 8.64 0 0 0 -12.59 11.6 2.45 2.45 0 0 1 .32 2.13l-1.32 4.15a1 1 0 0 0 1.43 1.2l3.85-2a2.43 2.43 0 0 1 2.15-.07 8.64 8.64 0 0 0 10.17-2.34 6.7 6.7 0 0 0 .45-.6 8.66 8.66 0 0 0 1.16-2.35z"/></g><path d="m9.28 30.36a1 1 0 0 0 .52.09 1 1 0 0 0 .35-1.93 10.3 10.3 0 0 1 -3.54-2.68 1 1 0 0 0 -1.42-.22 1 1 0 0 0 -.19 1.43 12.1 12.1 0 0 0 4.28 3.31z" fill="#ad2d36"/><path d="m20.76 29.64a.47.47 0 0 0 -.05.1.47.47 0 0 1 .05-.1z" fill="#ad2d36"/><path d="m11.7 24.86a1 1 0 1 0 -1.27 1.59c.67.54 5.68 4.43 9.63 4.37a7.93 7.93 0 0 0 .65-1.08.47.47 0 0 1 .05-.1 9.17 9.17 0 0 0 .45-1.13c-2.11 1.19-6.91-1.57-9.51-3.65z" fill="#ad2d36"/><path d="m21.4 13.13a.49.49 0 0 1 -.4-.77c1-1.59 6.08-7.71 9.65-9.7a.5.5 0 0 1 .49.87c-3.26 1.82-8.14 7.68-9.31 9.37a.51.51 0 0 1 -.43.23z" fill="#77b255"/><path d="m6.7 7.41a.5.5 0 1 0 .13 1c3.76-.51 7.65 1.24 8.79 1.8-.18-.23-.38-.46-.58-.69a14.06 14.06 0 0 0 -1.26-1.17 15.61 15.61 0 0 0 -7.08-.94z" fill="#a6d388"/></svg>