<?xml version="1.0" encoding="UTF-8" standalone="no"?>
<svg
   viewBox="0 0 36 36"
   version="1.1"
   id="svg4"
   sodipodi:docname="1fadb.svg"
   inkscape:version="1.3 (0e150ed6c4, 2023-07-21)"
   xmlns:inkscape="http://www.inkscape.org/namespaces/inkscape"
   xmlns:sodipodi="http://sodipodi.sourceforge.net/DTD/sodipodi-0.dtd"
   xmlns="http://www.w3.org/2000/svg"
   xmlns:svg="http://www.w3.org/2000/svg">
  <defs
     id="defs4" />
  <sodipodi:namedview
     id="namedview4"
     pagecolor="#ffffff"
     bordercolor="#000000"
     borderopacity="0.25"
     inkscape:showpageshadow="2"
     inkscape:pageopacity="0.0"
     inkscape:pagecheckerboard="0"
     inkscape:deskcolor="#d1d1d1"
     inkscape:zoom="7.2083333"
     inkscape:cx="5.3410405"
     inkscape:cy="24.624277"
     inkscape:window-width="1366"
     inkscape:window-height="697"
     inkscape:window-x="-8"
     inkscape:window-y="-8"
     inkscape:window-maximized="1"
     inkscape:current-layer="svg4" />
  <path
     id="path5"
     style="fill:#77b255;fill-opacity:1;stroke-width:5.99999;stroke-linecap:round"
     d="M 24.34344,24.343439 C 31.795555,16.891324 33.965595,6.9790985 31.493249,4.5067501 29.020899,2.0344017 19.108673,4.2044423 11.656558,11.656558 4.204442,19.108673 2.0344012,29.020899 4.5067503,31.493249 6.9790979,33.965596 16.891324,31.795554 24.34344,24.343439 Z"
     sodipodi:nodetypes="szszs" />
  <path
     id="path9"
     style="fill:#5c913b;fill-opacity:1;stroke-width:5.99999;stroke-linecap:round"
     d="m 29.505201,3.6368991 -2.191904,2.625509 C 22.689454,7.2515177 18.069379,9.4115978 14.412111,13.068865 10.504352,16.976622 8.3040268,21.982117 7.4177067,26.918337 L 3.6619252,29.655763 C 2.9182606,25.751344 5.4563842,17.855795 11.655737,11.656441 17.776542,5.5356369 25.551148,2.9848786 29.505201,3.6368991 Z"
     sodipodi:nodetypes="ccsccsc" />
  <circle
     style="fill:#a6d388;fill-opacity:1;stroke-width:6;stroke-linecap:round"
     id="path8"
     cx="25.350218"
     cy="-7.6583018"
     r="3.8511674"
     transform="matrix(0.64098716,0.7675516,0.7675516,-0.64098716,0,0)" />
  <circle
     style="fill:#a6d388;fill-opacity:1;stroke-width:6;stroke-linecap:round"
     id="circle8"
     cx="26.080074"
     cy="2.6715353"
     r="3.8511674"
     transform="matrix(0.64098716,0.7675516,0.7675516,-0.64098716,0,0)" />
  <circle
     style="fill:#a6d388;fill-opacity:1;stroke-width:6;stroke-linecap:round"
     id="circle9"
     cx="23.520401"
     cy="12.705791"
     r="3.8511674"
     transform="matrix(0.64098716,0.7675516,0.7675516,-0.64098716,0,0)" />
  <path
     id="path7"
     style="fill:#5c913b;fill-opacity:1;stroke-width:5.99999;stroke-linecap:round"
     d="m 29.505201,3.6368991 c 0.359396,0.059262 0.690284,0.1408023 0.982387,0.2527867 0.09111,0.03493 0.177843,0.073496 0.261866,0.113529 0.02204,0.010416 0.04352,0.021011 0.06509,0.031783 0.0688,0.034635 0.136174,0.070794 0.199806,0.1089906 0.03766,0.02232 0.0732,0.046044 0.108989,0.069632 0.04856,0.032318 0.0987,0.063777 0.143802,0.098388 0.08091,0.061598 0.156422,0.1261493 0.22554,0.1952678 0.07301,0.073006 0.142761,0.1545418 0.207379,0.2406742 0.02064,0.027311 0.03921,0.057715 0.05904,0.086282 0.03488,0.050748 0.06913,0.1012978 0.101414,0.155912 0.03408,0.057041 0.06564,0.1174443 0.09688,0.1786129 0.01729,0.034155 0.03354,0.069068 0.04995,0.1044481 0.03354,0.071766 0.06548,0.1456609 0.09537,0.2225133 0.0022,0.00558 0.0054,0.01102 0.0075,0.016679 1.344503,3.5054384 -1.089254,12.1543483 -7.766756,18.8318503 -6.677505,6.677505 -15.3264154,9.111261 -18.8318522,7.766758 -0.00558,-0.0022 -0.011091,-0.0053 -0.016686,-0.0075 -0.07685,-0.02989 -0.1507427,-0.06182 -0.2225117,-0.09536 -0.035364,-0.01642 -0.070302,-0.03267 -0.1044482,-0.04995 -0.061179,-0.03123 -0.1215829,-0.06279 -0.1786121,-0.09688 -0.044199,-0.02613 -0.083965,-0.05543 -0.1256339,-0.08325 -0.043633,-0.02938 -0.087901,-0.05804 -0.1286634,-0.08931 -0.080945,-0.06167 -0.1594002,-0.126194 -0.2285281,-0.195322 -0.072905,-0.07291 -0.1413061,-0.153086 -0.2058661,-0.23916 -0.019763,-0.02612 -0.037007,-0.05598 -0.056002,-0.08325 C 4.2086013,31.118794 4.1735133,31.06541 4.14021,31.009059 4.106295,30.952269 4.072907,30.892853 4.041819,30.831957 4.024536,30.797807 4.008285,30.762887 3.991869,30.727509 3.958326,30.655749 3.92639,30.581847 3.896506,30.504997 c -0.00225,-0.0058 -0.00535,-0.01078 -0.00754,-0.01669 -0.096293,-0.251012 -0.1697133,-0.531385 -0.2270718,-0.83253 L 7.4176757,26.91835 c -0.033197,0.184897 -0.067573,0.369259 -0.097095,0.553898 5.1138063,-0.817763 10.3494123,-3.03754 14.4033703,-7.091498 4.054252,-4.054252 6.273881,-9.289202 7.091497,-14.4033676 -0.500236,0.080002 -1.000816,0.1777898 -1.50218,0.2850388 z"
     sodipodi:nodetypes="cscccccscccccscscccccccscccccsccccsccc" />
</svg>
