<?xml version="1.0" encoding="UTF-8"?><svg id="Layer_3" xmlns="http://www.w3.org/2000/svg" viewBox="0 0 36 36"><defs><style>.cls-1{fill:#f1b777;}.cls-2{fill:#ea9e48;}.cls-3{fill:#ffd875;}</style></defs><path class="cls-1" d="m16.4,26.75c.52.82,1.17,2,1.81,3.58.69,1.71,2.05,3.05,3.8,3.64.05.02.09.03.14.05,3.88,1.31,8.02-1.13,8.75-5.15h0c.22-1.19-.05-2.42-.74-3.42l-1.32-1.9c-.3-.43-.25-1.01.13-1.37,1.35-1.29,4.18-4.55,3.34-8.56-.08-.4-2.81-4.11-6.72-1.05h0c-.52.51-.69,1.29-.4,1.96.36.84.71,2.15.48,3.73-.04.27-.41.32-.51.07-.42-.99-1.31-2.54-2.93-3.14-.42-.16-.71-.55-.71-1,0-.25,0-.57,0-.98s.25-.78.63-.91c1.17-.42,3.61-1.55,4.37-3.8,0,0,.49-1.47-.59-2.35-.9-.74-2.29-.51-3.01.4-.38.48-.96.95-1.75.95,0,0,.08-.78.06-1.73-.04-1.68-1.26-3.09-2.92-3.37h-.08c-2.49-.42-5.71.1-7.88,2.44-.51.55-1.01,1.1-1.2,1.83-.6,2.35-1.33,8.02,2.85,14.83,0,0-3.43-.77-4.95-4.31-.41-.96-1.43-1.51-2.46-1.3h0c-1.4.28-2.51,1.36-2.81,2.76h0c-.41,1.87.14,3.82,1.47,5.2,1.9,1.96,5.27,3.9,10.54,2.02.98-.35,2.07,0,2.63.88Z"/><path class="cls-3" d="m29.06,27.58c-.69-1.6-3.11-2.09-5.41-1.1-2.3.99-3.6,3.09-2.91,4.69.69,1.6,3.11,2.09,5.41,1.1s3.6-3.09,2.91-4.69Z"/><path class="cls-2" d="m20.21,24.17c-1.56,1.01-2.54,2.4-3.17,3.69.19.35.39.74.59,1.17.52-1.35,1.46-2.96,3.12-4.03,2.16-1.39,5.07-1.59,8.66-.63l-.58-.84c-.08-.11-.13-.24-.16-.36-3.43-.74-6.27-.42-8.46,1Z"/><path class="cls-2" d="m3.22,23.85c.14.14.29.29.45.43-.14-1.9.23-3.4,1.09-4.48.83-1.04,1.96-1.47,2.77-1.65-.17-.28-.34-.59-.48-.92-.93.25-2.13.79-3.06,1.94-.83,1.03-1.27,2.37-1.33,3.98.17.25.36.48.57.7Z"/><path class="cls-2" d="m10.02,20.64c-.51-.32-1.07-.74-1.59-1.3-.78.65-1.84,1.79-2.25,3.48-.24,1-.23,2.04.04,3.11.7.3,1.47.52,2.34.63-.53-1.17-.68-2.26-.44-3.24.34-1.42,1.4-2.32,1.9-2.68Z"/><path class="cls-2" d="m16.9,19.3c1.98-2.42,5.18-3.07,6.72-3.24-.36-.33-.78-.62-1.27-.82-1.83.36-4.42,1.23-6.21,3.42-1.49,1.82-2.12,4.2-1.92,7.1.34-.05.69-.02,1.01.08-.22-2.7.33-4.9,1.68-6.54Z"/><path class="cls-2" d="m21.5,14.06c0-.23,0-.5,0-.85,0-.41.25-.78.63-.91.06-.02.13-.05.2-.08-2.73-1.63-5.39-2.16-7.93-1.55-2.46.59-4.27,2.13-5.4,3.39.15.78.35,1.59.63,2.44.64-.94,2.46-3.22,5.25-3.89,2.06-.49,4.29,0,6.62,1.45Z"/><path class="cls-2" d="m8.94,7.5c-.08.43-.16.91-.21,1.46,2.43-2.11,7.03-5.05,12.46-3.32-.02-.39-.1-.77-.25-1.12-5.04-1.36-9.34.91-12,2.98Z"/><path class="cls-2" d="m23.92,5.83c-.36.13-.69.35-.95.65.76.34,1.62.87,2.09,1.71.35.62.43,1.34.27,2.16.41-.42.76-.91,1.02-1.48-.08-.41-.21-.8-.42-1.17-.48-.86-1.25-1.45-2.01-1.86Z"/><path class="cls-2" d="m32.43,14.53c-1.28-1.21-2.63-1.88-4.03-1.98-1.4-.09-2.54.41-3.3.87-.09.36-.07.74.08,1.09,0,.01.01.03.02.05.54-.41,1.7-1.12,3.14-1.01,1.39.1,2.76.91,4.06,2.39.05-.45.07-.92.03-1.41Z"/><path class="cls-2" d="m28.45,15.35c-.97-.3-1.96-.25-2.96.12.08.31.14.65.18,1.02.85-.36,1.68-.43,2.48-.18,1.46.44,2.56,1.77,3.21,2.75.18-.33.34-.68.49-1.05-.76-1.03-1.91-2.21-3.41-2.66Z"/></svg>