<?xml version="1.0" encoding="UTF-8"?><svg id="Layer_3" xmlns="http://www.w3.org/2000/svg" viewBox="0 0 36 36"><defs><style>.cls-1{fill:#69b546;}.cls-2{fill:#9bd57f;}.cls-3{fill:#4e932b;}</style></defs><path class="cls-3" d="m28,5C12,5,2.03,33.73,2.03,33.73c.01.24.21.42.45.4l8.78-5.46s.36-.61.83-1.4c.75.3,1.57.45,2.43.4,2.85-.15,5.11-2.34,5.44-5.08,2.58-.88,4.38-3.35,4.31-6.19,3.64-.44,6.18-4.23,4.61-8.08-.62-1.52.75-3.33-.89-3.33Z"/><circle class="cls-2" cx="7.7" cy="30.6" r="3.3"/><path class="cls-3" d="m7,25s-2,4,1.7,6c.26.14,2.46-1.81,2.38-1.4s-3.68-4.49-3.68-4.49l-.4-.11Z"/><circle class="cls-2" cx="12.16" cy="26.74" r="5.16"/><path class="cls-3" d="m11,20s-4,2,1,8l4,1-5-9Z"/><circle class="cls-2" cx="15.5" cy="21.5" r="5.5"/><path class="cls-3" d="m13.8,15.12s-1.32,6.87,5.2,8.88l1.42-1.14-6.63-7.74Z"/><circle class="cls-2" cx="19.75" cy="16.33" r="5.58"/><path class="cls-3" d="m19.27,9.73s-1.49,5.78,2.9,8.38l5.69-2.55-8.6-5.83Z"/><circle class="cls-2" cx="24.44" cy="11.46" r="4.96"/><path class="cls-1" d="m2.35,34.03c1.85-.87,16.65-12.03,26.9-25.56l1.71,1s-9.96,28.53-28.57,24.76c-.1-.02-.13-.15-.04-.2Z"/><path class="cls-3" d="m32.64,3.18c2.46.88,2.24-1.04,1.69-1.62-.81-.84-2.22-.94-3.3-.07-.35.28-.83.89-1.32,1.59-.2.29-.57.38-.89.25-2.85-1.16-5.8-1.23-9.4.4,0,0,2.41,3.35,7.37,3.46,0,0-3.37,3.24-.99,8.24,0,0,3.35-2.41,3.42-5.71,0,0,1.6,2.51,4.91,2.58,0,0-.61-5.8-3.37-7.95-.18-.14-.16-.43.04-.56.74-.47,1.43-.77,1.87-.61Z"/></svg>