<svg xmlns="http://www.w3.org/2000/svg" style="isolation:isolate" viewBox="0 0 36 36" xmlns:xlink="http://www.w3.org/1999/xlink"><defs><clipPath id="a"><path d="M0 0h36v36H0z"/></clipPath><path fill="#F5F8FA" d="M11.5 25A5.5 5.5 0 0 1 6 19.5c0-1.235 2.464-1.5 5.5-1.5s5.5.265 5.5 1.5c0 3.036-2.464 5.5-5.5 5.5m13 0a5.5 5.5 0 0 1-5.5-5.5c0-1.235 2.464-1.5 5.5-1.5s5.5.265 5.5 1.5c0 3.036-2.464 5.5-5.5 5.5" id="b"/></defs><g clip-path="url(#a)"><circle vector-effect="non-scaling-stroke" cx="18" cy="18" r="18" fill="#FFCC4D"/><path d="M7.171 26.628C6.342 26.349 6 25.799 6 25.181a1.467 1.467 0 0 1 2.32-1.195A5.47 5.47 0 0 0 11.5 25c3.036 0 5.5-2.464 5.5-5.5 0 4.139-3.361 7.5-7.5 7.5a7.3 7.3 0 0 1-2.329-.372m21.658 0c.829-.279 1.171-.829 1.171-1.447a1.467 1.467 0 0 0-2.32-1.195A5.47 5.47 0 0 1 24.5 25a5.5 5.5 0 0 1-5.5-5.5c0 4.139 3.361 7.5 7.5 7.5.813 0 1.598-.126 2.329-.372" fill="#F4900C"/><use xlink:href="#b"/><clipPath id="c"><use xlink:href="#b"/></clipPath><g clip-path="url(#c)"><path d="M9 19.5a2.5 2.5 0 0 1 5 0 2.5 2.5 0 0 1-5 0m13 0a2.5 2.5 0 0 1 5 0 2.5 2.5 0 0 1-5 0" fill="#664500"/></g><path d="M6.707 16.707a.999.999 0 1 1-1.414-1.414C5.683 14.902 8.995 12 14 12a1 1 0 0 1 0 2c-4.239 0-6.902 2.317-7.293 2.707m22.586 0a.999.999 0 1 0 1.414-1.414C30.317 14.902 27.005 12 22 12a1 1 0 0 0 0 2c4.239 0 6.902 2.317 7.293 2.707M18 28c3.145 0 4.823.872 5.342 1.06s.786.763.598 1.282a1 1 0 0 1-1.282.598C22.14 30.751 20.486 30 18 30s-4.14.751-4.658.94a1 1 0 0 1-1.282-.598 1 1 0 0 1 .598-1.282C13.177 28.872 14.855 28 18 28" fill="#664500"/></g></svg>