<svg viewBox="0 0 36 36" xmlns="http://www.w3.org/2000/svg"><path d="m.01.01h35.98v35.98h-35.98z" fill="none"/><path d="m36 18a18 18 0 1 1 -18-18 18 18 0 0 1 18 18z" fill="#ffcc4d"/><path d="m5.71 16.82a3 3 0 0 0 -.3 3.18s0 .05 0 .07a5.72 5.72 0 0 0 9.05 1.72l.07-.07a6.76 6.76 0 0 0 1.92-4.8z" fill="#f4900c"/><path d="m30.29 16.82h-10.78a6.76 6.76 0 0 0 1.92 4.8.46.46 0 0 0 .07.07 5.72 5.72 0 0 0 9-1.72v-.07a3 3 0 0 0 -.21-3.08z" fill="#f4900c"/><path d="m6.22 12.84a1 1 0 0 1 -.51-.37 1 1 0 0 1 .23-1.4 10.43 10.43 0 0 1 8.75-1.86 1 1 0 1 1 -.59 1.91 8.41 8.41 0 0 0 -7 1.57 1 1 0 0 1 -.88.15z" fill="#664500"/><path d="m14.88 14.89-7.72.58a1.54 1.54 0 0 0 -1.3 2.19 5.72 5.72 0 0 0 10.63-.8 1.55 1.55 0 0 0 -1.61-1.97z" fill="#fff"/><g fill="#664500"><path d="m11.65 18.7c1.38 0 2.5-1.57 2.5-3.5 0-.09 0-.17 0-.25l-5 .37c.06 1.87 1.15 3.38 2.5 3.38z"/><path d="m21 27a1 1 0 0 1 -.3 0 8.68 8.68 0 0 0 -5.38 0 1 1 0 1 1 -.62-2 10.63 10.63 0 0 1 6.6 0 1 1 0 0 1 .64 1.26 1 1 0 0 1 -.94.74z"/><path d="m28.89 12.69a8.39 8.39 0 0 0 -7-1.57 1 1 0 0 1 -.59-1.91 10.43 10.43 0 0 1 8.75 1.86 1 1 0 0 1 .23 1.4 1 1 0 0 1 -.51.37 1 1 0 0 1 -.88-.15z"/></g><path d="m21.12 14.89 7.72.58a1.54 1.54 0 0 1 1.3 2.19 5.72 5.72 0 0 1 -10.63-.8 1.55 1.55 0 0 1 1.61-1.97z" fill="#fff"/><path d="m24.35 18.7c-1.38 0-2.5-1.57-2.5-3.5 0-.09 0-.17 0-.25l5 .37c-.06 1.87-1.15 3.38-2.5 3.38z" fill="#664500"/></svg>