<svg xmlns="http://www.w3.org/2000/svg" viewBox="0 0 36 36"><path fill="#ffcc4d" d="M29.23 6.77c6.203 6.202 6.203 16.258 0 22.46-6.202 6.203-16.258 6.203-22.46 0-6.203-6.202-6.203-16.258 0-22.46 6.202-6.203 16.258-6.203 22.46 0" style="stroke-width:.882357"/><ellipse cy="31.82" fill="#664500" rx="4.228" ry="4.756" style="stroke-width:1.38392" transform="rotate(-45)"/><ellipse cx="-5.766" cy="21.213" fill="#664500" rx="2.403" ry="3.364" style="stroke-width:.961007" transform="rotate(-45)"/><ellipse cx="5.766" cy="21.213" fill="#664500" rx="2.403" ry="3.364" style="stroke-width:.961007" transform="rotate(-45)"/><path d="M19.085 6.607a.664.664 0 0 1 .893-.79c3.387 1.372 4.188 4.185 4.22 4.304a.664.664 0 0 1-.47.818.676.676 0 0 1-.821-.475c-.029-.1-.686-2.297-3.422-3.406a.678.678 0 0 1-.4-.451Zm-8.163 16.79a.664.664 0 0 1-.893.79c-3.387-1.372-4.187-4.184-4.22-4.304a.664.664 0 0 1 .47-.818.676.676 0 0 1 .822.475c.029.1.685 2.297 3.421 3.407a.678.678 0 0 1 .4.45z" style="display:inline;fill:#c08400;fill-opacity:1;stroke-width:.669934"/><path d="M.774 30.06c.213.088.412.263.53.489 1.589 3.028 3.972 4.059 4.073 4.102.383.161.66.579.619.932-.042.355-.384.514-.768.356-.129-.053-3.164-1.333-5.128-5.075-.2-.38-.091-.76.241-.846a.688.688 0 0 1 .433.043zm.985-4.022c.338.139.654.416.842.774 2.523 4.81 6.307 6.447 6.468 6.516.609.256 1.05.92.983 1.48-.066.564-.61.816-1.22.566-.204-.084-5.025-2.118-8.143-8.061-.318-.604-.146-1.205.382-1.343.216-.057.456-.027.688.068zM35.226 5.939a1.076 1.076 0 0 1-.53-.488c-1.589-3.028-3.972-4.059-4.073-4.102-.383-.161-.66-.579-.619-.932.042-.355.384-.514.768-.356.129.053 3.164 1.333 5.128 5.075.2.38.091.76-.241.846a.688.688 0 0 1-.433-.043zm-.985 4.023a1.71 1.71 0 0 1-.842-.774c-2.523-4.81-6.307-6.447-6.468-6.516-.609-.256-1.05-.92-.983-1.48.066-.564.61-.816 1.22-.566.204.084 5.025 2.118 8.143 8.061.318.604.146 1.205-.382 1.343a1.093 1.093 0 0 1-.688-.068z" style="fill:#5dadec;fill-opacity:1;stroke-width:.686406"/></svg>
