<svg xmlns="http://www.w3.org/2000/svg" viewBox="0 0 36 36"><g opacity=".5"><path fill="#F9CA55" d="M28 18c0 7.73-6.27 14-14 14-7.732 0-14-6.27-14-14C0 10.269 6.268 4 14 4c7.73 0 14 6.269 14 14"/><ellipse fill="#65471B" cx="7" cy="16" rx="2" ry="3"/><ellipse fill="#65471B" cx="17" cy="16" rx="2" ry="3"/><circle fill="#65471B" cx="12" cy="25" r="3"/></g><g opacity=".8"><path fill="#F9CA55" d="M36 18c0 7.73-6.27 14-14 14-7.732 0-14-6.27-14-14 0-7.731 6.268-14 14-14 7.73 0 14 6.269 14 14"/><ellipse fill="#65471B" cx="19" cy="16" rx="2" ry="3"/><ellipse fill="#65471B" cx="29" cy="16" rx="2" ry="3"/><circle fill="#65471B" cx="24" cy="25" r="3"/></g><g fill="#55ACEE"><path d="M4.806 35.536a.742.742 0 0 1-.375-.101 15.013 15.013 0 0 1-3.97-3.332.75.75 0 1 1 1.149-.965 13.546 13.546 0 0 0 3.573 2.998.751.751 0 0 1-.377 1.4zM6.357 33.346a.742.742 0 0 1-.375-.101 13.465 13.465 0 0 1-3.539-2.97.75.75 0 1 1 1.149-.965 11.841 11.841 0 0 0 3.142 2.637.751.751 0 0 1-.377 1.399zM31.194 35.536a.751.751 0 0 1-.376-1.4 13.485 13.485 0 0 0 3.573-2.997.751.751 0 0 1 1.149.965 15.054 15.054 0 0 1-3.97 3.331.758.758 0 0 1-.376.101zM29.643 33.346a.751.751 0 0 1-.376-1.4 11.887 11.887 0 0 0 3.142-2.637.75.75 0 0 1 1.149.965 13.372 13.372 0 0 1-3.539 2.97.737.737 0 0 1-.376.102zM1.035 5.129a.749.749 0 0 1-.574-1.233A14.997 14.997 0 0 1 4.431.565a.75.75 0 0 1 .751 1.299 13.485 13.485 0 0 0-3.573 2.997.745.745 0 0 1-.574.268zM3.017 6.957a.749.749 0 0 1-.574-1.232 13.371 13.371 0 0 1 3.538-2.971.751.751 0 0 1 .752 1.299 11.887 11.887 0 0 0-3.142 2.636.747.747 0 0 1-.574.268zM34.965 5.129a.749.749 0 0 1-.575-.268 13.546 13.546 0 0 0-3.573-2.998.751.751 0 0 1 .751-1.299 15.013 15.013 0 0 1 3.97 3.332.75.75 0 0 1-.573 1.233zM32.983 6.957a.747.747 0 0 1-.575-.268 11.841 11.841 0 0 0-3.142-2.637.751.751 0 0 1 .751-1.299 13.465 13.465 0 0 1 3.539 2.97.75.75 0 0 1-.573 1.234z"/></g></svg>
