<?xml version="1.0" encoding="UTF-8"?><svg id="Layer_3" xmlns="http://www.w3.org/2000/svg" xmlns:xlink="http://www.w3.org/1999/xlink" viewBox="0 0 36 36"><defs><style>.cls-1{fill:none;}.cls-2{clip-path:url(#clippath);}.cls-3{fill:#694400;}.cls-4{fill:#ffcb26;}.cls-5{fill:#b68600;}.cls-6{fill:#4facf0;}</style><clipPath id="clippath"><rect class="cls-1" x="5.98" y="5.98" width="24.04" height="24.04" transform="translate(-7.46 18) rotate(-45)"/></clipPath></defs><g class="cls-2"><path class="cls-4" d="m26.5,26.5c-4.69,4.69-12.31,4.69-17,0-4.69-4.69-4.69-12.31,0-17s12.31-4.69,17,0c4.69,4.69,4.69,12.31,0,17Z"/><path class="cls-5" d="m14.93,13.99c.65.65,1.92.44,2.83-.47.91-.91,1.12-2.18.47-2.83s-1.92-.44-2.83.47-1.12,2.18-.47,2.83Z"/><path class="cls-5" d="m16.35,15.4c.65.65,1.92.44,2.83-.47.91-.91,1.12-2.18.47-2.83s-1.92-.44-2.83.47-1.12,2.18-.47,2.83Z"/><path class="cls-5" d="m22.01,21.07c.65.65,1.92.44,2.83-.47s1.12-2.18.47-2.83-1.92-.44-2.83.47-1.12,2.18-.47,2.83Z"/><path class="cls-5" d="m20.6,19.65c.65.65,1.92.44,2.83-.47s1.12-2.18.47-2.83-1.92-.44-2.83.47-1.12,2.18-.47,2.83Z"/><path class="cls-3" d="m12.33,23.67c1.04,1.04,2.95.83,4.25-.47s1.52-3.21.47-4.25-2.95-.83-4.25.47-1.52,3.21-.47,4.25Z"/></g><g><path class="cls-6" d="m21.89,33.66c-.46,0-.88-.32-.98-.79-.11-.54.23-1.07.77-1.19,8.4-1.78,9.92-9.63,9.99-9.96.1-.54.62-.9,1.16-.81s.9.62.81,1.16c-.02.09-1.79,9.5-11.54,11.57-.07.01-.14.02-.21.02Z"/><path class="cls-6" d="m27.2,35.99c-.46,0-.88-.32-.98-.79-.11-.54.23-1.07.77-1.19,5.89-1.25,6.97-6.75,7.01-6.99.1-.54.62-.9,1.16-.8.54.1.9.61.81,1.16-.05.29-1.33,7.06-8.57,8.59-.07.01-.14.02-.21.02Z"/><path class="cls-6" d="m3.34,15.1c-.07,0-.14,0-.21-.02-.54-.11-.89-.65-.77-1.19C4.43,4.15,13.83,2.37,13.93,2.36c.55-.1,1.06.27,1.16.81.1.54-.27,1.06-.81,1.16-.35.06-8.18,1.6-9.96,9.99-.1.47-.52.79-.98.79Z"/><path class="cls-6" d="m1.01,9.8c-.07,0-.14,0-.21-.02-.54-.11-.89-.65-.77-1.19C1.56,1.36,8.34.08,8.62.03c.55-.1,1.06.27,1.16.81.1.54-.27,1.06-.81,1.16-.26.05-5.74,1.14-6.99,7.01-.1.47-.51.79-.98.79Z"/></g><path class="cls-3" d="m15.64,14.69c.65.65,1.92.44,2.83-.47.91-.91,1.12-2.18.47-2.83s-1.92-.44-2.83.47-1.12,2.18-.47,2.83Z"/><path class="cls-3" d="m21.31,20.36c.65.65,1.92.44,2.83-.47s1.12-2.18.47-2.83-1.92-.44-2.83.47-1.12,2.18-.47,2.83Z"/></svg>