<svg xmlns="http://www.w3.org/2000/svg" viewBox="0 0 36 36"><path fill="#EF9645" d="M4.557 17.671A10.854 10.854 0 0 1 4 14.239v-1.574c0-.683.412-1.268 1-1.525l-.239-7.985C4.866 1.925 5.934 1 7.168 1c.48 0 .881.366.923.844L9 12l4 12s4.013.94 9 2 12 2 12 2l.05 8-21.55-3.74a12.966 12.966 0 0 1-2.898-.86l-.722-.308c-3.031-1.299-5.165-3.084-5.631-6.348a7.464 7.464 0 0 1 .308-3.415c.288-.863 1.288-2.795 1-3.658z"/><path fill="#FFDC5D" d="M3.557 17.671A10.854 10.854 0 0 1 3 14.239v-1.574c0-.683.412-1.268 1-1.525l.761-8.985C4.866.925 5.934 0 7.168 0c.48 0 .881.366.923.844L9 11l4 12s4.013.94 9 2 12 2 12 2l.05 8-21.55-3.74a12.966 12.966 0 0 1-2.898-.86l-.722-.308c-3.031-1.299-5.165-3.084-5.631-6.348a7.464 7.464 0 0 1 .308-3.415 4.197 4.197 0 0 0 0-2.658z"/><path fill="#EF9645" d="M8 22c-3.031-1.299-3.285 4.008-3.751.744a7.464 7.464 0 0 1 .308-3.415 4.197 4.197 0 0 0 0-2.658A10.854 10.854 0 0 1 4 13.239v-1.574a1.664 1.664 0 0 1 3.29-.361L9 21l-1 1z"/><path fill="#FFDC5D" d="M12.499 31.26a12.966 12.966 0 0 1-2.898-.86l-.721-.308c-3.031-1.299-5.165-3.084-5.631-6.348a7.464 7.464 0 0 1 .308-3.415 4.197 4.197 0 0 0 0-2.658A10.854 10.854 0 0 1 3 14.239v-1.574a1.665 1.665 0 0 1 3.29-.361L8 20l1.482 5.434 6.523 6.434-3.506-.608z"/></svg>
