<?xml version="1.0" encoding="UTF-8" standalone="no"?>
<svg
   viewBox="0 0 36 36"
   version="1.1"
   id="svg4"
   sodipodi:docname="1faf7.svg"
   inkscape:version="1.3 (0e150ed6c4, 2023-07-21)"
   xmlns:inkscape="http://www.inkscape.org/namespaces/inkscape"
   xmlns:sodipodi="http://sodipodi.sourceforge.net/DTD/sodipodi-0.dtd"
   xmlns="http://www.w3.org/2000/svg"
   xmlns:svg="http://www.w3.org/2000/svg">
  <defs
     id="defs4">
    <inkscape:path-effect
       effect="fillet_chamfer"
       id="path-effect6"
       is_visible="true"
       lpeversion="1"
       nodesatellites_param="F,0,0,1,0,0,0,1 @ F,0,0,1,0,0,0,1 @ F,0,0,1,0,0,0,1 @ F,0,0,1,0,0,0,1 @ F,0,0,1,0,0,0,1 @ F,0,0,1,0,0,0,1 @ F,0,0,1,0,0,0,1 @ F,0,0,1,0,0,0,1 @ F,0,0,1,0,0,0,1 @ F,0,0,1,0,0,0,1 @ F,0,0,1,0,0,0,1 @ F,0,0,1,0,0,0,1 @ F,0,0,1,0,0,0,1 @ F,0,0,1,0,0,0,1 @ F,0,0,1,0,0,0,1 @ F,0,0,1,0,0,0,1 @ F,0,0,1,0,0,0,1 @ F,0,0,1,0,0,0,1 @ F,0,0,1,0,0,0,1 @ F,0,0,1,0,0,0,1 @ F,0,0,1,0,0,0,1 @ F,0,0,1,0,0,0,1 @ F,0,0,1,0,0,0,1 @ F,0,0,1,0,0,0,1 @ F,0,0,1,0,0,0,1 @ F,0,0,1,0,0,0,1 @ F,0,0,1,0,0,0,1 @ F,0,0,1,0,0,0,1 @ F,0,0,1,0,0,0,1 @ F,0,0,1,0,0,0,1 @ F,0,0,1,0,0,0,1 @ F,0,0,1,0,0,0,1 @ F,0,0,1,0,0,0,1 @ F,0,0,1,0,0,0,1 @ F,0,0,1,0,0,0,1 @ F,0,0,1,0,0,0,1 @ F,0,0,1,0,0,0,1 @ F,0,0,1,0,0,0,1 @ F,0,0,1,0,0,0,1 @ F,0,0,1,0,0,0,1 @ F,0,0,1,0,0,0,1 @ F,0,0,1,0,0,0,1 @ F,0,0,1,0,0,0,1 @ F,0,0,1,0,0,0,1 @ F,0,0,1,0,0,0,1 @ F,0,0,1,0,0,0,1 @ F,0,0,1,0,0,0,1 @ F,0,0,1,0,0,0,1 @ F,0,0,1,0,0,0,1 @ F,0,0,1,0,0,0,1 @ F,0,0,1,0,0,0,1 @ F,0,0,1,0,0,0,1 @ F,0,0,1,0,0,0,1 @ F,0,0,1,0,1.2753947,0,1 @ F,0,1,1,0,1.2753947,0,1 @ F,0,0,1,0,0,0,1 @ F,0,0,1,0,0,0,1 @ F,0,0,1,0,0,0,1"
       radius="0"
       unit="px"
       method="auto"
       mode="F"
       chamfer_steps="1"
       flexible="false"
       use_knot_distance="true"
       apply_no_radius="true"
       apply_with_radius="true"
       only_selected="false"
       hide_knots="false" />
  </defs>
  <sodipodi:namedview
     id="namedview4"
     pagecolor="#ffffff"
     bordercolor="#000000"
     borderopacity="0.25"
     inkscape:showpageshadow="2"
     inkscape:pageopacity="0.0"
     inkscape:pagecheckerboard="0"
     inkscape:deskcolor="#d1d1d1"
     inkscape:zoom="7.2083333"
     inkscape:cx="11.306358"
     inkscape:cy="20.878613"
     inkscape:window-width="1366"
     inkscape:window-height="697"
     inkscape:window-x="-8"
     inkscape:window-y="-8"
     inkscape:window-maximized="1"
     inkscape:current-layer="svg4" />
  <path
     id="path2"
     d="m 11.95322,2.5752085 c -0.856999,0 -1.617014,0.9242356 -1.721279,2.1542969 L 9.4702221,13.715834 c -0.088228,0.03856 -0.1704946,0.08612 -0.25,0.138672 -0.013819,0.0096 -0.027492,0.01933 -0.041016,0.0293 -0.1324938,0.09343 -0.2494774,0.204908 -0.3496094,0.332032 -0.00994,0.01223 -0.019707,0.0246 -0.029297,0.03711 -0.1001117,0.134762 -0.1804402,0.28354 -0.2363281,0.445313 -0.00265,0.0065 -0.00525,0.013 -0.00781,0.01953 -0.054367,0.164164 -0.085939,0.338919 -0.085939,0.521481 v 1.574218 c 0.00442,0.519904 0.046198,1.038819 0.125,1.552735 0.017477,0.121416 0.037011,0.242527 0.058594,0.363281 0.087723,0.514166 0.2123953,1.021339 0.3730468,1.517578 0.014363,0.04275 0.028037,0.08572 0.041016,0.128906 l 0.00195,0.0059 c 0.00534,0.01884 0.010549,0.03772 0.015625,0.05664 0.00808,0.02661 0.015891,0.05331 0.023437,0.08008 0.00964,0.03763 0.018754,0.0754 0.027344,0.113283 0.00198,0.0085 0.00393,0.01692 0.00586,0.02539 6.566e-4,0.0039 0.00131,0.0078 0.00195,0.01172 0.00912,0.04218 0.01758,0.08451 0.025391,0.126953 0.00199,0.01041 0.00395,0.02083 0.00586,0.03125 0.00337,0.01756 0.00662,0.03514 0.00977,0.05273 0.00269,0.01561 0.0053,0.03124 0.00781,0.04687 6.549e-4,0.0033 0.00131,0.0065 0.00195,0.0098 0.00423,0.0299 0.00814,0.05985 0.011719,0.08984 0.0043,0.03316 0.00821,0.06636 0.011719,0.09961 0.00361,0.03121 0.00686,0.06246 0.00977,0.09375 0.00305,0.03512 0.00565,0.07028 0.00781,0.105469 7.058e-4,0.01237 0.00136,0.02474 0.00195,0.03711 8.062e-4,0.02083 0.00146,0.04166 0.00195,0.0625 0.00359,0.100228 0.00359,0.200554 0,0.300782 -4.958e-4,0.02084 -0.00115,0.04167 -0.00195,0.0625 -5.963e-4,0.01237 -0.00125,0.02474 -0.00195,0.03711 -0.00117,0.01954 -0.00247,0.03907 -0.00391,0.05859 -0.00124,0.01368 -0.00254,0.02735 -0.00391,0.04102 v 0.0059 c -0.0029,0.03129 -0.00616,0.06254 -0.00977,0.09375 -0.00351,0.03325 -0.00742,0.06645 -0.011719,0.09961 -0.00358,0.02999 -0.00749,0.05994 -0.011719,0.08984 -0.00603,0.03654 -0.012539,0.073 -0.019531,0.109375 -0.00191,0.01042 -0.00387,0.02084 -0.00586,0.03125 -0.00781,0.04245 -0.016275,0.08477 -0.025391,0.126953 -6.455e-4,0.0039 -0.0013,0.0078 -0.00195,0.01172 -0.00915,0.04116 -0.018914,0.08218 -0.029297,0.123047 -0.00129,0.0052 -0.00259,0.01042 -0.00391,0.01563 -0.00755,0.02677 -0.01536,0.05346 -0.023437,0.08008 -0.00508,0.01892 -0.010285,0.0378 -0.015625,0.05664 l -0.00195,0.0059 c -0.012979,0.04319 -0.026652,0.08616 -0.041016,0.128906 -0.3666437,1.099279 -0.4722976,2.268827 -0.3085937,3.416016 0.4077496,2.855997 1.7121898,5.561309 4.5390628,5.835937 l 13.0105,1.26396 a 1.1506952,1.1506952 0 0 0 1.26194,-1.152049 l -0.03583,-6.110411 a 1.1902526,1.1902526 0 0 0 -1.279292,-1.179937 l -7.971977,0.598206 C 15.905691,25.750571 15.343445,23.838331 15.0945,20.927809 L 13.700747,4.6328313 C 13.578369,3.2020463 12.810219,2.5752085 11.95322,2.5752085 Z"
     style="fill:#ffdc5d;fill-opacity:1"
     sodipodi:nodetypes="zscccccccsccccccccccccccccccccccccccccccccccccccccccsccsssz" />
  <path
     id="path3"
     d="m 11.097175,12.569349 c -0.671782,0.01956 -1.3344222,0.413653 -1.5527341,1.134766 a 1.665,1.665 0 0 1 2.2148441,1.175782 l 1.710937,7.695311 0.515625,1.888672 1.171875,-0.251953 -2.398437,-10.33203 c -0.198922,-0.914985 -0.935786,-1.331694 -1.66211,-1.310548 z"
     style="fill:#ef9645;fill-opacity:1" />
</svg>
