<?xml version="1.0" encoding="UTF-8"?><svg id="Layer_3" xmlns="http://www.w3.org/2000/svg" viewBox="0 0 36 36"><defs><style>.cls-1{fill:#c08851;}.cls-2{fill:#dda97e;}</style></defs><path class="cls-1" d="m19.5,31c.64,0,1.28-.24,1.77-.73,5.45-5.45,7.95-24.78,8.21-26.96.17-1.37-.81-2.62-2.18-2.78-1.38-.17-2.62.81-2.78,2.18-.93,7.6-3.59,20.84-6.79,24.04-.98.98-.98,2.56,0,3.54.49.49,1.13.73,1.77.73Z"/><g><path class="cls-2" d="m7.1,25.33l8.75,1.15c2.15.51,3.94-1.06,5.01-2.8l.17-.38c1.3-2.86,2.22-5.87,2.73-8.97l1.92-11.69c.14-1.21,1.16-2.12,2.38-2.12h0c1.34,0,2.41,1.1,2.39,2.43l-.22,12.21c0,.07.02.14.05.21.78,1.3,1.35,3.72-.04,7.88.15.77.44,1.48.92,2.69,1.28,4.82-2.35,9.55-7.34,9.55H7.33c-1.53,0-2.76-1.24-2.76-2.76v-5.16c0-1.35,1.19-2.4,2.54-2.22Z"/><path class="cls-1" d="m23.79,26.47c.77-1.68,1.11-3.93,1.47-5.82.22-1.26.42-2.55.6-3.81.05-1.6,1.43-2.97,3.04-2.74.47.01.92.11,1.35.26l-.02.86c-1.24-.57-2.76-.43-3.19,1.06-.44,3.71-.43,7.3-1.67,10.9-.47,1.09-2.09.36-1.59-.71Z"/></g><path class="cls-1" d="m9.45,34h13.22c1.55,0,3.09-.15,4.61-.46l2.04-.41c-1.37,1.43-3.3,2.35-5.49,2.35H7.33c-1.25,0-2.3-.84-2.64-1.98,1.57.32,3.16.5,4.76.5Z"/></svg>