<?xml version="1.0" encoding="UTF-8" standalone="no"?>
<svg
   viewBox="0 0 36 36"
   version="1.1"
   id="svg4"
   sodipodi:docname="1faf8.svg"
   inkscape:version="1.3 (0e150ed6c4, 2023-07-21)"
   xmlns:inkscape="http://www.inkscape.org/namespaces/inkscape"
   xmlns:sodipodi="http://sodipodi.sourceforge.net/DTD/sodipodi-0.dtd"
   xmlns="http://www.w3.org/2000/svg"
   xmlns:svg="http://www.w3.org/2000/svg">
  <defs
     id="defs4">
    <inkscape:path-effect
       effect="fillet_chamfer"
       id="path-effect6"
       is_visible="true"
       lpeversion="1"
       nodesatellites_param="F,0,0,1,0,0,0,1 @ F,0,0,1,0,0,0,1 @ F,0,0,1,0,0,0,1 @ F,0,0,1,0,0,0,1 @ F,0,0,1,0,0,0,1 @ F,0,0,1,0,0,0,1 @ F,0,0,1,0,0,0,1 @ F,0,0,1,0,0,0,1 @ F,0,0,1,0,0,0,1 @ F,0,0,1,0,0,0,1 @ F,0,0,1,0,0,0,1 @ F,0,0,1,0,0,0,1 @ F,0,0,1,0,0,0,1 @ F,0,0,1,0,0,0,1 @ F,0,0,1,0,0,0,1 @ F,0,0,1,0,0,0,1 @ F,0,0,1,0,0,0,1 @ F,0,0,1,0,0,0,1 @ F,0,0,1,0,0,0,1 @ F,0,0,1,0,0,0,1 @ F,0,0,1,0,0,0,1 @ F,0,0,1,0,0,0,1 @ F,0,0,1,0,0,0,1 @ F,0,0,1,0,0,0,1 @ F,0,0,1,0,0,0,1 @ F,0,0,1,0,0,0,1 @ F,0,0,1,0,0,0,1 @ F,0,0,1,0,0,0,1 @ F,0,0,1,0,0,0,1 @ F,0,0,1,0,0,0,1 @ F,0,0,1,0,0,0,1 @ F,0,0,1,0,0,0,1 @ F,0,0,1,0,0,0,1 @ F,0,0,1,0,0,0,1 @ F,0,0,1,0,0,0,1 @ F,0,0,1,0,0,0,1 @ F,0,0,1,0,0,0,1 @ F,0,0,1,0,0,0,1 @ F,0,0,1,0,0,0,1 @ F,0,0,1,0,0,0,1 @ F,0,0,1,0,0,0,1 @ F,0,0,1,0,0,0,1 @ F,0,0,1,0,0,0,1 @ F,0,0,1,0,0,0,1 @ F,0,0,1,0,0,0,1 @ F,0,0,1,0,0,0,1 @ F,0,0,1,0,0,0,1 @ F,0,0,1,0,0,0,1 @ F,0,0,1,0,0,0,1 @ F,0,0,1,0,0,0,1 @ F,0,0,1,0,0,0,1 @ F,0,0,1,0,0,0,1 @ F,0,0,1,0,0,0,1 @ F,0,0,1,0,1.2753947,0,1 @ F,0,1,1,0,1.2753947,0,1 @ F,0,0,1,0,0,0,1 @ F,0,0,1,0,0,0,1 @ F,0,0,1,0,0,0,1"
       radius="0"
       unit="px"
       method="auto"
       mode="F"
       chamfer_steps="1"
       flexible="false"
       use_knot_distance="true"
       apply_no_radius="true"
       apply_with_radius="true"
       only_selected="false"
       hide_knots="false" />
  </defs>
  <sodipodi:namedview
     id="namedview4"
     pagecolor="#ffffff"
     bordercolor="#000000"
     borderopacity="0.25"
     inkscape:showpageshadow="2"
     inkscape:pageopacity="0.0"
     inkscape:pagecheckerboard="0"
     inkscape:deskcolor="#d1d1d1"
     inkscape:zoom="7.2083333"
     inkscape:cx="11.306358"
     inkscape:cy="20.878613"
     inkscape:window-width="1366"
     inkscape:window-height="697"
     inkscape:window-x="-8"
     inkscape:window-y="-8"
     inkscape:window-maximized="1"
     inkscape:current-layer="svg4" />
  <path
     id="path2"
     d="m 24.046781,2.5752085 c 0.856999,0 1.617014,0.9242356 1.721279,2.1542969 l 0.761719,8.9863286 c 0.08823,0.03856 0.170494,0.08612 0.25,0.138672 0.01382,0.0096 0.02749,0.01933 0.04102,0.0293 0.132494,0.09343 0.249477,0.204908 0.349609,0.332032 0.0099,0.01223 0.01971,0.0246 0.0293,0.03711 0.100112,0.134762 0.18044,0.28354 0.236328,0.445313 0.0026,0.0065 0.0053,0.013 0.0078,0.01953 0.05437,0.164164 0.08594,0.338919 0.08594,0.521481 v 1.574218 c -0.0044,0.519904 -0.0462,1.038819 -0.125,1.552735 -0.01748,0.121416 -0.03701,0.242527 -0.05859,0.363281 -0.08772,0.514166 -0.212395,1.021339 -0.373047,1.517578 -0.01436,0.04275 -0.02804,0.08572 -0.04102,0.128906 l -0.0019,0.0059 c -0.0053,0.01884 -0.01055,0.03772 -0.01563,0.05664 -0.0081,0.02661 -0.01589,0.05331 -0.02344,0.08008 -0.0096,0.03763 -0.01875,0.0754 -0.02734,0.113283 -0.002,0.0085 -0.0039,0.01692 -0.0059,0.02539 -6.56e-4,0.0039 -0.0013,0.0078 -0.0019,0.01172 -0.0091,0.04218 -0.01758,0.08451 -0.02539,0.126953 -0.002,0.01041 -0.0039,0.02083 -0.0059,0.03125 -0.0034,0.01756 -0.0066,0.03514 -0.0098,0.05273 -0.0027,0.01561 -0.0053,0.03124 -0.0078,0.04687 -6.54e-4,0.0033 -0.0013,0.0065 -0.002,0.0098 -0.0042,0.0299 -0.0081,0.05985 -0.01172,0.08984 -0.0043,0.03316 -0.0082,0.06636 -0.01172,0.09961 -0.0036,0.03121 -0.0069,0.06246 -0.0098,0.09375 -0.003,0.03512 -0.0056,0.07028 -0.0078,0.105469 -7.05e-4,0.01237 -0.0014,0.02474 -0.002,0.03711 -8.06e-4,0.02083 -0.0015,0.04166 -0.002,0.0625 -0.0036,0.100228 -0.0036,0.200554 0,0.300782 4.96e-4,0.02084 0.0012,0.04167 0.002,0.0625 5.97e-4,0.01237 0.0013,0.02474 0.002,0.03711 0.0012,0.01954 0.0025,0.03907 0.0039,0.05859 0.0012,0.01368 0.0025,0.02735 0.0039,0.04102 v 0.0059 c 0.0029,0.03129 0.0062,0.06254 0.0098,0.09375 0.0035,0.03325 0.0074,0.06645 0.01172,0.09961 0.0036,0.02999 0.0075,0.05994 0.01172,0.08984 0.006,0.03654 0.01254,0.073 0.01953,0.109375 0.0019,0.01042 0.0039,0.02084 0.0059,0.03125 0.0078,0.04245 0.01628,0.08477 0.02539,0.126953 6.46e-4,0.0039 0.0013,0.0078 0.002,0.01172 0.0092,0.04116 0.01891,0.08218 0.0293,0.123047 0.0013,0.0052 0.0026,0.01042 0.0039,0.01563 0.0075,0.02677 0.01536,0.05346 0.02344,0.08008 0.0051,0.01892 0.01028,0.0378 0.01563,0.05664 l 0.0019,0.0059 c 0.01298,0.04319 0.02665,0.08616 0.04102,0.128906 0.366644,1.099279 0.472298,2.268827 0.308594,3.416016 -0.407749,2.855997 -1.71219,5.561309 -4.539063,5.835937 l -13.0104996,1.26396 a 1.1506952,1.1506952 0 0 1 -1.26194,-1.152049 l 0.03583,-6.110411 a 1.1902526,1.1902526 0 0 1 1.279292,-1.179937 l 7.9719766,0.598206 c 2.336969,0.175361 2.899215,-1.736879 3.14816,-4.647401 L 22.299254,4.6328313 c 0.122378,-1.430785 0.890528,-2.0576228 1.747527,-2.0576228 z"
     style="fill:#ffdc5d;fill-opacity:1"
     sodipodi:nodetypes="zscccccccsccccccccccccccccccccccccccccccccccccccccccsccsssz" />
  <path
     id="path3"
     d="m 24.902826,12.569349 c 0.671782,0.01956 1.334422,0.413653 1.552734,1.134766 a 1.665,1.665 0 0 0 -2.214844,1.175782 l -1.710937,7.695311 -0.515625,1.888672 -1.171875,-0.251953 2.398437,-10.33203 c 0.198922,-0.914985 0.935786,-1.331694 1.66211,-1.310548 z"
     style="fill:#ef9645;fill-opacity:1" />
</svg>
