<svg xmlns="http://www.w3.org/2000/svg" viewBox="0 0 36 36"><path fill="#CCD6DD" d="M27.865 16.751c0-6.242-4.411-9.988-9.927-9.988s-9.835 3.746-9.835 9.988c0 3.48-.103 6.485 3.897 7.89v2.722c0 1.034.966 1.872 2 1.872 1.035 0 2-.838 2-1.872v-1.97 1.97c0 1.034.965 1.872 2 1.872 1.036 0 2-.838 2-1.872v-1.97 1.97c0 1.034.966 1.872 2 1.872s2-.838 2-1.872v-2.722c4-1.405 3.865-4.41 3.865-7.89z"/><path d="M 16.75,15.5029 c 0,1.724 0,3.121 -3.121,3.121 s -3.121,-1.397 -3.121,-3.121 s 1.397,-3.121 3.121,-3.121 c 1.723,0 3.121,1.397 3.121,3.121 Z" fill="#292f33"/><path d="M 25.4883,15.5029 c 0,1.724 0,3.121 -3.121,3.121 c -3.12,0 -3.12,-1.397 -3.12,-3.121 s 1.396,-3.121 3.12,-3.121 c 1.725,0 3.121,1.397 3.121,3.121 Z" fill="#292f33"/><path d="M 19.1865,21.1592 c -0.157,-0.382 -0.626,-0.662 -1.189,-0.662 c -0.561,0 -1.031,0.28 -1.187,0.662 c -0.395,0.11 -0.685,0.469 -0.685,0.898 c 0,0.517 0.419,0.936 0.936,0.936 c 0.409,0 0.753,-0.263 0.88,-0.628 c 0.019,0 0.037,0.004 0.056,0.004 c 0.02,0 0.038,-0.004 0.057,-0.004 c 0.128,0.365 0.472,0.628 0.88,0.628 c 0.517,0 0.937,-0.419 0.937,-0.936 c 0,-0.429 -0.291,-0.787 -0.685,-0.898 Z" fill="#292f33"/><path d="M11 27c0-.367.075-.713.195-1.038-.984-.447-1.831-1.082-2.503-1.97-1.107.969-2.163 1.876-3.127 2.695C4.985 26.26 4.275 26 3.5 26 1.567 26 0 27.566 0 29.5c0 1.778 1.33 3.229 3.046 3.454C3.271 34.671 4.722 36 6.5 36c1.933 0 3.5-1.566 3.5-3.5 0-.775-.26-1.485-.686-2.065.6-.706 1.246-1.46 1.931-2.25C11.088 27.821 11 27.421 11 27zm16.872-15.482c.884-.769 1.729-1.495 2.515-2.163.569.403 1.262.645 2.013.645 1.934 0 3.5-1.567 3.5-3.5 0-1.743-1.277-3.177-2.945-3.444C32.735 1.335 31.281 0 29.5 0 27.566 0 26 1.567 26 3.5c0 .775.26 1.485.687 2.065-.594.7-1.233 1.445-1.911 2.227 1.3.871 2.361 2.095 3.096 3.726zM3.5 10c.775 0 1.485-.26 2.065-.687.799.679 1.661 1.419 2.564 2.204.735-1.631 1.795-2.855 3.096-3.726-.679-.781-1.317-1.527-1.912-2.226.427-.58.687-1.29.687-2.065C10 1.567 8.433 0 6.5 0 4.722 0 3.271 1.33 3.046 3.046 1.33 3.271 0 4.722 0 6.5 0 8.433 1.567 10 3.5 10zm28.9 16c-.752 0-1.444.242-2.014.645-.952-.809-1.99-1.701-3.079-2.653-.672.889-1.519 1.523-2.503 1.971.121.324.196.67.196 1.037 0 .421-.088.821-.245 1.185.685.79 1.331 1.544 1.931 2.25-.426.58-.686 1.29-.686 2.065 0 1.934 1.566 3.5 3.5 3.5 1.781 0 3.235-1.334 3.455-3.056 1.668-.267 2.945-1.701 2.945-3.444 0-1.934-1.566-3.5-3.5-3.5z" fill="#AAB8C2"/></svg>
