<?xml version="1.0" encoding="utf-8"?>
<!-- Generator: Adobe Illustrator 26.0.2, SVG Export Plug-In . SVG Version: 6.00 Build 0)  -->
<svg version="1.1" id="Layer_3" xmlns="http://www.w3.org/2000/svg" xmlns:xlink="http://www.w3.org/1999/xlink" x="0px" y="0px"
	 viewBox="0 0 72 72" style="enable-background:new 0 0 72 72;" xml:space="preserve">
<style type="text/css">
	.st0{fill:#FFCC4D;}
	.st1{fill:#614613;}
	.st2{fill:#4FACF0;}
	.st3{fill:#C8D4D9;}
	.st4{fill:#E1E7EB;}
	.st5{fill:#EDF0F3;}
	.st6{fill:#9BA8B3;}
	.st7{fill:#FA743E;}
	.st8{fill:#3B88C3;}
	.st9{fill:none;}
	.st10{fill:#FFFFFF;}
	.st11{fill:#C6E5B3;}
	.st12{fill:#77B255;}
	.st13{fill:#4E932B;}
	.st14{fill:#F47C01;}
	.st15{fill:#F4531F;}
	.st16{fill:#FEA726;}
</style>
<g>
	<g>
		<path class="st3" d="M30.28,41.6l-4.24,4.24c2.36,2.36,2.37,6.17,0.03,8.51l-5.66,5.66c-2.34,2.34-6.16,2.33-8.51-0.03l-4.24,4.24
			c4.72,4.72,12.34,4.74,17.03,0.06l5.66-5.66C35.03,53.94,35,46.32,30.28,41.6z"/>
		<path class="st4" d="M28.29,45.26c-0.24-0.24-0.51-0.44-0.78-0.64l-1.35,1.35c2.24,2.37,2.23,6.08-0.08,8.38l-5.66,5.66
			c-2.3,2.3-6.02,2.32-8.38,0.08l-1.35,1.35c0.2,0.27,0.4,0.54,0.64,0.78c2.75,2.75,7.2,2.77,9.93,0.03l7.07-7.07
			C31.05,52.46,31.04,48.01,28.29,45.26z"/>
		<path class="st4" d="M17.64,45.93c2.34-2.34,6.16-2.33,8.51,0.03l4.24-4.24c-4.72-4.72-12.34-4.74-17.03-0.06l-5.66,5.66
			C3.03,52,3.06,59.62,7.78,64.34l4.24-4.24c-2.36-2.36-2.37-6.17-0.03-8.51L17.64,45.93z"/>
		<path class="st3" d="M26.86,43.83c-2.75-2.75-7.2-2.77-9.93-0.03l-7.07,7.07c-2.73,2.73-2.72,7.18,0.03,9.93
			c0.24,0.24,0.51,0.44,0.78,0.64l1.35-1.35c-2.24-2.37-2.22-6.08,0.08-8.38l5.66-5.66c2.3-2.3,6.02-2.32,8.38-0.08l1.35-1.35
			C27.3,44.35,27.11,44.08,26.86,43.83z"/>
		<path class="st3" d="M64.22,7.66l-4.24,4.24c2.36,2.36,2.37,6.17,0.03,8.51l-5.66,5.66c-2.34,2.34-6.16,2.33-8.51-0.03l-4.24,4.24
			c4.72,4.72,12.34,4.74,17.03,0.06l5.66-5.66C68.97,20,68.94,12.38,64.22,7.66z"/>
		<path class="st4" d="M62.23,11.31c-0.24-0.24-0.51-0.44-0.78-0.64l-1.35,1.35c2.24,2.37,2.23,6.08-0.08,8.38l-5.66,5.66
			c-2.3,2.3-6.02,2.32-8.38,0.08l-1.35,1.35c0.2,0.27,0.4,0.54,0.64,0.78c2.75,2.75,7.2,2.77,9.93,0.03l7.07-7.07
			C65,18.52,64.98,14.07,62.23,11.31z M51.59,11.99c2.34-2.34,6.16-2.33,8.51,0.03l4.24-4.24C59.62,3.06,52,3.03,47.31,7.72
			l-5.66,5.66C36.97,18.06,37,25.68,41.72,30.4l4.24-4.24c-2.36-2.36-2.37-6.17-0.03-8.51L51.59,11.99z"/>
		<path class="st3" d="M60.8,9.89c-2.75-2.75-7.2-2.77-9.93-0.03l-7.07,7.07c-2.73,2.73-2.72,7.18,0.03,9.93
			c0.24,0.24,0.51,0.44,0.78,0.64l1.35-1.35c-2.24-2.37-2.22-6.08,0.08-8.38l5.66-5.66c2.3-2.3,6.02-2.32,8.38-0.08l1.35-1.35
			C61.24,10.41,61.05,10.14,60.8,9.89z"/>
		<path class="st3" d="M9.13,68.53l-5.66-5.66l8.49-8.49c1.56-1.56,4.1-1.56,5.66,0c1.56,1.56,1.56,4.1,0,5.66L9.13,68.53z"/>
		<path class="st5" d="M17.62,54.38c-1.56-1.56-4.1-1.56-5.66,0l-8.49,8.49L6.3,65.7L17.62,54.38z"/>
		<path class="st3" d="M41.02,36.63L51.56,26.1c1.56-1.56,1.56-4.1,0-5.66c-1.56-1.56-4.1-1.56-5.66,0L35.37,30.98L41.02,36.63z"/>
		<path class="st3" d="M31.12,35.22L20.44,45.9c-1.56,1.56-1.56,4.1,0,5.66c1.56,1.56,4.1,1.56,5.66,0l10.68-10.68L31.12,35.22z"/>
		<path class="st5" d="M38.22,33.84l13.37-13.37c-1.58-1.58-4.12-1.59-5.68-0.02L35.36,30.98L38.22,33.84z"/>
		<path class="st5" d="M31.12,35.22L20.44,45.9c-1.56,1.56-1.56,4.1,0,5.66l13.51-13.51L31.12,35.22z"/>
		<path class="st3" d="M68.53,9.13l-5.66-5.66l-8.49,8.49c-1.56,1.56-1.56,4.1,0,5.66c1.56,1.56,4.1,1.56,5.66,0L68.53,9.13z"/>
		<path class="st5" d="M54.38,17.62c-1.56-1.56-1.56-4.1,0-5.66l8.49-8.49L65.7,6.3L54.38,17.62z"/>
		
			<ellipse transform="matrix(0.7071 -0.7071 0.7071 0.7071 -12.7228 36.9097)" class="st6" cx="38.19" cy="33.81" rx="0.96" ry="4"/>
		
			<ellipse transform="matrix(0.7071 -0.7071 0.7071 0.7071 -16.9654 35.1523)" class="st5" cx="33.95" cy="38.06" rx="0.96" ry="4"/>
		<path class="st3" d="M34.63,37.38c1.56,1.56,2.52,3.13,2.15,3.51c-0.37,0.37-1.95-0.59-3.51-2.15"/>
	</g>
	<g>
		<path class="st7" d="M48.46,49.5c-0.26,0-0.51-0.1-0.71-0.29l-5.59-5.59c-0.39-0.39-0.39-1.02,0-1.41s1.02-0.39,1.41,0l5.59,5.59
			c0.39,0.39,0.39,1.02,0,1.41C48.97,49.4,48.71,49.5,48.46,49.5z"/>
		<path class="st7" d="M57.15,45.31c-0.12,0-0.25-0.02-0.37-0.07l-11.79-4.7c-0.51-0.2-0.76-0.79-0.56-1.3
			c0.21-0.51,0.79-0.76,1.3-0.56l11.79,4.7c0.51,0.2,0.76,0.79,0.56,1.3C57.92,45.07,57.54,45.31,57.15,45.31z"/>
		<path class="st7" d="M44.27,58.19c-0.4,0-0.77-0.24-0.93-0.63l-4.7-11.79c-0.2-0.51,0.05-1.09,0.56-1.3
			c0.51-0.21,1.09,0.05,1.3,0.56l4.7,11.79c0.2,0.51-0.05,1.09-0.56,1.3C44.52,58.17,44.39,58.19,44.27,58.19z"/>
		<path class="st7" d="M29.09,30.13c-0.26,0-0.51-0.1-0.71-0.29l-5.59-5.59c-0.39-0.39-0.39-1.02,0-1.41s1.02-0.39,1.41,0l5.59,5.59
			c0.39,0.39,0.39,1.02,0,1.41C29.6,30.03,29.35,30.13,29.09,30.13z"/>
		<path class="st7" d="M32.38,27.65c-0.4,0-0.77-0.24-0.93-0.63l-4.7-11.79c-0.2-0.51,0.05-1.09,0.56-1.3
			c0.51-0.21,1.09,0.04,1.3,0.56l4.7,11.79c0.2,0.51-0.05,1.09-0.56,1.3C32.63,27.62,32.51,27.65,32.38,27.65z"/>
		<path class="st7" d="M26.6,33.43c-0.12,0-0.25-0.02-0.37-0.07l-11.79-4.7c-0.51-0.2-0.76-0.79-0.56-1.3
			c0.21-0.51,0.79-0.76,1.3-0.56l11.79,4.7c0.51,0.2,0.76,0.79,0.56,1.3C27.38,33.19,27,33.43,26.6,33.43z"/>
	</g>
</g>
</svg>
